<svg id="Calque_1" data-name="Calque 1" xmlns="http://www.w3.org/2000/svg" viewBox="0 0 200 200"><defs><style>.cls-1{fill:#5ba24b;}.cls-2{fill:#93cb8f;}.cls-3{fill:#afd7a9;}.cls-4{fill:#7fc376;}.cls-5{fill:#d2dba6;}.cls-6{fill:#bbbc54;}.cls-7{fill:#d5daa4;}.cls-8{fill:#529e4a;}.cls-9{fill:#b6cfa0;}.cls-10{fill:#a6c680;}.cls-11{fill:#5d9f51;}.cls-12{fill:#c0cf7a;}.cls-13{fill:#a9c79e;}.cls-14{fill:#d8e4b7;}.cls-15{fill:#7ec37b;}.cls-16{fill:#c8d499;}.cls-17{fill:#94c28c;}.cls-18{fill:#b7bc4d;}.cls-19{fill:#b7dbaf;}.cls-20{fill:#9ac786;}.cls-21{fill:#dfebbc;}.cls-22{fill:#94c267;}.cls-23{fill:#438d45;}.cls-24{fill:#98bb84;}.cls-25{fill:#387f41;}.cls-26{fill:#9acb98;}.cls-27{fill:#7cc274;}.cls-28{fill:#cbd695;}.cls-29{fill:#add7a9;}.cls-30{fill:#deeab9;}.cls-31{fill:#5c9650;}.cls-32{fill:#90c97f;}.cls-33{fill:#eff7ed;}.cls-34{fill:#d8e4af;}.cls-35{fill:#6eb362;}.cls-36{fill:#a6d29d;}.cls-37{fill:#62b455;}.cls-38{fill:#a8c8a3;}.cls-39{fill:#6cbe6c;}.cls-40{fill:#fcfdfa;}.cls-41{fill:#377c3f;}.cls-42{fill:#9cce88;}.cls-43{fill:#d0dd93;}.cls-44{fill:#a9d6ab;}.cls-45{fill:#a4c270;}.cls-46{fill:#8dbc76;}.cls-47{fill:#c4cdb8;}.cls-48{fill:#afce9c;}.cls-49{fill:#f7fbf4;}.cls-50{fill:#a4d3a3;}.cls-51{fill:#c6e2c1;}.cls-52{fill:#547e3d;}.cls-53{fill:#6aa94f;}.cls-54{fill:#88c672;}.cls-55{fill:#f9fcf6;}.cls-56{fill:#7bc272;}.cls-57{fill:#9dce89;}.cls-58{fill:#76bf64;}.cls-59{fill:#dee6b3;}.cls-60{fill:#c5e1ba;}.cls-61{fill:#b5d199;}.cls-62{fill:#d9db83;}.cls-63{fill:#dde5ae;}.cls-64{fill:#eff3eb;}.cls-65{fill:#e5e8b2;}.cls-66{fill:#98b784;}.cls-67{fill:#b7d6b5;}.cls-68{fill:#f4f9f1;}.cls-69{fill:#539c4b;}.cls-70{fill:#c6d77e;}.cls-71{fill:#f7f9f3;}.cls-72{fill:#5a8b43;}.cls-73{fill:#b0bd90;}.cls-74{fill:#81c479;}.cls-75{fill:#6ea952;}.cls-76{fill:#e0e8a8;}.cls-77{fill:#70af61;}.cls-78{fill:#548c43;}.cls-79{fill:#80b571;}.cls-80{fill:#b5bc44;}.cls-81{fill:#84c170;}.cls-82{fill:#9dcd80;}.cls-83{fill:#f5f9f2;}.cls-84{fill:#c8d278;}.cls-85{fill:#d5e0a0;}.cls-86{fill:#9bab41;}.cls-87{fill:#79b35f;}.cls-88{fill:#c9dc78;}.cls-89{fill:#aec256;}.cls-90{fill:#afd391;}.cls-91{fill:#f6f7f2;}.cls-92{fill:#e7f2e2;}.cls-93{fill:#c4c34b;}.cls-94{fill:#b5cd9c;}.cls-95{fill:#52763a;}.cls-96{fill:#c7c94d;}.cls-97{fill:#aaba42;}.cls-98{fill:#a0b393;}.cls-99{fill:#afd6a0;}.cls-100{fill:#8fc271;}.cls-101{fill:#f7faf3;}.cls-102{fill:#9ccd85;}.cls-103{fill:#cbd8a3;}.cls-104{fill:#a3d29a;}.cls-105{fill:#4a7d3e;}.cls-106{fill:#d1e3a7;}.cls-107{fill:#a7d49e;}.cls-108{fill:#88913c;}.cls-109{fill:#a1c99a;}.cls-110{fill:#6ba055;}.cls-111{fill:#9ecd7e;}.cls-112{fill:#b5d9a9;}.cls-113{fill:#71af62;}.cls-114{fill:#69ac5f;}.cls-115{fill:#79a858;}.cls-116{fill:#98cd8a;}.cls-117{fill:#bfdeb7;}.cls-118{fill:#67b158;}.cls-119{fill:#bdd8b0;}.cls-120{fill:#6ea65d;}.cls-121{fill:#abd197;}.cls-122{fill:#b6cfb2;}.cls-123{fill:#f5f8ee;}.cls-124{fill:#9dc186;}.cls-125{fill:#79b55e;}.cls-126{fill:#bdd7b2;}.cls-127{fill:#81bd79;}.cls-128{fill:#b6c865;}.cls-129{fill:#7fa850;}.cls-130{fill:#cbd97f;}.cls-131{fill:#9fce95;}.cls-132{fill:#96bf85;}.cls-133{fill:#b1d8a8;}.cls-134{fill:#9bab49;}.cls-135{fill:#528240;}.cls-136{fill:#d8e6ab;}.cls-137{fill:#f9fcf8;}.cls-138{fill:#67aa59;}.cls-139{fill:#bbdcae;}.cls-140{fill:#f6faf0;}.cls-141{fill:#83c576;}.cls-142{fill:#bacfa1;}.cls-143{fill:#93c27d;}.cls-144{fill:#6c9a54;}.cls-145{fill:#a9d1a3;}.cls-146{fill:#90b978;}.cls-147{fill:#b5d899;}.cls-148{fill:#6ca657;}.cls-149{fill:#5d6830;}.cls-150{fill:#9ecf89;}.cls-151{fill:#bbdcaa;}.cls-152{fill:#8bc67f;}.cls-153{fill:#7ec172;}.cls-154{fill:#a5d18a;}.cls-155{fill:#aeb346;}.cls-156{fill:#c0deae;}.cls-157{fill:#598544;}.cls-158{fill:#a4b98e;}.cls-159{fill:#a6d297;}.cls-160{fill:#b7daaa;}.cls-161{fill:#c1dbae;}.cls-162{fill:#85a252;}.cls-163{fill:#55974a;}.cls-164{fill:#bed1aa;}.cls-165{fill:#609d4d;}.cls-166{fill:#6e7d41;}.cls-167{fill:#5a843f;}.cls-168{fill:#91c482;}.cls-169{fill:#a2cc94;}.cls-170{fill:#f8fbf5;}.cls-171{fill:#bad7a1;}.cls-172{fill:#cfd286;}.cls-173{fill:#9dcf92;}.cls-174{fill:#7bc26d;}.cls-175{fill:#62a24a;}.cls-176{fill:#bbd7a3;}.cls-177{fill:#83b874;}.cls-178{fill:#c3d5b6;}.cls-179{fill:#8fc981;}.cls-180{fill:#afd7a8;}.cls-181{fill:#c4d190;}.cls-182{fill:#cadca9;}.cls-183{fill:#a5c469;}.cls-184{fill:#a6ac40;}.cls-185{fill:#f8faf7;}.cls-186{fill:#7db36d;}.cls-187{fill:#b1cea4;}.cls-188{fill:#a0cf8b;}.cls-189{fill:#a1cb8c;}.cls-190{fill:#bcd1b3;}.cls-191{fill:#64803c;}.cls-192{fill:#bddab1;}.cls-193{fill:#97ba7b;}.cls-194{fill:#94ca8a;}.cls-195{fill:#6a9957;}.cls-196{fill:#8fb77a;}.cls-197{fill:#739446;}.cls-198{fill:#a6d39e;}.cls-199{fill:#b0ce91;}.cls-200{fill:#d0d586;}.cls-201{fill:#a3cd9b;}.cls-202{fill:#9bb65e;}.cls-203{fill:#b7daa7;}.cls-204{fill:#8fc285;}.cls-205{fill:#aabc8b;}.cls-206{fill:#c5d7a8;}.cls-207{fill:#77b266;}.cls-208{fill:#6a9d5a;}.cls-209{fill:#54964b;}.cls-210{fill:#a8bf8b;}.cls-211{fill:#9bc892;}.cls-212{fill:#bdd18b;}.cls-213{fill:#405a2c;}.cls-214{fill:#b3c190;}.cls-215{fill:#c0d292;}.cls-216{fill:#b4ba7d;}.cls-217{fill:#bac46f;}.cls-218{fill:#e9ece1;}.cls-219{fill:#604e1e;}.cls-220{fill:#a6bd7e;}.cls-221{fill:#a0ac46;}.cls-222{fill:#8a843b;}.cls-223{fill:#959a51;}.cls-224{fill:#f5934a;}.cls-225{fill:#ef633b;}.cls-226{fill:#fbc596;}.cls-227{fill:#f17643;}.cls-228{fill:#f69c59;}.cls-229{fill:#f7a57b;}.cls-230{fill:#f3824b;}.cls-231{fill:#fab46c;}.cls-232{fill:#f3ddac;}.cls-233{fill:#f7aa97;}.cls-234{fill:#f7b5a1;}.cls-235{fill:#fcc78d;}.cls-236{fill:#f59455;}.cls-237{fill:#fbc186;}.cls-238{fill:#f17043;}.cls-239{fill:#f8ac71;}.cls-240{fill:#f17442;}.cls-241{fill:#f69c58;}.cls-242{fill:#ef5f39;}.cls-243{fill:#fbbd77;}.cls-244{fill:#fdce8f;}.cls-245{fill:#f27e4a;}.cls-246{fill:#faca8e;}.cls-247{fill:#f0dab9;}.cls-248{fill:#f59159;}.cls-249{fill:#fbc18a;}.cls-250{fill:#efd4a5;}.cls-251{fill:#f5c176;}.cls-252{fill:#ead5aa;}.cls-253{fill:#f2b080;}.cls-254{fill:#f0cf98;}.cls-255{fill:#f06e3c;}.cls-256{fill:#f3834a;}.cls-257{fill:#f27842;}.cls-258{fill:#f8a95a;}.cls-259{fill:#f38544;}.cls-260{fill:#f9ad6b;}.cls-261{fill:#f7a258;}.cls-262{fill:#f5c085;}.cls-263{fill:#ee5932;}.cls-264{fill:#e8c291;}.cls-265{fill:#f1723b;}.cls-266{fill:#ee562f;}.cls-267{fill:#ed4d2e;}.cls-268{fill:#f4926b;}.cls-269{fill:#ef6437;}.cls-270{fill:#f3b78c;}.cls-271{fill:#f5a57d;}.cls-272{fill:#f69963;}.cls-273{fill:#f49167;}.cls-274{fill:#ea522f;}.cls-275{fill:#f17540;}.cls-276{fill:#facab4;}.cls-277{fill:#f0b398;}.cls-278{fill:#f8b69c;}.cls-279{fill:#f4916b;}.cls-280{fill:#e97f7b;}</style></defs><title>carotte - 1-03</title><path class="cls-1" d="M22.3,20.68l-1,1.13a6.6,6.6,0,0,0,2.27,1.66c1.51.2,1.74-.67,1.72-2A12,12,0,0,0,22.3,20.68Z"/><path class="cls-2" d="M21.29,21.81l-.69.76c.79.54,2.31.71,2.19,1.9s1.08,2.23,1.15,3.5a1.88,1.88,0,0,0,.23.9c.83-2.1,2.77,1.35,4.08,1.29,2.1-.87-.13-2.3-1.27-2.92a9.58,9.58,0,0,1-2.23-1.71,2.65,2.65,0,0,0-1.19-2.06A6.6,6.6,0,0,1,21.29,21.81Z"/><path class="cls-3" d="M22.79,24.47c-.86,1.14-2.39-1.06-2.94.85,1.21,1.12,2.87,1.54,4.09,2.65C23.87,26.7,22.66,25.78,22.79,24.47Z"/><path class="cls-4" d="M25.69,22.66c-.73-.32.55-1.1-.41-1.17,0,1.31-.21,2.18-1.72,2a2.65,2.65,0,0,1,1.19,2.06c1.32-.41,4.53.15,3.58-2a8.57,8.57,0,0,1,1.44-.09C28.73,21.92,26.92,23.62,25.69,22.66Z"/><path class="cls-5" d="M36.9,10.11c-1.17.29-2.12,1.81-1.09,2.8A7.86,7.86,0,0,0,36.9,10.11Z"/><path class="cls-6" d="M38.15,10.6c.18-1-.6-.65-1.25-.49a7.86,7.86,0,0,1-1.09,2.8l.1.19,1.41,1.21a10.14,10.14,0,0,1,3.23-1.25c-.26-.85-.56-1.68-.86-2.51C39.56,11.53,37.93,11.84,38.15,10.6Z"/><path class="cls-7" d="M35.91,13.1c.26.64.63,1.24,1.41,1.21Z"/><path class="cls-8" d="M28.33,23.55c1,2.13-2.26,1.57-3.58,2A9.58,9.58,0,0,0,27,27.24c1.19-.6,1.87,1.06,3,1.22a4,4,0,0,0,1.73,2.21c-.23,3.08,2.62,5,4.37,7.17-.62-1.08.36-1.71.82-2.56-1.25-.46-1.45-2.55.24-2.35q-.51-.69-1-1.41l-.29-.75a13.18,13.18,0,0,0-2.49-1.91c1.52.69.49,2.25-.83,1.87-1.11.09-2.76-3.32-.65-2.43L31.6,28c-1.2-.56-.77-1.71-.65-2.73-.05-.32-.1-.65-.17-1a1,1,0,0,1-1-.83A8.57,8.57,0,0,0,28.33,23.55Z"/><path class="cls-9" d="M18.59,33.87c-1.89-1.21-.17,1.88.81,2.18-1.44,1.67,1.9,1.61,2.81,2.32-.48-1.53,1.77-.45,2.34,0-.53.23-1.09.4-1.64.6,0,.53,0,1.15-.68,1.19,0,.34.11.69.16,1.05.15,1.07-2.07.45-1.71,1.57,1,1.27,2.56-.33,3.81.31.23-.6-.07-1.09-.88-1.45-.37-.3-.88-.6-.64-1.15a27.69,27.69,0,0,1,4.46,1.28l-1.38-1.36c.53.2,1.6.64,1.39-.35a15.14,15.14,0,0,1-3.5-2.54c.49-1.06,3.49-.56.81-1.87C23.44,34.4,22,36.44,21,35,22.21,37.11,17.71,35.49,18.59,33.87Z"/><path class="cls-10" d="M18.59,33.87C17.71,35.49,22.21,37.11,21,35,20.72,33.94,19.44,34.19,18.59,33.87Z"/><path class="cls-11" d="M28.25,30.16c-1.31.06-3.25-3.39-4.08-1.29a16.48,16.48,0,0,0,1.07,1.42c.89.53,2.06,1,1.83,2.24L28.63,34l.62.32c.79.14,2.14,0,2.07-1-1,.56-2.51,1.13-3.3-.24-1.39-.86.83-1.63.79-2.74Z"/><path class="cls-12" d="M40.55,13.06a10.14,10.14,0,0,0-3.23,1.25,8.56,8.56,0,0,1,1,.36c2,.22.83,3.13,2.61,3.24a2.12,2.12,0,0,1-.52,1.92c.47-.23.92-.51,1.39-.75.61.19,1.34,1,1.79.14-1.32-.37-1.07-1.64-1.18-2.69-1.65-.75-.26-1.14.23-1.61l-.43-.35C41.8,15.77,40.51,13.87,40.55,13.06Z"/><path class="cls-13" d="M30.78,24.29l-1-.83A1,1,0,0,0,30.78,24.29Z"/><path class="cls-14" d="M40.89,17.91c-1.78-.11-.6-3-2.61-3.24,1.1.42.93,2-.29,1.49-1.74-.78-.24,1.71.8,1.76,1.2.08.62,1.43,1.11,2.15l.47-.24A2.12,2.12,0,0,0,40.89,17.91Z"/><path class="cls-15" d="M30,28.46c-1.16-.16-1.84-1.82-3-1.22,1.14.62,3.37,2.05,1.27,2.92l.56.12a4.52,4.52,0,0,1,2.72,1.06c-.2.65-.64,1.25-.21,1.92.07,1-1.28,1.18-2.07,1,0,.12,0,.37,0,.49.08,1-.71,1.77-.75,2.74.53.74,1.87.88,2,1.92a3.41,3.41,0,0,0,1.15,0c-.52-.5-1.62-.85-1.22-1.76A49.53,49.53,0,0,1,35.23,39c.61.34.85-.53,1-.95l-.16-.18c-1.75-2.15-4.6-4.09-4.37-7.17A4,4,0,0,1,30,28.46Z"/><path class="cls-16" d="M43.5,11.49c-1.92-.61-1.38,2-1.33,3.08C42.71,13.58,42.64,12.27,43.5,11.49Z"/><path class="cls-17" d="M25.24,30.29c.58.77,1.25,1.47,1.83,2.24C27.3,31.28,26.13,30.82,25.24,30.29Z"/><path class="cls-18" d="M43.5,11.49c-.86.78-.79,2.09-1.33,3.08l.43.35c.71,1.85,2,0,3,.89A4.93,4.93,0,0,0,47.7,13a3.72,3.72,0,0,0-1.46-2.06A3.34,3.34,0,0,1,43.5,11.49Z"/><path class="cls-19" d="M37.6,22.37c-1.15-.16-2.41-1.61-3.46-.75.27.83.82,1.74,1.81,1.69a1.31,1.31,0,0,0-.24,1.55C36.07,23.8,37,23.24,37.6,22.37Z"/><path class="cls-20" d="M31,25.25c-.12,1-.55,2.17.65,2.73C31.05,27.11,31.72,26.06,31,25.25Z"/><path class="cls-21" d="M22.23,40.19c-1.16-.45-2.94-1.33-3.88-.19.59,1.92,2.94-.33,4,1.24C22.34,40.88,22.27,40.53,22.23,40.19Z"/><path class="cls-22" d="M42.6,14.92c-.49.47-1.88.86-.23,1.61.11,1-.14,2.32,1.18,2.69-.45.83-1.18.05-1.79-.14-.47.24-.92.52-1.39.75l-.47.24c1.32.13.71,2,1.29,2.85.12-.86.9-.06,1.4,0,0-.89,2.14-1.5.57-2.12,1.21-1.92,2.07-.16,3.2.55l.2.12c1.34.39,1.53-2.29.33-2.68A16.57,16.57,0,0,0,45,16.73c-.64-.51-.16-1.15.55-.92C44.64,14.92,43.31,16.77,42.6,14.92Z"/><path class="cls-23" d="M28.81,30.28c0,1.11-2.18,1.88-.79,2.74.79,1.37,2.26.8,3.3.24-.43-.67,0-1.27.21-1.92A4.52,4.52,0,0,0,28.81,30.28Z"/><path class="cls-24" d="M24.55,38.4c-.57-.48-2.82-1.56-2.34,0l.7.63C23.46,38.8,24,38.63,24.55,38.4Z"/><path class="cls-25" d="M32,28.3c-2.11-.89-.46,2.52.65,2.43,1.32.38,2.35-1.18.83-1.87l-1-.43Z"/><path class="cls-26" d="M27.07,32.53A2.09,2.09,0,0,0,28.63,34Z"/><path class="cls-27" d="M37.6,22.37c-.63.87-1.53,1.43-1.89,2.49A10.65,10.65,0,0,1,34.42,26a8.51,8.51,0,0,0,1.35,2.69c-1.11.22-2.19-.22-3.3-.25l1,.43a13.18,13.18,0,0,1,2.49,1.91,11.06,11.06,0,0,1,0-1.29c1.11-.46,1.88.86,3,.89l.77-.32c-.15-.73-.54-1.65.17-2.2a2.4,2.4,0,0,1,1,2.14c.4,1,2.3-.07,2.31,1.3-.54.87-1.13,1.9-.19,2.75.15-.91.84-1.57,1.69-.9.38-1.42,1.46.09,1.89.7.09-.61.19-1.22.26-1.83-.53-1.84,0-3.75-.24-5.63l0-.19c-1.69-1.27-3.89-1.68-5.37-3.27-.58-.86,0-2.72-1.29-2.85.16.5.79,1.47-.19,1.37S38.67,23.15,37.6,22.37Z"/><path class="cls-28" d="M45.59,15.81c-.71-.23-1.19.41-.55.92.06-.44.33-.56.72-.38,1.86.74,2.92-2,1.94-3.36A4.93,4.93,0,0,1,45.59,15.81Z"/><path class="cls-29" d="M29.26,34.79c-.45.6-2.07.33-1.66,1.32-.14,2.58,3.33,4,2.56,6.58.31.67,1.19.74,1.83.9-.27-.63-.48-1.28-.79-1.88a3.82,3.82,0,0,1-.71-2.26c-.11-1-1.45-1.18-2-1.92C28.55,36.56,29.34,35.78,29.26,34.79Z"/><path class="cls-30" d="M30.67,45.45a27.33,27.33,0,0,1-7.06-3.78c.81.36,1.11.85.88,1.45,1,.53,2.91,1,2.67,2.38a15.57,15.57,0,0,1,2.13.69C29.89,46.28,30.26,45.78,30.67,45.45Z"/><path class="cls-31" d="M42.59,22.94c-.5-.08-1.28-.88-1.4,0,1.48,1.59,3.68,2,5.37,3.27.13-.4.26-.79.38-1.19l-.14-.17C45.37,24.27,44,23.52,42.59,22.94Z"/><path class="cls-32" d="M46.36,21.37c-1.13-.71-2-2.47-3.2-.55,1.57.62-.53,1.23-.57,2.12,1.43.58,2.78,1.33,4.21,1.89C47.82,23.91,44.11,22.23,46.36,21.37Z"/><path class="cls-33" d="M38.92,30.37c-1.09,0-1.86-1.35-3-.89a11.06,11.06,0,0,0,0,1.29l.29.75a3.35,3.35,0,0,0,2.27.52L39,32C40.07,31.56,39.73,30.93,38.92,30.37Z"/><path class="cls-34" d="M22.17,45c-.8.39,1.07,1.21,0,1.65-1.61.93.84,3,2.13,2.25.95-.64,3.67-.7,2.14.89.7,1.31,1.18-.21,1.68-.84,1-2.27,1.23-.26,1,.5a3.44,3.44,0,0,0,1-2.22,9.54,9.54,0,0,0-1.49.37c-1.41.85-3.44.92-4.31-.62-.29-.95.8-1.26,1.48-1.49C24.59,45.37,23.39,45,22.17,45Z"/><path class="cls-35" d="M51.91,13.33c-1.7,2.57-.16,5.79-.13,8.66a6,6,0,0,1,1.49,1.76c.78.71.62,1.86.87,2.81.14.29.28.59.44.89l.6.45c.84-.1,3.28-.9,1-1.66-1.25-.53-1.2-1.9-1.54-3,1.42-.78,2.59.13,2.85,1.66a1.08,1.08,0,0,1,2,.09c.11-.46.5-.59.91-.69l-.76-.63-.33-.23c-1.79,1.41-2.66-2.7-3.82-3.51,1.75-.54,2.37,2,3.55,2.93.18-.53.23-1.22.86-1.4.79-.36,1.46,1,2.11-.2-.26-1.09-1.46-1.52-2.14-2.29-.84-1.36-1.21-3.08-2.65-4-.83-2-1.23-.4-1.45.26,0,1.11.26,2.32-.35,3.32A16.92,16.92,0,0,1,53.92,15c-.53-.49-1.07-1-1.62-1.45Z"/><path class="cls-35" d="M64.27,24.83c0,1.32.7,3.17,2.23,3.54.21-.51,1.52-1.51,1.27-2.06-.94-.18.12-1.3-.59-1.69A4,4,0,0,0,64.27,24.83Z"/><path class="cls-36" d="M46.89,18.81c1.2.39,1,3.07-.33,2.68,1.88,2.67,5.4,2.75,7.58,5.07-.25-.95-.09-2.1-.87-2.81l-.44.26C51,22.17,48.85,20.57,46.89,18.81Z"/><path class="cls-37" d="M30.42,37.65c-.4.91.7,1.26,1.22,1.76,3.28,1.06,6.93,1.09,10,3,1.89-.93-2.63-1.2-1.69-2.59.24-1.09,1,.77,1.75.59a7.73,7.73,0,0,0,.5-1.23c-.27-.51-.66-1.06-.38-1.65.67-.84-.05-1.39-.45-2.15,0-.1,0-.32-.07-.43-.27-1.55-2.2-1.54-2.77-2.89a3.35,3.35,0,0,1-2.27-.52q.45.72,1,1.41c.6,1.12,1.39,2.4.95,3.71-.29,1,1.41,1.3,1.38,2.3-.9,2.18-2.29-.38-3.23-.92-.19.42-.43,1.29-1,.95A49.53,49.53,0,0,0,30.42,37.65Z"/><path class="cls-38" d="M53.92,15c-.23-.75-1-1.07-1.62-1.45C52.85,14,53.39,14.52,53.92,15Z"/><path class="cls-39" d="M39.86,27.85c-.71.55-.32,1.47-.17,2.2.63.8.82,2.49-.68,2l-.53,0c.57,1.35,2.5,1.34,2.77,2.89.53-.5,1.65,0,1.73-.89-.94-.85-.35-1.88.19-2.75,0-1.37-1.91-.28-2.31-1.3A2.4,2.4,0,0,0,39.86,27.85Z"/><path class="cls-40" d="M46.36,21.37c-2.25.86,1.46,2.54.44,3.46l.14.17c1.08.67,2.39.58,3.54,1-1.27.59-2.82-.72-3.9.35.24,1.88-.29,3.79.24,5.63a7,7,0,0,0,.72,1A9,9,0,0,1,52,34.68a16,16,0,0,1,1.4,1.66c1.14-.22,1.09-1.24,1-2.16.8,0,2,.85,2.5-.15.13-.79-.9-.78-1.38-1.1-.4-.8-1.09-1.66-.66-2.59,1.38-.28,3.2,3.94,4.53,2.12a12.55,12.55,0,0,1-1.3-3.28c-.13-1-.68-1.31-1.41-.55-.89.81-1.73-.42-2.15-1.18-.16-.3-.3-.6-.44-.89-2.18-2.32-5.7-2.4-7.58-5.07Z"/><path class="cls-41" d="M37.17,32.93c-1.69-.2-1.49,1.89-.24,2.35-.46.85-1.44,1.48-.82,2.56l.16.18c.94.54,2.33,3.1,3.23.92,0-1-1.67-1.25-1.38-2.3C38.56,35.33,37.77,34.05,37.17,32.93Z"/><path class="cls-42" d="M30.49,39.45a3.82,3.82,0,0,0,.71,2.26l.16-.55a6.12,6.12,0,0,0,3.36,2.35c-.63-1.18,1.82-1.08,2.68-1.3.9,1.83,3.09,1.09,3.92,2.69,1.5-1.42,1,1.68,2.41,1.23,1.07-.31,2.35,2.27.66,1.89-.13.84.16,1.44,1.07,1.44a31.3,31.3,0,0,0,4.79,1,1.81,1.81,0,0,1-.7-1.79,26.78,26.78,0,0,0-6.7-4.57c-.76-.24-.93-1.07-1.26-1.69-3-1.89-6.67-1.92-10-3A3.41,3.41,0,0,1,30.49,39.45Z"/><path class="cls-43" d="M25.81,45.45c-.68.23-1.77.54-1.48,1.49.87,1.54,2.9,1.47,4.31.62-1.13-.39-2.67.42-3.51-.69,1.27-.58,2.8-.36,4.16-.68a15.57,15.57,0,0,0-2.13-.69Z"/><path class="cls-44" d="M39.69,30.05l-.77.32c.81.56,1.15,1.19.09,1.65C40.51,32.54,40.32,30.85,39.69,30.05Z"/><path class="cls-45" d="M29.29,46.19c-1.36.32-2.89.1-4.16.68.84,1.11,2.38.3,3.51.69a9.54,9.54,0,0,1,1.49-.37A6.48,6.48,0,0,0,33.28,47c0-1.26,1.54-1,2.33-.66l.9-.58c-1.87-.93-4,1.11-5.84-.35C30.26,45.78,29.89,46.28,29.29,46.19Z"/><path class="cls-46" d="M31.36,41.16l-.16.55c.31.6.52,1.25.79,1.88,2.95,1.19,6.3,1.26,9.09,2.83a2.73,2.73,0,0,1-1.36.21c-.18,1.44,2.41,1.18,2.36,3A10.31,10.31,0,0,1,46.23,51c-.31-.5-1.16-.91-.77-1.52-.91,0-1.2-.6-1.07-1.44-2.24-1.12-4-3.23-6.53-3.67a21.06,21.06,0,0,1-3.14-.84A6.12,6.12,0,0,1,31.36,41.16Z"/><path class="cls-47" d="M46.94,25c-.12.4-.25.79-.38,1.19l0,.19c1.08-1.07,2.63.24,3.9-.35C49.33,25.58,48,25.67,46.94,25Z"/><path class="cls-48" d="M33.28,47a6.48,6.48,0,0,1-3.15.15,3.44,3.44,0,0,1-1,2.22,1.65,1.65,0,0,0,.77,1.72,8.12,8.12,0,0,0,1-1.45C31.48,48.63,32.84,48.13,33.28,47Z"/><path class="cls-49" d="M43,34c-.08.94-1.2.39-1.73.89,0,.11.06.33.07.43,1.51.75,1.8,1.47.45,2.15-.28.59.11,1.14.38,1.65.9.7,2.28.82,2.36,2.22.43.42,1.16.62,1.43-.07-.29-.8-.57-1.69.12-2.38.52-1.07,1.2,1.07,2,.44,1.16-.15-.49-1.37-.45-1.8-.43-1.49-3.5-2-2.81-3.86,0-.14-.12-.43-.15-.57C43.82,32.47,43.13,33.13,43,34Z"/><path class="cls-49" d="M64.13,56.2c-.84.65.28,1.61-.48,2.4.6,1.29,2.07,2.2,2.84,3.45l.13.16a5.08,5.08,0,0,0,2.88,2.24c.76-.92-.78-1.82-.59-2.91,0-.13-.11-.39-.15-.52-1-1-2.44-1.49-3-2.82A7.06,7.06,0,0,0,64.13,56.2Z"/><path class="cls-50" d="M41.32,35.36c.4.76,1.12,1.31.45,2.15C43.12,36.83,42.83,36.11,41.32,35.36Z"/><path class="cls-51" d="M37.4,42.21c-.86.22-3.31.12-2.68,1.3a21.06,21.06,0,0,0,3.14.84c2.56.44,4.29,2.55,6.53,3.67,1.69.38.41-2.2-.66-1.89-1.42.45-.91-2.65-2.41-1.23C40.49,43.3,38.3,44,37.4,42.21Z"/><path class="cls-52" d="M59.09,22.88c-1.18-.93-1.8-3.47-3.55-2.93,1.16.81,2,4.92,3.82,3.51C59.29,23.32,59.16,23,59.09,22.88Z"/><path class="cls-53" d="M46.56,33.84c-.43-.61-1.51-2.12-1.89-.7,0,.14.11.43.15.57A22,22,0,0,1,49,38.94c-.38.64-.69,1.43.34,1.54-.52-.6-.38-1.35.54-1.11-.3-.67-.59-1.36-.89-2C48.16,36.16,47.4,35,46.56,33.84Z"/><path class="cls-54" d="M44.82,33.71c-.69,1.85,2.38,2.37,2.81,3.86,0,.43,1.61,1.65.45,1.8-.82.63-1.5-1.51-2-.44-.69.69-.41,1.58-.12,2.38-.27.69-1,.49-1.43.07.4,2-.79-1.05-1.55.22-.52.92,1.07,1.49,1.58,2.13,1,.73,2,1.53,3,2.32.1-1.39,2.28-.46,2.27-1.87,0-.67.68.07,1,.13a35.13,35.13,0,0,0-1.53-3.83c-1-.11-.72-.9-.34-1.54A22,22,0,0,0,44.82,33.71Z"/><path class="cls-55" d="M35.61,46.38c-.79-.33-2.3-.6-2.33.66-.44,1.09-1.8,1.59-2.37,2.64a1.06,1.06,0,0,0,1.24.79l.93-.2c.67-.69,1.85,0,2.18-1.13.4-1.51,3.8-.06,3-2A23.16,23.16,0,0,0,35.61,46.38Z"/><path class="cls-56" d="M57.54,24.92c-.26-1.53-1.43-2.44-2.85-1.66.34,1.08.29,2.45,1.54,3,2.23.76-.21,1.56-1,1.66a2.41,2.41,0,0,0,1.55.73c.73-.76,1.28-.43,1.41.55.47-.49.75.36,1.11.59,1.69,1.5,3,3.49,5,4.56.27-2.5-2.21-4.07-2.84-6.35-.21,1.27-1.44-.69-1.89-.64C59,26.38,57.74,26.07,57.54,24.92Z"/><path class="cls-57" d="M46.82,32c-.07.61-.17,1.22-.26,1.83.84,1.13,1.6,2.32,2.38,3.5l-.21-1.12c-.65-1-.39-2.34-1.19-3.22A7,7,0,0,1,46.82,32Z"/><path class="cls-58" d="M41.65,40.39c-.72.18-1.51-1.68-1.75-.59-.94,1.39,3.58,1.66,1.69,2.59.33.62.5,1.45,1.26,1.69.34-.79,1-.59,1.69-.35-.51-.64-2.1-1.21-1.58-2.13.76-1.27,1.95,1.74,1.55-.22-.08-1.4-1.46-1.52-2.36-2.22A7.73,7.73,0,0,1,41.65,40.39Z"/><path class="cls-59" d="M30.91,49.68a8.12,8.12,0,0,1-1,1.45c1.3-.3,1.05,1.06,1.42,1.81a3.69,3.69,0,0,0,.82-2.47A1.06,1.06,0,0,1,30.91,49.68Z"/><path class="cls-60" d="M52,34.68A9,9,0,0,0,47.54,33c.8.88.54,2.23,1.19,3.22.41-.44.87-.9,1.36-.28A1.17,1.17,0,0,1,52,34.68Z"/><path class="cls-61" d="M36.51,45.8l-.9.58a23.16,23.16,0,0,1,2.61.8c.5.33,1,.67,1.49,1,1.24-.09,1.06,1.62,2.37,1.39.05-1.78-2.54-1.52-2.36-3A13.54,13.54,0,0,1,36.51,45.8Z"/><path class="cls-62" d="M33.08,50.27l-.93.2a3.69,3.69,0,0,1-.82,2.47c1.33,1.07,3.3-.15,4.46-1,.65-.7,1.8.84,2.47-.13,1.19-.75.49-2.11,1.21-3.08-1.46.1-3.28-.19-4,1.4C35.09,51.91,33.8,50.94,33.08,50.27Z"/><path class="cls-63" d="M35.26,49.14c-.33,1.14-1.51.44-2.18,1.13.72.67,2,1.64,2.39-.14.72-1.59,2.54-1.3,4-1.4l.24-.53c-.49-.35-1-.69-1.49-1C39.06,49.08,35.66,47.63,35.26,49.14Z"/><path class="cls-64" d="M60,21.48c-.63.18-.68.87-.86,1.4.07.14.2.44.27.58l.33.23C61.13,24.77,61.16,21.64,60,21.48Z"/><path class="cls-65" d="M31.33,52.94c1.09,1.62,4.41,1.43,4.46-1C34.63,52.79,32.66,54,31.33,52.94Z"/><path class="cls-66" d="M62.06,21.28c-.65,1.17-1.32-.16-2.11.2,1.21.16,1.18,3.29-.26,2.21l.76.63c.91-1.3,1.27.58,2.07,1.06a3.17,3.17,0,0,0-.2,1.52c.61.17,1.23.26,1.85.38a5.45,5.45,0,0,0-.73-1.74C62.14,24.43,62.68,22.67,62.06,21.28Z"/><path class="cls-67" d="M54.58,27.45c.42.76,1.26,2,2.15,1.18a2.41,2.41,0,0,1-1.55-.73Z"/><path class="cls-68" d="M59.54,25a1.08,1.08,0,0,0-2-.09c.2,1.15,1.48,1.46,2,2.42.45-.05,1.68,1.91,1.89.64a13.07,13.07,0,0,0-1-2A1.23,1.23,0,0,1,59.54,25Z"/><path class="cls-69" d="M67.27,19.64c-.75-.82-2.76-2.06-3.62-1a27.41,27.41,0,0,1,.62,6.2,4,4,0,0,1,2.91-.21c.71.39-.35,1.51.59,1.69C69,24.3,69.76,21,67.27,19.64Z"/><path class="cls-70" d="M52,34.68a1.17,1.17,0,0,0-1.92,1.26l.17.12c1.93-.36,1.12,1.89,2.05,2.9q.27.42.51.87c-.53-1.28,1.25-1.31,1-2.27-.18-.39-.51-.76-.36-1.22A16,16,0,0,0,52,34.68Z"/><path class="cls-71" d="M50.09,35.94c-.49-.62-1-.16-1.36.28l.21,1.12c.3.67.59,1.36.89,2a7.11,7.11,0,0,1,1.1,2.56c.57.85,2.22.46,1.92-.67a4.58,4.58,0,0,1,0-1.43q-.24-.45-.51-.87c-1.72.09-1.63-1.71-2.05-2.9Z"/><path class="cls-71" d="M82.18,57.22c-.41-.42-.86-.58-1.12.07,1.17,2.58,3.34,4.64,4.56,7.2.56,1.23,1.47,2.25,2,3.5,1.29,1.17,2,2.8,3.23,4l.6-.59a16.37,16.37,0,0,1-.73-1.66,1.34,1.34,0,0,1-.83-1.34,43.55,43.55,0,0,1-3.1-5.27,19,19,0,0,1-4-5.25Z"/><path class="cls-72" d="M60.45,24.32c-.41.1-.8.23-.91.69a1.41,1.41,0,0,1,.9,1,13.07,13.07,0,0,1,1,2c.63,2.28,3.11,3.85,2.84,6.35-2-1.07-3.35-3.06-5-4.56-.28,1.19.79,1.86,1.5,2.6.63,1.23,1.64,2.2,2.24,3.43,1.15,1.3,3,2,3.68,3.64.18.8,1.25-.21,1.44.66,2.39,4.21,6.7,6.85,9,11.09-.76.77,0,1.66.83,2l.18.1c1.34.24,2.26,2.9,3.6,2.28a56.11,56.11,0,0,0-4-5.24c-1.67-1.41-2.33-3.87-4-5.41-1.14-1.44-2.8-2.54-3.72-4.12-.18-.31-.36-.6-.55-.89a22.91,22.91,0,0,1-3.69-4.34c-.51-.69.28-1.37.58-2A8.67,8.67,0,0,0,65.85,31c-.24.63-.09,1.38-.57,1.91-1.42-1.77-1.53-4.19-3-6a3.17,3.17,0,0,1,.2-1.52C61.72,24.9,61.36,23,60.45,24.32Z"/><path class="cls-73" d="M59.54,25a1.23,1.23,0,0,0,.9,1A1.41,1.41,0,0,0,59.54,25Z"/><path class="cls-74" d="M59.44,32.46c-1.33,1.82-3.15-2.4-4.53-2.12-.43.93.26,1.79.66,2.59.48.32,1.51.31,1.38,1.1-.49,1-1.7.13-2.5.15,0,.92.1,1.94-1,2.16-.15.46.18.83.36,1.22,1.25-.73.76,1.65,1.77,2-.77-1.32,1.14-4,2.5-2.88.67.86-1.25,1.07-.7,2.06a15.24,15.24,0,0,1,3.08,2.87l.2-.2c-1-.51-.57-1.17.37-.72-.73-.76-3.19-1.58-2-2.69a8.7,8.7,0,0,1,3.72,1.85c.51.48,1.43,1.94.69,2.36,1,.63,2.21,1,3.25,1.63.78.42,1.66.6,2.45,1,.69.19,1.85,1.72,2.43.52a6.2,6.2,0,0,0-1.49-.6c-.22-.85.18-2.24-1-2.39-1.47-.15-1.47-2.44-3-2.25-1.76.05-1.78-3.35-3.58-2.39-1.75-1-.19-4.23-2.39-4.57C59.7,33.08,59.61,32.69,59.44,32.46Z"/><path class="cls-75" d="M44.54,43.73c-.64-.24-1.35-.44-1.69.35a26.78,26.78,0,0,1,6.7,4.57c.69.71,3.56,1.29,2.25,2.57a13.22,13.22,0,0,1-1.55-.78,31.3,31.3,0,0,1-4.79-1c-.39.61.46,1,.77,1.52l.37.28c1.48.08,2.47,1.61,4.09,1.13l.4,0c1.65-.54,2.81,1.23,4,2.11l.21-.13c-.15-1.48-2.17-2.05-2.39-3.52.25-.44.7-.09,1.06,0l-1.72-1.55a28.45,28.45,0,0,1-4.71-3.19C46.53,45.26,45.56,44.46,44.54,43.73Z"/><path class="cls-76" d="M52.31,39c-.93-1-.12-3.26-2.05-2.9C50.68,37.25,50.59,39.05,52.31,39Z"/><path class="cls-77" d="M59.25,29.77c-.36-.23-.64-1.08-1.11-.59a12.55,12.55,0,0,0,1.3,3.28c.17.23.26.62.59.66,2.2.34.64,3.61,2.39,4.57,1.8-1,1.82,2.44,3.58,2.39,1.54-.19,1.54,2.1,3,2.25,1.22.15.82,1.54,1,2.39a6.2,6.2,0,0,1,1.49.6c-.58,1.2-1.74-.33-2.43-.52-.79-.4-1.67-.58-2.45-1,1.82,1.74,4.74,2.54,5.58,5.2,2,.69,3.32,2.65,4.67,4.19l.42.62a5.34,5.34,0,0,0,.59-.67c-.82-.29-1.59-1.18-.83-2-2.28-4.24-6.59-6.88-9-11.09-.19-.87-1.26.14-1.44-.66C66,37.77,64.14,37.1,63,35.8c-.6-1.23-1.61-2.2-2.24-3.43C60,31.63,59,31,59.25,29.77Z"/><path class="cls-78" d="M49.83,39.37c-.92-.24-1.06.51-.54,1.11a35.13,35.13,0,0,1,1.53,3.83c.65.29,1.42.87,1.62-.18-.59-.74-2-1-1.51-2.2A7.11,7.11,0,0,0,49.83,39.37Z"/><path class="cls-79" d="M62.32,26.9c1.43,1.77,1.54,4.19,3,6,.48-.53.33-1.28.57-1.91a8.67,8.67,0,0,1,.54,2.57,1.73,1.73,0,0,0-.29-2.8c-.93-.95-1.2-2.35-1.93-3.44C63.55,27.16,62.93,27.07,62.32,26.9Z"/><path class="cls-80" d="M55.54,39.52c-1-.31-.52-2.69-1.77-2,.3,1-1.48,1-1,2.27a4.58,4.58,0,0,0,0,1.43,6.93,6.93,0,0,1,.9,1.78l.16.1c.79-1.1,3.46.54,3.22-1.25C55.1,42.17,56.56,40.25,55.54,39.52Z"/><path class="cls-81" d="M50.93,41.93c-.47,1.17.92,1.46,1.51,2.2.56-.21,1.15-.45,1.31-1.09a6.93,6.93,0,0,0-.9-1.78C53.15,42.39,51.5,42.78,50.93,41.93Z"/><path class="cls-82" d="M49.78,44.18c0,1.41-2.17.48-2.27,1.87a28.45,28.45,0,0,0,4.71,3.19c.09-.23.18-.46.28-.69-.23-1-1.67-2.13-1-3,1.85,0,1.81,2.16,2.88,3.18.41-.34.72-1.08,1.34-.8a3.68,3.68,0,0,1,1.81.81c.12-1-.89-1.3-1.2-2.09a5.45,5.45,0,0,0-2.65-1.34c-.39-.66.15-1.51.27-2.21l-.16-.1c-.16.64-.75.88-1.31,1.09-.2,1-1,.47-1.62.18C50.46,44.25,49.82,43.51,49.78,44.18Z"/><path class="cls-83" d="M58,36.64c-1.36-1.1-3.27,1.56-2.5,2.88,1,.73-.44,2.65,1.59,2.37a5.92,5.92,0,0,1,2.89,1l.44-.58c0-.24,0-.49,0-.73a15.24,15.24,0,0,0-3.08-2.87C56.79,37.71,58.71,37.5,58,36.64Z"/><path class="cls-84" d="M46.2,51.75a12.6,12.6,0,0,0-4.07,1.09A1.31,1.31,0,0,1,43,54.63c-1,2.71,3.16,3.14,4.73,1.95.88-1.13,1.87,0,2.79-.31.23-.47.44-1,.7-1.4l-.18-.12c-1,1.42-2.95.43-4.37.25-.71.43-.13,1.24-.55,1.76-1.41.14-1.55-1.56-1.52-2.55-.86-.54-.52-1.37.41-.85a2.85,2.85,0,0,0,1.58-2.1L46.23,51C46.23,51.24,46.22,51.5,46.2,51.75Z"/><path class="cls-85" d="M43,54.63c-1.5,0-4.61,1.78-2.32,3.11,1.76-.41,3.54.68,5.31.76.11-1.06,1.47-.49,2-1,.48-1.17,2.23.26,2.49-1.25-.92.27-1.91-.82-2.79.31C46.17,57.77,42.05,57.34,43,54.63Z"/><path class="cls-86" d="M45,53.36c-.93-.52-1.27.31-.41.85a4.17,4.17,0,0,0,2.07.79c1.42.18,3.37,1.17,4.37-.25C49.4,53,46.94,54.75,45,53.36Z"/><path class="cls-87" d="M51.46,45.59c-.63.83.81,2,1,3a4.82,4.82,0,0,0,1.51.6l.33-.38C53.27,47.75,53.31,45.57,51.46,45.59Z"/><path class="cls-88" d="M57.13,41.89c.24,1.79-2.43.15-3.22,1.25-.12.7-.66,1.55-.27,2.21a5.45,5.45,0,0,1,2.65,1.34c-.06-.39-.13-.78-.17-1.17.23-1.75,2.7-1.79,4.11-1.59l0-.65-.25-.4A5.92,5.92,0,0,0,57.13,41.89Z"/><path class="cls-89" d="M50.69,52.39c-1.62.48-2.61-1-4.09-1.13A2.85,2.85,0,0,1,45,53.36c1.92,1.39,4.38-.35,6,1.39l.18.12h.45c-.28-.6-1.26-1-1.26-1.7C50.5,52.9,50.59,52.64,50.69,52.39Z"/><path class="cls-90" d="M46,58.5c-1.77-.08-3.55-1.17-5.31-.76.33,1.26.49,2.74,1.82,3.4.69.18,2.32.29,2.13-.82C44.07,59.07,47.67,59.52,46,58.5Z"/><path class="cls-91" d="M59,38c-1.2,1.11,1.26,1.93,2,2.69.43-.16.75.23.89.58l.2.13c.78-.18.92-.88.64-1.55A8.7,8.7,0,0,0,59,38Z"/><path class="cls-92" d="M49.55,48.65a1.81,1.81,0,0,0,.7,1.79,13.22,13.22,0,0,0,1.55.78C53.11,49.94,50.24,49.36,49.55,48.65Z"/><path class="cls-93" d="M44.61,54.21c0,1,.11,2.69,1.52,2.55.42-.52-.16-1.33.55-1.76A4.17,4.17,0,0,1,44.61,54.21Z"/><path class="cls-94" d="M52.5,48.55c-.1.23-.19.46-.28.69l1.72,1.55a16.18,16.18,0,0,1,2.63,2l.13-.19c-.46-1.49-3.81-2.06-2.69-3.48A4.82,4.82,0,0,1,52.5,48.55Z"/><path class="cls-95" d="M61,40.65c-.94-.45-1.36.21-.37.72l.2.14c1.43,1,2.75,2,4.15,3,1.94,1.35,4.25,2.15,6,3.75-1.59.32-2.86-.67-4-1.65-2.7.13,1.28,1.87,1.56,2.83.83.69,3.42,2,3.69,0,0-.11,0-.34,0-.45-.84-2.66-3.76-3.46-5.58-5.2-1-.63-2.21-1-3.25-1.63a12.1,12.1,0,0,1-1.33-.81l-.2-.13A1,1,0,0,1,61,40.65Z"/><path class="cls-96" d="M60.23,43.93c-1.41-.2-3.88-.16-4.11,1.59.83-.06,1.33.79,2.12.86.39-.5-.06-1.37.56-1.71C59.4,44.79,60.6,44.92,60.23,43.93Z"/><path class="cls-97" d="M58.24,46.38c-.79-.07-1.29-.92-2.12-.86,0,.39.11.78.17,1.17.31.79,1.32,1.13,1.2,2.09l.49.47a6.39,6.39,0,0,0,3,1.43c1.18.07.41-2.89,1.76-1.76,1.09.78-.56,1.78.19,2.66.23.59.88,0,1.31,0-.15-.39-.46-.85.1-1,.33-.74,1.11-2.19-.09-2.49-.37.67-.83-.1-1.23-.32-1.34.67-3.52-.8-2.87-2.33.38-.49,1.08-.21,1.6-.29a4.48,4.48,0,0,0-1.48-1.81l0,.65c.37,1-.83.86-1.43.74C58.18,45,58.63,45.88,58.24,46.38Z"/><path class="cls-98" d="M61.88,41.23c-.14-.35-.46-.74-.89-.58A1,1,0,0,0,61.88,41.23Z"/><path class="cls-99" d="M60.62,41.37l-.2.2c0,.24,0,.49,0,.73,1.08.79,2.48.48.36-.79Z"/><path class="cls-100" d="M65,44.54c-1.4-1-2.72-2.08-4.15-3,2.12,1.27.72,1.58-.36.79l-.44.58.25.4a4.48,4.48,0,0,1,1.48,1.81A17,17,0,0,1,67,46.64C67.25,45.65,65.49,45.26,65,44.54Z"/><path class="cls-101" d="M55.68,48c-.62-.28-.93.46-1.34.8l-.33.38c-1.12,1.42,2.23,2,2.69,3.48l.39.33a3.5,3.5,0,0,0,2-.92c0,2.18,2.52,1.69,4,1.52a2.39,2.39,0,0,0-1.92-2.44c-.53.44-1.06,1.6-1.65-.1C58.7,49.22,56,50.08,55.68,48Z"/><path class="cls-102" d="M55.06,54.48c-1.16-.88-2.32-2.65-4-2.11.87.51,2.08.78,2.36,1.89.16.64,1,.33,1.47.42Z"/><path class="cls-103" d="M50.42,53.16c0,.69,1,1.1,1.26,1.7C53.59,54.86,50.53,53.75,50.42,53.16Z"/><path class="cls-104" d="M62.72,39.81c.28.67.14,1.37-.64,1.55a12.1,12.1,0,0,0,1.33.81C64.15,41.75,63.23,40.29,62.72,39.81Z"/><path class="cls-105" d="M53.94,50.79c-.36,0-.81-.4-1.06,0,.22,1.47,2.24,2,2.39,3.52l.14.1a10.91,10.91,0,0,1,3.74,2.42l.15.16a8.15,8.15,0,0,0,3.43,2.64c.8-1-.65-2.19-1.25-2.77-2.06-.71-3.33-2.68-4.91-4.08A16.18,16.18,0,0,0,53.94,50.79Z"/><path class="cls-106" d="M55.68,48c.34,2.11,3,1.25,3.86,3.05.59,1.7,1.12.54,1.65.1-1.38.21-2.28-1.07-3.21-1.87l-.49-.47A3.68,3.68,0,0,0,55.68,48Z"/><path class="cls-107" d="M44.89,64.3c-1.15-.4-2.33.21-3.47.34,1,.64,2.17,2.14,3.18,2.21C43.38,66,45.07,65.23,44.89,64.3Z"/><path class="cls-108" d="M61.75,45.09c-.52.08-1.22-.2-1.6.29-.65,1.53,1.53,3,2.87,2.33l-.12-.86A2.78,2.78,0,0,0,61.75,45.09Z"/><path class="cls-109" d="M78.26,26.09a3.21,3.21,0,0,0,0,2.66c.69-1.25,1-2.79,2.63-1C80.28,26.85,79.51,25.66,78.26,26.09Z"/><path class="cls-110" d="M67,46.64a17,17,0,0,0-5.23-1.55,2.78,2.78,0,0,1,1.15,1.76c.37-.42.78-.88,1.24-.3l.41.07c1.14.9,2.71,1.59,3.58,2.82l.41,0C68.26,48.51,64.28,46.77,67,46.64Z"/><path class="cls-111" d="M61,50.68a6.39,6.39,0,0,1-3-1.43c.93.8,1.83,2.08,3.21,1.87a2.39,2.39,0,0,1,1.92,2.44c-1.52.17-4,.66-4-1.52a3.5,3.5,0,0,1-2,.92,32.25,32.25,0,0,0,5.36,4.31,13.62,13.62,0,0,0,4,4.78c-.77-1.25-2.24-2.16-2.84-3.45.76-.79-.36-1.75.48-2.4a7.06,7.06,0,0,1,1.65,2c.44-.21.87-.47,1.3-.72.16-.32.27-.8.73-.55.77.38,2-.17,1.11-1,.81-.28,1.81-1.21,2.4-.11-.36.8-.7,1.81-1.68,2,1.35.71,2.93,1.65,4.11,0-.11-.87-.87-1.93-.06-2.64,0-.29-.06-.57-.1-.85-.7.94-1.63.78-1.86-.34-1.71.14-2.57-2.21-.57-2.45-1.09-.5-2.62-.69-3-2.06-.87-1.23-2.44-1.92-3.58-2.82,1.19,1.32,2.61,2.41,3.76,3.77,1.06.53,1.78,1.22,1.31,2.44.54.7-.12,1.65-.92,1.07l-.7-.31c-.46.13-1,0-1.42.3A13.89,13.89,0,0,0,67.7,56.1c-2.35-.18-2.09-3.14-3.46-4.55-.43.05-1.08.62-1.31,0-.75-.88.9-1.88-.19-2.66C61.39,47.79,62.16,50.75,61,50.68Z"/><path class="cls-112" d="M55.58,57.38c-2.11.37-4.65.19-6.34,1.75.25.47.45,1,.68,1.44,1.65.42,2.85-1.08,4.28-1.64A9.18,9.18,0,0,0,55.58,57.38Z"/><path class="cls-113" d="M50.64,66.51c-.13-2.49-3.92-3.81-5.75-2.21.18.93-1.51,1.69-.29,2.55,1.91,1.09,4,2.34,6.32,2.11C52,68.33,50.47,67.39,50.64,66.51Z"/><path class="cls-114" d="M80.89,27.75c-1.63-1.79-1.94-.25-2.63,1,0,1.55,1.51,2.37,2.21,3.62,2.07.81.57,1.28-.08,1-.24.72.24,1.54-.18,2.22-.43.22-1.36.29-1.11,1A4.91,4.91,0,0,1,80.51,38c.11-.68-.13-1.49.44-2,1.1.66.7,2.11.91,3.2.6-.05,1.26-.08,1.42-.79a1.65,1.65,0,0,1,.43-.66,11.72,11.72,0,0,1,2-1.61c.18-.75,0-1.72.73-2.2,1.4-1.47-1.89-1.65-3-2a3.7,3.7,0,0,1-.67-3.85C82.17,27.91,81.52,27.89,80.89,27.75Z"/><path class="cls-115" d="M56.7,52.63l-.13.19c1.58,1.4,2.85,3.37,4.91,4.08.6.58,2.05,1.82,1.25,2.77A8.15,8.15,0,0,1,59.3,57c-.48,1.31.82,2,1.78,2.56A11.57,11.57,0,0,1,66,62.65l.54.49.74.71a2.18,2.18,0,0,0-.63-1.64l-.13-.16a13.62,13.62,0,0,1-4-4.78A32.25,32.25,0,0,1,57.09,53Z"/><path class="cls-116" d="M55.27,54.35l-.21.13a4.16,4.16,0,0,1,1.23,1.84c1.47.22.25,1.44-.71,1.06a9.18,9.18,0,0,1-1.38,1.55c.32,1.47,3.26,2.72,1.84,4,2,1.44-.79,2.08-2.09,2a5.92,5.92,0,0,1-3.53-2.64c-.1-.81-1.33-.81-1.06.08,1.79,2,4.16,3.28,6.39,4.71-.1-.5-.82-1.07-.37-1.52.73.71.94-.54,1.59-.76.84-1.67,3.45-.2,3.92-2A8,8,0,0,1,58.72,62c-.22-.83.88-.82,1.34-1.17.2-.56.28-1.22,1-1.19-1-.59-2.26-1.25-1.78-2.56l-.15-.16c-1.76.34-2.67-1.29-3.74-2.42Z"/><path class="cls-117" d="M55.06,54.48l-.14.2c.32.65.46,1.64,1.37,1.64A4.16,4.16,0,0,0,55.06,54.48Z"/><path class="cls-118" d="M59.15,56.87a10.91,10.91,0,0,0-3.74-2.42C56.48,55.58,57.39,57.21,59.15,56.87Z"/><path class="cls-119" d="M71.84,37.59c-1.33-.67-1.4,2-.39,2.52-.54-1,.55-1.46,1.14-2C72.16,38.21,71.94,38,71.84,37.59Z"/><path class="cls-120" d="M71,48.29c-1.77-1.6-4.08-2.4-6-3.75.52.72,2.28,1.11,2,2.1C68.13,47.62,69.4,48.61,71,48.29Z"/><path class="cls-121" d="M64.14,46.55c-.46-.58-.87-.12-1.24.3l.12.86c.4.22.86,1,1.23.32C63.58,47.71,63.73,47,64.14,46.55Z"/><path class="cls-122" d="M69.5,39.86c.19.29.37.58.55.89a3.22,3.22,0,0,0,1.69,1c0-.08,0-.23,0-.31A9.94,9.94,0,0,1,69.5,39.86Z"/><path class="cls-123" d="M64.14,46.55c-.41.47-.56,1.16.11,1.48,1.2.3.42,1.75.09,2.49l.13.22c.53.62.8-.35,1.32-.48a8,8,0,0,0,1.94,1.2c.81.45.53-.59.58-1.07-1.15-1.36-2.57-2.45-3.76-3.77Z"/><path class="cls-124" d="M72.59,38.06c-.59.59-1.68,1.06-1.14,2l.28.31c.58-.93,1,0,1.46.49.18-.91,1.33-2,.33-2.79A2.64,2.64,0,0,0,72.59,38.06Z"/><path class="cls-125" d="M70.05,40.75c.92,1.58,2.58,2.68,3.72,4.12-.64-1.08-.29-3.29-2-3.1A3.22,3.22,0,0,1,70.05,40.75Z"/><path class="cls-126" d="M75,39.41c1.33-.56-1.33-.86-1.5-1.29,1,.75-.15,1.88-.33,2.79l.17.15C73.9,40.49,74,39.12,75,39.41Z"/><path class="cls-127" d="M80.39,33.39a2.58,2.58,0,0,0-2.08-.15c-.56,1.34-.45,2.84-1.08,4.17.86,1.14,2.1,1,3.21,1.44,0-.29,0-.57.07-.86A4.91,4.91,0,0,0,79.1,36.6c-.25-.7.68-.77,1.11-1C80.63,34.93,80.15,34.11,80.39,33.39Z"/><path class="cls-128" d="M73.19,40.91c-.46-.49-.88-1.42-1.46-.49,0,.35,0,.7,0,1,0,.08,0,.23,0,.31,1.74-.19,1.39,2,2,3.1,1.65,1.54,2.31,4,4,5.41.54-1.4,1.3-1.16,2-.33-.67-1.68-2.15-2.83-3.29-4.16s-1.89-3.38-3.14-4.73Z"/><path class="cls-129" d="M64.34,50.52c-.56.18-.25.64-.1,1,1.37,1.41,1.11,4.37,3.46,4.55a13.89,13.89,0,0,1-1.12-2.21c.41-.28,1-.17,1.42-.3-.5-.72-1.14-1.16-1.89-.5a12.84,12.84,0,0,1-1.64-2.35Z"/><path class="cls-130" d="M64.47,50.74a12.84,12.84,0,0,0,1.64,2.35c.75-.66,1.39-.22,1.89.5l.7.31-1-1.36c.07-.36.25-.74,0-1.08a8,8,0,0,1-1.94-1.2C65.27,50.39,65,51.36,64.47,50.74Z"/><path class="cls-131" d="M77.23,37.41c-.43,1.24,1.56,1.54,2,2.43a3.34,3.34,0,0,0,1.49,1.39c-.06-.23-.12-.46-.17-.69a4.2,4.2,0,0,1-.15-1.69C79.33,38.41,78.09,38.55,77.23,37.41Z"/><path class="cls-132" d="M75,40c-.81.95.51,1.74,1.39,1.81A1.42,1.42,0,0,0,75,40Z"/><path class="cls-133" d="M56,62.94A4.47,4.47,0,0,0,54,65C55.25,65,58,64.38,56,62.94Z"/><path class="cls-134" d="M68.54,49.47l-.41,0c.41,1.37,1.94,1.56,3,2.06-2,.24-1.14,2.59.57,2.45.23,1.12,1.16,1.28,1.86.34,0-.26-.07-.52-.1-.78-.59-.07-1.29.2-1.8-.18.17-.78.39-1.84,1.4-1.23a17.39,17.39,0,0,0-.27-1.76c-.2-.29-.39-.59-.59-.89C72,51.51,69.37,50.16,68.54,49.47Z"/><path class="cls-135" d="M81,36c-.57.53-.33,1.34-.44,2,0,.29,0,.57-.07.86a4.2,4.2,0,0,0,.15,1.69c.58.73,1,.6,1.27-.27v-1.1C81.65,38.08,82.05,36.63,81,36Z"/><path class="cls-136" d="M68.31,50.39c0,.48.23,1.52-.58,1.07.22.34,0,.72,0,1.08.64-.35,1.59-.56,1.92.29C70.09,51.61,69.37,50.92,68.31,50.39Z"/><path class="cls-137" d="M61.08,59.59c-.74,0-.82.63-1,1.19-.46.35-1.56.34-1.34,1.17a8,8,0,0,0,2.17.88,8.56,8.56,0,0,0,2.73.47c.79-.62,1.77.33,2.35-.65A11.57,11.57,0,0,0,61.08,59.59Z"/><path class="cls-137" d="M73.23,49.64c-.51,0-.53.3-.41.7a17.39,17.39,0,0,1,.27,1.76,6.3,6.3,0,0,1,.4,1.41c0,.26.07.52.1.78s.08.56.1.85c.08.65,0,1.53.91,1.56,1.19-1.05,1.46,1.59,2.64,1s1.72.55,2.44,1.17c-1.41-.1-2.84-.72-4.23-.38-.15,1.57,2.31,2.31,3.1,3.52l.38.23.56,0c.54-.27.64-.86.82-1.37A2.42,2.42,0,0,0,81.63,62,1.32,1.32,0,0,0,82,60.69c-1.3-2.46-3.22-4.5-4.65-6.88l-.42-.62C75.55,52.15,74.51,50.77,73.23,49.64Z"/><path class="cls-138" d="M55.38,65.62c-.45.45.27,1,.37,1.52.67,2.06,2.52,3.24,4.26,4.29.31,2.5,3.43,2.76,5.19,1.63a3,3,0,0,1,2.41.68,2.82,2.82,0,0,1,2.4.83l.58.17c.12-.29.23-.58.34-.87a15.81,15.81,0,0,1-4.41-2c-.85.52-1.41-.3-1.19-1.11-.94-.23-1.56-2.2-.22-2h.19a9.56,9.56,0,0,1-.4-1.66c0-.08-.05-.26-.07-.35-.23-.46-.5-.91-.73-1.37-1.8,1-3.57-.54-5.44-.16A4.71,4.71,0,0,1,57,64.86C56.32,65.08,56.11,66.33,55.38,65.62Z"/><path class="cls-139" d="M50,72.11c.67,1.16,4.14,2,5.45.64-1.34-.51-1-.93,0-1.6-.25-1.4-2.46-1.15-3.4-.51C51.37,71.08,50.91,72,50,72.11Z"/><path class="cls-140" d="M69.62,52.83c-.33-.85-1.28-.64-1.92-.29l1,1.36C69.5,54.48,70.16,53.53,69.62,52.83Z"/><path class="cls-141" d="M60.89,62.83c-.47,1.83-3.08.36-3.92,2a4.71,4.71,0,0,0,1.69.37c1.87-.38,3.64,1.19,5.44.16a1.3,1.3,0,0,0-.48-2.09A8.56,8.56,0,0,1,60.89,62.83Z"/><path class="cls-142" d="M76.91,53.19c-1.35-1.54-2.63-3.5-4.67-4.19,0,.11,0,.34,0,.45.2.3.39.6.59.89-.12-.4-.1-.75.41-.7C74.51,50.77,75.55,52.15,76.91,53.19Z"/><path class="cls-143" d="M83.28,38.38c-.16.71-.82.74-1.42.79v1.1c0,.22,0,.43,0,.65C83.72,41.43,83.32,39.59,83.28,38.38Z"/><path class="cls-144" d="M80.59,40.54c0,.23.11.46.17.69,1.64.52.19,2.38.51,3.6.48,1.05.84,2.13,1.22,3.22-.34-2.37,1.32-4.69-.6-6.64,0-.12,0-.37,0-.49s0-.43,0-.65C81.62,41.14,81.17,41.27,80.59,40.54Z"/><path class="cls-145" d="M85.69,36.11a11.72,11.72,0,0,0-2,1.61A1.32,1.32,0,0,0,85.69,36.11Z"/><path class="cls-146" d="M80.76,41.23c-.14.49-.33,1-.46,1.47A42.36,42.36,0,0,1,81.1,51c-.12.8-.67-.1-1-.29a11.18,11.18,0,0,0,1.48,1.94c.16-.76-.59-2.11.81-2-.62.81-.18,1.42.61,1.87a11.83,11.83,0,0,1-.24-3.3c.92,1.75,1,3.85,2,5.54a5.7,5.7,0,0,1,1.35,1.7l.19.14c.91-.46,2.32-.45,2.56-1.68.59-1.61-1.72-2.19-3-1.95-.79,2.06-1-1.48-1-2.19,1.37-.73,1-2.35.89-3.62-.41.44-1.21,1.09-1.59.25.26-1.32-.25-3.13.77-4.08-.91-1-1.73-1.82-3.08-1.91,1.92,2,.26,4.27.6,6.64-.38-1.09-.74-2.17-1.22-3.22C81,43.61,82.4,41.75,80.76,41.23Z"/><path class="cls-147" d="M65.78,58.2c.54,1.33,2,1.87,3,2.82a24.38,24.38,0,0,0-1.68-3.54C66.65,57.73,66.22,58,65.78,58.2Z"/><path class="cls-148" d="M67.81,56.93c-.46-.25-.57.23-.73.55A24.38,24.38,0,0,1,68.76,61c0,.13.12.39.15.52A5.73,5.73,0,0,1,70.57,64,29.89,29.89,0,0,0,73.05,67c.6-.69-.26-1.49-.54-2.14A68.83,68.83,0,0,1,67.81,56.93Z"/><path class="cls-149" d="M73.09,52.1c-1-.61-1.23.45-1.4,1.23.51.38,1.21.11,1.8.18A6.3,6.3,0,0,0,73.09,52.1Z"/><path class="cls-150" d="M71.32,55.81c-.59-1.1-1.59-.17-2.4.11.92.84-.34,1.39-1.11,1a68.83,68.83,0,0,0,4.7,7.88l.29-.27a3.15,3.15,0,0,1,.77-1.77c-.32-.48-.93-1.15-.17-1.55,1.57,1,3.65,1.43,4.64,3,.9-.45-1.68-2.61.51-2.25-.79-1.21-3.25-2-3.1-3.52,1.39-.34,2.82.28,4.23.38-.72-.62-1.39-1.68-2.44-1.17s-1.45-2-2.64-1c-.2.44-.12,1.64-.85,1.08-1.18,1.67-2.76.73-4.11,0C70.62,57.62,71,56.61,71.32,55.81Z"/><path class="cls-151" d="M66,62.65c-.58,1-1.56,0-2.35.65a1.3,1.3,0,0,1,.48,2.09c.23.46.5.91.73,1.37,1-.73,2.18,0,3.2.22.75-1.42-4.36-3.37-1.52-3.84Z"/><path class="cls-152" d="M55,74.89c-.48-.21-.91.38-.79.83,0,2.57,2.91,3.45,4.69,4.64,1.76,1,3-1.19,3.86-2.39-1.16-1-4.1.13-4.34-1.68a1.54,1.54,0,0,0,1.74,0A28.45,28.45,0,0,0,55,74.89Z"/><path class="cls-153" d="M66.62,62.21a2.18,2.18,0,0,1,.63,1.64c1.3,1.36,2.84,2.49,4,4A19.29,19.29,0,0,1,68,67c-1-.25-2.23-1-3.2-.22,0,.09,0,.27.07.35,1.12-.26,2.22.51,3.33.68a6.46,6.46,0,0,1-2.93,1h-.19a2.29,2.29,0,0,0,1.66.71c.7-1.58,3.16-1.14,3.81.31l.14.16c.18-.38.36-.75.56-1.11-1.87-.92.52-.69,1.32-.15C72.15,67.57,68.89,66.31,70,65c3.56,3.68,8.54,5.3,12.55,8.3-1.49-.93-.39-2,.75-.89,0-.1-.07-.32-.09-.44a45.49,45.49,0,0,1-4.49-3.18c-.74-.31-.42.87-.8,1.23a2.86,2.86,0,0,1-.45-1.8c-.55-1.23-2.51-1.62-2.75-3,0-.53,0-1.07,0-1.6a6.55,6.55,0,0,1-1.89.94l-.29.27c.28.65,1.14,1.45.54,2.14A29.89,29.89,0,0,1,70.57,64c-.14.61-.55.72-1.07.42A5.08,5.08,0,0,1,66.62,62.21Z"/><path class="cls-154" d="M66.51,63.14c-2.84.47,2.27,2.42,1.52,3.84a19.29,19.29,0,0,0,3.24.84c-1.18-1.48-2.72-2.61-4-4Z"/><path class="cls-155" d="M79.79,50c-.74-.83-1.5-1.07-2,.33a56.11,56.11,0,0,1,4,5.24,18.43,18.43,0,0,0,2.9,2.89A8,8,0,0,0,84.52,57c-1.8-.75-2.35-2.74-2.94-4.41a11.18,11.18,0,0,1-1.48-1.94C80,50.43,79.89,50.19,79.79,50Z"/><path class="cls-156" d="M73.69,55.14c-.81.71,0,1.77.06,2.64.73.56.65-.64.85-1.08C73.74,56.67,73.77,55.79,73.69,55.14Z"/><path class="cls-157" d="M85,43.32c-1,1-.51,2.76-.77,4.08.38.84,1.18.19,1.59-.25,0-.31,0-.63,0-.93A7.65,7.65,0,0,0,85,43.32Z"/><path class="cls-158" d="M87.54,43c-.21-1.38-1.94,0-2.57.29a7.65,7.65,0,0,1,.8,2.9A11.87,11.87,0,0,1,87.54,43Z"/><path class="cls-159" d="M68.91,61.54c-.19,1.09,1.35,2,.59,2.91.52.3.93.19,1.07-.42A5.73,5.73,0,0,0,68.91,61.54Z"/><path class="cls-160" d="M68.23,67.79c-1.11-.17-2.21-.94-3.33-.68a9.56,9.56,0,0,0,.4,1.66A6.46,6.46,0,0,0,68.23,67.79Z"/><path class="cls-161" d="M77.92,53.14a5.34,5.34,0,0,1-.59.67c1.43,2.38,3.35,4.42,4.65,6.88A1.32,1.32,0,0,1,81.63,62c1.91-.65,3,1.15,4,2.46-1.22-2.56-3.39-4.62-4.56-7.2.26-.65.71-.49,1.12-.07a15.43,15.43,0,0,1-4.08-4Z"/><path class="cls-162" d="M81.7,55.52c-1.34.62-2.26-2-3.6-2.28a15.43,15.43,0,0,0,4.08,4l.61.69a23.35,23.35,0,0,1,3.74,4.71c.3-1.28,1.48,1.3,2.08,1.52-.06-.3-.11-.61-.15-.92l-.08-.34a12.08,12.08,0,0,1-1.45-1.5,37.12,37.12,0,0,0-2.33-3A18.43,18.43,0,0,1,81.7,55.52Z"/><path class="cls-163" d="M65.11,68.77c-1.34-.2-.72,1.77.22,2-.22.81.34,1.63,1.19,1.11,0-1.12,1-.56,1.71-.42,1-.37,1.18-1.78,2.35-1.67-.65-1.45-3.11-1.89-3.81-.31A2.29,2.29,0,0,1,65.11,68.77Z"/><path class="cls-164" d="M82.76,49.21a11.83,11.83,0,0,0,.24,3.3A30.66,30.66,0,0,1,84.52,57a8,8,0,0,1,.08,1.39,37.12,37.12,0,0,1,2.33,3c1.2-1.58-2.45-3.72-.78-4.93a5.7,5.7,0,0,0-1.35-1.7C83.72,53.06,83.68,51,82.76,49.21Z"/><path class="cls-165" d="M58.43,76.29c.24,1.81,3.18.66,4.34,1.68.54-.07,1.08-.15,1.61-.26,1.43-1.23,2.22,2.21,3.33.74A11.85,11.85,0,0,1,69,78.6c.6.05,1.19.06,1.78.08.12-.44.49-1,.09-1.34s-1-.61-1.5-.92l-.4,0c-.67.12-1.38-.07-2,.26l-.48.19a28.14,28.14,0,0,1-6-.54l-.36-.09A1.54,1.54,0,0,1,58.43,76.29Z"/><path class="cls-166" d="M82.39,50.64c-1.4-.14-.65,1.21-.81,2,.59,1.67,1.14,3.66,2.94,4.41A30.66,30.66,0,0,0,83,52.51C82.21,52.06,81.77,51.45,82.39,50.64Z"/><path class="cls-68" d="M73.4,61.22c-.76.4-.15,1.07.17,1.55a3.15,3.15,0,0,0-.77,1.77,6.55,6.55,0,0,0,1.89-.94c0,.53,0,1.07,0,1.6l.56,0c.38-1.6,1.75-.3,2.75-.92C77.05,62.65,75,62.19,73.4,61.22Z"/><path class="cls-167" d="M70,65c-1.12,1.35,2.14,2.61,2.59,3.73-.8-.54-3.19-.77-1.32.15a10.69,10.69,0,0,1,2.88,1.84c.79.47,1.59.91,2.37,1.4.66-.33,1.17.26,1.69.57A52.34,52.34,0,0,1,84,76.16c.42-.24.77.18.9.54a15.23,15.23,0,0,0,2.45,1c.52.28,1.4.39,1.47,1.09-.58.16-1.78.14-.67.7a15.66,15.66,0,0,1,2.74.06l.61.15c1.1-1.2-.48-1.87-.67-2.84a39.22,39.22,0,0,1-5.56-2.44c-.85-.51-1.85-.65-2.71-1.13C78.55,70.26,73.57,68.64,70,65Z"/><path class="cls-168" d="M61.69,75.09a5.2,5.2,0,0,1-1.16,1.27,28.14,28.14,0,0,0,6,.54C65.64,74.92,63.38,75.56,61.69,75.09Z"/><path class="cls-169" d="M89.38,45c-.22,1-1.65,2.29-.31,2.94.46,1.34,2.74-1.05,2.34.88.12,1.73-1.19,2.06-2.63,1.87-.49,1.46-2.11,1-2.83,2.29,1.23-.24,3.54.34,3,1.95-.24,1.23-1.65,1.22-2.56,1.68a6.22,6.22,0,0,0,1.78,1.61c.33-.7.43-1.68,1.35-1.81.79.8-.81,3.47,1.08,3.52,1.11.22-.08,1.32-.24,2,.39.31.83.55,1.25.84,0,1.42,1.55,3.79,0,5.09.44.6,1.11.25,1.66.06.18-2.74.76-5.48.76-8.22a9.07,9.07,0,0,1-1,1.92c-1.55-2.26.27-5.51-1.8-7.51-.56,2.09-2.07.58-1.69-.45a3.27,3.27,0,0,0,3-3c-1.27-.71.06-2.21-.17-3.25C91.21,46.74,90.56,45.35,89.38,45Z"/><path class="cls-170" d="M68.23,71.46c-.69-.14-1.66-.7-1.71.42a15.81,15.81,0,0,0,4.41,2,134.11,134.11,0,0,0,16.45,4.69c.74,0,.37-.62,0-.89a15.23,15.23,0,0,1-2.45-1,1.16,1.16,0,0,1-.9-.54,51,51,0,0,1-7.47-4.08c-.78-.49-1.58-.93-2.37-1.4-1.19,0-2.69.58-3.44-.73l-.14-.16C69.41,69.68,69.19,71.09,68.23,71.46Z"/><path class="cls-170" d="M81.31,66.1c-2.12,0,.42,1.83-.27,3a13.92,13.92,0,0,0,5.26,3.19c1.37,0,2.5.94,3.77,1.06l0-.26a7.08,7.08,0,0,0-1.67-2.27c-1.59,1.27-2.51-2.36-4-2.83A7,7,0,0,1,81.31,66.1Z"/><path class="cls-171" d="M67.61,73.74a3,3,0,0,0-2.41-.68A5.59,5.59,0,0,0,67.61,73.74Z"/><path class="cls-172" d="M95.81,46.22c-.8-.47-2.62-3.18-2.73-1.12,1.13,1.29.09,3.7,1.92,4.3a3.48,3.48,0,0,1-.94-2.75c.72-1.11,2.06.16,3.1,0a23.3,23.3,0,0,0-1-4.63A19.2,19.2,0,0,0,95.81,46.22Z"/><path class="cls-173" d="M71.28,68.84c-.2.36-.38.73-.56,1.11.75,1.31,2.25.75,3.44.73A10.69,10.69,0,0,0,71.28,68.84Z"/><path class="cls-174" d="M78.55,62c-2.19-.36.39,1.8-.51,2.25-1,.62-2.37-.68-2.75.92,1.4,1.83,3.87,2.64,5.75,4,.69-1.21-1.85-3,.27-3l.46-.53c.46-1.67-1.7-2.48-2.84-3.34Z"/><path class="cls-175" d="M75.29,65.17l-.56,0c.24,1.36,2.2,1.75,2.75,3a2.86,2.86,0,0,0,.45,1.8c.38-.36.06-1.54.8-1.23a45.49,45.49,0,0,0,4.49,3.18c1.81.35,3.55,2.77,5.32,1.82l-.32-.38a9.61,9.61,0,0,1-1.92-1A13.92,13.92,0,0,1,81,69.14C79.16,67.81,76.69,67,75.29,65.17Z"/><path class="cls-176" d="M70,74.57a2.82,2.82,0,0,0-2.4-.83A7.29,7.29,0,0,0,70,74.57Z"/><path class="cls-177" d="M67.1,74.58c-.94,0-.2,1.57-.11,2.13.63-.33,1.34-.14,2-.26Z"/><path class="cls-178" d="M69.4,76.42a11.48,11.48,0,0,0-2.3-1.84L69,76.45Z"/><path class="cls-179" d="M67.71,78.45c-1.11,1.47-1.9-2-3.33-.74,1.37.22.63,1.44-.16,2a5.59,5.59,0,0,0,.83.7c1.34-.29,2.61.31,3.88.68.09-.82,0-1.65.1-2.46A11.85,11.85,0,0,0,67.71,78.45Z"/><path class="cls-180" d="M64.22,79.68c-.76.15-1.65.08-2.26.64.81,1.3,2.24.93,3.09.06A5.59,5.59,0,0,1,64.22,79.68Z"/><path class="cls-181" d="M82.79,57.91a19,19,0,0,0,4,5.25l-.26-.54A23.35,23.35,0,0,0,82.79,57.91Z"/><path class="cls-182" d="M80.31,60.81c-.18.51-.28,1.1-.82,1.37.79,1.5,1.41.43,2.14-.15A2.42,2.42,0,0,1,80.31,60.81Z"/><path class="cls-183" d="M79.49,62.18l-.56,0c1.14.86,3.3,1.67,2.84,3.34,1.28-.65,1.94,1.61,2.68,2.46,1.48.47,2.4,4.1,4,2.83a30.37,30.37,0,0,1-2.91-4.06c.85-1,1.44.78,2.09,1.19-.53-1.25-1.44-2.27-2-3.5-1-1.31-2.08-3.11-4-2.46C80.9,62.61,80.28,63.68,79.49,62.18Z"/><path class="cls-184" d="M97.16,46.63c-1,.18-2.38-1.09-3.1,0A3.48,3.48,0,0,0,95,49.4c1.4-.79,2.54.05,2.36,1.62.19.41.42.84.9.95,0-.16.15-.47.19-.63a28.78,28.78,0,0,0-.93-3.13C97.37,47.69,97.26,47.16,97.16,46.63Z"/><path class="cls-185" d="M86.15,56.45c-1.67,1.21,2,3.35.78,4.93.51.46,1.35.76,1.45,1.5l.08.34c1.17,1.43,1.73,3.3,3.06,4.61,1.59-1.3.06-3.67,0-5.09-.42-.29-.86-.53-1.25-.84.16-.67,1.35-1.77.24-2-1.89,0-.29-2.72-1.08-3.52-.92.13-1,1.11-1.35,1.81a6.22,6.22,0,0,1-1.78-1.61Z"/><path class="cls-186" d="M87.38,78.56a134.11,134.11,0,0,1-16.45-4.69c-.11.29-.22.58-.34.87,1.12.69,2.58.74,3.54,1.72.94.65.22,1.4-.68,1.18a13.66,13.66,0,0,1-2.55-.3c.4.39,0,.9-.09,1.34a16.88,16.88,0,0,0,6.6-.55,45.91,45.91,0,0,0,5.25.25,4,4,0,0,1,2.68,1.14,8,8,0,0,1,2.44-.06h.37c-1.11-.56.09-.54.67-.7-.07-.7-.95-.81-1.47-1.09C87.75,77.94,88.12,78.59,87.38,78.56Z"/><path class="cls-187" d="M99.24,45.85c-.62.73-.82,1.89-1.72,2.36a28.78,28.78,0,0,1,.93,3.13A17.58,17.58,0,0,0,99.24,45.85Z"/><path class="cls-188" d="M84.45,68c-.74-.85-1.4-3.11-2.68-2.46l-.46.53A7,7,0,0,0,84.45,68Z"/><path class="cls-189" d="M78.22,72.65c-.52-.31-1-.9-1.69-.57A51,51,0,0,0,84,76.16,52.34,52.34,0,0,0,78.22,72.65Z"/><path class="cls-190" d="M86.93,61.38a12.08,12.08,0,0,0,1.45,1.5C88.28,62.14,87.44,61.84,86.93,61.38Z"/><path class="cls-191" d="M88.61,64.14c-.6-.22-1.78-2.8-2.08-1.52l.26.54a43.55,43.55,0,0,0,3.1,5.27,1.78,1.78,0,0,1,.83,1.34,16.37,16.37,0,0,0,.73,1.66c.14.27.35.6.19.91l-.17.47c-1.14-2-1.17-.35-1.36.32l0,.26.17.12c.81.38,1.62.83.57,1.56a2.7,2.7,0,0,0,2,.92c.17.82,1,.89,1.68,1.16-1.7-1.68-1.73-4.22-2.55-6.35,1.45-2.19,2.55,1.06,3.2,2.21l.13-.19a17.08,17.08,0,0,0-.38-3,5.75,5.75,0,0,1-.45-1.46c-.51-.81-1-.06-1.36.44.3,1.46-.84-.17-1.64-.18A12.85,12.85,0,0,1,88.61,64.14Z"/><path class="cls-192" d="M74.13,76.46a10.62,10.62,0,0,1-.68,1.18C74.35,77.86,75.07,77.11,74.13,76.46Z"/><path class="cls-193" d="M97.36,51a17.47,17.47,0,0,1-2.14,4.69c.63.37,1.6-.74,1.79.18A7.68,7.68,0,0,1,99.44,54a4,4,0,0,0,1.69-2.19c-.18-.61-.15-2.27-1.07,0-1.11.74-1.41,2.83-3,2.93A10.27,10.27,0,0,1,98.26,52C97.78,51.86,97.55,51.43,97.36,51Z"/><path class="cls-194" d="M75.9,80.49c-1.68.2-3.35.44-5,.66.64.86,1.8.39,2.62.92s1.73,1,2.4-.22c1.5,1.56-.37,3.18-2,3.31a11.6,11.6,0,0,0-2.42,1.39c1.69.61,4.72.74,5.33-1.41C75.76,83.91,78,83,79,82.6c.59-.52-.25-.74-.59-1,.6-.43,1.29-1.09,2.09-.84,2.11.59,4-1,6.13-.67a4.26,4.26,0,0,1,1.07.09c0-.17.1-.51.13-.68a8,8,0,0,0-2.44.06,4,4,0,0,0-2.68-1.14c.44.29.89.57,1.33.88-1.51.66-3.22.65-4.81,1C78.4,81.33,76.67,81.77,75.9,80.49Z"/><path class="cls-195" d="M95.22,55.71a19.07,19.07,0,0,0-1.28,4c0,2.74-.58,5.48-.76,8.22a6.08,6.08,0,0,0-.12.87c.38-.5.85-1.25,1.36-.44,0-.75.53-1.32.76-2-1.34-2,0-4.61.36-6.82a17.46,17.46,0,0,1,1-2.61,8.42,8.42,0,0,1,.49-1C96.82,55,95.85,56.08,95.22,55.71Z"/><path class="cls-196" d="M88.46,63.22c0,.31.09.62.15.92a12.85,12.85,0,0,0,2.81,4.44c.8,0,1.94,1.64,1.64.18a6.08,6.08,0,0,1,.12-.87c-.55.19-1.22.54-1.66-.06C90.19,66.52,89.63,64.65,88.46,63.22Z"/><path class="cls-197" d="M87.62,68c-.65-.41-1.24-2.14-2.09-1.19a30.37,30.37,0,0,0,2.91,4.06,7.08,7.08,0,0,1,1.67,2.27c.19-.67.22-2.35,1.36-.32l.17-.47a.94.94,0,0,1-.79-.32C89.63,70.79,88.91,69.16,87.62,68Z"/><path class="cls-198" d="M73.49,82.07c-.69.69-1.75.66-2.52,1.24.84.83,2.23.9,3,1.85,1.6-.13,3.47-1.75,2-3.31C75.22,83.08,74.34,82.64,73.49,82.07Z"/><path class="cls-199" d="M83.31,72.37c-1.14-1.07-2.24,0-.75.89.86.48,1.86.62,2.71,1.13C85.21,73.35,84,73,83.31,72.37Z"/><path class="cls-200" d="M101.13,51.81A4,4,0,0,1,99.44,54c1.09-.29,2.33.66,3.25-.34,1-.18,1-1.89.09-2C102.24,51.75,101.69,52.05,101.13,51.81Z"/><path class="cls-201" d="M96.52,56.89a17.46,17.46,0,0,0-1,2.61c.77.4.93-1,1.65-1,.55.61,1,1.46,2,1.31A3.63,3.63,0,0,0,96.52,56.89Z"/><path class="cls-202" d="M88.54,73.75c-1.77,1-3.51-1.47-5.32-1.82,0,.12.07.34.09.44.66.64,1.9,1,2,2a39.22,39.22,0,0,0,5.56,2.44c.39.12.78.26,1.16.4-.36-.66-1.73-1.42-1.18-2.16,1-.73.24-1.18-.57-1.56-.32.92-1.39,0-2-.14Z"/><path class="cls-203" d="M79.18,80.28c-1.09.12-2.18.15-3.28.21C76.67,81.77,78.4,81.33,79.18,80.28Z"/><path class="cls-204" d="M95.54,59.5c-.33,2.21-1.7,4.79-.36,6.82.1-.83.82-.82,1.49-.78.3-1.51,2.45-1.89,2.52-3.64-1.32.87-1.9,2.55-3.33,3.25-.91-.91.39-2.11.78-2.91a2.62,2.62,0,0,1,2.67-2l-.16-.47c-1,.15-1.41-.7-2-1.31C96.47,58.55,96.31,59.9,95.54,59.5Z"/><path class="cls-205" d="M89.89,68.43a1.34,1.34,0,0,0,.83,1.34A1.78,1.78,0,0,0,89.89,68.43Z"/><path class="cls-206" d="M90.07,73.39c-1.27-.12-2.4-1.1-3.77-1.06a9.61,9.61,0,0,0,1.92,1c.63.1,1.7,1.06,2,.14Z"/><path class="cls-207" d="M80.45,80.72c-.8-.25-1.49.41-2.09.84.34.3,1.18.52.59,1,.86-.13,2.84-1.42,3,0-.78,1-1.9,2.22-3.26,2.1l1.15,1.11c1.06-.06,1.64-1.44,2.19-2.26,1.16-.32.86-2.08,2.25-2.1.79-.27,1.59-.48,2.4-.67,0-.24,0-.48-.08-.72C84.45,79.76,82.56,81.31,80.45,80.72Z"/><path class="cls-208" d="M99.31,60.25a2.62,2.62,0,0,0-2.67,2c-.39.8-1.69,2-.78,2.91,1.43-.7,2-2.38,3.33-3.25A3.08,3.08,0,0,0,99.31,60.25Z"/><path class="cls-209" d="M79,82.6c-1,.42-3.19,1.31-2.12,2.54l.22-.19c.4-.55,1-.33,1.62-.26,1.36.12,2.48-1.13,3.26-2.1C81.79,81.18,79.81,82.47,79,82.6Z"/><path class="cls-210" d="M84.9,76.7c-.13-.36-.48-.78-.9-.54A1.16,1.16,0,0,0,84.9,76.7Z"/><path class="cls-211" d="M78.67,84.69c-.57-.07-1.22-.29-1.62.26.8.56,1.39,1.36,2.16,2-.1-.74-.5-1.83.61-1.1Z"/><path class="cls-212" d="M96.67,65.54c-.67,0-1.39-.05-1.49.78s-.78,1.25-.76,2a5.75,5.75,0,0,0,.45,1.46c0-2,2.75-1.94,3.83-3.19C97.89,66.3,96.57,66.84,96.67,65.54Z"/><path class="cls-213" d="M95.12,73c-.65-1.15-1.75-4.4-3.2-2.21.82,2.13.85,4.67,2.55,6.35.32.44.69,1,.76.16a5.15,5.15,0,0,1,.88-1.65C95.07,75.14,95.33,74,95.12,73Z"/><path class="cls-214" d="M91.45,71.43l-.6.59a.94.94,0,0,0,.79.32C91.8,72,91.59,71.7,91.45,71.43Z"/><path class="cls-215" d="M86.66,80.77c-.81.19-1.61.4-2.4.67.54.17,1.52,0,1.62.72.26,1-1.29,1.44-1.18,2.43.39.92,1.11-.55,1.66-.79C84.79,82.79,89,81.6,86.66,80.77Z"/><path class="cls-216" d="M90.81,75.07c-.55.74.82,1.5,1.18,2.16l.38.19a6.12,6.12,0,0,1,2.43.91,1.26,1.26,0,0,0,1-.49c-.12-.39-.14-1.24-.6-.53-.07.89-.44.28-.76-.16-.66-.27-1.51-.34-1.68-1.16A2.7,2.7,0,0,1,90.81,75.07Z"/><path class="cls-217" d="M87.65,80.14a4.26,4.26,0,0,0-1.07-.09c0,.24.06.48.08.72,2.38.83-1.87,2-.3,3,.66-.29,1.3-.62,2-.92-.57-.4-2-.83-.08-1.56.53-1,1.3.49,1.63,1l.6.24c.65-.7,1.3-1.38,2-2-.13-.45-.6-.63-.94-.88l-.61-.15C91.54,80.72,88.57,80.33,87.65,80.14Z"/><path class="cls-218" d="M87.78,79.46c0,.17-.1.51-.13.68.92.19,3.89.58,3.24-.62a15.66,15.66,0,0,0-2.74-.06Z"/><path class="cls-219" d="M90.83,76.83c.19,1,1.77,1.64.67,2.84.34.25.81.43.94.88l.1.2c1.68-.67,4.31-1.17,4.64-3.23a5.12,5.12,0,0,0-1.35.32,1.26,1.26,0,0,1-1,.49,2.09,2.09,0,0,1-2.43-.91L92,77.23C91.61,77.09,91.22,77,90.83,76.83Z"/><path class="cls-220" d="M95.25,72.82l-.13.19c.21.94-.05,2.13,1,2.65C95.89,74.69,95.56,73.75,95.25,72.82Z"/><path class="cls-221" d="M89.87,82.36c-.33-.55-1.1-2-1.63-1-1.9.73-.49,1.16.08,1.56A2.63,2.63,0,0,0,89.87,82.36Z"/><path class="cls-222" d="M94.8,78.33a6.12,6.12,0,0,0-2.43-.91A2.09,2.09,0,0,0,94.8,78.33Z"/><path class="cls-223" d="M96.11,75.66a5.15,5.15,0,0,0-.88,1.65c.46-.71.48.14.6.53a5.12,5.12,0,0,1,1.35-.32l.42-.5C96.7,77.4,96.51,76.19,96.11,75.66Z"/><path class="cls-224" d="M92.44,80.55c-.67.67-1.32,1.35-2,2,0,.15-.18.45-.24.6a8.71,8.71,0,0,0,2.31-2.45Z"/><path class="cls-225" d="M97.18,77.52c-.33,2.06-3,2.56-4.64,3.23a8.71,8.71,0,0,1-2.31,2.45c-.13.29-.25.59-.37.9A2.64,2.64,0,0,1,89.13,86a3.59,3.59,0,0,0-.1,1.22,8.35,8.35,0,0,1,.9,1.45c.66-.88.38-2.1.64-3.11.11-.77-.06-1.72.69-2.23.91.72-.43,2.12.79,2.83a28.45,28.45,0,0,0,6.17-6.74c1.46,2.1,3.42-1.84,4.92-.32.15,2,2.33-.82,2.69.76.07.47-.58.58-.87.83.36.57,1.79.33,2.47.89.89-1.34,2.36-.11,3,.64-.32-.55-.63-1.13-1-1.68l-.11-.16c-1-.92-2.12-1.8-3.13-2.77L105,76.81a20.59,20.59,0,0,0-2.39-.85,9.9,9.9,0,0,1-2.92.25c-.71.26-1.41.54-2.11.81Z"/><path class="cls-226" d="M89.86,84.1A2.82,2.82,0,0,0,89.13,86,2.64,2.64,0,0,0,89.86,84.1Z"/><path class="cls-227" d="M91.26,83.32c-.75.51-.58,1.46-.69,2.23.63.73,1.65,1.2,1,2.29.32,1.79,1.51.37,2.26-.06.79,1.52,2.65,1.4,3.74,2.62a2.54,2.54,0,0,0,1.58-1.27c1.12-.13.16.85,0,1.4,1,.44,1.31-.89,2.12-1.19,2.7.41-1.4,2.55.66,2a6,6,0,0,0,.93-1.86c1.45.47,2.63-1.8,1.36-2.64-1.22-.21-.62,2.37-2,1.43-.54-1.51-2.24-.06-2.83-1.22-.58-.85-.59,1-1,1.33a2.47,2.47,0,0,1-.86-2c-1.52-.84-.67-2.72-.88-4.11a30.14,30.14,0,0,0,4.23-2c.26.86.83,1.86,1.82,1.11.3-.29,2.74-2.52,2.26-.78.29-.25.94-.36.87-.83-.36-1.58-2.54,1.29-2.69-.76-1.5-1.52-3.46,2.42-4.92.32a28.45,28.45,0,0,1-6.17,6.74C90.83,85.44,92.17,84,91.26,83.32Z"/><path class="cls-228" d="M90.57,85.55c-.26,1,0,2.23-.64,3.11a8.35,8.35,0,0,0-.9-1.45,10.15,10.15,0,0,0,.9,3.7c.83-.16.85-1.77,1.85-1.19,1.66.32,1.9,2.45,3.42,2.92,1.25-.75-1-1.65-.24-2.65.49-1.21,1.79.49,2.63.41-1.09-1.22-3-1.1-3.74-2.62-.75.43-1.94,1.85-2.26.06C92.22,86.75,91.2,86.28,90.57,85.55Z"/><path class="cls-229" d="M102.63,76a4.21,4.21,0,0,0-2.92.25A9.9,9.9,0,0,0,102.63,76Z"/><path class="cls-230" d="M102.7,81.46c.3-.29,2.74-2.52,2.26-.78.36.57,1.79.33,2.47.89.89-1.34,2.36-.11,3,.64a5.55,5.55,0,0,0,1.83,1.87l-.85-.32c.71,1.37,0,3.12.79,4.38.81,0,1-1,1.42-1.49,1,.56.31,1.71-.17,2.36.28.59,1.06,1.37.39,2-.63.41-2,.73-1.6,1.71a4.28,4.28,0,0,1-.05,2.89,21.47,21.47,0,0,0,2,2.59,3.49,3.49,0,0,1-2.73,1.7c-.69,1,.07,1.3,1,.86.53,1.54,2.32,2.11,3.49,2.39.07-1.32,1-.42,1.65-1.23.49,1-1.38,2.74,0,3.71.69.54.83-.73,1.45-.74,2,.8.5,3.71-1.29,3.48a2,2,0,0,0-1.77,1l-.92-.44c.57-.38.83-1.38,0-1.55l-.24-.06c.51-2-2.35-2.86-2.12-4.84-.21-.9-1.93-.3-1.87-1.32.14-1.83-2.29-.79-3.16-2,1.1-.37,3.33-.48,3-2.17-.58-1.23,1.1-1.66,1.19-2.62-1.56-1.31-3.26.46-4.8.79-1-2.06,1.19-3.25,2.55-4.27-1.27-.6-2.39,1.29-3.37.75.21-2.33,3.19-1.29,3.89-3.36-1.26-.45-2.59,1.21-3.95.47-.59,1.41-2.24,1.11-3.22,2-.31.22-.61.46-.93.67a6,6,0,0,0,.93-1.86c1.45.47,2.63-1.8,1.36-2.64-1.22-.21-.62,2.37-2,1.43-.54-1.51-2.24-.06-2.83-1.22-.58-.85-.59,1-1,1.33a2.47,2.47,0,0,1-.86-2c-1.52-.84-.67-2.72-.88-4.11a30.14,30.14,0,0,0,4.23-2C101.14,81.21,101.71,82.21,102.7,81.46Zm8.73,14.25"/><path class="cls-231" d="M91.78,89.72c-1-.58-1,1-1.85,1.19.06.1.16.32.21.43A11.7,11.7,0,0,1,93.23,95c.87.93,1.32,2.2,2.4,3,3.14,2.88,5.59,6.56,9.35,8.72a2.34,2.34,0,0,1,1-1.59,3.14,3.14,0,0,1-2.4-1.06c.47-1,1.53.47,1.92-.6-.1-.79-.45-1.84.43-2.36,1.85-.37,1.63,3.35,3.4,2.41a1.37,1.37,0,0,1,2.22.32c.26,1.32.4,2.87,2,3.07,0-.7,0-1.55-.85-1.91-.77-1-.87-2.68-2.34-2.89-.81-1.26-2.74-2.51-4.23-2.25-1.73.6-1.68,3.94-3.85,3-.62-.95-2.31-1.62-2.05-3,.13-1-1-1.56-1.82-1.61A38.06,38.06,0,0,1,96,94.07c.4-.21.83-.36,1.23-.58-1.5.24-1.41-1.44-1.27-2.49a25.73,25.73,0,0,1,3-.09c-.09-.47-1-.28-1.4-.51-.84.08-2.14-1.62-2.63-.41-.78,1,1.49,1.9.24,2.65C93.68,92.17,93.44,90,91.78,89.72Z"/><path class="cls-232" d="M90.14,91.34A11.72,11.72,0,0,0,93.23,95,11.7,11.7,0,0,0,90.14,91.34Z"/><path class="cls-233" d="M106.29,77.6,105,76.81Z"/><path class="cls-234" d="M109.42,80.37a9.78,9.78,0,0,0-3.13-2.77C107.3,78.57,108.37,79.45,109.42,80.37Z"/><path class="cls-235" d="M99,90.91A25.73,25.73,0,0,0,96,91c-.14,1-.23,2.73,1.27,2.49C97.73,92.6,98.89,92,99,90.91Z"/><path class="cls-236" d="M99.17,89.13a2.54,2.54,0,0,1-1.58,1.27c.41.23,1.31,0,1.4.51-.1,1.06-1.26,1.69-1.77,2.58-.4.22-.83.37-1.23.58a38.06,38.06,0,0,0,2.4,4.16c.83,0,2,.65,1.82,1.61-.26,1.36,1.43,2,2.05,3-.52-1.1,0-3.4,1.35-3.55-.53-1.39-2.26-1.69-2.48-3.25-2.81.84.44-3.52,1.33-1.56.6-.54,2.1-1.22,1.07-2.08-.62.39-2.81.94-.64-.62.43-.29.18-.7,0-1.07-.31.22-.61.46-.93.67-2.06.53,2-1.61-.66-2-.81.3-1.09,1.63-2.12,1.19C99.33,90,100.29,89,99.17,89.13Z"/><path class="cls-237" d="M109.53,80.53c.32.55.63,1.13,1,1.68a5.55,5.55,0,0,0,1.83,1.87l.2.14A14.18,14.18,0,0,0,109.53,80.53Z"/><path class="cls-238" d="M106.15,88.7c-.59,1.41-2.24,1.11-3.22,2,.14.37.39.78,0,1.07-2.17,1.56,0,1,.64.62,1,.86-.47,1.54-1.07,2.08.53,1.24,2.15,1.46,2.8,2.57-.36.82-.73,2-1.65,2.24-1.38.15-1.87,2.45-1.35,3.55,2.17.91,2.12-2.43,3.85-3,0-.87.85-.7,1.49-.68,1.1-.37,3.33-.48,3-2.17-.58-1.23,1.1-1.66,1.19-2.62-1.56-1.31-3.26.46-4.8.79-1-2.06,1.19-3.25,2.55-4.27-1.27-.6-2.39,1.29-3.37.75.21-2.33,3.19-1.29,3.89-3.36C108.84,87.78,107.51,89.44,106.15,88.7Z"/><path class="cls-239" d="M102.46,94.46c-.89-2-4.14,2.4-1.33,1.56.22,1.56,2,1.86,2.48,3.25.92-.23,1.29-1.42,1.65-2.24C104.61,95.92,103,95.7,102.46,94.46Z"/><path class="cls-240" d="M112.31,84.08l.2.14c1.32,1.88,2.66,3.76,3.8,5.77-.94,1.05-2.44,1.76-2.49,3.35-.77,1,.37,2.26,1.17,1.16,1.18.11,2.24.26,2.64-1.19A6.36,6.36,0,0,0,118.86,96c.21,1.46-1.8,2.14-1.31,3.52.91.08,1.82,0,2.72.13,1.07,1.23,1.31,3,2.52,4.12.65.82-.41,2-1.23,2.32-.56.07-1.3,1-.33.88.8-.8,1.89-.7,2.91-.81.19.64-1.31,1-.32,1.62.72,1.29,3.41.85,2.72,2.76-.85.15-.24.58.12,1-.42.9-.64-.72-1.25-.39a4.38,4.38,0,0,0-2,2.15c1,0,2,.93,2.85-.19,2.37-.68,3.24,1.46,4.25,3-1-1.3-1.93,1.75-2.71.37a2.64,2.64,0,0,0-.54-2.11c-.92.47-1.71,1.09,0,1.84-1.32,1.13-1.71-2.77-3.09-1.54.09,1.2-1.06,1-1.9.87-.21-.39-.39-.8-.61-1.19-.69-1.16-1.92,1.69-2.77,1.85-.67-.65.22-1.44.59-2s1.26-1,1.19-1.77c-.54-2.32-2.21-1.09-3,.18-1.46-1.22.85-2.75-.12-4l.13-.25c1.79.23,3.34-2.68,1.29-3.48-.62,0-.76,1.28-1.45.74-1.33-1,.54-2.73,0-3.71-.66.81-1.58-.09-1.65,1.23-1.17-.28-3-.85-3.49-2.39-.9.44-1.66.13-1-.86a3.49,3.49,0,0,0,2.73-1.7,21.47,21.47,0,0,1-2-2.59,4.28,4.28,0,0,0,.05-2.89c-.44-1,1-1.3,1.6-1.71.67-.6-.11-1.38-.39-2,.48-.65,1.12-1.8.17-2.36-.46.49-.61,1.52-1.42,1.49-.83-1.26-.08-3-.79-4.38ZM116,97.39a2.38,2.38,0,0,0-1.27,0C113.62,98,116.93,98.49,116,97.39Z"/><path class="cls-241" d="M107.6,99.11c-.64,0-1.44-.19-1.49.68,1.49-.26,3.42,1,4.23,2.25,1.47.21,1.57,1.91,2.34,2.89.84.36.8,1.21.85,1.91l.49.48.73-.06c.51-2-2.35-2.86-2.12-4.84-.21-.9-1.93-.3-1.87-1.32C110.9,99.27,108.47,100.31,107.6,99.11Z"/><path class="cls-242" d="M116.31,90c-.94,1.05-2.44,1.76-2.49,3.35-.77,1,.37,2.26,1.17,1.16,1.18.11,2.24.26,2.64-1.19A6.36,6.36,0,0,0,118.86,96c.21,1.46-1.8,2.14-1.31,3.52.91.08,1.82,0,2.72.13,1.07,1.23,1.31,3,2.52,4.12.65.82-.41,2-1.23,2.32-.56.07-1.3,1-.33.88.8-.8,1.89-.7,2.91-.81.19.64-1.31,1-.32,1.62.72,1.29,3.41.85,2.72,2.76,1,.21.56,1,.59,1.66,1.07.52,1.36-1.34,2.38-.26a31.18,31.18,0,0,1-2-3.61,1.41,1.41,0,0,1-.88-1.32c-1.2-2.09-2.46-4.12-3.75-6.16C120.07,97.58,119.07,93.26,116.31,90Z"/><path class="cls-243" d="M105.89,101c-.88.52-.53,1.57-.43,2.36-.39,1.07-1.45-.38-1.92.6a3.14,3.14,0,0,0,2.4,1.06,2.34,2.34,0,0,0-1,1.59l.93.85c-.19-1.1,1.14-1.31,1.36-2.25.27-1.22,1.77-1,2.64-1.61,1.63.65,1.64,2.46,2.55,3.7-.35,1.45-1.62-1.94-2.13-.79-.32.74-1.35,1-1.38,1.86-.21,1.47,1.51,2.17,2.07,3.33.59,1.45,1.87.9,2.8.4,0-.83-.94.48-1.37-.07a23.25,23.25,0,0,1,2.55-3.2c.57-.38.83-1.38,0-1.55-.48,1.44-1.61,2.4-2.23.5-.34-.47.44-.8.72-.37l.54-.13-.49-.48c-1.62-.2-1.76-1.75-2-3.07a1.37,1.37,0,0,0-2.22-.32C107.52,104.39,107.74,100.67,105.89,101Z"/><path class="cls-244" d="M109.91,103.64c-.87.57-2.37.39-2.64,1.61-.22.94-1.55,1.15-1.36,2.25,3.17,2.51,5.4,6,8.43,8.6,0-.88.7-3.87-.6-2.55,0-.47.08-.94.08-1.41-.93.5-2.21,1-2.8-.4-.56-1.16-2.28-1.86-2.07-3.33,0-.88,1.06-1.12,1.38-1.86.51-1.15,1.78,2.24,2.13.79C111.55,106.1,111.54,104.29,109.91,103.64Z"/><path class="cls-245" d="M114.76,97.36c-1.14.68,2.17,1.13,1.27,0A2.38,2.38,0,0,0,114.76,97.36Z"/><path class="cls-246" d="M113.48,107.45c-.28-.43-1.06-.1-.72.37C113,107.71,113.24,107.58,113.48,107.45Z"/><path class="cls-247" d="M113.48,107.45c-.24.13-.48.26-.72.37.62,1.9,1.75.94,2.23-.5l-.24-.06-.73.06Z"/><path class="cls-248" d="M115,108.87a23.25,23.25,0,0,0-2.55,3.2c.43.55,1.33-.76,1.37.07,0,.47-.07.94-.08,1.41,1.3-1.32.56,1.67.6,2.55l.74.68.18-.19a7.24,7.24,0,0,1,2.13-2.79c.75-1.19,1.88-3.55,3.34-1.35-.54-2.32-2.21-1.09-3,.18-1.46-1.22.85-2.75-.12-4a18.79,18.79,0,0,1-3.12,3.12c-1.2-.65,1.48-1.67,1.48-2.4Z"/><path class="cls-249" d="M117.69,108.34a2,2,0,0,0-1.77,1c0,.73-2.68,1.75-1.48,2.4a18.79,18.79,0,0,0,3.12-3.12Z"/><path class="cls-250" d="M120.73,112.45c-1.46-2.2-2.59.16-3.34,1.35.67.24,1.45.81,2.15.42C119.85,113.6,120.8,113.18,120.73,112.45Z"/><path class="cls-251" d="M117.39,113.8a7.24,7.24,0,0,0-2.13,2.79c2.45,3.06,6.41,4.18,9,7,1-.25,1.26.75,1.59,1.43a2.08,2.08,0,0,0,2-2.63l-.28-.33c-.76,2.58-2.14.92-3.39,0a3.35,3.35,0,0,0-.67-2.45c-1.9-.31-1.24-3.14-3.1-3.7-.33-.79.7-1.39,1.35-1.6-.69-1.16-1.92,1.69-2.77,1.85-.67-.65.22-1.44.59-2C118.84,114.61,118.06,114,117.39,113.8Z"/><path class="cls-252" d="M115.26,116.59l-.18.19c1.64,2.16,4.21,3.25,6.17,5.08a21.4,21.4,0,0,0,4.27,3.62c-.43-.63-.85-1.24-1.26-1.88C121.67,120.77,117.71,119.65,115.26,116.59Z"/><path class="cls-253" d="M126.6,107a1.41,1.41,0,0,0,.88,1.32A1.71,1.71,0,0,0,126.6,107Z"/><path class="cls-254" d="M121.72,114.34c-.65.21-1.68.81-1.35,1.6,1.86.56,1.2,3.39,3.1,3.7a3.35,3.35,0,0,1,.67,2.45c1.25.9,2.63,2.56,3.39,0-1.77-2.15-3.45-4.38-5.2-6.54C122.12,115.14,121.94,114.73,121.72,114.34Z"/><path class="cls-255" d="M125.41,111.09a4.38,4.38,0,0,0-2,2.15c1,0,2,.93,2.85-.19,2.37-.68,3.24,1.46,4.25,3l.08.21c.76,1,.72-.13.68-.81a4.22,4.22,0,0,1,1.08,2.7c.14,2,2.08,3.19,2.3,5.09-1.17-.72-1.6-2.08-2.63-2.94a2.4,2.4,0,0,0,.62,2.57c-.29.89-1.51,1.47-2.18,2.23-1.33,1.59.49.47,1.35.16.8.78.07,2-.37,2.75.08,1.45,1.24-1.68,2,.15a2.27,2.27,0,0,1,1.66.94c1,.63,1.29-1,2.14-1,1.19,1.71,3,2.73,4.16,4.6.56,1.3,2.86,2.67,1.4,4.13,2,.17.73,4.13,3,3.48a8.51,8.51,0,0,1-.43-2c.55.44,1.1.9,1.65,1.36l.18-.17-.16-.18c-.56-.54-1.49-.9-1.29-1.78-.25-.37-.52-.75-.79-1.1-1-.16-1.29-1.4-1.73-2.17a93.25,93.25,0,0,1-8-12.24c-1.05-3.78-3.6-6.88-5.74-10.08-1-1.08-1.31.78-2.38.26,0-.67.42-1.45-.59-1.66-.85.15-.24.58.12,1C126.24,112.38,126,110.76,125.41,111.09Z"/><path class="cls-256" d="M122.33,115.53c1.75,2.16,3.43,4.39,5.2,6.54l.28.33,1.51,1.37c1.35-.49,2-2.72.62-3.52-1.06,1.21-2.46-2.08-.9-2,.18-1.1,1.85-.89,1.56-2l-.08-.21c-1-1.3-1.93,1.75-2.71.37a2.64,2.64,0,0,0-.54-2.11c-.92.47-1.71,1.09,0,1.84-1.32,1.13-1.71-2.77-3.09-1.54C124.32,115.86,123.17,115.65,122.33,115.53Z"/><path class="cls-257" d="M129,118.29c-1.56-.12-.16,3.17.9,2,1.33.8.73,3-.62,3.52l1.15,1.38c.67-.76,1.89-1.34,2.18-2.23a2.4,2.4,0,0,1-.62-2.57c1,.86,1.46,2.22,2.63,2.94-.22-1.9-2.16-3.14-2.3-5.09a4.22,4.22,0,0,0-1.08-2.7c0,.68.08,1.84-.68.81C130.89,117.4,129.22,117.19,129,118.29Z"/><path class="cls-258" d="M125.85,125c-.33-.68-.63-1.68-1.59-1.43.41.64.83,1.25,1.26,1.88,1.45,1.31,2.91,2.6,4.38,3.89-2.2-2.36.8.15,1.55-1.31.44-.79,1.17-2,.37-2.75-.86.31-2.68,1.43-1.35-.16l-1.15-1.38-1.51-1.37A2.08,2.08,0,0,1,125.85,125Z"/><path class="cls-259" d="M131.45,128.06c-.75,1.46-3.75-1-1.55,1.31,4.14,3.87,8.5,7.5,12.46,11.58,1.65-1.7,3.1.82,4.24,2a1.13,1.13,0,0,1-.39,1.85c.33.35.64.73.95,1.11.65.46,1.32,1,1.94,1.46.43-1.81-2.14-2.46-1.79-4.3a9.88,9.88,0,0,1-1.49-2.72c-2.32.65-1-3.31-3-3.48,1.46-1.46-.84-2.83-1.4-4.13-1.14-1.87-3-2.89-4.16-4.6-.85,0-1.16,1.67-2.14,1a2.27,2.27,0,0,0-1.66-.94C132.69,126.38,131.53,129.51,131.45,128.06Z"/><path class="cls-260" d="M143.25,134.23c.44.77.71,2,1.73,2.17A13.4,13.4,0,0,0,143.25,134.23Z"/><path class="cls-261" d="M146.6,142.92c-1.14-1.15-2.59-3.67-4.24-2,1.37,1.18,2.58,2.53,3.85,3.82A1.13,1.13,0,0,0,146.6,142.92Z"/><path class="cls-262" d="M145.77,137.5c-.2.88.73,1.24,1.29,1.78C146.64,138.67,146.23,138.08,145.77,137.5Z"/><path class="cls-263" d="M145.39,138.27a8.51,8.51,0,0,0,.43,2,9.88,9.88,0,0,0,1.49,2.72c1,2,3.09,3.08,4.63,4.59a48.42,48.42,0,0,0-4.9-8C146.49,139.17,145.94,138.71,145.39,138.27Z"/><path class="cls-264" d="M147.22,139.46l-.18.17a48.42,48.42,0,0,1,4.9,8c.39.57.73,1.18,1.11,1.76a19.77,19.77,0,0,1,1.2,2,13.8,13.8,0,0,1,2,2.84,1.6,1.6,0,0,0-.61-1.83C152.76,148.11,150.74,143.26,147.22,139.46Z"/><path class="cls-265" d="M147.31,143c-.35,1.84,2.22,2.49,1.79,4.3.4.62,2,.8,1.36,1.7-.19.81-.87-.3-1.27-.46l1,1.21c1,0,1.87-.66,2.82-.4-.38-.58-.72-1.19-1.11-1.76C150.4,146.12,148.34,145,147.31,143Z"/><path class="cls-266" d="M149.1,147.34c-.62-.51-1.29-1-1.94-1.46a17.81,17.81,0,0,0,2,2.7c.4.16,1.08,1.27,1.27.46C151.06,148.14,149.5,148,149.1,147.34Z"/><path class="cls-267" d="M153.05,149.39c-1-.26-1.85.41-2.82.4a19.4,19.4,0,0,1,1.87,2.79c.55.44,1.1.87,1.65,1.32a2.1,2.1,0,0,0,.5-2.55A19.77,19.77,0,0,0,153.05,149.39Z"/><path class="cls-268" d="M152.1,152.58a4.9,4.9,0,0,0,1.86,1.89l-.21-.57C153.2,153.45,152.65,153,152.1,152.58Z"/><path class="cls-269" d="M154.25,151.35a2.1,2.1,0,0,1-.5,2.55l.21.57c.23.6.45,1.21.72,1.8.91.22,1.3.68,1.16,1.36,2.22,2.14,4.72,4.25,5.71,7.28.2,1.29,1,2.36,1.45,3.57l.13.17,1.06.66c.09-1.07,1-1.71,1.81-.7-2.66-4.34-5.6-8.5-8.49-12.69a4.83,4.83,0,0,1-1.27-1.73A13.8,13.8,0,0,0,154.25,151.35Z"/><path class="cls-270" d="M156.24,154.19a4.83,4.83,0,0,0,1.27,1.73A3.33,3.33,0,0,0,156.24,154.19Z"/><path class="cls-271" d="M154.68,156.27a2,2,0,0,0,1.16,1.36C156,157,155.59,156.49,154.68,156.27Z"/><path class="cls-272" d="M155.84,157.63c2.84,3.32,4.74,7.27,7.16,10.85-.43-1.21-1.25-2.28-1.45-3.57C160.56,161.88,158.06,159.77,155.84,157.63Z"/><path class="cls-273" d="M163.13,168.65a19.69,19.69,0,0,0,1.72,2.25l.25.16a4.21,4.21,0,0,1-.91-1.75Z"/><path class="cls-274" d="M166,168.61c-.79-1-1.72-.37-1.81.7a4.21,4.21,0,0,0,.91,1.75c1.18,1,2.3,2.07,3.44,3.12,2.85,1.36,4.49,4.18,6.49,6.48,1.57-.87-1.62-2.27-1.49-3.76l-.1-.17a8.67,8.67,0,0,1-1.73-1.69c-.23-.3-.47-.6-.71-.89l-1.64-1.36c-1.07-1.31-3.48-1.78-3.09-3.83C166.2,168.88,166.06,168.7,166,168.61Z"/><path class="cls-275" d="M166.27,169c-.39,2,2,2.52,3.09,3.83l.18-.16A40.62,40.62,0,0,1,166.27,169Z"/><path class="cls-276" d="M164.85,170.9a12.23,12.23,0,0,0,3.69,3.28c-1.14-1.05-2.26-2.12-3.44-3.12Z"/><path class="cls-277" d="M169.54,172.63l-.18.16,1.64,1.36A9.57,9.57,0,0,0,169.54,172.63Z"/><path class="cls-278" d="M171.71,175a8.67,8.67,0,0,0,1.73,1.69A5.27,5.27,0,0,0,171.71,175Z"/><path class="cls-279" d="M173.54,176.9c-.13,1.49,3.06,2.89,1.49,3.76,1.37,1.45,2.73,2.92,4,4.47,1.42,1.76,2,4.16,4,5.42C181.25,185.16,176.9,181.31,173.54,176.9Z"/><path class="cls-280" d="M112.28,47.12a.7.7,0,0,0-.47-.55C111.56,46.84,112,47.33,112.28,47.12Z"/></svg>