<svg id="Calque_1" data-name="Calque 1" xmlns="http://www.w3.org/2000/svg" viewBox="0 0 703 327"><defs><style>.cls-1{fill:#e085ae;}.cls-2{fill:#1d1d1d;}.cls-3{font-size:85px;font-family:Lato-Bold, Lato;}.cls-3,.cls-4{fill:#fff;font-weight:700;}.cls-4{font-size:50px;font-family:Lato-BoldItalic, Lato;font-style:italic;}</style></defs><title>rose_rectangle</title><rect class="cls-1" y="1" width="703" height="325"/><path class="cls-2" d="M313.93,243c.25,0,.37,0,0,0Z"/><path class="cls-2" d="M270.24,232.7h.18a2.45,2.45,0,0,1,.38-.13Z"/><path class="cls-2" d="M300.6,233h.19S300.81,233,300.6,233Z"/><path class="cls-2" d="M199.09,234.11a7.14,7.14,0,0,0,0,.9C199.1,234.74,199.1,234.47,199.09,234.11Z"/><path class="cls-2" d="M369.58,242.71h-.13l.32,0Z"/><path class="cls-2" d="M369,242.8c-.67,0,.18-.07.48-.08a15.07,15.07,0,0,0-2.23,0C367.22,242.75,368.64,242.74,369,242.8Z"/><path class="cls-2" d="M470.52,242.5l-.3,0Z"/><path class="cls-2" d="M203.25,237l-.09,0Z"/><path class="cls-2" d="M454.59,242.42l-.18.12C454.57,242.49,454.6,242.46,454.59,242.42Z"/><path class="cls-2" d="M270.8,232.57l.22,0Z"/><path class="cls-2" d="M328.66,233.09s.07.06.15.09h.07Z"/><path class="cls-2" d="M470.07,235a.14.14,0,0,0-.07,0l-.57.08A4.32,4.32,0,0,0,470.07,235Z"/><path class="cls-2" d="M367.14,233.62l.13,0c-.66-.05-2.39-.05-4.61-.05l-.14.15Z"/><path class="cls-2" d="M409.23,237.12l-4.11-.3c13.17-.14,19.32.17,30.59-.08l-.63.07c1.64.07,2.57-.61,20.69.22v0a12.77,12.77,0,0,1,1.88,0l-3.13-.18c1.88-.08,3.52-.22,6-.24a1.62,1.62,0,0,1,.77.14l6.13,0,1.88.19c1.88-.1,1-.51,6-.28-1.89-.29,2.49-.18,1.87-.32l1.29.14,1.49,0,.74,0c0,.24,0,.48,0,.71v.2c0,.15,0,.31,0,.46l0,.88c0,1.12.07,2,.12,2.49,0,0,0-.74.1-1.88,0-.57.07-1.25.11-2,0-.44.09-.92.13-1.41l-1.54-.15-2.43-.15c-1.53-.1-2.84-.2-3.63-.27,4.2.08,1.11,0,.28-.13l-.28.07c-2.52-.07-2.52-.25-3.77-.3l.07.05.16,0c.12,0,0,.06-.09.07,0,0-.08.07-.77.06l.13,0c-1.05,0-2.86,0-3.65,0l0-.15c-1.86.29-12.54-.44-15.05-.45-2.51-.19-5.63,0-8.78-.05-5,0-2.5-.22-5-.35-3.14-.09.63.18-.63.19l-3.76-.21c2.19,0,1-.11.6-.17-3.25,0-8.38-.3-9.38,0-4.39-.14-4.4-.26-6.28-.28.63.06,1.88.11,1.89.17-1.75-.14-.84,0-.12.06-2.68.13-13.91-.55-14.47-.22v-.06c-.62.25.37.48-1.5.62l-1.25-.11-1.88.11c-1.26-.08-.64-.15-.64-.18-3.06.11-7.34,0-11.05,0l3.93.67c-3.13-.16-8.78-.47-9.4-.26l-1.88-.22c-6.28-.43-4.38.18-6.89.06l-3.15-.25h3.13c-3.13-.12-4.39-.2-6.89-.36h0l.31,0h-.44a26,26,0,0,1-4.23.2c-3.13,0-5.59.14-10.6-.12l-1.25.25-3.77-.15v-.2l15.37-.07.08-.09c-2.81,0-6,.09-7.86.07-.91,0-3.22-.25-1.54-.38l-1.74.19c-9.38,0-9.44,0-19.23-.19l.85.1a26,26,0,0,1-4.41,0c-5.88,0-12-.16-15.79-.41l-.83.23c-1.24,0-3.1-.36-3.71,0l-2.65.11c-1.7,0-2.74.12-4.67,0h0l-.36,0,0,0c-3.84-.1,0,.21-4.36.08-1.41-.17-1.56.3-3.7.24L290.6,233c-3.89-.19-4.55.15-10.17.15-2.71-.12-4-.41-2.22-.66a28.36,28.36,0,0,1-4.38.35c-.51-.13-.16-.16.56-.27a30.55,30.55,0,0,0-4,.11,6.78,6.78,0,0,1-2.08.63l.85.08a71.81,71.81,0,0,1-7.53.06l.1-.12-2.86.07-.18-.16-4.09.05.56,0c-1,0-4.11.07-5.91,0l.07-.08c-5.09-.27-9.28.08-15.23.11l.78-.18c-2-.17-.56.27-3,.19l-.12-.22a14.16,14.16,0,0,1-4.22-.17l.68.29-2.76-.06c-3-.1-1.86-.36-1.42-.51l-2.07.23-.4-.25c-1.52.29-1.52-.05-4.17.11-.22-.1.45-.15-.45-.19l-4.37.35,2.64-.16-.32.37c-2.75.27-3.72,0-5.69.06l1.36-.11a40.76,40.76,0,0,1-5.18-.15c.56.07,1.41.17.12.22-.95,0-.52-.13-1.42-.17a.76.76,0,0,1-.36.13l-.33,0-.2,0-.34,0c-1,.05-2.29.08-3.67.07,0,.68,0,1.38,0,2.09a1,1,0,0,1-.09-.4l.06,1.25c0,.38,0,1.08,0,1.43l-.13-.27s-.05-.08-.07-.14l-.07-.25c.09.89.18,1.13.26,2,0,1.24,0,2.8,0,3.76.64,0,1,0,.86.07l-1,.05v0l10.65.06.13.22c.88-.3,4.89.11,4.6-.26,1.69.2,6.67-.14,5.68.28,5.9,0,9.09-.37,16.27-.17,2.56.35,9.57.24,14.18.28l24-.4c5.54.5,13.82-.17,19.77.11l1.64-.2c4,.32,10-.06,15.56.24,1.36-.09,2.08-.11,2.39-.12a1.46,1.46,0,0,1-.75-.17c1.58.09,4.79,0,4.57.23l-.41,0c-.23.25,4.82-.12,6.59.1l-1-.27,3,.05-.8.05c13.06-.59,18.95.25,31.22-.29-1.63.29,2.41-.15,2.57.17,3.09.4,5.73-.09,8.27-.19,0,0,0,0,.17-.06l4.43,0c-2.64.4,3.19-.34.76,0,11.56.3,26.64,0,40,.14l-.59-.11c3.39,0,7.61-.1,10.18.06a55.47,55.47,0,0,0,6.63-.28c2.83-.17,5.39.18,4.18.16,3,0,5.85-.41,10-.26,1.43.34,11.42-.33,11.55,0l0,0c5.36.27,10.42-.19,16.2.06l-.31.05,11.75-1.17-3.35-1.28-10.18-1-27.61.23-22-.41-53.61.14-3.83.29c-10.54-.51-24.05.07-35.4-.29l-.23.25a21.19,21.19,0,0,1-3.78-.18c-29.76.05-60.41.38-87.19.07-2.58-.16-10.43-.07-12.46-.24-3.55.12-7.19.2-10.84.24l-8.95,0c0-.68,0-1.35,0-2l0,.06,0-.28.38,0c.12,0,.18.05,0,.07,4.63-.22,11.92,0,17.58.09l-.33,0c33.06,0,63.75-.42,96.54-.08,15.24.41,33-.15,50.47.19C370.72,237.43,406.1,237.24,409.23,237.12Z"/><path class="cls-2" d="M461.31,236.79h-.14C461.18,236.9,461.38,236.86,461.31,236.79Z"/><path class="cls-2" d="M388.22,233.92h.23l-.87-.15Z"/><path class="cls-2" d="M435,233.84c-2.11,0-2.21,0-1.91,0C433.89,233.88,434.56,233.87,435,233.84Z"/><path class="cls-2" d="M478.49,236.59c1.1,0,.68-.05,0-.12l-1.91,0Z"/><path class="cls-2" d="M474,235.17l.35-.09C473.68,235.1,473.7,235.13,474,235.17Z"/><path class="cls-2" d="M182.78,231.83s0,0,0,0Z"/><path class="cls-2" d="M163.14,225.92h0L163,226Z"/><path class="cls-2" d="M160.14,224.48v0S160.1,224.52,160.14,224.48Z"/><path class="cls-2" d="M170.5,227.93a0,0,0,0,0,.06,0Z"/><path class="cls-2" d="M188.64,233.24h0l0,0Z"/><path class="cls-2" d="M188.56,233.3c-.06-.05,0-.06.07-.06a.21.21,0,0,0-.22-.1C188.39,233.21,188.54,233.24,188.56,233.3Z"/><path class="cls-2" d="M199.25,235.89l0,0Z"/><path class="cls-2" d="M171.37,224.23h0Z"/><path class="cls-2" d="M197.6,235.38l0,.11A.34.34,0,0,0,197.6,235.38Z"/><path class="cls-2" d="M163,226l0,0Z"/><path class="cls-2" d="M157.31,223.31a.51.51,0,0,0,0-.09h0Z"/><path class="cls-2" d="M144.55,214.54l0,0,.1,0A.1.1,0,0,0,144.55,214.54Z"/><path class="cls-2" d="M153.63,221.21s0,0,0,0a1.44,1.44,0,0,0,.44.24l.07-.13Z"/><path class="cls-2" d="M151,216.13l.25.47c-1.3-.5-1.71-1.06-2.83-1.43l.09,0c-.1-.13-.59.4-1.63-1.29l0,0s-.09,0-.13-.12l.13.33a1.81,1.81,0,0,1-.61-.15.18.18,0,0,1,0-.16l-.5-.31v-.27c-.19,0-.41.33-.59-.14-.07.32-.29,0-.35.11a1,1,0,0,0,0-.18,1.76,1.76,0,0,0-.72-.47l.07.62c0,.37.17.78.18,1-.27-.35-.11-.05-.11.08l.07,0c.15.23,0,.37.1.5s0,0,0,0h0a.13.13,0,0,1,.06-.05s0,0,.1,0h0a2.62,2.62,0,0,1,.29.26l-.09.12c.33-.12.81,1.18,1.07,1.32.12.31.54.3.78.56.44.34.12.34.29.59s0-.18.16-.12l.25.38c-.22-.1-.15,0-.14.11.3.2.66.73.9.52.36.36.31.46.49.57,0-.08-.14-.19-.11-.24.11.2.1,0,0,0,.32,0,1.11,1.19,1.32.92l0,.06c.17-.19.18-.46.42-.49l.08.16h.23c.09.13,0,.16,0,.19a3.39,3.39,0,0,1,1.07.57l-.11-.79c.24.28.67.83.82.66l.1.29c.44.67.51,0,.7.25l.22.36-.31-.14a3.91,3.91,0,0,1,.54.64h0a.06.06,0,0,1,0-.05h0c.08-.09.28-.1.5,0s.62.1,1,.55l.22-.18.32.29-.07.19c-.37-.17-1.1-.39-1.58-.58l0,.08c.28.12.64.17.82.27s.23.36,0,.42l.25-.11a6.6,6.6,0,0,1,1.88,1l0-.12c.22,0,.44,0,.43.22a4,4,0,0,1,1.46,1L159,224c.12.06.18.46.36.18h.31c.17.09.32,0,.47.2h0l0,0v0c.36.25.07-.19.47.1.09.21.27-.22.47-.09l.1.4c.33.33.51,0,1.09.24a.42.42,0,0,1,0,.71c.36-.2.18-.15.57-.17,0,.14,0,.15-.15.23.25.25.22,0,.44,0,.15-.2.35-.54.43-.52l-.06-.11a1,1,0,0,1,.79.21l-.05.11.32.05,0,.15.44.1,0-.06a1.48,1.48,0,0,1,.6.22l0,.08c.44.44,1,.25,1.61.43l-.14.14c.15.23.14-.24.36-.07l-.05.21c.31-.2.26.15.38.3l0-.29.26.15c.28.2.08.41,0,.53l.28-.14,0,.25c.25-.22.15.1.47,0,0,.1-.1.13,0,.2l.56-.19-.32.06.14-.33c.37-.17.37.16.61.13l-.17.06c.35,0,.32.18.48.31,0-.08-.09-.2.06-.21s0,.14.09.21a.34.34,0,0,1,.56-.08s0,.06-.05.07.11-.07.19,0l-.14.24.26-.18c.1.11.34,0,.27.15l-.09,0,.91.36-.05.21c.18-.25.47.27.55-.09.12.25.74.09.51.45.6.23,1.05,0,1.73.37.16.43.92.54,1.39.73,1,.14,1.62.2,2.61.39.43.64,1.48.26,2,.72l.22-.14c.32.42,1.06.24,1.55.7a1.16,1.16,0,0,1,.29,0s-.06-.06,0-.19c.14.14.5.13.41.36h0c-.1.23.53,0,.66.3l0-.29.3.14-.1,0c1.52-.17,1.9.82,3.33.66-.25.23.29-.07.22.24.22.47.62.08.92.06a.09.09,0,0,1,0-.06l.45.17c-.38.31.43-.23.08,0,1.12.63,2.78.77,4.14,1.28l0-.11c.35.11.82.11,1,.35s.65-.1.76-.09c.34-.09.52.32.4.27.33,0,.72-.24,1.12,0,.06.37,1.28,0,1.19.37v0c.5.41,1.14.1,1.69.5l-.05,0,1.52-.81,0-1.33-.8-1.28-2.93-.54-2.18-1-5.59-1.4-.48.16c-.95-.79-2.51-.64-3.58-1.32l-.1.23c-.33-.08-.26-.22-.33-.29a67,67,0,0,1-9-2.65c-.21-.24-1.05-.39-1.2-.63a8,8,0,0,1-2.8-.62h0l-.43-.09a0,0,0,0,1,0-.07,3.9,3.9,0,0,1-1.76-.68h0c-3.34-1.17-6.61-1.83-9.75-3.41-1.36-1-3.33-1.15-4.89-2.2A22.29,22.29,0,0,0,151,216.13Z"/><path class="cls-2" d="M146.34,213.73h0C146.41,213.65,146.37,213.67,146.34,213.73Z"/><polygon class="cls-2" points="151.65 219.99 151.63 219.98 151.65 220.15 151.65 219.99"/><path class="cls-2" d="M147,217.71c.19.14.21.13.2.07A.44.44,0,0,0,147,217.71Z"/><path class="cls-2" d="M145,212.86c-.05-.08-.08,0-.09.08l.15.11C145,213,145,212.91,145,212.86Z"/><path class="cls-2" d="M144.33,214.17l-.08,0C144.31,214.24,144.33,214.21,144.33,214.17Z"/><path class="cls-2" d="M497,229.13s0,0,0,0Z"/><path class="cls-2" d="M516.22,222.59h0v0Z"/><path class="cls-2" d="M519.37,221.77h0S519.38,221.71,519.37,221.77Z"/><path class="cls-2" d="M509.26,225.45a.08.08,0,0,0,0,0Z"/><path class="cls-2" d="M491.35,231h0l0,0Z"/><path class="cls-2" d="M491.39,230.94c.07,0,0,.07,0,.09a.21.21,0,0,0,.24,0C491.58,230.93,491.44,231,491.39,230.94Z"/><path class="cls-2" d="M480.91,234.09l0,0S480.92,234.08,480.91,234.09Z"/><path class="cls-2" d="M510.75,229l0,0S510.74,229,510.75,229Z"/><path class="cls-2" d="M482.59,233.73l0-.12A.37.37,0,0,0,482.59,233.73Z"/><path class="cls-2" d="M516.23,222.45v0A.07.07,0,0,0,516.23,222.45Z"/><path class="cls-2" d="M522.2,220.76a.16.16,0,0,0,0,.08h0Z"/><path class="cls-2" d="M536.47,215.57l0,0v.11A.13.13,0,0,0,536.47,215.57Z"/><path class="cls-2" d="M526.19,219.69s0,0,0-.05a1.32,1.32,0,0,0-.47.16l0,.14Z"/><path class="cls-2" d="M531.83,220.92l-.55-.06c1.25-.78,2-.84,3-1.69l0,.09c.21,0-.07-.62,2.15-1.11l0,0c.06-.05,0-.1.19-.12l-.41.07a2.67,2.67,0,0,1,.44-.63.19.19,0,0,1,.16.07l.55-.49h.31c.11-.24-.25-.47.37-.73-.37-.05.11-.34,0-.39a.77.77,0,0,0,.21,0,3.34,3.34,0,0,0,.65-1.2,7.4,7.4,0,0,1-.77.42,2.72,2.72,0,0,1-1.11.33c.4-.26.06-.1-.07-.11l0,.07c-.25.14-.37,0-.5.06l0,0v0a.07.07,0,0,1,0,.06s0,.06,0,.1v0a.87.87,0,0,1-.32.24l-.09-.11c0,.34-1.34.47-1.57.58s-.48.36-.81.46-.34,0-.64,0,.15.11,0,.19h-.45c.19-.13,0-.14,0-.17-.31.14-.91.17-.86.48-.47.1-.53,0-.72.07.09,0,.23,0,.26.05-.23,0-.06.07,0,.06-.2.25-1.56.18-1.46.51l0-.06c.05.25.25.42.13.63l-.16,0-.14.18c-.16,0-.13-.1-.14-.13a3.29,3.29,0,0,1-1.09.46l.67.42c-.37,0-1,0-1,.2l-.28-.12c-.79-.12-.35.36-.65.35l-.41-.09.31-.13a3.61,3.61,0,0,1-.82,0h0l0,0,0,0c0,.12-.11.27-.33.36s-.5.37-1.09.33l0,.29h-.43l-.07-.18c.36-.14,1-.5,1.48-.7l0-.09c-.27.12-.55.33-.74.39s-.42-.1-.3-.29l-.1.25a5.4,5.4,0,0,1-2,.59l.12.06c-.17.13-.34.26-.45.13a3.62,3.62,0,0,1-1.72.23v.25c-.13,0-.44-.22-.39.11l-.22.19c-.18,0-.24.22-.48.16h0v0c-.42.05.08.19-.41.23-.19-.1,0,.34-.28.37l-.34-.24c-.45,0-.4.31-1,.51-.31,0-.54-.23-.45-.54-.14.38,0,.23-.32.49-.09-.1-.07-.14,0-.27-.34,0-.14.17-.37.24,0,.25.08.64,0,.68l.11,0a.92.92,0,0,1-.74.33l0-.12-.27.16-.07-.14-.4.19.07,0a1.28,1.28,0,0,1-.6.2l0-.08c-.6-.07-.91.4-1.51.64l0-.2c-.26-.09,0,.28-.24.28l-.08-.2c-.13.34-.3,0-.48,0l.16.24-.3,0c-.34,0-.31-.27-.31-.43l-.14.28-.12-.22c-.06.33-.17,0-.39.24,0-.08,0-.15-.1-.16l-.34.48.22-.23.08.35c-.19.35-.39.09-.56.25l.11-.15c-.3.19-.37.05-.58,0,.08,0,.2.11.08.2s-.09-.11-.19-.11a.33.33,0,0,1-.39.39.14.14,0,0,1,0-.09c0,.06-.05.13-.16.1l0-.27-.1.3c-.15,0-.26.21-.3,0l.05-.08-.94.24-.08-.21c0,.32-.54.06-.39.4-.24-.14-.64.36-.67-.07-.61.16-.82.64-1.61.68-.37-.25-1.06.08-1.54.19-.88.43-1.44.74-2.36,1.14-.71-.31-1.37.59-2.06.5l-.12.24c-.49-.17-1,.37-1.67.25a.85.85,0,0,1-.21.19s.08,0,.12.14c-.18,0-.48.17-.53-.08l0,0c0-.24-.46.26-.7.11l.17.23-.32,0,.07-.07c-1.19,1-2,.32-3.15,1.2.08-.32-.21.22-.32-.08-.43-.29-.57.25-.8.43a.11.11,0,0,1,0,.06l-.47.09c.16-.46-.24.42-.08,0-1.28,0-2.76.77-4.19,1l.09.08c-.36.08-.77.32-1.08.23s-.51.41-.61.46c-.25.25-.61,0-.48,0-.3.13-.5.57-1,.53-.23-.29-1.1.64-1.21.27v0c-.63-.11-1,.47-1.7.39l0-.06-.94,1.44.67,1.16,1.33.73,2.84-1,2.41-.23,5.57-1.68.32-.39c1.24.17,2.48-.79,3.77-.79l-.05-.25c.33-.11.35.05.44.07,3.09-1,6.17-2.24,9-2.81.31.07,1.1-.28,1.36-.18a8.48,8.48,0,0,1,2.67-1.14l0,0,.41-.18a0,0,0,0,1,0,.06,3.93,3.93,0,0,1,1.84-.51l0,0c3.42-1.1,6.42-2.65,9.88-3.61,1.71-.22,3.3-1.47,5.2-1.92A16.14,16.14,0,0,0,531.83,220.92Z"/><path class="cls-2" d="M536.79,217.57h0C536.84,217.66,536.83,217.61,536.79,217.57Z"/><polygon class="cls-2" points="528.37 219.04 528.39 219.04 528.25 218.94 528.37 219.04"/><path class="cls-2" d="M532.74,216.7c-.21.08-.21.11-.16.13A.43.43,0,0,0,532.74,216.7Z"/><path class="cls-2" d="M538.27,216c.11-.1,0-.1-.09-.09l-.16.18C538.1,216.08,538.19,216.07,538.27,216Z"/><path class="cls-2" d="M536.88,215.38l0-.09C536.81,215.35,536.83,215.38,536.88,215.38Z"/><path class="cls-2" d="M335.68,60s0,0,0,0Z"/><path class="cls-2" d="M352.55,54.82v0l.13,0Z"/><path class="cls-2" d="M353.79,58.1v0S353.84,58.1,353.79,58.1Z"/><path class="cls-2" d="M345.08,50.18a.06.06,0,0,0-.07,0Z"/><path class="cls-2" d="M334.81,66h0l0,0Z"/><path class="cls-2" d="M334.73,65.92c0-.07.07,0,.08.06a.24.24,0,0,0,.06-.24C334.79,65.73,334.79,65.89,334.73,65.92Z"/><path class="cls-2" d="M343.78,70.48l0,0Z"/><path class="cls-2" d="M345.22,54l0,0Z"/><path class="cls-2" d="M342.14,70.36l0,.12A.27.27,0,0,0,342.14,70.36Z"/><path class="cls-2" d="M352.69,54.82h0Z"/><path class="cls-2" d="M354.66,61.09l-.09,0h0Z"/><path class="cls-2" d="M346.93,69v0L347,69A.09.09,0,0,0,346.93,69Z"/><path class="cls-2" d="M354.88,65.3s0,0,.05,0a1.42,1.42,0,0,0,0-.49h-.15Z"/><path class="cls-2" d="M351.46,66.92c.09.1.2.2.32.31-.07.07-.23,0-.32,0a.33.33,0,0,0-.19,0,4,4,0,0,0-.8.1l.07-.07c-.17-.07-.27.61-2.14-.22v0c-.06,0-.06.06-.19,0l.32.19a1.82,1.82,0,0,1-.62.24.2.2,0,0,1-.08-.14l-.63,0-.19-.2c-.2.11-.11.52-.63.29.2.29-.25.17-.19.32l-.13-.14a2.39,2.39,0,0,0-1,.26,10,10,0,0,1,1.52.91c-.43-.08-.11,0,0,.13l0-.07c.26.07.26.25.39.3v0l0,0a.08.08,0,0,1,0-.07s0-.07.08-.06l0,0a1.17,1.17,0,0,1,.38,0v.15c.2-.29,1.3.44,1.56.45.26.19.58,0,.9,0,.52.05.26.22.52.35s-.07-.17.06-.18l.39.21c-.22,0-.1.11-.06.17a4.48,4.48,0,0,1,.57.12c.26,0,.51,0,.56-.12.68.14.74.26,1,.28-.12-.06-.33-.11-.35-.17.32.13.11,0,0-.06a4.52,4.52,0,0,1,1.32.18c.58.1,1.16.18,1,0l.06.06c-.15-.25-.52-.48-.4-.62s.08,0,.12-.05l-.11-.35c.07-.1.14,0,.17.06a5.76,5.76,0,0,1,0-1.55,2.09,2.09,0,0,1-.67.21c.16-.25.44-.93.22-1l.21-.23c.18-.45.12-.56,0-.61s-.21-.06-.16-.2l.22-.36,0,.34a5.16,5.16,0,0,1,.3-.77h0s0,0,0,0l0,0c-.12,0-.23-.19-.25-.43s-.22-.57-.05-1.14l-.27-.09.08-.42.19,0c.08.39.26,1.12.33,1.63H355c0-.3-.17-.63-.18-.83s.19-.38.36-.22l-.23-.16a7.45,7.45,0,0,1-.23-2.09l-.08.11c-.11-.19-.21-.38-.07-.48a4.89,4.89,0,0,1-.09-1.8h-.25c0-.14.25-.45-.09-.41l-.2-.24c-.05-.19-.22-.25-.17-.5h0v-.05h0c-.05-.44-.19.08-.24-.43.1-.21-.33,0-.39-.28l.21-.36c0-.48-.34-.41-.63-1,0-.33.14-.6.47-.54-.42-.11-.25,0-.56-.28.08-.11.12-.09.26-.07,0-.38-.2-.13-.32-.36-.24.06-.61.19-.67.13v.12a1.07,1.07,0,0,1-.54-.68l.11-.06-.24-.23.11-.11a3.61,3.61,0,0,0-.33-.35v.08a1.61,1.61,0,0,1-.44-.55l.07,0a1.17,1.17,0,0,0-.58-.67l-.84-.53.19-.07c-.11-.3-.23.17-.42-.08l.11-.19c-.38.08-.25-.25-.35-.45l-.08.29a1.6,1.6,0,0,0-.27-.25c-.31-.27-.05-.43.08-.52l-.37.06.06-.25c-.31.16-.17-.14-.57-.16,0-.1.12-.12,0-.2l-.73.14.42,0-.16.33c-.45.15-.49-.19-.78-.16l.21-.06a1.31,1.31,0,0,1-.71-.27c.08.07.18.19,0,.21s-.06-.13-.18-.19c-.06.25-.38.33-.67.21a.14.14,0,0,1,0-.09c-.08,0-.11.11-.24.06l.07-.27-.25.27c-.17,0-.39.17-.39,0l.08-.06a5.36,5.36,0,0,0-1.26.21l-.08-.2c0,.31-.72.13-.53.47-.29-.08-.74.53-.82.11a2.45,2.45,0,0,0-.79.69,3.91,3.91,0,0,1-.84.72,1.15,1.15,0,0,0-.75.38c-.23.24-.45.53-.65.74a20.92,20.92,0,0,0-1.21,2.6c-.73.34-.56,1.48-1,2l.11.24c-.46.3-.33,1.06-.79,1.56a1.16,1.16,0,0,1,0,.29s.06,0,.18,0c-.13.14-.14.51-.36.42l0,0c-.23-.09,0,.54-.27.68l.28,0-.12.31,0-.1a3.41,3.41,0,0,1-.22,1.74,2.58,2.58,0,0,0-.14,1.66c-.26-.21.12.28-.2.26-.45.29,0,.63.09.91l.06,0-.08.47c-.19-.16-.11-.07,0,0s.16.28,0,.07a15.13,15.13,0,0,0-.27,3.33,4.74,4.74,0,0,0,0,.85l.9,0c.6,0,1.17,0,1.74.09l-.06-.11c.29,0,.62,0,.92,0a1.46,1.46,0,0,1,.72.1c.26.17.58-.25.68-.27.3-.17.56.19.43.17.31,0,.62-.4,1-.23.14.34,1.19-.31,1.19.07v0c.54.28,1.08-.17,1.67.09l0,.06L345,69.34l-.31-1.29-1-1.07-2.85.17-1.13-.23-.57-.12c-.15,0-.48-.08-.4-.11s-.13.07-.15,0l0-.08a.11.11,0,0,1,0-.06l0-.65c-.08-.13-.17-.26-.24-.4.62-.93.25-2.31.88-3.29l-.23-.08c.06-.3.2-.24.26-.3a22.3,22.3,0,0,1,1.28-4A7.07,7.07,0,0,1,342.74,55c.24,0,.65-.41.85-.36a1.59,1.59,0,0,1,1.41-.73l0,0a2,2,0,0,1,.24,0s0,0,0,.07a.42.42,0,0,1,.49,0,2,2,0,0,1,.47.35l0,0a7.69,7.69,0,0,1,2.73,2.54A10.67,10.67,0,0,1,350.57,61c0,1.47.94,3,.78,4.73a2.48,2.48,0,0,0,0,.72c0,.09,0,.19,0,.29h0S351.45,66.88,351.46,66.92Z"/><path class="cls-2" d="M347.83,67.26h0C347.85,67.15,347.83,67.19,347.83,67.26Z"/><polygon class="cls-2" points="354.77 67.95 354.77 67.98 354.91 67.9 354.77 67.95"/><path class="cls-2" d="M350.54,70.21c.22,0,.23,0,.2,0A.32.32,0,0,0,350.54,70.21Z"/><path class="cls-2" d="M346.06,67.46c-.11,0-.07.05,0,.12l.19,0C346.19,67.54,346.13,67.48,346.06,67.46Z"/><path class="cls-2" d="M346.53,68.88l0,.09C346.56,68.94,346.55,68.91,346.53,68.88Z"/><path class="cls-2" d="M254.46,213.62Z"/><path class="cls-2" d="M391.06,213.25h.13l.28-.13Z"/><path class="cls-2" d="M413,213.56l.13,0S413.18,213.52,413,213.56Z"/><path class="cls-2" d="M340.43,213.72a1.64,1.64,0,0,0-.37,0Z"/><path class="cls-2" d="M214.2,213.88h.1l-.24,0Z"/><path class="cls-2" d="M214.64,213.8c.49,0-.13.07-.34.08a8.65,8.65,0,0,0,1.61,0C215.9,213.84,214.88,213.86,214.64,213.8Z"/><path class="cls-2" d="M141.16,214.1l.22,0A1.17,1.17,0,0,0,141.16,214.1Z"/><path class="cls-2" d="M342.59,217.51h-.33A1.5,1.5,0,0,0,342.59,217.51Z"/><path class="cls-2" d="M152.69,214.17l.13-.12C152.7,214.1,152.68,214.14,152.69,214.17Z"/><path class="cls-2" d="M391.47,213.12l.15,0Z"/><path class="cls-2" d="M433.33,213.64s.05.07.11.09h.05Z"/><path class="cls-2" d="M535.65,215.59s0,0,0-.05l-.41.09A3.21,3.21,0,0,0,535.65,215.59Z"/><path class="cls-2" d="M461.17,214.17s.09,0,.1,0c-.48,0-1.73,0-3.34,0l-.1.15Z"/><path class="cls-2" d="M491.63,217.68l-3-.3c9.53-.14,14,.16,22.13-.08l-.46.06c1.19.07,1.86-.61,15,.22v0a7.89,7.89,0,0,1,1.36,0l-2.27-.19c1.36-.07,2.54-.22,4.35-.24.39,0,.52.1.56.14l4.44-.05,1.36.2c1.36-.11.74-.52,4.37-.29-1.37-.29,1.8-.17,1.35-.32.19,0,.6.09.94.14,2.16,0,6.22-.11,7.23-.26,0,0-8.45-.6-10.72-.91,3,.08.8,0,.2-.13l-.2.07c-1.82-.07-1.82-.25-2.73-.3,0,0,0,0,.05,0l.12,0c.08,0,0,0-.07.07s-.06.07-.55.06l.09,0c-.76,0-2.07,0-2.65,0v-.15c-1.35.29-9.07-.44-10.88-.44-1.83-.2-4.08,0-6.36-.05-3.62-.05-1.81-.22-3.63-.35-2.27-.1.46.17-.45.18l-2.72-.21c1.58,0,.72-.11.43-.16-2.35,0-6.06-.31-6.79,0-3.17-.14-3.18-.26-4.54-.28a10.8,10.8,0,0,1,1.37.17c-1.27-.13-.61,0-.09.06-1.94.13-10.06-.55-10.47-.22v-.06c-.45.25.27.49-1.08.63l-.91-.11-1.36.1c-.91-.08-.46-.14-.46-.17-2.22.11-5.31,0-8-.06l2.85.67c-2.27-.15-6.35-.47-6.81-.25l-1.36-.23c-4.54-.43-3.17.19-5,.06l-2.28-.25h2.27c-2.27-.13-3.18-.21-5-.37h0a.54.54,0,0,1,.22,0h-.32a12.91,12.91,0,0,1-3.05.2c-2.28,0-4.05.15-7.68-.11l-.9.25-2.73-.15v-.2c2.67,0,7.69-.07,11.12-.08L458,214c-2,0-4.34.09-5.69.07-.65,0-2.33-.25-1.11-.38l-1.26.2c-6.79,0-6.83,0-13.91-.2l.61.1a13.08,13.08,0,0,1-3.19-.05c-4.26,0-8.66-.15-11.42-.41l-.61.24c-.9,0-2.24-.37-2.68,0l-1.92.1a29.51,29.51,0,0,1-3.38,0h0l-.27,0,0,0c-2.78-.11,0,.21-3.16.07-1-.17-1.13.3-2.68.25l-1.55-.34c-2.81-.2-3.29.14-7.36.14-2-.12-2.9-.4-1.6-.66a15,15,0,0,1-3.18.35c-.36-.13-.11-.15.41-.27-2.09-.15-1.29.12-2.87.11a4,4,0,0,1-1.5.64l.61.07a39,39,0,0,1-5.45.07l.07-.12-2.07.06-.13-.15-3,0,.4,0c-.69,0-3,.08-4.28,0l.05-.09c-3.68-.27-6.71.09-11,.11l.57-.17c-1.47-.18-.41.27-2.15.18l-.09-.21a7.46,7.46,0,0,1-3.05-.17l.49.28-2-.06c-2.2-.09-1.35-.35-1-.5l-1.5.22-.29-.25c-1.1.29-1.1-.05-3,.11-.15-.09.33-.15-.32-.19l-3.17.35,1.91-.15-.23.36a32.48,32.48,0,0,1-4.11.06l1-.11a21.75,21.75,0,0,1-3.75-.14c.4.06,1,.17.09.21-.69,0-.38-.13-1-.17-.15.25-1.81.38-3.32.26a.2.2,0,0,1,.15-.09,4.7,4.7,0,0,1-1.25,0l.39-.26-1.29.25c-.86-.07-2.11.12-2-.06l.49-.05-6.5-.07-.09-.21c-.65.29-3.55-.11-3.33.25-1.23-.2-4.84.15-4.11-.27-4.28,0-6.59.37-11.78.17-1.85-.36-6.92-.24-10.26-.28-6.51.15-10.73.28-17.39.39-4-.49-10,.17-14.3-.1l-1.18.19c-2.87-.31-7.25.07-11.27-.23-1,.08-1.5.11-1.73.12.18,0,.46,0,.55.17-1.15-.09-3.47,0-3.31-.23l.29,0c.17-.25-3.48.11-4.76-.1l.7.26-2.17,0,.58,0c-9.45.59-13.72-.26-22.59.28,1.18-.29-1.75.16-1.86-.16-2.24-.4-4.15.08-6,.19,0,0,0,0-.13.06l-3.21,0c1.92-.4-2.3.33-.55,0-8.36-.3-19.27,0-29-.13l.43.1c-2.46,0-5.51.11-7.37-.06a31.58,31.58,0,0,0-4.8.28c-2,.18-3.9-.17-3-.16-2.18,0-4.24.42-7.27.26-1-.34-8.26.34-8.35-.05l0,0c-3.88-.27-7.54.19-11.72-.06a1.15,1.15,0,0,1,.22-.05l-8.5,1.16,2.42,1.28,7.37,1.05,20-.23,15.94.41,38.8-.14,2.77-.29c7.62.51,17.4-.08,25.61.29l.17-.25a11.06,11.06,0,0,1,2.73.18c21.54-.06,43.71-.39,63.09-.07,1.87.16,7.55.06,9,.24,6.29-.31,13-.3,19.26-.27l-.24,0,3-.05c.13,0,.14.05,0,.07,3.35-.22,8.62,0,12.72.08l-.24,0c23.92,0,46.13-.42,69.85-.07,11,.41,23.86-.16,36.52.18C463.76,218,489.36,217.79,491.63,217.68Z"/><path class="cls-2" d="M529.31,217.34h-.1C529.21,217.45,529.36,217.41,529.31,217.34Z"/><path class="cls-2" d="M476.43,214.48h.16l-.62-.15Z"/><path class="cls-2" d="M510.3,214.39c-1.52,0-1.59,0-1.38,0C509.47,214.43,510,214.42,510.3,214.39Z"/><path class="cls-2" d="M541.74,217.14c.8,0,.5,0,0-.12l-1.38,0C540.83,217.06,541.28,217.12,541.74,217.14Z"/><path class="cls-2" d="M538.48,215.72l.25-.08C538.26,215.66,538.28,215.69,538.48,215.72Z"/><path class="cls-2" d="M241.74,95c-.19.1-.27.17,0,0Z"/><path class="cls-2" d="M403.82,76.89l.16,0h.36Z"/><path class="cls-2" d="M428.88,86.84l.15.09S429.07,86.88,428.88,86.84Z"/><path class="cls-2" d="M342.51,68.4a2.39,2.39,0,0,0-.46,0C342.19,68.42,342.33,68.4,342.51,68.4Z"/><path class="cls-2" d="M203.38,125.85l.08-.09-.22.19Z"/><path class="cls-2" d="M203.69,125.4c.43-.41-.06.17-.23.36a13.23,13.23,0,0,0,1.39-1.41C204.79,124.3,203.93,125.22,203.69,125.4Z"/><path class="cls-2" d="M167,206v-.27A2.1,2.1,0,0,0,167,206Z"/><path class="cls-2" d="M345.12,72.22h-.4A2.21,2.21,0,0,0,345.12,72.22Z"/><path class="cls-2" d="M169,192l-.09-.18C169,192,169,192.05,169,192Z"/><path class="cls-2" d="M404.34,76.92h0Z"/><path class="cls-2" d="M450.66,98.92s0,.09.06.15l.06,0Z"/><path class="cls-2" d="M516.91,200.32a.21.21,0,0,0,0-.07l-.16-.48A3.43,3.43,0,0,0,516.91,200.32Z"/><path class="cls-2" d="M477,120.53s.1.06.12,0c-.39-.43-1.5-1.51-2.92-2.87l-.19,0Z"/><path class="cls-2" d="M497.28,151.44l-1.6-3.19c6.18,9.61,8.24,14.58,12.12,23.53l-.27-.48a8.65,8.65,0,0,0,.5,1.09,16.11,16.11,0,0,1,1,2.22c.4,1.1.93,2.63,1.62,4.83.38,1.09.64,2.4,1,3.88s.79,3.17,1.1,5.11h0A10.62,10.62,0,0,1,513,190l-.39-2.69c.43,1.56.85,2.92,1.33,5,.06.46,0,.62,0,.68.44,1.72.63,3.48.94,5.23l0,1.63c.33,1.6.72.81.87,5.17.13-1.67.37,2.13.46,1.59,0,.23,0,.72,0,1.12.18,1.29.19,3.16.31,4.85s.19,3.22.28,3.82c0,0,.09-2.53.18-5.43,0-.72.06-1.47.07-2.2s0-1.46,0-2.13c0-1.35,0-2.51,0-3.2.26,3.68.12,1,.15.23l-.09-.23c-.12-2.21,0-2.23-.08-3.33,0,0,0,0,0,.07l0,.13c0,.11,0,.05-.08-.06s-.08-.07-.16-.66l0,.11c-.17-.91-.38-2.49-.47-3.18l.14,0a17.37,17.37,0,0,1-.42-2.41c-.21-1.12-.44-2.5-.66-3.9s-.41-2.83-.68-4-.48-2.17-.63-2.7a33.4,33.4,0,0,0-.92-3.55c-.42-1.25-.91-2.54-1.31-3.87-1.4-4.19-.45-2.19-1.15-4.3-.95-2.61.05.58-.38-.45l-1.05-3.16c.74,1.79.43.78.35.43-1-2.72-2.76-6.91-3.38-7.59-.38-.89-.66-1.57-.89-2.1l-.56-1.22c-.29-.64-.46-1-.85-1.76.22.52.7,1.52.66,1.56-.63-1.44-.39-.64-.11-.07-.31-.51-.8-1.45-1.38-2.6s-1.19-2.49-1.92-3.72a36.53,36.53,0,0,0-3-4.89l0,0c-.5-.33-.21.53-1.26-.76l-.53-1-1-1.31c-.57-1-.2-.55-.18-.57-1.57-2.21-3.81-5.25-5.78-7.89l1.59,3.17c-.79-1.13-1.84-2.77-2.85-4.09a18,18,0,0,0-2.16-2.52l-.91-1.41a20.15,20.15,0,0,0-1.86-2.34,7,7,0,0,0-.95-.91,5.48,5.48,0,0,1-1.33-1.21l-1.73-2.2,1.9,2-2.12-2.49-1.9-2.12,0,0a1.41,1.41,0,0,1,.17.22l-.29-.27a19.45,19.45,0,0,1-2.83-2.45c-1-1-2-1.75-3-2.71s-2.31-2.06-3.92-3.59l-1-.5-2.51-2.19.12-.16,2.29,1.82c.87.67,1.82,1.42,2.74,2.24,1.86,1.63,3.86,3.27,5.38,4.72h.12c-1.81-1.72-4.05-3.47-5.26-4.59-.57-.56-2-2.06-.78-1.19-.42-.3-.88-.55-1.32-.83-1.63-1.29-2.86-2.26-3.88-3.08l-1.42-1.13-1.31-1-2.81-2.11c-1.08-.82-2.37-1.83-4.17-3l.57.49a20,20,0,0,1-3.25-2.19c-2.14-1.49-4.45-2.81-6.49-4.13s-3.94-2.44-5.38-3.35l-.76-.14c-1-.53-2.27-1.63-2.89-1.59-.7-.35-1.44-.63-2.16-1-1.35-.67-2.24-1-3.73-1.81h0l-.28-.16s0,0,0,0c-1.51-.78-1.53-.73-1.59-.71s-.19,0-2-.82c-1.08-.65-1.39-.27-3.12-1.07l-1.62-1.06c-3.12-1.49-3.82-1.32-8.48-3.1-2.22-.91-3.24-1.51-1.64-1.27A23,23,0,0,1,406.8,78c-.38-.27-.08-.19.57-.1a26.7,26.7,0,0,0-3.39-1,5.64,5.64,0,0,1-2,.11l.7.27a57.08,57.08,0,0,1-6.44-1.75l.12-.09c-.81-.22-1.64-.39-2.47-.57l-.12-.18-3.54-.79.48.15-5.11-1.15.07-.07c-2.18-.56-4.21-.93-6.33-1.28s-4.38-.52-7-.91l.71-.07c-1.76-.44-.53.19-2.63-.21l-.08-.23a12.08,12.08,0,0,1-3.7-.58l.57.34-2.42-.32c-2.68-.37-1.62-.52-1.21-.63l-1.85,0-.33-.29c-1.37.17-1.34-.14-3.7-.14-.19-.11.41-.12-.39-.21l-3.89.1h2.34l-.31.35c-2.44.13-3.28-.28-5-.19l1.2-.08a32.77,32.77,0,0,1-4.59-.25c.5.08,1.26.2.11.22-.85,0-.46-.14-1.25-.19-.2.25-2.23.27-4.08.21a.26.26,0,0,1,.18-.09,7,7,0,0,1-1.53.08l.48-.28-1.57.29c-1.06-.06-2.59.17-2.45,0l.59-.07c-1.32,0-2.65,0-4,.07l-4,.22-.13-.21c-.77.34-4.35.16-4.06.52-1.51-.09-5.87.75-5,.23a67.38,67.38,0,0,0-6.73,1c-2.12.41-4.4.72-7.55,1.2a49.14,49.14,0,0,0-5.56.81l-1.77.34L297,73l-3.29.77a210.06,210.06,0,0,0-20.34,6.47,60.86,60.86,0,0,0-8.11,3l-4.22,1.91-3.94,1.7-1.22.8c-.83.31-1.74.71-2.71,1.17s-2,.95-3.07,1.54c-2.1,1.16-4.38,2.36-6.6,3.45-1,.69-1.53,1-1.77,1.19a1.17,1.17,0,0,1,.67-.2c-1.26.64-3.65,2.19-3.61,1.88l.3-.21c0-.16-.89.41-2,1.11a29.44,29.44,0,0,1-3,1.94l.87-.25-2.25,1.43.56-.44c-1.16.87-2.29,1.61-3.29,2.4s-2,1.49-2.9,2.17l-2.68,1.93-2.48,1.91-2.45,1.89c-.83.64-1.67,1.29-2.48,2-1.64,1.47-3.44,3-5.33,5,.84-1.22-1.44,1.6-1.76,1.47a17.66,17.66,0,0,0-2.85,2.61c-.81.9-1.46,1.87-2.2,2.72,0,0,0,0-.07.15l-2.72,2.84c.65-1,.23-.42-.2.18s-.84,1.25-.27.31c-1.72,1.91-3.56,4-5.41,6.19l-2.69,3.5c-.92,1.18-1.84,2.38-2.68,3.67s-1.74,2.54-2.61,3.82-1.63,2.63-2.46,3.94-1.65,2.61-2.38,4l-2.18,4,.34-.41c-.36.67-.74,1.37-1.12,2.09s-.69,1.48-1,2.2c-.67,1.45-1.33,2.81-1.89,3.82a34.36,34.36,0,0,0-2,5.55c-.82,2.36-1.84,4.42-1.48,3.4-.41,1.28-.73,2.55-1.12,3.93-.19.69-.4,1.4-.64,2.17s-.43,1.59-.72,2.48a31.79,31.79,0,0,0-1.44,5.37c-.43,2.35-.82,4.56-1,4.58l0,.05c-.16.57-.3,1.15-.44,1.72s-.2,1.16-.29,1.74q-.24,1.72-.48,3.48c-.37,2.34-.45,4.75-.82,7.29a2.21,2.21,0,0,1,0-.28l.05,2.62c0,.87.14,1.75.2,2.62l.43,5.19,1.37-2.91.65-4.41.91-4.35A120.72,120.72,0,0,1,175,181.36a125.14,125.14,0,0,1,7.23-17.62,129,129,0,0,1,11.61-20c1-1.62,2.25-3.14,3.42-4.68s2.32-3.1,3.6-4.55,2.49-3,3.77-4.42l4-4.25c.67-.89,1.41-1.71,2.14-2.55,3.43-3,7.28-6.55,11.38-9.93a113.7,113.7,0,0,1,12.62-9.22l0-.32a16.05,16.05,0,0,1,2.84-1.65,184.76,184.76,0,0,1,70.33-27c1.12-.1,3.37-.41,5.56-.72l3.09-.42c.92-.09,1.68-.14,2.12-.14,1.87-.28,3.78-.54,5.7-.78s3.87-.34,5.82-.5c3.88-.35,7.79-.33,11.58-.42l-.28,0c1.19-.06,2.38-.06,3.57,0,.15,0,.17,0,.06.07,2-.06,4.61,0,7.31.1l8,.67h-.29a211.76,211.76,0,0,1,41.33,7.6c1.68.43,3.3,1,5,1.55s3.3,1,4.92,1.65c3.23,1.24,6.53,2.35,9.7,3.79l4.81,2.08,4.73,2.3,2.37,1.16,2.33,1.27L439.92,97l4.3,2.69,2.22,1.35,2.2,1.45,4.5,3,4.47,3.2a131.42,131.42,0,0,1,17.16,14.7c.23.26.78.82,1.56,1.61l2.86,3.08c2.3,2.37,5,5.57,7.65,8.78l3.76,4.85c1.17,1.59,2.21,3.14,3.16,4.48.47.68.92,1.31,1.32,1.88l1,1.59Z"/><path class="cls-2" d="M513.94,193.06l0-.12C513.81,193,513.89,193.13,513.94,193.06Z"/><path class="cls-2" d="M489.37,134.54l.12.16-.35-.7Z"/><path class="cls-2" d="M510.28,170.17c-.67-1.74-.73-1.81-.67-1.55C509.86,169.25,510.09,169.79,510.28,170.17Z"/><path class="cls-2" d="M516.1,207.78c.08,1,.11.59.13,0l-.17-1.65C516.07,206.68,516.09,207.24,516.1,207.78Z"/><path class="cls-2" d="M517.16,203.74l.11.29C517.2,203.47,517.17,203.49,517.16,203.74Z"/><text class="cls-3" transform="translate(20.41 82.4)">4€</text><text class="cls-4" transform="translate(252 306.15)">Le Plat</text></svg>