<svg id="Calque_1" data-name="Calque 1" xmlns="http://www.w3.org/2000/svg" viewBox="0 0 239 239"><defs><style>.cls-1{fill:#494848;}.cls-2{fill:#fefefe;}.cls-3{fill:#7a7a7a;}.cls-4{fill:#7a7979;}.cls-5{fill:none;stroke:#494848;stroke-miterlimit:10;stroke-width:10px;}</style></defs><title>iconprofil</title><g id="e0B7m1.tif"><path class="cls-1" d="M606,487v2a7.89,7.89,0,0,0,0,6v13a7.89,7.89,0,0,0,0,6v2c-1.86,7.89-1.08,16.16-4,23.94a120.74,120.74,0,0,1-43.38,57.15c-7.79,5.62-16.29,9.66-24.95,13.55-8.39,3.76-17.41,4.05-26.33,4.85-.81.08-1.68-.14-2.36.51h-2a5.57,5.57,0,0,0-5,0H485a7.89,7.89,0,0,0-6,0h-2c-1.26-1-2.8-.19-4.15-.65-1.68-.59-3.45-.18-5.16-.49-20.09-1.91-36.4-12-51.59-24.23-11.27-9-20.05-20.35-27-33-7.15-12.95-11.81-26.56-12.21-41.66-.36-13.49-.39-26.9,1.1-40.31a59.37,59.37,0,0,1,4.26-15.85c10.81-26.51,28.61-47,53.6-61.08,15-8.46,31.12-12.21,48.24-12.26a308.24,308.24,0,0,1,32.86,1.4,59.91,59.91,0,0,1,15.86,4.21c26.88,10.55,47.36,28.6,61.55,53.65,6.89,12.16,11,25.25,11.17,39.4A2.52,2.52,0,0,0,606,487Z" transform="translate(-372 -382)"/><path class="cls-2" d="M473.38,614.83c1.28.17,2.85-.58,3.62,1.17-32.5,0-65,0-97.5.08-3,0-3.59-.6-3.58-3.58q.15-111.5,0-223c0-3,.6-3.59,3.58-3.58q111.5.15,223,0c3,0,3.6.6,3.58,3.58C606,422,606,454.5,606,487c-1.92-1.17-1.31-3.28-1.61-4.93-10.66-57.73-59.7-97.14-118.38-95-54.78,2-102.14,46-108.09,100.5-6.54,59.93,29.92,111.56,88.77,125.71a9,9,0,0,1,1.36.58C469.62,615.29,471.71,614,473.38,614.83Z" transform="translate(-372 -382)"/><path class="cls-2" d="M505,616c.55-1.53,1.95-1,3-1.11a114.85,114.85,0,0,0,94.64-85.18c1.15-4.57,1-9.45,3.38-13.71,0,32.17,0,64.33.08,96.5,0,3-.6,3.6-3.58,3.58C570,616,537.5,616,505,616Z" transform="translate(-372 -382)"/><path class="cls-3" d="M606,508v6" transform="translate(-372 -382)"/><path class="cls-4" d="M503,616h-5" transform="translate(-372 -382)"/><path class="cls-2" d="M536.26,463.87c0-1.86-.07-2.87,0-3.86,1.73-20.13-9.25-34.48-30.86-38.53-12.32-2.31-24.55-1.88-36.43,2.44-14.42,5.23-22.42,16.87-22.28,32.13,0,4.33,0,8.66.1,13s-1.44,8.31-2.25,12.4c-2.13,10.68-4.91,22,3.41,31.83a8.64,8.64,0,0,1,1.36,3.16c1.8,6.29,4.13,12.5,8.1,17.61,4.73,6.07,4.07,12.7,3.78,19.45-.14,3.26-2,5.59-4.81,7.13-11.1,6.07-22.29,12-33.26,18.28-2.75,1.58-3.92.2-5.46-1.31-16.38-16.16-27-35.43-30.63-58.22-9.58-60.61,30.53-114.62,91.25-123.16,54.88-7.71,108.89,32.07,117.65,86.85,5.83,36.41-4.44,67.76-30.12,94.19-2.63,2.71-4.6,3.07-8.06,1.22-10.86-5.8-21.92-11.23-33-16.58-4.78-2.3-6.8-5.68-6.94-11-.16-6.5.42-12.4,5.05-17.56,2.17-2.41,3.42-5.7,4.83-8.71,2.16-4.62,3.7-9.53,8.39-12.56a7.28,7.28,0,0,0,2.85-4.56c1.37-9.66,3.09-19.4-1.52-28.77C534.91,473.65,537,468.22,536.26,463.87Z" transform="translate(-372 -382)"/></g><circle class="cls-5" cx="119.5" cy="119.5" r="114.5"/></svg>