<svg id="Calque_1" data-name="Calque 1" xmlns="http://www.w3.org/2000/svg" viewBox="0 0 703 327"><defs><style>.cls-1{fill:#add3a5;}.cls-2{fill:#1d1d1d;}.cls-3{font-size:85px;font-family:Lato-Bold, Lato;}.cls-3,.cls-4{fill:#fff;font-weight:700;}.cls-4{font-size:50px;font-family:Lato-BoldItalic, Lato;font-style:italic;}.cls-5{letter-spacing:-0.02em;}</style></defs><title>vert_rectangle</title><rect class="cls-1" width="703" height="325"/><path class="cls-2" d="M90,232.68c.08,0,.12,0,0,0Z"/><path class="cls-2" d="M75.69,226.6h.06l.12-.12Z"/><path class="cls-2" d="M85.6,226.92h.06S85.67,226.87,85.6,226.92Z"/><path class="cls-2" d="M51.28,229a.37.37,0,0,0,0,.17C51.3,229.1,51.29,229.05,51.28,229Z"/><path class="cls-2" d="M108.12,232.42h0l.11,0Z"/><path class="cls-2" d="M107.93,232.5c-.22,0,.06-.07.15-.08a1.79,1.79,0,0,0-.73,0C107.35,232.46,107.82,232.45,107.93,232.5Z"/><path class="cls-2" d="M141.09,232.21l-.1,0Z"/><path class="cls-2" d="M53.81,230.85l-.15,0A.28.28,0,0,0,53.81,230.85Z"/><path class="cls-2" d="M135.88,232.13l0,.12C135.88,232.2,135.89,232.17,135.88,232.13Z"/><path class="cls-2" d="M75.87,226.48l.07,0Z"/><path class="cls-2" d="M94.76,227a.19.19,0,0,0,0,.09h0Z"/><path class="cls-2" d="M140.94,229a.08.08,0,0,0,0,0l-.19.08A.48.48,0,0,0,140.94,229Z"/><path class="cls-2" d="M107.33,227.53l0,0a12.34,12.34,0,0,0-1.5-.05l-.05.15Z"/><path class="cls-2" d="M121.07,231l-1.34-.3c4.3-.14,6.31.16,10-.08l-.2.06c.53.07.83-.61,6.75.23v0a1.41,1.41,0,0,1,.62,0l-1-.18a17.5,17.5,0,0,1,2-.25c.17,0,.23.1.25.15l2-.05.62.19c.61-.1.33-.51,2-.28-.62-.29.81-.18.61-.32l.42.14,1.22-.06-1.51-1.51a11.64,11.64,0,0,0,.21,2l.34-2,1,1c-1.08-.19-2.28-.42-2.79-.57,1.37.08.36,0,.09-.13l-.09.07a6.45,6.45,0,0,1-1.24-.3l0,0,.05,0s0,.06,0,.07,0,.07-.25.06l0,0a11.59,11.59,0,0,1-1.19,0v-.15c-.61.28-4.09-.44-4.91-.45-.82-.19-1.84.05-2.87,0-1.63-.05-.81-.22-1.64-.35-1-.1.21.18-.2.19l-1.23-.21c.72,0,.33-.11.2-.17-1.06,0-2.74-.3-3.06,0-1.44-.15-1.44-.27-2.06-.28.21.05.62.1.62.16-.57-.13-.27,0,0,.06-.87.13-4.54-.55-4.72-.21v-.07c-.21.25.12.49-.49.63l-.41-.11-.61.1c-.42-.08-.21-.14-.21-.17a31.8,31.8,0,0,1-3.61-.06l1.28.67c-1-.15-2.86-.47-3.07-.25l-.61-.23c-2-.43-1.43.19-2.25.06l-1-.25h1c-1-.13-1.43-.21-2.25-.37h0c.06,0,.1,0,.1,0h-.14a2.78,2.78,0,0,1-1.38.2,18.82,18.82,0,0,1-3.46-.12l-.41.26-1.23-.15v-.2c1.2,0,3.47-.07,5-.08l0-.09c-.91,0-2,.09-2.56.07-.3,0-1.06-.25-.51-.38l-.56.19A55.72,55.72,0,0,1,96,227l.27.1c-.63.06-1.26.11-1.44,0a32.31,32.31,0,0,1-5.15-.41l-.28.23c-.4,0-1-.37-1.21,0l-.86.11a7.17,7.17,0,0,1-1.53,0h0l-.12,0v0c-1.26-.1,0,.21-1.42.07-.47-.16-.51.3-1.21.25l-.71-.34c-1.26-.19-1.48.15-3.32.15-.88-.12-1.31-.41-.72-.67a3.33,3.33,0,0,1-1.43.35c-.17-.12,0-.15.18-.27-.94-.15-.58.12-1.29.11-.21.24-.45.62-.68.64l.27.07a7.94,7.94,0,0,1-2.45.07l0-.12-.94.06-.06-.15-1.33,0,.18,0a12.47,12.47,0,0,1-1.93,0l0-.09c-1.66-.26-3,.09-5,.11l.26-.17c-.67-.18-.19.27-1,.18l0-.21c-.7.28-.9-.06-1.38-.17l.22.28-.9-.06c-1-.09-.61-.36-.46-.5l-.68.22-.13-.25c-.5.29-.5-.05-1.36.11-.07-.1.15-.15-.15-.19l-1.43.35.87-.15-.11.36c-.9.27-1.21,0-1.86.06l.45-.11a4.49,4.49,0,0,1-1.69-.14c.18.06.46.16,0,.21s-.16-.13-.46-.17c-.05.2-.54.32-1.08.3l-1.53-.05-.05,1.63c0,.13,0,.28,0,.41a.1.1,0,0,1-.09-.06,1,1,0,0,1,0,.56l-.27-.18.26.58a2.9,2.9,0,0,0,0,.73l.08,1.73L53,232.5c.12,0,.19,0,.17.08l-.17,0-1.27.31-.52-2.09v0l0,1.75,1.84,0,2.89.07,0,.21c.29-.29,1.6.12,1.5-.25.56.2,2.18-.15,1.86.27,1.93,0,3-.37,5.31-.16.84.35,3.13.24,4.63.27,2.94-.14,4.84-.28,7.85-.39,1.81.49,4.51-.17,6.46.11l.53-.2c1.29.32,3.27-.06,5.08.24a7.11,7.11,0,0,1,.78-.12.28.28,0,0,1-.24-.17c.52.09,1.56,0,1.49.23l-.13,0c-.08.25,1.57-.11,2.15.1l-.32-.26,1,0-.26.05c4.26-.59,6.19.26,10.19-.28-.53.29.79-.16.84.16,1,.4,1.88-.08,2.7-.19,0,0,0,0,.06-.06l1.45,0c-.87.4,1-.33.25,0,3.77.3,8.69,0,13.06.13l-.19-.1a25.46,25.46,0,0,1,3.33.06,6.07,6.07,0,0,0,2.16-.28c.92-.18,1.76.18,1.36.16a15.07,15.07,0,0,1,3.28-.26c.47.34,3.73-.33,3.77,0l0,0c1.75.27,3.4-.19,5.29.06l-.1.05,3.83-1.16-1.09-1.29-3.32-1-9,.23-7.19-.41-17.51.13-1.25.29c-3.44-.51-7.85.07-11.56-.29l-.08.25a2.41,2.41,0,0,1-1.23-.18c-9.72,0-19.73.38-28.47.07-.84-.17-3.41-.07-4.07-.25a67.18,67.18,0,0,1-7.11.29l2,2v-1.58l0,.11,0-.57-2,2,.77,0c.06,0,.06.05,0,.07a36,36,0,0,1,5.74.09l-.11,0c10.8.05,20.82-.42,31.53-.07,5,.41,10.77-.15,16.48.19C108.5,231.34,120.05,231.16,121.07,231Z"/><path class="cls-2" d="M138.08,230.71H138C138,230.81,138.1,230.78,138.08,230.71Z"/><polygon class="cls-2" points="114.21 227.84 114.29 227.84 114 227.69 114.21 227.84"/><path class="cls-2" d="M129.5,227.75c-.69,0-.72,0-.62,0A2.79,2.79,0,0,0,129.5,227.75Z"/><path class="cls-2" d="M143.69,230.51c.36,0,.22,0,0-.12h-.62Z"/><path class="cls-2" d="M142.22,229.09l.11-.09C142.12,229,142.13,229.05,142.22,229.09Z"/><path class="cls-2" d="M46.78,229s0,0,0,0Z"/><path class="cls-2" d="M40.22,227.26h0l-.06.11Z"/><path class="cls-2" d="M39.29,226.59v0S39.26,226.63,39.29,226.59Z"/><path class="cls-2" d="M42.75,227.63s0,0,0,0Z"/><path class="cls-2" d="M48.75,229.27h0v0Z"/><path class="cls-2" d="M48.71,229.35a.06.06,0,0,1,0-.07c0-.08,0-.09-.07-.07S48.72,229.29,48.71,229.35Z"/><path class="cls-2" d="M52.28,230l0,0Z"/><path class="cls-2" d="M43.83,224h0S43.84,224,43.83,224Z"/><path class="cls-2" d="M51.75,229.79l0,.11A.76.76,0,0,0,51.75,229.79Z"/><path class="cls-2" d="M40.15,227.37l0,0Z"/><path class="cls-2" d="M38.36,226.14l0-.08h0Z"/><path class="cls-2" d="M34.7,222.08l0,0,.08-.06Z"/><path class="cls-2" d="M37.26,225.12l0,0s.06.09.14.11l.06-.13Z"/><path class="cls-2" d="M37.43,221.33l0,.33c-.44-.07-.46-.42-.87-.38l.05,0c0-.08-.41.46-.35-.49l0,0s0,0,0,0l0,.19c-.08,0-.19.13-.25.11a.52.52,0,0,1,.07-.12l-.15-.05.11-.17c-.09.06-.36.38-.27.15-.17.23-.15.09-.25.2l.08-.11a.74.74,0,0,0-.26.09,2.81,2.81,0,0,0-.21.27,3.8,3.8,0,0,0-.26.55c0-.14,0,0-.09.09l0,0c0,.1-.11.24-.11.31l0,0h0a.23.23,0,0,1,.05,0s0-.05.06,0h0s.06.07.08.09l-.09.12c.22-.19.09.63.18.68,0,.21.2.08.25.22s0,.24,0,.4.07-.16.12-.15l0,.25c-.08,0-.09.08-.11.13s.14.43.31.18c.08.21,0,.31.08.36s0-.13,0-.18c0,.15,0,0,0,0s.21.73.38.44l0,0c.13-.21.2-.44.32-.53v.12l.11-.06a.23.23,0,0,1,0,.16c.15,0,.23.14.34.23l.15-.67c0,.18.09.56.2.37l0,.23c0,.49.22-.1.25.05v.27l-.1-.05a2,2,0,0,1,.08.44h0a0,0,0,0,1,0,0h0c.07-.11.15-.16.22-.12s.25-.06.31.25l.14-.21.07.19-.07.18c-.12-.06-.39-.09-.55-.15l0,.09c.1,0,.24,0,.29,0a.45.45,0,0,1-.09.38l.13-.16c.33.11.33.11.58.45V226c.09,0,.17,0,.13.11a.8.8,0,0,1,.39.59l.11-.21s0,.39.11.09l.13-.07s.14-.07.15.08h0v0c.1.15.07-.2.18,0s.15-.26.21-.19l0,.35c.07.23.21-.08.4,0a.86.86,0,0,1-.15.65c.19-.26.11-.18.27-.28a.64.64,0,0,1-.11.25c.05.18.1-.09.17-.05a4.58,4.58,0,0,1,.28-.58v-.08c.12-.09.23-.12.28,0l-.05.11.12,0,0,.14H41v-.05s.16,0,.19.08l0,.08c.09.31.35,0,.56.07l-.09.16c0,.19.11-.25.16-.14l-.06.2c.16-.24.07.09.09.21l.07-.27.07.08c.07.13,0,.36-.11.5l.14-.19-.07.24c.15-.25,0,.06.18-.05,0,.09-.06.13,0,.18l.26-.28-.14.11.12-.34c.18-.23.12.08.22,0l-.08.09c.13-.05.09.1.13.19,0-.07,0-.17.06-.2s0,.12,0,.17c.08-.22.2-.32.23-.19l0,.08s.06-.08.07,0l-.1.25.14-.22c0,.08.13-.09.07.09l0,0,.29.16-.06.21c.12-.28.13.16.23-.2,0,.21.27-.06.11.33.2.09.43-.26.61,0,0,.37.26.33.4.42.35-.05.59-.11.94-.13.05.53.52,0,.64.31l.12-.17c0,.34.36,0,.46.38.07-.07.1-.09.12-.09s0,0,0-.17c0,.1.17,0,.09.26l0,0c-.08.24.2-.06.2.16l0-.26.09.07,0,0c.61-.44.58.44,1.15,0-.14.26.12-.13,0,.18s.22,0,.33-.11,0,0,0-.05l.14.08c-.2.36.2-.29,0,0,.32.41.92.25,1.34.51v-.1c.12.05.29,0,.34.15s.26-.2.3-.21.14.22.1.19c.12,0,.31-.35.41-.15s.48-.22.39.15v0c.11.31.4-.09.54.2l0,0,.69-1,.2-1.27-.08-1.1-1,0-.64-.6-1.84-.36-.2.24c-.22-.59-.83-.16-1.11-.61l-.08.23c-.11,0-.06-.16-.07-.21a8.09,8.09,0,0,1-2.93-.81c0-.18-.32-.17-.34-.36a1,1,0,0,1-1,0l0,0h-.15a.11.11,0,0,1,0-.06c-.22.16-.39-.13-.55-.28l0,0c-1.06-.4-2.22-.32-3.14-1-.33-.57-1.09-.27-1.49-.81C38.67,221.58,37.56,221.28,37.43,221.33Z"/><path class="cls-2" d="M36,220.87Z"/><polygon class="cls-2" points="36.69 224.52 36.68 224.52 36.65 224.66 36.69 224.52"/><path class="cls-2" d="M35.09,223.8c.06.07.07,0,.08,0A.06.06,0,0,0,35.09,223.8Z"/><path class="cls-2" d="M35.61,220.81s0,0-.09.08h0Z"/><path class="cls-2" d="M34.7,221.89l-.07.06S34.68,221.92,34.7,221.89Z"/><path class="cls-2" d="M149.4,225.75s0,0,0,0Z"/><path class="cls-2" d="M155.51,223.4h0l0-.12Z"/><path class="cls-2" d="M156.59,223.34h0S156.59,223.29,156.59,223.34Z"/><path class="cls-2" d="M153.38,224.62s0,0,0,0A0,0,0,0,1,153.38,224.62Z"/><path class="cls-2" d="M147.6,226.54h0l0,0Z"/><path class="cls-2" d="M147.6,226.45s0,.07,0,.09.07.05.08,0S147.63,226.51,147.6,226.45Z"/><path class="cls-2" d="M144.25,227.67v0Z"/><path class="cls-2" d="M154.66,228.19v0S154.66,228.2,154.66,228.19Z"/><path class="cls-2" d="M144.81,227.6l0-.12A1,1,0,0,0,144.81,227.6Z"/><path class="cls-2" d="M155.49,223.28v0Z"/><path class="cls-2" d="M157.52,223.07l0,.09h0Z"/><path class="cls-2" d="M162.69,222.58l0,0,0,.08A.09.09,0,0,0,162.69,222.58Z"/><path class="cls-2" d="M158.93,223.06l0,0s-.09,0-.16,0l.06.14Z"/><path class="cls-2" d="M161.79,225.6l-.28-.2c.39-.35.75-.2,1-.65v.07c.1,0-.25-.54.87-.29l0,0s0-.07.08,0l-.22-.06c0-.12,0-.28.08-.37a.38.38,0,0,1,.12.1l.2-.22.2.08c0-.15-.3-.42,0-.43-.27-.14,0-.21-.15-.3l.14.06c.11-.16.27-.5.19-.64a2.58,2.58,0,0,1-.49.07,1.48,1.48,0,0,1-.68-.12c.18-.05,0-.05-.08-.1l0,.06c-.12,0-.24-.12-.3-.13l0,0v0a.13.13,0,0,1,.05.06s0,0,0,.06h0a.17.17,0,0,1-.12.07l-.09-.12c.11.27-.61-.08-.68-.06s-.13.14-.27.12-.19-.14-.33-.21.11.14.08.17l-.21-.12s0-.11-.07-.16-.38-.13-.27.15c-.19-.06-.25-.17-.31-.15s.1.06.13.12c-.11-.09,0,0,0,.05s-.66-.27-.52,0l0-.06a2.37,2.37,0,0,1,.23.58l-.09-.08v.13a.53.53,0,0,1-.1-.15c0,.14-.23.08-.36.11l.41.55c-.17-.1-.47-.3-.4-.09l-.16-.18c-.37-.31-.06.23-.19.15l-.2-.19.1,0a1.56,1.56,0,0,1-.36-.23h0l0,0h0c0,.12,0,.22-.06.24s-.12.21-.38,0l.06.25-.18-.09-.07-.19a3.82,3.82,0,0,0,.45-.27l0-.08c-.09,0-.15.16-.22.16a.49.49,0,0,1-.2-.33l0,.2c-.28.15-.28.16-.67.07l.06.08c0,.08-.08.16-.16,0a.73.73,0,0,1-.64-.19l.05.23s-.23-.31-.13,0l-.05.13c-.06,0,0,.15-.15,0h0l0,0v0c-.16-.05.08.2-.11.12s.05.3,0,.28l-.19-.3c-.19-.13-.1.19-.28.26a.9.9,0,0,1-.3-.6c0,.32,0,.21,0,.38a.59.59,0,0,1-.07-.26c-.14-.1,0,.13-.09.15a3.76,3.76,0,0,1,.14.63l.06.06c0,.14-.1.23-.23.15l0-.12-.08.09,0-.14-.12.09,0,0s-.11.12-.19.06l0-.08c-.25-.19-.28.18-.46.28l0-.18c-.13-.14.06.27,0,.21l-.08-.2c0,.29-.11,0-.19-.11l.12.26-.11,0c-.13-.05-.18-.32-.21-.46v.23l-.09-.23c0,.29-.06,0-.1.15,0-.09,0-.15-.08-.17l0,.38,0-.18.1.35c0,.29-.13,0-.17.12l0-.12c-.08.12-.14,0-.22-.08s.1.14.07.2-.06-.11-.1-.14c.07.23,0,.38-.07.29a.29.29,0,0,1,0-.09s0,.11-.05.06l-.06-.26,0,.26c-.06-.05-.06.15-.11,0v-.06l-.32,0-.07-.2c.06.29-.2-.06-.07.29-.12-.17-.18.21-.28-.2-.2,0-.19.45-.48.33-.2-.31-.39-.13-.56-.12a7.93,7.93,0,0,1-.68.62c-.33-.41-.41.3-.69.1v.2c-.22-.26-.32.17-.59-.07,0,.1,0,.13,0,.14a.47.47,0,0,1,.07.16c-.08-.07-.15.06-.22-.18v0c-.06-.24-.13.16-.25,0l.11.25H149v-.06c-.28.69-.71-.06-1,.58,0-.3,0,.17-.13-.14s-.17.14-.23.27a.07.07,0,0,1,0,.05h-.16c0-.41,0,.35,0,0-.46-.18-.89.25-1.38.24l.05.1c-.12,0-.23.17-.36,0s-.12.31-.15.33c0,.2-.23-.12-.18-.11s-.09.45-.28.34c-.13-.32-.3.42-.4,0v0c-.25-.22-.31.27-.56.09v-.06l-.11,1.23.43,1.21.62.92.89-.47.87.19,1.81-.64.05-.32c.5.39.8-.3,1.29-.07l-.06-.24c.11,0,.14.1.18.14a9.63,9.63,0,0,1,3-1c.14.13.38,0,.5.1a1.08,1.08,0,0,1,.83-.55v0l.12-.09a.07.07,0,0,1,0,.06c.09-.26.4-.13.62-.11v0c1.15-.34,2-1.14,3.28-1.25.67.18,1.06-.59,1.8-.54C160.57,226.51,161.73,225.77,161.79,225.6Z"/><path class="cls-2" d="M163.5,224.18h0C163.56,224.27,163.54,224.23,163.5,224.18Z"/><polygon class="cls-2" points="159.7 223.05 159.71 223.05 159.62 222.93 159.7 223.05"/><path class="cls-2" d="M161.05,222.26c-.08,0-.07,0,0,.06A.06.06,0,0,0,161.05,222.26Z"/><path class="cls-2" d="M164,223.45c.06,0,0-.06-.09-.08l-.05.08S164,223.46,164,223.45Z"/><path class="cls-2" d="M162.88,222.58l0-.07S162.85,222.56,162.88,222.58Z"/><path class="cls-2" d="M70.54,220.62c-.06,0-.09,0,0,0Z"/><path class="cls-2" d="M115.14,220.26h0a.77.77,0,0,0,.09-.13Z"/><path class="cls-2" d="M122.32,220.57l0,0S122.36,220.53,122.32,220.57Z"/><path class="cls-2" d="M98.61,220.72a.17.17,0,0,0-.12,0Z"/><path class="cls-2" d="M57.39,220.88h0l-.08,0Z"/><path class="cls-2" d="M57.53,220.8c.16,0,0,.07-.11.08a1,1,0,0,0,.53,0C57.94,220.84,57.61,220.85,57.53,220.8Z"/><path class="cls-2" d="M33.54,221.09l.07,0Z"/><path class="cls-2" d="M99.31,224.51l-.11,0A.23.23,0,0,0,99.31,224.51Z"/><path class="cls-2" d="M37.3,221.17l0-.12A.24.24,0,0,0,37.3,221.17Z"/><path class="cls-2" d="M115.27,220.13l.06,0Z"/><path class="cls-2" d="M128.94,220.65a.3.3,0,0,0,0,.1h0Z"/><path class="cls-2" d="M162.36,222.61s0,0,0-.05l-.13.09A.39.39,0,0,0,162.36,222.61Z"/><path class="cls-2" d="M138,221.19s0,0,0-.05a5.91,5.91,0,0,0-1.09,0l0,.15Z"/><path class="cls-2" d="M148,224.69l-1-.3c3.11-.14,4.56.17,7.23-.08l-.15.07c.39.07.61-.61,4.89.22v0c.15,0,.15-.07.44,0l-.74-.19a8.32,8.32,0,0,1,1.43-.24.23.23,0,0,1,.18.14l1.45-.05.44.2c.44-.11.24-.52,1.43-.29-.45-.29.59-.17.44-.32.06,0,.2.09.3.14a11.67,11.67,0,0,0,2.37-.26s-2.76-.6-3.5-.91c1,.08.26,0,.06-.13l-.06.07c-.6-.07-.6-.25-.9-.3,0,0,0,0,0,.05l0,0s0,.05,0,.07,0,.07-.18.06l0,0a6.09,6.09,0,0,1-.87,0v-.15c-.44.29-3-.44-3.56-.45a15.24,15.24,0,0,0-2.07-.05c-1.18,0-.59-.22-1.19-.35s.15.18-.14.19l-.89-.21c.51,0,.23-.11.14-.17-.77,0-2-.3-2.22,0-1-.14-1-.26-1.48-.28.15.06.44.11.45.17-.42-.14-.2,0,0,.06-.64.13-3.29-.55-3.42-.22v-.06c-.15.25.09.49-.36.62l-.29-.11-.44.11c-.3-.08-.16-.15-.16-.18a16.58,16.58,0,0,1-2.61-.05l.93.67c-.74-.16-2.07-.47-2.22-.26l-.44-.22c-1.49-.43-1,.18-1.63.05l-.75-.24h.74a12.79,12.79,0,0,1-1.62-.36h0s.07,0,.07,0H138a1.61,1.61,0,0,1-1,.2,10.46,10.46,0,0,1-2.51-.12l-.29.25-.89-.15v-.2c.87,0,2.51-.06,3.63-.07l0-.09c-.67,0-1.42.09-1.86.07-.21,0-.76-.25-.36-.39l-.41.2a28.22,28.22,0,0,1-4.55-.2l.2.1c-.46.06-.91.12-1,0a17.08,17.08,0,0,1-3.73-.42l-.2.24c-.29,0-.73-.37-.87,0l-.63.1a3.39,3.39,0,0,1-1.1,0h0l-.09,0v0c-.9-.11,0,.21-1,.07-.33-.17-.36.3-.87.25l-.51-.34c-.92-.19-1.07.14-2.4.15-.64-.13-1-.41-.53-.67a1.88,1.88,0,0,1-1,.35c-.12-.13,0-.15.13-.27-.68-.15-.42.12-.94.11-.15.24-.32.62-.49.64l.2.07a4.21,4.21,0,0,1-1.78.07l0-.12-.68.06,0-.16-1,.05.14,0a6.48,6.48,0,0,1-1.4,0v-.09c-1.2-.27-2.19.08-3.59.11l.18-.17c-.48-.18-.13.27-.7.18l0-.22c-.5.29-.65-.06-1-.16l.17.28-.66-.06c-.72-.09-.44-.36-.33-.5l-.49.22-.1-.25c-.35.29-.35-.05-1,.11,0-.1.11-.15-.11-.19l-1,.35.62-.16-.07.37c-.65.27-.88,0-1.35.06l.32-.11a2.39,2.39,0,0,1-1.22-.15c.13.07.33.17,0,.22s-.12-.13-.34-.17c0,.24-.59.37-1.08.26a.09.09,0,0,1,0-.09.53.53,0,0,1-.41,0l.13-.27-.42.26c-.28-.08-.69.12-.66-.06l.16-.06-2.12-.06,0-.22c-.21.3-1.16-.11-1.09.26-.4-.2-1.58.14-1.34-.27-1.4,0-2.15.36-3.85.16-.6-.35-2.26-.24-3.34-.28-2.13.15-3.51.28-5.68.4-1.31-.5-3.27.17-4.68-.11l-.38.19c-.94-.31-2.37.07-3.68-.23-.32.08-.49.11-.56.12a.2.2,0,0,1,.17.17c-.37-.09-1.13,0-1.08-.23l.1,0c.06-.25-1.14.11-1.56-.1l.23.26-.71,0,.19,0c-3.08.59-4.48-.26-7.37.28.38-.29-.57.15-.61-.16-.73-.4-1.36.08-1.95.19,0,0,0,0-.05.06l-1,0c.62-.4-.76.33-.18,0-2.73-.3-6.3,0-9.46-.13l.14.1a13.23,13.23,0,0,1-2.4-.06c-.61-.17-1.34.26-1.57.28-.67.18-1.27-.18-1-.16a7.91,7.91,0,0,1-2.37.26c-.34-.34-2.7.33-2.73-.05v0c-1.27-.27-2.46.19-3.83-.06l.08,0-2.78,1.17.79,1.28,2.41,1,6.52-.23,5.21.41,12.66-.13.91-.29c2.49.51,5.68-.08,8.36.29l.06-.25a1.35,1.35,0,0,1,.89.18c7-.05,14.27-.38,20.6-.07.61.17,2.47.07,2.94.24a40.26,40.26,0,0,1,6.3-.27l-.08,0,1-.05s0,.05,0,.07a19,19,0,0,1,4.16.09l-.08,0c7.81.05,15.06-.42,22.81-.07,3.6.41,7.79-.15,11.92.19A87.63,87.63,0,0,0,148,224.69Z"/><path class="cls-2" d="M160.29,224.36h0C160.26,224.47,160.3,224.43,160.29,224.36Z"/><path class="cls-2" d="M143,221.49h0l-.2-.15Z"/><path class="cls-2" d="M154.08,221.41c-.5,0-.52,0-.45,0A1.51,1.51,0,0,0,154.08,221.41Z"/><path class="cls-2" d="M164.35,224.16c.26,0,.16,0,0-.12l-.45,0C164.05,224.08,164.2,224.14,164.35,224.16Z"/><path class="cls-2" d="M163.28,222.74l.08-.08C163.21,222.68,163.22,222.71,163.28,222.74Z"/><path class="cls-2" d="M65.77,182c-.07,0-.09.06,0,0Z"/><path class="cls-2" d="M119.75,175.8h0l.15-.08Z"/><path class="cls-2" d="M128,179.31l0,0S128.11,179.3,128,179.31Z"/><path class="cls-2" d="M99.29,173.27a.28.28,0,0,0-.15,0A.66.66,0,0,1,99.29,173.27Z"/><path class="cls-2" d="M53.09,192.47l0,0-.09.05Z"/><path class="cls-2" d="M53.15,192.28c.16-.12,0,.09,0,.16a1.48,1.48,0,0,0,.48-.45C53.54,191.94,53.26,192.25,53.15,192.28Z"/><path class="cls-2" d="M41.07,219.3l0-.09Z"/><path class="cls-2" d="M100.13,177.07l-.12,0Z"/><path class="cls-2" d="M41.8,214.63l-.11-.07C41.73,214.61,41.76,214.63,41.8,214.63Z"/><path class="cls-2" d="M120,175.73l.07,0Z"/><path class="cls-2" d="M135.27,183.39a.12.12,0,0,0,0,.1h0Z"/><path class="cls-2" d="M156.15,217.54s0,0,0,0l-.11-.15A.45.45,0,0,0,156.15,217.54Z"/><path class="cls-2" d="M143.82,190.86h.06a9.35,9.35,0,0,0-.95-1l-.13.08Z"/><path class="cls-2" d="M148.55,202.34l-.33-1.12c2,3,2.51,4.67,3.89,7.44l-.13-.14c0,.23.28.33.58,1a13.91,13.91,0,0,1,.91,4.44h0a1,1,0,0,1,.09.5v-.87a9.75,9.75,0,0,1,.58,1.56c0,.15-.05.21-.09.23.15.54.22,1.1.33,1.65l-.12.53c.18.5.58.21.47,1.61.24-.54.24.67.37.49,0,.07-.07.24-.11.37a21.71,21.71,0,0,0,.37,2.75s.49-3.06.67-4.2c0,1.19.07.31.14.06l-.08-.07c0-.72.18-.74.18-1.1l-.05,0,0,0s-.05,0-.07,0-.08,0-.09-.21l0,0a9,9,0,0,1-.14-1l.15,0a1.66,1.66,0,0,1-.18-.78c0-.37-.08-.83-.11-1.3a13.72,13.72,0,0,0-.2-2.26,4.16,4.16,0,0,0-.27-1.18,9.48,9.48,0,0,1-.44-1.27c-.43-1.39,0-.77-.15-1.5s-.1.24-.25-.1l-.21-1.09c.25.58.21.23.22.09-.31-.9-.74-2.37-1.13-2.51a18.15,18.15,0,0,0-.59-1.78c0,.19.17.54.12.57-.13-.52-.15-.2-.07,0a17.2,17.2,0,0,1-1-2.16c-.4-.87-.79-1.66-1-1.64l0,0c-.3,0-.34.35-.76,0L150,199l-.4-.39c-.14-.35,0-.24,0-.26-.58-.68-1.25-1.74-1.88-2.63L148,197c-.41-.82-1.22-2.29-1.52-2.28l-.18-.56c-.89-1.67-1-.82-1.39-1.45l-.46-.84.63.67c-.54-.76-.73-1.08-1.16-1.7h0s.05.08,0,.09l-.1-.08a2.38,2.38,0,0,1-1-.72,19.65,19.65,0,0,1-2.25-2.15l-.45,0-.77-.8.13-.16c.85.66,2.45,1.93,3.48,2.88l.08,0c-.6-.57-1.38-1.11-1.77-1.49-.18-.21-.56-.82-.1-.6l-.52-.17c-2.18-1.71-2.2-1.71-4.45-3.55l.15.23c-.51-.27-1-.54-1.06-.76-1.45-1-2.94-2-3.82-2.73l-.33.09c-.32-.19-.64-.76-1-.56l-.75-.25a5.74,5.74,0,0,1-1.24-.62h0l-.09-.07v0c-1-.58-.07.18-1.21-.46-.31-.32-.54.09-1.1-.21l-.45-.56c-1-.62-1.31-.35-2.86-.94-.71-.38-1-.76-.4-.84a2.92,2.92,0,0,1-1.35-.08c-.1-.17,0-.16.25-.2-.78-.41-.54-.06-1.16-.27-.25.18-.57.49-.77.44l.22.14a6.51,6.51,0,0,1-2.15-.53l.06-.11c-.27-.06-.55-.11-.83-.15v-.16l-1.18-.24.15.08a15,15,0,0,1-1.7-.38l0-.08c-1.42-.56-2.7-.45-4.43-.66l.25-.14c-.57-.26-.2.25-.89,0v-.21c-.65.2-.79-.15-1.21-.31l.17.3-.8-.14c-.88-.19-.52-.41-.37-.55l-.63.16-.1-.26c-.47.25-.44-.08-1.24,0-.05-.09.15-.14-.12-.19l-1.31.26.79-.1-.12.36c-.82.22-1.09-.12-1.67,0l.4-.1a3.51,3.51,0,0,1-1.52-.18c.16.08.41.18,0,.22s-.15-.13-.41-.18c-.07.25-.75.34-1.36.25a.11.11,0,0,1,.06-.09.85.85,0,0,1-.51,0l.16-.27-.52.27c-.35-.07-.85.13-.81,0l.19-.06c-.88,0-1.76,0-2.65.06l0-.22c-.24.31-1.45,0-1.33.35-.52-.17-2,.34-1.7-.11-1.75.14-2.62.7-4.74.83-.81-.2-2.83.29-4.16.6-2.57.77-4.18,1.41-6.71,2.4a8.12,8.12,0,0,0-2.73.91,18.65,18.65,0,0,1-2.72,1.22l-.35.38c-1.2.21-2.61,1.38-4.19,1.91a5.77,5.77,0,0,1-.55.47.23.23,0,0,1,.27,0c-.44.17-1.2.75-1.27.5l.09-.08c0-.13-.33.08-.69.33a3.25,3.25,0,0,1-1,.63l.39.06-.77.45.17-.17c-.74.64-1.37,1.18-2,1.64l-1.75,1.25a15.21,15.21,0,0,0-3.36,3c.15-.55-.41.61-.66.41-.95.35-1.17,1.24-1.6,1.87,0,0,0,0,0,.08l-.93.93c.24-.85-.38.92-.16.15-2.53,2.35-4.93,6.19-6.89,9.65l.18-.11c-.52.87-.9,2.08-1.39,2.7a4.66,4.66,0,0,0-.5,1.92c-.16.83-.73,1.44-.59,1.1a18.43,18.43,0,0,1-.67,2.92,4.08,4.08,0,0,0-.49,1.78c-.09.8-.17,1.54-.36,1.52l0,0c-.57,1.52-.34,3.07-.72,4.74a.41.41,0,0,1,0-.09c.24,1.19.66,2.35,1,3.48l1.31-.93.56-1.4.65-1.34a37.66,37.66,0,0,1,1.22-7.43,39.17,39.17,0,0,1,2.54-5.45,44.41,44.41,0,0,1,8.25-12c.17-.33.36-.64.54-.95,2.4-1.68,4.93-4.49,7.76-5.94l-.08-.25a1.93,1.93,0,0,1,1-.42A55.14,55.14,0,0,1,88.23,178c.74.07,2.88-.39,3.46-.24a29.94,29.94,0,0,1,7.37-.72L99,177c.38,0,.76,0,1.15,0,0,0,0,.05,0,.07a11.35,11.35,0,0,1,2.35,0l2.54.33-.09,0a72.36,72.36,0,0,1,13.22,2.33A49.21,49.21,0,0,1,130.41,185c3.44,2.43,7.8,4.82,11,8.47.25.38,2.08,2.28,3.75,4.31S148.28,202,148.55,202.34Z"/><path class="cls-2" d="M154,215.4v0C153.91,215.39,154,215.43,154,215.4Z"/><polygon class="cls-2" points="147.76 195.64 147.8 195.69 147.76 195.4 147.76 195.64"/><path class="cls-2" d="M154.74,207.42c-.2-.59-.24-.6-.24-.51A2.22,2.22,0,0,0,154.74,207.42Z"/><path class="cls-2" d="M154.84,220.05c0,.3.07.18.12,0l-.07-.53Z"/><path class="cls-2" d="M156.14,218.66l.09.09C156.2,218.57,156.17,218.58,156.14,218.66Z"/><path class="cls-2" d="M127.42,183.43s0,0,0,0Z"/><path class="cls-2" d="M131.46,194.26h0l0,.14Z"/><path class="cls-2" d="M128.18,193.24l0,0S128.15,193.28,128.18,193.24Z"/><path class="cls-2" d="M134.33,190a.05.05,0,0,0,0,0S134.33,190,134.33,190Z"/><path class="cls-2" d="M123.79,182.56h0v0Z"/><path class="cls-2" d="M123.85,182.49s0,.07,0,.07.08.1.13.08S123.86,182.55,123.85,182.49Z"/><path class="cls-2" d="M116.74,185l0,0Z"/><path class="cls-2" d="M129.24,189h0Z"/><path class="cls-2" d="M117.29,183l-.08-.1A.29.29,0,0,0,117.29,183Z"/><path class="cls-2" d="M131.48,194.41v.05A.11.11,0,0,0,131.48,194.41Z"/><path class="cls-2" d="M126.13,192.49a.51.51,0,0,0,0-.09h0Z"/><path class="cls-2" d="M119.38,186l0,0,.09,0Z"/><path class="cls-2" d="M123.94,191l0,0c0,.06.12.12.26.18l.07-.13Z"/><path class="cls-2" d="M123.52,186.71v.38c-.69-.31-.78-.77-1.44-1l.06,0c0-.12-.51.38-.78-1l0,0s-.08,0-.08-.09l0,.26c-.14,0-.31,0-.43-.06a.28.28,0,0,1,.06-.14l-.32-.21,0-.22c-.16,0-.39.34-.47,0-.11.29-.23,0-.3.16,0,0,0-.1,0-.16-.16-.1-.48-.28-.64-.23a6.62,6.62,0,0,1,.08,1.3c-.14-.23-.07,0-.1.09l.06,0c.07.15,0,.29,0,.38l0,0h0l0-.05s.05,0,.08,0h0c.07,0,.13.12.16.16l-.1.11c.28-.13.29.85.41,1s.3.19.39.39,0,.28,0,.48.08-.16.15-.12l0,.32c-.12-.08-.12,0-.13.1s.24.58.48.38c.14.29.06.39.16.48,0-.07,0-.16,0-.21,0,.17.07,0,0,0,.21,0,.43,1,.65.74l0,.05c.17-.18.25-.41.43-.46v.14l.16,0c0,.11,0,.14-.06.17.22,0,.39.28.58.44l.14-.71c.08.24.24.69.39.53v.25c.16.58.35,0,.43.17l.07.31-.18-.1a2.39,2.39,0,0,1,.25.54h0s0,0,0,0h0a.27.27,0,0,1,.35-.06c.18.12.39,0,.6.39l.17-.2.17.23-.07.18c-.22-.1-.68-.2-1-.33l0,.08c.18.08.41.08.52.15s.1.32-.06.4l.19-.14a2.55,2.55,0,0,1,1.12.64v-.11c.14,0,.28,0,.25.14a1.65,1.65,0,0,1,.85.72l.13-.21c.07,0,.08.42.22.11h.3c.17.07.3,0,.48.17h0l0,0v0c.4.23,0-.22.47.06.15.22.16-.27.36-.15l.26.43c.45.34.46,0,1,.13.3.18.57.51.49.78.13-.33,0-.22.29-.35.12.15.1.17.08.3.37.18.11-.14.32-.13-.08-.27-.24-.68-.19-.7l-.11-.08a.37.37,0,0,1,.5-.08l.07.12.16-.09.11.15.25-.11-.06,0a.78.78,0,0,1,.42-.14l.05.07c.56,0,.6-.46.9-.84l.1.16c.25,0-.18-.19,0-.3l.18.11c-.12-.3.18-.16.34-.22l-.27-.1a1.29,1.29,0,0,0,.16-.17c.2-.19.39,0,.5.13,0-.09-.08-.18-.13-.27l.24.08c-.21-.26.1-.11,0-.41.09,0,.13.1.19,0s-.17-.34-.26-.5l.11.27-.35-.16c-.22-.33.07-.29,0-.48l.11.14c-.08-.28.07-.24.15-.36-.07,0-.17.06-.23-.05s.13,0,.16-.07c-.26-.08-.45-.29-.36-.42l.1,0c-.06-.05-.13-.08-.08-.14l.3.09-.31-.19c.06-.08-.19-.24,0-.21l.08.06a2.46,2.46,0,0,0-.06-.36l-.17-.38h.24c-.37-.07-.1-.44-.49-.38.15-.17-.46-.54,0-.53-.39-.53-.93-.66-1.27-1.31.1-.38-.6-.91-1-1.28a14.88,14.88,0,0,0-1.74-.69c-.09-.65-.93-.32-1.17-.76l-.19.13c-.12-.4-.66-.21-.89-.65l-.2.05s0,.06,0,.18c-.07-.12-.31-.1-.21-.32l0,0c.1-.22-.35,0-.39-.25l0,.27-.18-.11.07,0c-1,.27-1.14-.66-2.08-.36.18-.25-.19.11-.12-.2-.09-.45-.39,0-.58,0a.17.17,0,0,1,0,.05l-.27-.1c.26-.35-.29.27,0,0-.68-.48-1.71-.37-2.55-.65l0,.11c-.22-.06-.51,0-.65-.16s-.4.2-.47.21-.32-.22-.25-.19a.32.32,0,0,0-.15.06s-.19.07-.28.11a2.08,2.08,0,0,1-.7.13c-.14-.15-.52.07-.75.35s-.37.56-.53.45l0,0a1.11,1.11,0,0,0-.47.9c0,.35,0,.69,0,1.09l-.06,0a1.78,1.78,0,0,0,1.57.51,3.59,3.59,0,0,1,.84-1c.11-.09,0,0,0,0h0c.06,0,.11,0,.06,0s-.07-.12,0,0,0,0,0,.08v.05l-.09.75.31.14.61.3a29.16,29.16,0,0,1,3.11.48l.29-.23c.46.65,1.37.31,1.86.88l.1-.23c.18,0,.11.19.14.25a16.83,16.83,0,0,1,2.32.87,6,6,0,0,1,1,.6c.19.14.19.15.2.2a.17.17,0,0,1,0,.12c-.14.1,0,.1-.2.15.38-.05.49.09.47.15h-.05l.1.06-.11,0c.38.13,0,.14-.13.08l0,0c0,.07,0,.27-.13.29a.34.34,0,0,1-.22,0,6.66,6.66,0,0,0-.64-.34c-.72-.67-1.9-.5-2.61-1.22,0-.14-.46-.37-.91-.62A7,7,0,0,0,123.52,186.71Z"/><path class="cls-2" d="M121,185.06h0C121,185,121,185,121,185.06Z"/><polygon class="cls-2" points="122.84 190.09 122.83 190.08 122.8 190.23 122.84 190.09"/><path class="cls-2" d="M120.28,188.37c.08.11.1.1.12,0A.21.21,0,0,0,120.28,188.37Z"/><path class="cls-2" d="M120,184.5c-.05-.05-.07,0-.09.09l.1.07S120.05,184.55,120,184.5Z"/><path class="cls-2" d="M119.29,185.75l-.07.05S119.28,185.78,119.29,185.75Z"/><path class="cls-2" d="M579.08,171.74c0,.07.07.09,0,0Z"/><path class="cls-2" d="M609.57,142.9h0l.1-.12Z"/><path class="cls-2" d="M617.93,143.22H618S618,143.17,617.93,143.22Z"/><path class="cls-2" d="M590.29,143.38a.34.34,0,0,0-.17,0Z"/><path class="cls-2" d="M594.17,177.47h0l.09,0Z"/><path class="cls-2" d="M594,177.56c-.18,0,0-.07.13-.08a1.26,1.26,0,0,0-.61,0C593.52,177.51,593.91,177.5,594,177.56Z"/><path class="cls-2" d="M622,177.26l-.09,0Z"/><path class="cls-2" d="M591.13,147.16l-.13,0A.35.35,0,0,0,591.13,147.16Z"/><path class="cls-2" d="M617.57,177.18l-.05.12C617.57,177.25,617.58,177.21,617.57,177.18Z"/><path class="cls-2" d="M609.72,142.78l.06-.05Z"/><path class="cls-2" d="M625.72,143.32a.13.13,0,0,0,0,.09h0Z"/><path class="cls-2" d="M630.06,174.7l0,0,.1-.15A.45.45,0,0,0,630.06,174.7Z"/><path class="cls-2" d="M635.75,149.09s0,0,.06,0a5.12,5.12,0,0,0-.87-1.11l-.14.07A10.26,10.26,0,0,1,635.75,149.09Z"/><path class="cls-2" d="M635,160.91l.3-1.13c.06,1.79,0,3.19,0,4.36a15.64,15.64,0,0,1-.57,3.31v-.16c-.12.16,0,.37-.21,1-.06.14-.13.32-.23.53s-.28.41-.46.66a6.85,6.85,0,0,1-1.87,1.64l0,0c-.1.1-.06.14-.32.28l.65-.35a4.71,4.71,0,0,1-.9,1.09c-.13,0-.2,0-.23,0a10.2,10.2,0,0,1-1.18.8l-.48,0c-.34.28,0,.6-1.19.79.51.14-.52.32-.35.41l-.33,0c-.34.13-.85.19-1.31.32a4.8,4.8,0,0,0-1.06.22l.47.08a8.58,8.58,0,0,0,1.1.14l.66,0h.64c.42,0,.78,0,1,0-1.08.3-.27.14,0,.15l.05-.09c.65-.17.73,0,1.06-.11l0,0,0,0c-.05,0,0,0,0-.08s0-.07.16-.14l0,0c.24-.15.7-.33.88-.44l.08.12a1.82,1.82,0,0,1,.63-.44c.31-.18.69-.39,1.09-.6s.78-.48,1.1-.72a8.31,8.31,0,0,0,.69-.58,8.62,8.62,0,0,0,1.46-2c.68-1.27.53-.55.94-1.17.41-.83-.23.11-.11-.24s.4-.63.56-1c-.17.62,0,.32.12.22.31-.91.83-2.42.53-2.75.21-1.31.31-1.29.33-1.81-.06.17-.11.52-.17.52.14-.49,0-.23-.06,0-.13-.74.55-3.83.22-4h.06c-.25-.17-.49.1-.62-.41l.11-.34-.11-.52c.08-.35.15-.18.18-.18a11.19,11.19,0,0,1-.05-1.48A9.75,9.75,0,0,0,638,155a7.77,7.77,0,0,1-.53,1.21,10.6,10.6,0,0,0,.06-1.63c-.06-.54-.16-1-.28-1.05a3.77,3.77,0,0,0,0-.58c-.1-1-.3-1.23-.46-1.36s-.28-.11-.38-.47-.18-.61-.26-.92c.15.27.33.53.47.8-.36-.86-.48-1.24-.82-1.94h0c0,.05,0,.08,0,.1l-.08-.11a3.13,3.13,0,0,1-1-.85c-.62-.72-1.27-1.07-2.35-2.15l-.46,0a7.33,7.33,0,0,0-.9-.68l.09-.18a14.26,14.26,0,0,1,3.78,2.74l.08,0a13.93,13.93,0,0,0-1.84-1.56c-.2-.2-.67-.8-.16-.6a5.25,5.25,0,0,0-.57-.13l-.83-.5-.7-.33a19,19,0,0,0-2.26-.9l-.77-.25-1-.23.25.14c-.61-.06-1.22,0-1.38-.18l-1.28-.06c-.4,0-.8,0-1.17-.09a13.91,13.91,0,0,1-2-.28l-.23.23c-.34,0-.86-.37-1,0l-.73.11a5.1,5.1,0,0,1-1.29,0h0l-.1,0v0c-1.05-.11,0,.21-1.2.07-.38-.16-.43.3-1,.25l-.6-.34c-1.07-.19-1.25.15-2.8.15-.74-.12-1.1-.41-.61-.67a2.31,2.31,0,0,1-1.2.35c-.14-.12,0-.15.15-.27-.79-.14-.49.12-1.09.11-.18.24-.38.62-.57.64l.23.07a5.69,5.69,0,0,1-2.07.07l0-.12-.79.06-.05-.15-1.13.05.16,0a8.9,8.9,0,0,1-1.63,0l0-.08c-1.4-.27-2.56.08-4.19.11l.21-.18c-.56-.17-.15.27-.82.18l0-.21c-.59.28-.76-.06-1.16-.17l.19.28-.76-.06c-.84-.09-.52-.35-.39-.5l-.57.22-.12-.25c-.41.29-.41,0-1.14.11-.06-.09.12-.15-.13-.19l-1.2.36.73-.16-.09.36c-.76.28-1,0-1.57.07l.38-.11a3.21,3.21,0,0,1-1.43-.15c.15.07.39.17,0,.22s-.14-.13-.39-.17c-.08.25-.64.35-1.31.27a.13.13,0,0,1,.06-.09.91.91,0,0,1-.54.07l.16-.28-.54.29c-.38,0-.89.25-.87.06l.2-.09a11.07,11.07,0,0,0-1.4.24,9.43,9.43,0,0,0-1.38.39l-.11-.19c-.17.34-1.5.51-1.25.82-.61,0-1.75,1.19-1.72.66a8.67,8.67,0,0,0-1.82,1.65l-1.78,2.09a4.43,4.43,0,0,0-1.26,1.61,14.82,14.82,0,0,0-1,2.37,14.36,14.36,0,0,0-.36,3.84c0,1.05.11,2.09.17,3.35a7.57,7.57,0,0,0-.13,2.68c0,.51.08,1,.12,1.52s.06,1,.08,1.53l.27.48c-.06,1.31.9,3,1.58,4.66l.51.58a.24.24,0,0,1,0-.29c.2.46.91,1.19.67,1.29l-.1-.09c-.24.11,1.08,1.1,1.38,1.59l0-.4.67.67-.22-.13a30.52,30.52,0,0,0,4.39,2.38,8.63,8.63,0,0,0,4.7.7c-.45.29.66-.15.71.17.85.4,1.57-.09,2.27-.2,0,0,0,0,.05-.06l1.22,0c-.73.4.88-.33.21,0,3.18.3,7.33,0,11,.13l-.16-.1a18.14,18.14,0,0,1,2.81.06,4.4,4.4,0,0,0,1.82-.28c.78-.18,1.48.18,1.15.16a10.69,10.69,0,0,1,2.76-.26c.4.34,3.15-.33,3.18.05v0c1.48.27,2.87-.19,4.46,0l-.08.06,3.23-1.17-.92-1.28-2.8-1-7.6.22-6.07-.4-14.76.13-1,.29a40.64,40.64,0,0,1-4.18-.57,7.2,7.2,0,0,1-3.55-1.94l-.21.16c-.55-.49-.41-.57-.51-.72a10.33,10.33,0,0,1-2.66-4.3,10.15,10.15,0,0,1-.43-2.52c0-.93,0-2-.06-3a40.74,40.74,0,0,1,.13-5.66,9,9,0,0,1,2-4.29c.23-.2.64-.62,1-1a3.8,3.8,0,0,1,1.12-.79,7.73,7.73,0,0,1,5.49-2.21l-.08,0a10.24,10.24,0,0,1,1.05-.07s0,0,0,.07a25.65,25.65,0,0,1,4.84.09l-.09,0c9.1,0,17.55-.42,26.57-.07.53.05,1.06.09,1.61.11s1.15,0,1.56.07a10.26,10.26,0,0,1,2.75.48,8.31,8.31,0,0,1,4.6,3.46,13.33,13.33,0,0,1,1.69,4.25,10.48,10.48,0,0,1,.17,1.56c0,.63,0,1.22,0,1.75C634.9,159.92,634.94,160.69,635,160.91Z"/><path class="cls-2" d="M631.09,172.08l0,0C631.05,172,631,172,631.09,172.08Z"/><polygon class="cls-2" points="637.98 154.98 637.98 155.04 638.09 154.76 637.98 154.98"/><path class="cls-2" d="M637.48,168.29c.25-.58.22-.62.16-.55A2.16,2.16,0,0,0,637.48,168.29Z"/><path class="cls-2" d="M627.54,173.93c-.25,0-.15.09,0,.12l.44-.13C627.85,173.93,627.69,173.91,627.54,173.93Z"/><path class="cls-2" d="M629,175l-.06.11C629.13,175,629.11,175,629,175Z"/><path class="cls-2" d="M595.19,228c.09,0,.13,0,0,0Z"/><path class="cls-2" d="M579.88,221.75h.06l.13-.12Z"/><path class="cls-2" d="M590.52,222.07h.06S590.59,222,590.52,222.07Z"/><path class="cls-2" d="M553.81,224.15a.39.39,0,0,0,0,.18Z"/><path class="cls-2" d="M614.69,227.71h0l.11,0Z"/><path class="cls-2" d="M614.48,227.8c-.24,0,.06-.07.17-.08a1.87,1.87,0,0,0-.78,0C613.87,227.75,614.36,227.74,614.48,227.8Z"/><path class="cls-2" d="M650.07,227.5l-.11,0Z"/><path class="cls-2" d="M556.4,226l-.16,0A.51.51,0,0,0,556.4,226Z"/><path class="cls-2" d="M644.49,227.42l-.06.12A.15.15,0,0,0,644.49,227.42Z"/><path class="cls-2" d="M580.07,221.63l.08,0Z"/><path class="cls-2" d="M600.35,222.15s0,.06,0,.09h0Z"/><path class="cls-2" d="M649.91,224.09l0,0-.2.08A.54.54,0,0,0,649.91,224.09Z"/><path class="cls-2" d="M613.84,222.68s0,0,0-.05a13,13,0,0,0-1.62,0l0,.15Z"/><path class="cls-2" d="M628.59,226.18l-1.44-.3c4.62-.14,6.77.16,10.72-.08l-.22.07c.58.07.9-.61,7.25.22v0a1.59,1.59,0,0,1,.66,0l-1.1-.18a20.15,20.15,0,0,1,2.11-.25c.19,0,.25.1.27.15l2.15,0,.66.19c.66-.1.36-.51,2.12-.29-.67-.28.87-.17.65-.31l.46.13,1.31-.05L652.67,224a14.63,14.63,0,0,0,.21,2.19s.16-1,.34-2.19l1,1c-1.16-.18-2.45-.41-3-.56,1.47.07.38,0,.09-.13l-.09.07a7.35,7.35,0,0,1-1.33-.3l0,.05.05,0s0,.06,0,.07,0,.07-.27.06l.05,0c-.37,0-1,0-1.28,0V224c-.65.28-4.39-.44-5.27-.45-.88-.19-2,0-3.08-.05-1.75-.05-.88-.22-1.76-.35-1.1-.09.23.18-.22.19l-1.31-.21c.76,0,.35-.11.21-.17-1.14,0-2.94-.3-3.29,0-1.54-.15-1.54-.27-2.2-.28.22,0,.66.1.66.16-.61-.13-.29,0,0,.07-.94.13-4.88-.55-5.07-.22v-.06c-.22.24.13.48-.53.62l-.44-.11-.65.11c-.45-.08-.23-.15-.23-.18a34.06,34.06,0,0,1-3.87-.06l1.38.68c-1.1-.16-3.08-.47-3.3-.26l-.66-.22c-2.2-.43-1.54.18-2.41,0l-1.11-.24h1.1c-1.1-.12-1.54-.2-2.42-.36h0a.19.19,0,0,1,.1,0h-.15a3.33,3.33,0,0,1-1.48.2,22.87,22.87,0,0,1-3.72-.12l-.44.25-1.32-.15v-.2c1.3,0,3.73-.06,5.39-.07l0-.09c-1,0-2.11.09-2.76.07-.32,0-1.13-.25-.54-.39l-.61.2a64.33,64.33,0,0,1-6.74-.19l.3.1a3.41,3.41,0,0,1-1.55,0,37.31,37.31,0,0,1-5.53-.41l-.29.23c-.44,0-1.09-.37-1.3,0l-.93.11a8.24,8.24,0,0,1-1.64,0h0l-.13,0v0c-1.35-.1,0,.21-1.53.08-.49-.17-.54.29-1.29.24l-.76-.34c-1.36-.19-1.59.15-3.56.15-1-.12-1.41-.41-.78-.67a3.75,3.75,0,0,1-1.54.36c-.17-.13,0-.16.2-.27-1-.15-.62.11-1.39.1-.22.24-.48.63-.73.64l.3.08a9.6,9.6,0,0,1-2.64.06l0-.12-1,.06-.06-.15-1.43.05.19,0a14.34,14.34,0,0,1-2.07,0l0-.08c-1.78-.27-3.25.08-5.33.11l.27-.18c-.71-.17-.19.27-1,.19l0-.22c-.75.28-1-.06-1.48-.17l.24.28-1-.05c-1.06-.1-.65-.36-.5-.51L563,222l-.14-.24c-.53.28-.53-.05-1.46.1-.08-.09.15-.14-.16-.18l-1.53.35.92-.16-.11.36c-1,.28-1.31,0-2,.07l.47-.11a5.08,5.08,0,0,1-1.81-.15c.19.07.49.17,0,.22s-.18-.13-.5-.17c-.06.19-.58.31-1.16.3l-1.53,0,0,1.63c0,.14,0,.29,0,.44a.11.11,0,0,1-.09-.07,1.13,1.13,0,0,1,0,.61l-.27-.2.26.63a3.33,3.33,0,0,0,0,.78l.07,1.73,1.59-.07c.13,0,.21,0,.19.07l-.19.05-1.31.3-.48-2.08v0l0,1.75,1.83,0,3.1.06.05.22c.31-.3,1.71.11,1.61-.26.59.2,2.34-.14,2,.28,2.07,0,3.19-.37,5.7-.17.9.35,3.36.24,5,.28,3.16-.15,5.2-.28,8.43-.4,1.94.5,4.84-.17,6.93.11l.57-.2c1.39.32,3.5-.06,5.45.24a7.94,7.94,0,0,1,.84-.12.29.29,0,0,1-.26-.17c.55.09,1.68,0,1.6.23l-.14,0c-.09.25,1.68-.12,2.3.1l-.34-.27,1.06.05-.28.05c4.57-.59,6.64.25,10.94-.29-.57.29.84-.15.9.17,1.08.4,2-.09,2.9-.19,0,0,0,0,.06-.06l1.55,0c-.93.4,1.12-.34.27,0,4,.3,9.33,0,14,.14l-.21-.11a29.26,29.26,0,0,1,3.57.06,7,7,0,0,0,2.33-.28c1-.17,1.89.18,1.46.16a18,18,0,0,1,3.52-.26c.5.34,4-.33,4,0v0c1.88.27,3.65-.19,5.68.06l-.11.05,4.12-1.17L653,225.05l-3.57-1-9.68.23-7.72-.41-18.79.14-1.34.29c-3.7-.51-8.43.07-12.41-.29l-.08.25a2.7,2.7,0,0,1-1.32-.18c-10.44.05-21.18.38-30.56.07-.91-.16-3.66-.07-4.37-.24a74.42,74.42,0,0,1-7.63.28l2,2c0-.58,0-1.14,0-1.7l0,.11,0-.6-2,2,.83,0c.06,0,.06.05,0,.07a41.49,41.49,0,0,1,6.16.09l-.11,0c11.58,0,22.34-.42,33.83-.08,5.34.41,11.56-.15,17.69.19C615.09,226.48,627.49,226.3,628.59,226.18Z"/><path class="cls-2" d="M646.84,225.85h-.05C646.8,226,646.87,225.92,646.84,225.85Z"/><polygon class="cls-2" points="621.23 222.98 621.31 222.99 621 222.84 621.23 222.98"/><path class="cls-2" d="M637.63,222.9c-.73,0-.77,0-.66,0A3.24,3.24,0,0,0,637.63,222.9Z"/><path class="cls-2" d="M652.86,225.65c.39,0,.24-.06,0-.13l-.67,0Z"/><path class="cls-2" d="M651.28,224.23l.12-.09C651.18,224.16,651.19,224.19,651.28,224.23Z"/><path class="cls-2" d="M548.89,224s0,0,0,0Z"/><path class="cls-2" d="M541.86,222.15h0l-.05.12Z"/><path class="cls-2" d="M540.86,221.45h0S540.84,221.5,540.86,221.45Z"/><path class="cls-2" d="M544.57,222.58s0,0,0,0Z"/><path class="cls-2" d="M551,224.36h0v0Z"/><path class="cls-2" d="M551,224.43a0,0,0,0,1,0-.07c0-.08,0-.09-.07-.07S551,224.37,551,224.43Z"/><path class="cls-2" d="M554.78,225.16l0,0Z"/><path class="cls-2" d="M545.64,219h0Z"/><path class="cls-2" d="M554.21,224.93l0,.11A.76.76,0,0,0,554.21,224.93Z"/><path class="cls-2" d="M541.8,222.27l0,0Z"/><path class="cls-2" d="M539.87,221l0-.09h0Z"/><path class="cls-2" d="M535.88,216.75l0,0,.08,0Z"/><path class="cls-2" d="M538.68,219.92l0,0s.07.08.15.11l.07-.13Z"/><path class="cls-2" d="M538.75,216.09v.33c-.47-.08-.51-.44-.94-.41l.05,0c0-.08-.43.47-.4-.51v0s-.05.05,0,0l-.05.2c-.08,0-.2.13-.26.1s0-.08.07-.12l-.16-.06.1-.17c-.09.06-.36.37-.28.14-.17.23-.16.09-.25.2l.08-.12a.76.76,0,0,0-.28.07,1.69,1.69,0,0,0-.2.29,2.85,2.85,0,0,0-.24.56c-.05-.15-.06,0-.1.09l0,0c0,.11-.1.24-.1.31l0,0,0,0,0-.06s0-.05.06,0h0s.07.07.09.1l-.1.12c.23-.2.12.64.22.7,0,.21.21.08.26.23s0,.24,0,.4.06-.16.11-.14l0,.25c-.09,0-.09.08-.11.13s.15.44.33.19c.09.22,0,.32.1.37s0-.13,0-.18c0,.15,0,0,0-.06.15-.06.25.75.42.46l0,.06c.13-.21.2-.44.33-.53V219l.12-.07a.19.19,0,0,1-.06.17c.16-.05.25.15.37.24l.15-.67c0,.19.11.57.22.38l0,.23c0,.5.23-.1.27.06v.27l-.11,0a2,2,0,0,1,.1.44h0a.06.06,0,0,1,0,0h0c.06-.11.15-.16.23-.11s.25-.06.33.26l.14-.21.08.19-.08.19a4.58,4.58,0,0,0-.58-.17l0,.09c.11,0,.25,0,.31.05a.45.45,0,0,1-.09.38l.14-.16c.35.12.35.12.63.47v-.11c.09,0,.19,0,.14.11a.83.83,0,0,1,.43.61l.12-.21s0,.39.12.09l.13-.06c.06,0,.14-.08.16.08h0v0c.11.15.08-.2.19,0s.16-.26.22-.18l0,.35c.07.23.22-.08.42,0a.82.82,0,0,1-.14.66c.19-.26.1-.18.27-.27a.44.44,0,0,1-.11.24c.06.18.11-.08.18,0a4.44,4.44,0,0,1,.29-.57v-.08c.13-.09.24-.12.29,0l0,.11.13,0,0,.15h.17v-.05s.17,0,.21.08l0,.08c.1.32.37,0,.59.09l-.08.15c0,.19.1-.25.16-.13l-.06.2c.17-.24.08.09.1.21l.06-.27.09.09c.08.12,0,.36-.11.49l.14-.18-.06.24c.15-.26,0,.06.19-.05,0,.09-.07.13-.05.18l.27-.28-.14.11.12-.34c.19-.22.13.09.23,0l-.08.09c.14-.05.1.1.14.2,0-.07,0-.17.06-.2s0,.12,0,.17c.09-.23.21-.32.25-.19a.46.46,0,0,1,0,.09s.06-.09.07,0l-.1.25.14-.23c0,.09.15-.08.09.09l0,.05.31.16-.06.21c.12-.27.15.17.25-.19,0,.21.29-.06.12.33.21.1.45-.25.65,0,0,.36.28.34.44.42a8.3,8.3,0,0,1,1-.1c.06.53.56,0,.7.32l.11-.17c.06.34.39,0,.51.39l.12-.09s0-.05,0-.17c0,.1.18,0,.1.27l0,0c-.08.23.21-.06.21.16l0-.26.1.07,0,0c.64-.43.62.45,1.22.06-.14.26.13-.12.05.18s.24,0,.36-.1l0,0,.15.08c-.2.36.21-.29,0,0,.34.41,1,.27,1.43.53v-.1c.12,0,.31,0,.36.16s.27-.2.32-.21.15.23.11.2c.12,0,.32-.35.43-.15s.51-.22.42.16v0c.13.31.43-.09.58.21l0,0,.72-1,.19-1.28-.1-1.1-1.06,0-.69-.61-2-.4-.22.24c-.24-.6-.88-.18-1.19-.64l-.08.23c-.12,0-.07-.16-.08-.21a9.16,9.16,0,0,1-3.14-.87c0-.19-.35-.19-.37-.37a1.15,1.15,0,0,1-1-.05l0,0h-.16a.11.11,0,0,1,0-.06c-.23.15-.42-.14-.59-.29l0,0c-1.14-.43-2.38-.38-3.37-1.13-.37-.58-1.18-.3-1.62-.86C540.07,216.38,538.88,216,538.75,216.09Z"/><path class="cls-2" d="M537.2,215.56h0C537.26,215.47,537.23,215.5,537.2,215.56Z"/><polygon class="cls-2" points="538.05 219.31 538.04 219.3 538.01 219.45 538.05 219.31"/><path class="cls-2" d="M536.35,218.53c0,.07.07.05.08,0A.06.06,0,0,0,536.35,218.53Z"/><path class="cls-2" d="M536.78,215.47s0,0-.09.08l0,0Z"/><path class="cls-2" d="M535.87,216.56l-.07.06S535.85,216.59,535.87,216.56Z"/><path class="cls-2" d="M659,220.79s0,0,0,0Z"/><path class="cls-2" d="M665.61,218.3h0l0-.12Z"/><path class="cls-2" d="M666.76,218.2h0S666.75,218.16,666.76,218.2Z"/><path class="cls-2" d="M663.3,219.57s0,0,0,0A0,0,0,0,1,663.3,219.57Z"/><path class="cls-2" d="M657.09,221.62h0l0,0Z"/><path class="cls-2" d="M657.09,221.54s0,.07,0,.08.07,0,.09,0S657.12,221.59,657.09,221.54Z"/><path class="cls-2" d="M653.49,222.82v0Z"/><path class="cls-2" d="M664.59,223.14v0S664.59,223.15,664.59,223.14Z"/><path class="cls-2" d="M654.09,222.74l0-.12A.68.68,0,0,0,654.09,222.74Z"/><path class="cls-2" d="M665.58,218.17v0Z"/><path class="cls-2" d="M667.75,217.91l0,.08h0Z"/><path class="cls-2" d="M673.24,217.25l0,0,0,.08S673.25,217.27,673.24,217.25Z"/><path class="cls-2" d="M669.25,217.86v0s-.1,0-.17,0l0,.14Z"/><path class="cls-2" d="M672.21,220.35l-.29-.19c.42-.37.8-.23,1.1-.68v.06c.11,0-.24-.54.92-.32l0,0s0-.07.09,0l-.24-.06c0-.12,0-.28.1-.37a.26.26,0,0,1,.12.09l.21-.22.21.07c0-.15-.3-.42.06-.44-.27-.14,0-.22-.15-.3l.15.05c.11-.17.27-.51.2-.66a2.79,2.79,0,0,1-.5.09,1.55,1.55,0,0,1-.69-.1c.18-.07,0-.06-.08-.11l0,.06c-.13,0-.25-.11-.31-.12l0,0v0s0,0,0,.06,0,.05,0,.06h0s-.08.07-.12.08l-.09-.12c.11.27-.64-.06-.71,0s-.15.15-.3.13-.19-.14-.33-.2.11.14.08.17l-.23-.12c.06,0,0-.11-.06-.15s-.4-.12-.29.16c-.2-.05-.26-.16-.33-.15a.55.55,0,0,1,.14.12c-.12-.09,0,0,0,.06s-.69-.27-.56,0l0-.06a2.37,2.37,0,0,1,.23.58l-.09-.07,0,.12a.25.25,0,0,1-.09-.15c-.06.15-.26.1-.39.12l.41.55c-.17-.09-.49-.29-.42-.08l-.16-.18c-.39-.3-.07.24-.21.16l-.2-.18.11,0a1.68,1.68,0,0,1-.38-.23h0l0,0h0c0,.12,0,.22-.06.25s-.13.21-.41,0l.06.25-.19-.08-.07-.19c.13,0,.33-.21.49-.28l0-.09c-.1,0-.17.17-.24.18a.47.47,0,0,1-.2-.33v.2a.79.79,0,0,1-.72.09l.07.08c-.05.08-.09.16-.17,0a.77.77,0,0,1-.69-.17l.06.23s-.24-.3-.14,0l-.06.13c-.06,0-.05.15-.16.05h0l0,0v0c-.17,0,.08.2-.12.13s.05.3,0,.28l-.19-.29c-.2-.13-.11.19-.3.26a.78.78,0,0,1-.3-.59c0,.32,0,.2,0,.38a.59.59,0,0,1-.07-.26c-.15-.1,0,.13-.1.15a4.25,4.25,0,0,1,.14.63l.06.06c0,.15-.11.24-.24.16l0-.12-.08.09-.06-.14-.13.1,0,0s-.12.12-.21.06l0-.08c-.26-.19-.3.19-.5.29l0-.17c-.12-.14.07.26,0,.2l-.08-.2c0,.29-.11,0-.2-.11l.12.26-.12,0c-.14-.05-.18-.32-.21-.46v.23l-.1-.23c0,.3-.06,0-.11.16,0-.09,0-.15-.07-.18l-.05.39.05-.18.1.35c0,.29-.14,0-.18.12v-.12c-.08.12-.14,0-.23-.08s.11.15.07.21,0-.12-.1-.15c.07.24,0,.39-.08.3a.29.29,0,0,1,0-.09c0,.05,0,.11,0,.07l-.06-.27v.27c-.06-.06-.06.15-.11,0v-.06l-.34,0-.07-.2c.06.29-.2,0-.08.3-.12-.17-.19.21-.29-.2-.21,0-.21.46-.52.34-.2-.31-.42-.12-.59-.1-.28.24-.45.43-.74.64-.35-.42-.45.31-.74.1v.21c-.23-.26-.34.17-.62-.06a.51.51,0,0,1-.05.14.47.47,0,0,1,.07.16c-.08-.07-.17.07-.23-.17v0c-.06-.24-.14.16-.26,0l.11.25h-.13l0-.06c-.31.7-.75-.05-1,.6,0-.3,0,.17-.13-.13s-.19.14-.25.27a.43.43,0,0,1,0,.05H657c0-.41,0,.36,0,0-.5-.17-1,.28-1.48.27l0,.1c-.12,0-.24.18-.38,0s-.14.31-.17.34c-.06.19-.24-.12-.19-.12-.1.08-.11.46-.3.35-.14-.31-.33.43-.43.06v0c-.27-.21-.33.28-.61.1v-.06l-.14,1.24.44,1.21.64.91,1-.49.92.18,1.94-.68.06-.32c.53.38.86-.33,1.38-.1l-.06-.24c.11-.05.15.1.19.13a10.73,10.73,0,0,1,3.18-1c.14.12.4-.06.53.08a1.24,1.24,0,0,1,.89-.57v0l.13-.09a.07.07,0,0,1,0,.06c.1-.27.43-.15.67-.13v0c1.23-.36,2.19-1.2,3.51-1.33.71.16,1.15-.62,1.92-.59C670.9,221.31,672.14,220.53,672.21,220.35Z"/><path class="cls-2" d="M674,218.86h0C674.1,219,674.08,218.91,674,218.86Z"/><polygon class="cls-2" points="670.08 217.83 670.09 217.82 670 217.7 670.08 217.83"/><path class="cls-2" d="M671.53,217c-.08,0-.07,0,0,.07A.07.07,0,0,0,671.53,217Z"/><path class="cls-2" d="M674.61,218.11c0-.05,0-.07-.09-.09l-.06.08Z"/><path class="cls-2" d="M673.45,217.24l-.05-.07A.08.08,0,0,0,673.45,217.24Z"/><path class="cls-2" d="M574.35,215.31Z"/><path class="cls-2" d="M622.22,214.94h0l.09-.13Z"/><path class="cls-2" d="M629.92,215.25l.05,0S630,215.21,629.92,215.25Z"/><path class="cls-2" d="M604.48,215.41c-.07,0-.11,0-.13,0Z"/><path class="cls-2" d="M560.24,215.57h0l-.08,0Z"/><path class="cls-2" d="M560.39,215.49c.17,0,0,.07-.12.08a1.11,1.11,0,0,0,.57,0C560.83,215.53,560.47,215.54,560.39,215.49Z"/><path class="cls-2" d="M534.64,215.79l.07,0A.09.09,0,0,0,534.64,215.79Z"/><path class="cls-2" d="M605.23,219.2h-.11A.17.17,0,0,0,605.23,219.2Z"/><path class="cls-2" d="M538.68,215.86l0-.12A.13.13,0,0,0,538.68,215.86Z"/><path class="cls-2" d="M622.36,214.81l.06-.05Z"/><path class="cls-2" d="M637,215.33a.12.12,0,0,0,0,.09h0Z"/><path class="cls-2" d="M672.9,217.28s0,0,0-.05l-.14.09A.53.53,0,0,0,672.9,217.28Z"/><path class="cls-2" d="M646.8,215.86s0,0,0,0a7.59,7.59,0,0,0-1.17,0l0,.15Z"/><path class="cls-2" d="M657.47,219.37l-1-.31c3.34-.13,4.89.17,7.75-.08l-.16.07c.42.07.66-.61,5.25.22v0a1,1,0,0,1,.48,0l-.8-.19a9.66,9.66,0,0,1,1.53-.24c.14,0,.18.09.19.14l1.56-.05.48.2c.47-.11.26-.52,1.53-.29-.48-.29.63-.17.47-.32.07,0,.21.09.33.14a13.43,13.43,0,0,0,2.54-.26s-3-.6-3.76-.91c1.06.08.28,0,.07-.13l-.07.07c-.64-.07-.64-.25-1-.3,0,0,0,0,0,0l0,0s0,0,0,.07,0,.07-.2.06l0,0a6.94,6.94,0,0,1-.93,0v-.15c-.47.29-3.18-.44-3.81-.45a16.1,16.1,0,0,0-2.23,0c-1.27,0-.63-.22-1.27-.35-.8-.1.16.17-.16.18l-1-.21c.55,0,.25-.11.15-.17-.82,0-2.13-.3-2.38,0-1.11-.14-1.11-.26-1.59-.28.16.06.48.11.48.17-.45-.13-.21,0,0,.06-.68.13-3.53-.55-3.67-.22v-.06c-.16.25.09.49-.38.62l-.32-.11-.48.11c-.32-.08-.16-.15-.16-.18a17.76,17.76,0,0,1-2.8-.05l1,.67c-.8-.15-2.23-.47-2.39-.25l-.48-.23c-1.59-.43-1.11.19-1.74.06l-.8-.25h.79a16.79,16.79,0,0,1-1.74-.37h0s.07,0,.08,0h-.11a1.78,1.78,0,0,1-1.08.2A11.32,11.32,0,0,1,643,216l-.31.25-1-.15v-.2c.94,0,2.7-.07,3.9-.08l0-.09c-.71,0-1.52.09-2,.07-.23,0-.82-.25-.4-.38l-.44.19a31,31,0,0,1-4.87-.19l.21.1c-.49.06-1,.12-1.12-.05a19,19,0,0,1-4-.41l-.21.24c-.32,0-.79-.37-.94,0l-.67.1a4,4,0,0,1-1.19,0h0l-.09,0h0c-1-.1,0,.22-1.1.08-.36-.17-.4.3-.94.25l-.55-.34c-1-.2-1.15.14-2.58.14-.68-.12-1-.4-.56-.66a2.11,2.11,0,0,1-1.11.35c-.13-.13,0-.15.14-.27-.73-.15-.45.12-1,.11-.16.24-.35.62-.53.64l.22.07a4.85,4.85,0,0,1-1.91.07l0-.12-.72.06-.05-.16-1,.05.15,0a7.44,7.44,0,0,1-1.5,0v-.09c-1.29-.27-2.35.08-3.86.11l.2-.17c-.52-.18-.14.27-.75.18l0-.22c-.53.29-.69-.06-1.06-.16l.17.28-.7-.06c-.77-.09-.47-.36-.36-.5l-.53.22-.1-.25c-.38.29-.38-.05-1.06.11-.05-.1.12-.15-.11-.19l-1.11.35.67-.15-.08.36c-.7.28-.94,0-1.44.06l.34-.11a2.75,2.75,0,0,1-1.31-.14c.14.06.36.16,0,.21s-.13-.13-.36-.17c-.06.25-.64.37-1.17.26a.13.13,0,0,1,.06-.09.61.61,0,0,1-.44,0l.14-.27-.46.26c-.3-.07-.74.12-.7-.06l.18-.05-2.28-.07,0-.21c-.22.29-1.24-.12-1.16.25-.43-.2-1.7.15-1.44-.27-1.5,0-2.31.37-4.13.17-.65-.36-2.43-.24-3.6-.28-2.28.15-3.76.28-6.09.39-1.41-.49-3.5.17-5-.11l-.42.2c-1-.31-2.54.07-3.95-.23-.34.08-.52.11-.6.12a.21.21,0,0,1,.19.17c-.4-.09-1.22,0-1.16-.23l.1,0c.06-.24-1.22.12-1.67-.09l.25.26-.76,0,.2,0c-3.31.59-4.81-.26-7.92.28.42-.29-.61.15-.65-.16-.78-.4-1.45.08-2.09.19,0,0,0,0-.05.06l-1.12,0c.67-.4-.81.33-.2,0-2.93-.3-6.75,0-10.14-.13l.15.1a14.45,14.45,0,0,1-2.59-.06c-.65-.16-1.42.27-1.68.28-.71.18-1.36-.17-1.06-.16a9.06,9.06,0,0,1-2.54.26c-.37-.34-2.9.34-2.93,0v0c-1.36-.27-2.65.19-4.11-.06a.26.26,0,0,1,.08-.05l-3,1.16.85,1.28,2.58,1,7-.22,5.59.41,13.59-.14,1-.29c2.68.5,6.1-.08,9,.28l.06-.24a1.45,1.45,0,0,1,1,.18c7.55-.06,15.32-.39,22.11-.07.65.16,2.65.06,3.16.24a44.79,44.79,0,0,1,6.75-.27l-.08,0,1,0s0,.05,0,.07a21,21,0,0,1,4.46.08l-.08,0c8.38.05,16.17-.42,24.48-.07,3.87.4,8.36-.16,12.8.18A103.69,103.69,0,0,0,657.47,219.37Z"/><path class="cls-2" d="M670.67,219h0C670.64,219.14,670.69,219.1,670.67,219Z"/><path class="cls-2" d="M652.14,216.17h.06L652,216Z"/><path class="cls-2" d="M664,216.08c-.53,0-.56,0-.48,0A1.73,1.73,0,0,0,664,216.08Z"/><path class="cls-2" d="M675,218.83c.28,0,.18-.05,0-.12l-.48,0C674.71,218.75,674.87,218.81,675,218.83Z"/><path class="cls-2" d="M673.89,217.41l.09-.09C673.81,217.35,673.82,217.38,673.89,217.41Z"/><path class="cls-2" d="M567.22,220c.13,0,.19,0,0,0Z"/><path class="cls-2" d="M600.67,173h.09a1,1,0,0,1,.18-.13Z"/><path class="cls-2" d="M614.85,173.3h.09S615,173.25,614.85,173.3Z"/><path class="cls-2" d="M568,173.47a.78.78,0,0,0-.27,0Z"/><path class="cls-2" d="M593.34,219.73h-.06l.15,0Z"/><path class="cls-2" d="M593.05,219.82c-.31,0,.09-.08.23-.09a4,4,0,0,0-1,0C592.24,219.77,592.9,219.76,593.05,219.82Z"/><path class="cls-2" d="M640.48,219.52l-.14,0Z"/><path class="cls-2" d="M569.39,177.24l-.21,0A.84.84,0,0,0,569.39,177.24Z"/><path class="cls-2" d="M633,219.44l-.09.12C633,219.51,633,219.47,633,219.44Z"/><path class="cls-2" d="M600.94,172.86l.1-.05A.31.31,0,0,0,600.94,172.86Z"/><path class="cls-2" d="M628,173.38a.16.16,0,0,0,.07.09h0Z"/><path class="cls-2" d="M653.75,215.07l.06,0,.14-.24A1.64,1.64,0,0,0,653.75,215.07Z"/><path class="cls-2" d="M645.92,173.91l.07,0c-.31-.05-1.12-.05-2.16-.05l-.06.15Z"/><path class="cls-2" d="M655.74,188l.14-.93.11-.81.07.94c0,.36,0,.71,0,1,0,.68,0,1.32,0,1.93l0,3.38c0,2.15,0,4.18.08,6.81l-.07-.29c0,.38.12.68.18,2,0,.63,0,1.5,0,2.74a11.15,11.15,0,0,1-.81,4.3h0a1.74,1.74,0,0,1-.25.67,8.5,8.5,0,0,0,.54-1.09,8.44,8.44,0,0,1-.19,1.08,5.22,5.22,0,0,1-.43,1.21c-.11.18-.22.2-.27.2a10.08,10.08,0,0,1-1.39,2,5.38,5.38,0,0,1-.66.38c-.24.28-.22.46-.37.68a3,3,0,0,1-1.37,1c.39-.07.2.1-.06.29s-.62.33-.47.34c-.11,0-.34.08-.54.1a12.19,12.19,0,0,1-2.16.7c-.77.2-1.5.24-1.79.34l.79.06a5.75,5.75,0,0,0,.84,0,7.23,7.23,0,0,0,1-.06,14.25,14.25,0,0,0,3.67-1c-1.65.92-.41.29,0,.17l.07-.12c1-.61,1.1-.46,1.56-.82h-.06l0,.06c-.06,0,0,0,0-.08s0-.07.23-.28l0,.06c.36-.33.91-.95,1.17-1.21l.12.09c.15-.44,1.15-1.5,1.86-2.85a11.26,11.26,0,0,0,1.24-3.5,32.4,32.4,0,0,0,.11-4.14c0-2.34.22-1.17.35-2.34.09-1.47-.18.29-.19-.29l.21-1.76c0,1,.11.47.17.28,0-1.52.3-3.91,0-4.38.15-2.05.27-2.05.28-2.93a4.09,4.09,0,0,1-.16.88c.13-.82,0-.39-.07-.06-.14-1.26.6-6.43.14-6.89h.06c-.29-.29-.45.24-.73-.66,0-.21,0-.43,0-.64l-.34-.88c-.11-.62,0-.35.07-.36a16,16,0,0,0-2.75-4.78,13.35,13.35,0,0,1,.68,1.92c-.19-.32-.42-.72-.68-1.12a10.94,10.94,0,0,0-.89-1.12,3.91,3.91,0,0,0-1.42-1.16,7.07,7.07,0,0,0-.65-.69,4.16,4.16,0,0,0-2.15-1.12,2.51,2.51,0,0,1-1-.18,9.55,9.55,0,0,0-1.49-.57,10.44,10.44,0,0,1,1.55.33,17.53,17.53,0,0,0-3.44-.85h0a.49.49,0,0,1,.16,0h-.23a5.74,5.74,0,0,1-2,.2,40.41,40.41,0,0,1-5-.12l-.59.25-1.75-.15v-.2l7.17-.07,0-.09c-1.31,0-2.8.09-3.67.07-.42,0-1.51-.25-.72-.38l-.81.19c-4.38,0-4.41,0-9-.19l.4.1a5.77,5.77,0,0,1-2.07-.05,66,66,0,0,1-7.37-.41l-.39.23c-.58,0-1.45-.36-1.73,0l-1.24.11a13.32,13.32,0,0,1-2.18,0h0l-.17,0s0,0,0,0c-1.8-.1,0,.21-2,.08-.66-.17-.73.3-1.73.24l-1-.34c-1.81-.19-2.12.15-4.75.15-1.26-.12-1.87-.41-1-.66a6.37,6.37,0,0,1-2,.35c-.24-.13-.07-.16.26-.27-1.35-.15-.83.11-1.85.11-.3.24-.64.62-1,.63l.39.08a16.24,16.24,0,0,1-3.51.07l0-.13-1.33.07-.09-.16-1.91,0,.27,0a25.49,25.49,0,0,1-2.76,0l0-.08c-2.38-.27-4.34.08-7.12.11l.37-.18c-.95-.17-.26.27-1.39.19l0-.22c-1,.28-1.29-.06-2-.17l.32.29-1.29-.06c-1.42-.1-.87-.36-.67-.51l-1,.23L578,173c-.71.29-.71,0-2,.11-.1-.1.21-.15-.21-.19l-2,.35,1.23-.16-.15.37a14.36,14.36,0,0,1-2.65.06l.63-.11a9,9,0,0,1-2.42-.15c.26.07.66.17.06.22s-.24-.13-.66-.17c0,.12-.35.21-.75.26a9.85,9.85,0,0,1-1.48,0s0-.07.11-.1a2.93,2.93,0,0,1-.92.11l.27-.3c-.32.1-.62.26-.92.38-.65,0-1.49.46-1.45.25l.33-.14a13.76,13.76,0,0,0-4.43,1.87l-.18-.14c-.11.27-.67.63-1.13,1s-.82.71-.63.79a6.2,6.2,0,0,0-1.41,1.52c-.44.56-.72,1-.76.68a11.21,11.21,0,0,0-1.6,3.84c-.07.33-.13.66-.21,1s-.09.7-.14,1.07a11.19,11.19,0,0,0-.1,1.2c0,.44-.06.84-.08,1.25-.35,1.19-.24,4.47-.28,6.62.15,4.21.29,6.92.4,11.22a5.23,5.23,0,0,0-.1,1.12,5.74,5.74,0,0,0,.07,1.3,7.34,7.34,0,0,0,.27,1.35,8.55,8.55,0,0,0,.45,1.35,19.89,19.89,0,0,0,2.79,4.62c.25.17.48.35.74.5a9.49,9.49,0,0,0,3,2.38,21.81,21.81,0,0,0,4.23,1.58l1.3,0c-.14,0-.34-.07-.39-.2.41.07,1.08.1,1.56.13s.8.05.74.17l-.18,0c-.11.25,2.25-.12,3.07.1l-.45-.27,1.4.05-.37,0c6.09-.59,8.85.25,14.57-.29-.76.29,1.13-.15,1.21.17,1.44.4,2.67-.09,3.86-.2,0,0,0,0,.08-.06l2.07,0c-1.24.4,1.49-.33.35,0,5.4.3,12.44,0,18.69.13l-.28-.1c1.59,0,3.56-.11,4.76.06a12.85,12.85,0,0,0,3.1-.28c1.31-.18,2.51.18,2,.16a30.39,30.39,0,0,1,4.68-.26c.67.34,5.34-.33,5.4.05l0,0c2.5.27,4.86-.19,7.56.05l-.14.06,5.48-1.17-1.56-1.28-4.76-1-12.89.22-10.28-.4-25,.13-1.79.29c-4.92-.5-11.23.08-16.53-.28l-.11.25a4.58,4.58,0,0,1-1.76-.19l-2.61,0c-.47,0-.77,0-1.15,0s-.71-.1-1.07-.13a9.79,9.79,0,0,1-4-1.67,10,10,0,0,1-4.22-7.29c-.06-.66-.05-1.57-.06-2.42s0-1.71,0-2.55v-5c0-3.32.05-6.56.13-9.69a9.48,9.48,0,0,0,.13-1.07c.1-.42.14-.92.29-1.38a6,6,0,0,1,.93-2.09,8.82,8.82,0,0,1,3.22-3.91,9.3,9.3,0,0,1,4.85-1.59l-.13,0c.28,0,.51,0,.82-.06l1,0c.08,0,.09.05,0,.07a73.66,73.66,0,0,1,8.21.09l-.15,0c15.44,0,29.77-.42,45.08-.08,7.11.41,15.42-.16,23.54.2a15.54,15.54,0,0,1,2.73.53,10.14,10.14,0,0,1,4.2,2.67,10,10,0,0,1,2.4,4.38,10.13,10.13,0,0,1,.27,1.79l0,.33v.34Z"/><path class="cls-2" d="M654.77,211.09l0-.05C654.7,211,654.7,211.08,654.77,211.09Z"/><polygon class="cls-2" points="655.41 178.33 655.49 178.42 655.3 177.99 655.41 178.33"/><path class="cls-2" d="M659,200c0-1,0-1,0-.89A5.9,5.9,0,0,0,659,200Z"/><path class="cls-2" d="M649.88,215.69c-.42.14-.24.14,0,.12.42-.2.7-.35.7-.35Z"/><path class="cls-2" d="M652.24,216l-.09.16C652.4,216,652.37,216,652.24,216Z"/><path class="cls-2" d="M611.08,119.65s0,0,0,0Z"/><path class="cls-2" d="M614.21,142.6l0,0s0,.09.07.12Z"/><path class="cls-2" d="M610.33,145.1h0S610.32,145.15,610.33,145.1Z"/><path class="cls-2" d="M617.55,133.65a.15.15,0,0,0,0-.08A.24.24,0,0,1,617.55,133.65Z"/><path class="cls-2" d="M604,115.47h0l-.06,0Z"/><path class="cls-2" d="M604.08,115.37c.12,0,0,.07-.06.09a.52.52,0,0,0,.38,0C604.38,115.41,604.15,115.43,604.08,115.37Z"/><path class="cls-2" d="M600.07,127v0Z"/><path class="cls-2" d="M613.74,133.61v-.05A0,0,0,0,0,613.74,133.61Z"/><path class="cls-2" d="M601,125.47l-.1-.07A.26.26,0,0,0,601,125.47Z"/><path class="cls-2" d="M614.26,142.75v.06S614.26,142.77,614.26,142.75Z"/><path class="cls-2" d="M606.08,145.55a.13.13,0,0,0,0-.09h0Z"/><path class="cls-2" d="M599.35,130.81h-.05l.06.09A.19.19,0,0,0,599.35,130.81Z"/><path class="cls-2" d="M601.18,143h0a2,2,0,0,0,.33.33l.28.19.1-.12-.32-.16Z"/><path class="cls-2" d="M601.18,137c0,.15-.09.31-.12.47a3.62,3.62,0,0,1-.52-1.4c-.08-.43-.13-.82-.27-1.35l.07.05c0-.08-.12-.13-.19-.39a1.93,1.93,0,0,1,.58-1.5h0s0-.07.06-.16l-.25.24a1.53,1.53,0,0,1-.09-.62.19.19,0,0,1,.16,0c.06-.18.09-.38.16-.57l.25-.08c0-.2-.44-.32,0-.65-.34,0,0-.3-.19-.32l.18,0a3.49,3.49,0,0,0,.37-1l-.67.34c-.35.19-.75.44-1,.54.3-.39,0-.13-.1-.09l.05.06c-.2.23-.36.16-.47.27l0,0v0a.07.07,0,0,1,.06,0s.06,0,0,.11v0a2.49,2.49,0,0,1-.19.4l-.14-.06c.11.17-.15.47-.38.81a3.48,3.48,0,0,0-.54.87c-.23.29-.06.71-.16,1.1-.08.64-.23.32-.36.65s.17-.09.19.08a4.29,4.29,0,0,0-.19.5c0-.28-.12-.12-.17-.06,0,.43-.15,1.18.18,1.25,0,.61-.11.65-.06.91,0-.1,0-.28.09-.3-.07.27.06.1.06,0a4.55,4.55,0,0,1,.18,1.1c.07.46.17.88.35.83l-.06,0c.26,0,.41-.27.65-.11l0,.2.21.16c0,.17-.08.14-.11.16a6,6,0,0,1,.72,1.2l.27-.78c.08.41.25,1.16.47,1.1l0,.32c.15.89.49.31.59.64l.08.46-.26-.3c.08.19.13.33.18.47l.07.21a2.19,2.19,0,0,0,.16.29h0a.21.21,0,0,1,0-.06l.07.05a.62.62,0,0,1,.43.13,1,1,0,0,1,.25.14c.35.25.71.25,1.21.77l.25-.16.4.34-.07.18a15.42,15.42,0,0,1-1.91-.87l-.06.07c.34.21.77.34,1,.47s.29.41,0,.44l.31-.08,2.55,1-.11-.11c.29,0,.57,0,.63.14.86.15,1.78.23,2.43.38l.09-.25c.19,0,.56.27.58-.08l.37-.21c.26-.07.38-.21.7-.21h.06v0c.58-.16-.09-.19.58-.36.27.06.08-.36.39-.46l.44.11c.58-.19.53-.48,1.12-1,.36-.18.71-.12.69.26,0-.49,0-.27.22-.71.15,0,.13.09.14.24.42-.21.12-.26.32-.5-.12-.23-.35-.56-.3-.65l-.13.05a1.42,1.42,0,0,1,.57-.86l.09.08.19-.35.14.07.23-.5-.07,0a2.17,2.17,0,0,1,.4-.68l.07,0c.61-.46.49-1.14.78-1.85l.12.16c.27-.17-.22-.17,0-.42l.2.07c-.15-.37.2-.31.38-.45l-.3,0a3.47,3.47,0,0,0,.18-.33c.21-.37.41-.13.53,0l-.12-.35.26,0c-.22-.29.1-.2.07-.6.1,0,.12.1.2,0a6.5,6.5,0,0,0-.19-.69,3.06,3.06,0,0,1,.07.4l-.34-.13c-.18-.43.14-.5.09-.78l.07.2c0-.46.15-.45.27-.69-.08.07-.2.17-.22,0s.14-.05.2-.17c-.24-.06-.29-.38-.18-.66a.14.14,0,0,1,.09,0c0-.07-.1-.12,0-.24l.27.09-.25-.26c.08-.16-.11-.41.07-.39l.06.1a7.58,7.58,0,0,0,0-1.26l.21,0c-.31-.1,0-.71-.32-.62.09-.13,0-.36,0-.55s-.06-.32.16-.29c-.17-.83-.61-1.17-.77-2.16a1.28,1.28,0,0,0-.06-.91c-.14-.35-.33-.7-.45-1a22.13,22.13,0,0,0-2-2.55c0-.91-1.24-1.33-1.54-2.08l-.29,0c-.11-.6-.92-.89-1.23-1.6a1.14,1.14,0,0,1-.3-.13s0,.09-.05.2c-.08-.22-.46-.41-.27-.57l.06,0c.19-.17-.54-.33-.56-.64l-.09.28-.25-.29.11,0a4.3,4.3,0,0,1-1.66-1.16,4.84,4.84,0,0,0-2.26-1.38c.31-.16-.4,0-.4-.4-.24-.33-.52-.5-.73-.45s-.39.17-.58.2a.13.13,0,0,1,0,.06,3.7,3.7,0,0,0-.74,0c.29-.48-.4.43-.12,0a2.73,2.73,0,0,0-2.09,1.49,3.1,3.1,0,0,0-.33,1.32l.06.77,0,.38.1.43.16.78a.32.32,0,0,1,0,.13v.33l.1-.07c0,.33.14.76-.05,1s.22.58.21.69c.15.32-.27.52-.22.4,0,.3.27.69,0,1.08-.35,0-.12,1.28-.51,1.13l0,0c-.48.4-.36,1.11-.92,1.52a.3.3,0,0,1,0-.06,12.94,12.94,0,0,1,.16,1.78c.42.16.84.31,1.27.45a15.34,15.34,0,0,0,1.63-.52,14.87,14.87,0,0,0,1.43-3.6,11.25,11.25,0,0,0,.91-3.15,9,9,0,0,0-.12-1.49c-.08,0-.09-.29.07-.28a1.3,1.3,0,0,1,0-.35,1.81,1.81,0,0,0,.12.34.1.1,0,0,0,.05,0l0,0h0l.1.07a5.51,5.51,0,0,1,1.54,1.37l.19-.17c.28.23.16.33.19.42a27.55,27.55,0,0,1,3.55,3.53,9.83,9.83,0,0,1,2,4c0,.3.24,1,.1,1.27a3.93,3.93,0,0,1,.45,2.57l0,0a1.42,1.42,0,0,1,0,.41s0,0-.07,0a2.55,2.55,0,0,1-.47,1.68v0c-.2.77-.63,1.6-.93,2.4l-.58,1.1c-.19.37-.45.66-.66,1a6.24,6.24,0,0,1-.75.85,8.7,8.7,0,0,1-.85.65,3.77,3.77,0,0,1-2,.46c-.6-.17-1.24-.17-2-.35a6.72,6.72,0,0,1-1.1-.36c-.18-.08-.35-.18-.53-.28a2.38,2.38,0,0,1-.41-.31s0,0,0-.05.08,0,0-.13l-.3-.4-.87-1.13c-.3-.4-.6-.84-.81-1.14S601.23,137.05,601.18,137Z"/><path class="cls-2" d="M600.64,132.31v0C600.74,132.36,600.71,132.33,600.64,132.31Z"/><polygon class="cls-2" points="599.62 140.64 599.61 140.61 599.55 140.79 599.62 140.64"/><path class="cls-2" d="M597.37,134.92c0,.29,0,.3,0,.26A.67.67,0,0,0,597.37,134.92Z"/><path class="cls-2" d="M601.15,130.71c.06-.08,0-.08-.11-.06l-.08.17S601.09,130.76,601.15,130.71Z"/><path class="cls-2" d="M599.67,130.45l-.06-.08C599.6,130.45,599.63,130.46,599.67,130.45Z"/><path class="cls-2" d="M101.58,224.5c.06,0,.09,0,0,0Z"/><path class="cls-2" d="M71.56,201v-.08a2,2,0,0,1-.12-.26Z"/><path class="cls-2" d="M79.39,200.18l0,0S79.45,200.15,79.39,200.18Z"/><path class="cls-2" d="M73.47,219.53c0,.07.07.1.1.11A.36.36,0,0,1,73.47,219.53Z"/><path class="cls-2" d="M114.76,224.22h0l.1,0Z"/><path class="cls-2" d="M114.59,224.32c-.19,0,0-.08.13-.09a1.08,1.08,0,0,0-.56,0C114.17,224.27,114.49,224.27,114.59,224.32Z"/><path class="cls-2" d="M124.16,203.34l0,.07Z"/><path class="cls-2" d="M76.46,217.11l.05.06S76.48,217.12,76.46,217.11Z"/><path class="cls-2" d="M124.08,207.1l.12,0A.17.17,0,0,0,124.08,207.1Z"/><path class="cls-2" d="M71.43,200.65l-.05-.13A1.12,1.12,0,0,0,71.43,200.65Z"/><path class="cls-2" d="M85.73,201.48a.3.3,0,0,0,0,.1h0Z"/><path class="cls-2" d="M118.64,201.87a.05.05,0,0,0,0,0l-.1.12A.36.36,0,0,0,118.64,201.87Z"/><path class="cls-2" d="M94.56,202.86l0,0a5.71,5.71,0,0,0-1.07-.1l0,.15Z"/><path class="cls-2" d="M104.6,206.24c-.34-.06-.68-.15-1-.24,1.58-.15,2.74-.26,3.85-.33a16.94,16.94,0,0,0,3.48-.53l-.14.09c.2,0,.34-.17,1-.32a24.17,24.17,0,0,1,4-.34v0a.75.75,0,0,1,.45-.08l-.78,0a9.32,9.32,0,0,1,1.37-.54c.13,0,.19.06.21.11l1.44-.37.49.07c.41-.23.11-.57,1.33-.67-.51-.16.53-.33.35-.43l.34.05a12.88,12.88,0,0,0,2.24-.9s-2.87.18-3.66.08c1-.19.24-.1,0-.14l0,.08c-.59.1-.64-.08-.94-.05l0,.05,0,0s0,.05,0,.08,0,.07-.16.1l0,0a4.48,4.48,0,0,1-.85.2l0-.15c-.37.37-3,.19-3.57.3-.61-.05-1.28.32-2,.32-1.17.13-.62-.13-1.22-.17s.17.15-.12.21l-.9-.08c.5-.09.22-.14.12-.19-.76.1-2,0-2.17.29-1-.05-1-.17-1.49-.14.16,0,.45.06.46.12-.42-.09-.19.05,0,.07-.62.18-3.27-.23-3.38.06v-.06c-.13.25.12.48-.31.63l-.3-.09-.44.12c-.3-.07-.15-.14-.15-.17a13.7,13.7,0,0,1-2.58,0c.3.23.62.43.93.65-.74-.1-2.07-.47-2.21-.24l-.44-.23c-1.47-.44-1,.18-1.62,0-.24-.08-.48-.16-.73-.26.25,0,.49,0,.74,0a8.58,8.58,0,0,1-1.6-.43h0s.06,0,.07,0h-.11c-.09.12-.48.18-1,.15a8.08,8.08,0,0,1-2.46-.29l-.31.23-.86-.24,0-.19c.85.09,2.47.17,3.57.2l0-.09c-.65,0-1.4,0-1.83,0-.2-.06-.72-.32-.32-.42l-.42.16a19,19,0,0,1-4.4-.7l.18.13c-.45,0-.91,0-1-.18a13.88,13.88,0,0,1-3.52-1l-.23.19c-.28-.07-.63-.5-.83-.21l-.62,0a3,3,0,0,1-1-.26h0l-.07-.05v0c-.84-.3,0,.21-1-.16-.27-.23-.42.21-.88,0l-.2-.23-.1-.11-.18-.14a11.28,11.28,0,0,0-1.82-.55,14.87,14.87,0,0,1-2.25-.59,9.35,9.35,0,0,1-1.16-.61c-.15.12-.29,0-.44-.61,0,0,0,0,0,0s-.06,0,0,0a11.92,11.92,0,0,1,.32,2.27c-.13.1-.16-.07-.27-.52-.15,1.21.11.93.1,1.91a4.79,4.79,0,0,1,.64,1.21l.08-.29a13.22,13.22,0,0,1,.12,1.4c0,.21,0,.53,0,.66a3.62,3.62,0,0,1-.06.46l-.12,0,.07.68-.16,0,0,1,0-.13a6.57,6.57,0,0,1,0,1.4l-.08,0c-.27,1.2.08,2.19.11,3.6l-.18-.18c-.17.48.27.13.19.7l-.22,0c.28.5-.06.65-.17,1l.29-.16-.06.65c-.1.72-.36.44-.51.34l.22.49-.24.09c.29.39-.07.28.13,1.09-.09.07-.16-.13-.18.15a10.36,10.36,0,0,0,.5,1.24l-.27-.74.38,0c.37.73.14,1.05.38,1.57l-.2-.35a5.23,5.23,0,0,1,.33,1.47c0-.18,0-.44.19-.11s-.06.18,0,.44c.25,0,.63.48.85,1a.09.09,0,0,1-.1,0,1,1,0,0,1,.3.39l-.31,0,.51.26c.13.33.6.57.44.65l-.17-.11a10.51,10.51,0,0,0,1.86,1.79l-.1.2c.37-.08,1.17.86,1.28.48.34.44,1.83.61,1.42.9a6.2,6.2,0,0,0,1.16.27c.37,0,.71.05,1.07.06s.74,0,1.11,0a7.53,7.53,0,0,1,1.12.05c.6.35,2.26.24,3.34.28,2.13-.15,3.51-.28,5.68-.4,1.31.5,3.26-.17,4.67.11l.39-.19c.93.31,2.36-.07,3.67.23a3.75,3.75,0,0,1,.57-.12.22.22,0,0,1-.18-.17c.38.09,1.13,0,1.08.23l-.1,0c0,.25,1.14-.11,1.56.1l-.23-.27.71.05-.19,0c3.08-.59,4.48.25,7.37-.29-.38.29.57-.15.61.17.73.4,1.36-.09,2-.19,0,0,0,0,0-.06.32,0,.78,0,1.18,0-.36.22-.14.13.08,0s.44-.25.13,0a8.47,8.47,0,0,0,5-1.92,10.89,10.89,0,0,0,3.34-4.71l-.16.12a19.62,19.62,0,0,0,.6-2.79,1.63,1.63,0,0,0,0-1,6.25,6.25,0,0,1-.21-.65c-.18-.66.18-1.27.16-1a7.91,7.91,0,0,1-.26-2.37c.34-.34-.33-2.7,0-2.73h0c.27-1.27-.19-2.46,0-3.83a.45.45,0,0,1,.06.08L123,200.56l-1.28.79-1,2.41.23,6.52-.21,2.6-.1,1.3a5,5,0,0,1-.07.53,2.49,2.49,0,0,1-.09.46,6,6,0,0,1-2.16,3.92,6.12,6.12,0,0,1-2,1.1,7.36,7.36,0,0,1-1.13.25l-.58,0h-.78l-.91.29c-2.49-.51-5.68.07-8.36-.29l-.06.25a1.35,1.35,0,0,1-.89-.18c-7,.05-14.26.39-20.59.07-.29-.08-1-.09-1.36-.14a2.08,2.08,0,0,1-1-.29,4.94,4.94,0,0,1-3.84-2.47l0,0a6.41,6.41,0,0,1-.4-.61s0-.05.06,0a2.68,2.68,0,0,1-.57-1.38,6,6,0,0,1,0-.84l.06-.89,0,.08c0-2.33,0-4.61-.06-6.86,0-1.13-.05-2.25-.07-3.37,0-.19,0-.21,0-.33a.89.89,0,0,1,0-.28l2,.52c1.52.39,3.06.75,4.63,1.12,3.57,1.08,7.91,1,12.11,1.54a27.47,27.47,0,0,0,5.07.2A49.61,49.61,0,0,0,104.6,206.24Z"/><path class="cls-2" d="M117,204.06h0C117,204.17,117,204.12,117,204.06Z"/><polygon class="cls-2" points="99.47 203.26 99.53 203.26 99.32 203.11 99.47 203.26"/><path class="cls-2" d="M110.34,202.29c-.49,0-.51.07-.43.1A1.43,1.43,0,0,0,110.34,202.29Z"/><path class="cls-2" d="M121,202.83c.26-.07.15-.1,0-.12l-.44.14C120.67,202.83,120.83,202.85,121,202.83Z"/><path class="cls-2" d="M119.57,201.75l.05-.11C119.48,201.7,119.49,201.73,119.57,201.75Z"/><path class="cls-2" d="M91.36,205.79s.07,0,0,0Z"/><path class="cls-2" d="M86.45,190.07h0l.07-.13Z"/><path class="cls-2" d="M92.16,190.38l0,0S92.2,190.34,92.16,190.38Z"/><path class="cls-2" d="M73.32,195.65a.21.21,0,0,0,0,.11A.49.49,0,0,1,73.32,195.65Z"/><path class="cls-2" d="M102,205.71h0l.06,0Z"/><path class="cls-2" d="M101.92,205.8c-.13,0,0-.07.09-.08a.59.59,0,0,0-.43,0C101.58,205.77,101.85,205.75,101.92,205.8Z"/><path class="cls-2" d="M121.05,202.46l0,0Z"/><path class="cls-2" d="M76.84,197.15l0,.07A.11.11,0,0,0,76.84,197.15Z"/><path class="cls-2" d="M118.09,203.2v.12A.17.17,0,0,0,118.09,203.2Z"/><path class="cls-2" d="M86.55,189.94l0-.05Z"/><path class="cls-2" d="M97.44,190.46a.19.19,0,0,0,0,.09h0Z"/><path class="cls-2" d="M122,197.25l0,0-.13-.06Z"/><path class="cls-2" d="M104.68,191s0,0,0,0a4.21,4.21,0,0,0-.87,0l0,.15Z"/><path class="cls-2" d="M112.6,194.5l-.77-.31c.62,0,1.16,0,1.65,0h1l.25,0a14.21,14.21,0,0,1,2.07.35l-.11,0c.1.08.25-.05.63.08A3,3,0,0,1,119,196.4l0,0c.06.06.11,0,.17.21l-.16-.46a2.14,2.14,0,0,1,.74.52.18.18,0,0,1,0,.18,6.34,6.34,0,0,1,.51.73l-.06.33c.22.19.55-.07.59.71.19-.36.27.31.38.19a1.23,1.23,0,0,0-.09.22c.09.21.14.54.24.83a2,2,0,0,0,.2.68l.09-.3a6.17,6.17,0,0,0,.17-.73,6.93,6.93,0,0,0,.13-.88c0-.28.05-.53.07-.69.17.73.11.18.14,0l-.08,0c-.1-.45.08-.53,0-.76,0,0,0,0,0,0h0s0,0-.07,0-.07,0-.11-.1h0c-.11-.16-.21-.48-.29-.61l.13-.07c-.21-.09-.41-.63-.68-1.2l-.44-.81a3,3,0,0,0-.38-.5c-.25-.48-.9-.66-1.39-1.05-.86-.5-.35-.42-.76-.77-.57-.31.06.21-.19.13l-.65-.46c.43.13.23,0,.17-.12-.33-.11-.74-.3-1.12-.41s-.7-.14-.82,0c-.92-.2-.94-.31-1.29-.33.12.06.36.11.36.17-.33-.13-.16,0,0,.06-.51.13-2.62-.55-2.73-.22v-.06c-.11.25.07.49-.28.62l-.23-.11-.36.11c-.23-.08-.12-.15-.12-.18a9.83,9.83,0,0,1-2.08,0l.74.67c-.59-.15-1.65-.47-1.77-.25l-.35-.23c-1.18-.43-.83.19-1.3.06l-.59-.25H106a9.85,9.85,0,0,1-1.3-.37h0a.09.09,0,0,1,.06,0h-.09c-.07.12-.38.21-.79.2a6.29,6.29,0,0,1-2-.11l-.23.25-.71-.15V191c.69,0,2-.07,2.89-.08l0-.09c-.53,0-1.13.09-1.48.07-.17,0-.61-.25-.29-.38l-.33.19a17.15,17.15,0,0,1-3.62-.19l.16.1c-.36.06-.73.12-.83,0a10.63,10.63,0,0,1-3-.41l-.16.24c-.23,0-.58-.37-.7,0l-.49.1c-.32,0-.52.12-.88,0h0l-.07,0h0c-.72-.1,0,.22-.82.08-.26-.17-.29.3-.7.25l-.4-.34c-.73-.2-.86.14-1.91.14-.51-.12-.76-.4-.42-.66-.46.31-.21.2-.83.35-.09-.13,0-.15.11-.27-.55-.15-.34.12-.75.11-.12.24-.25.62-.39.64l.16.07a2.7,2.7,0,0,1-1.42.07l0-.12-.54.06,0-.16-.77.05.11,0a4.15,4.15,0,0,1-1.12,0l0-.09a3.43,3.43,0,0,0-1.56,0c-.54.13-1.08.31-1.71.52l.12-.22c-.5,0-.05.28-.58.38l-.1-.19c-.36.42-.61.15-1,.21l.26.19-.59.22c-.64.25-.55-.09-.53-.28l-.3.44-.21-.16c-.15.43-.33.17-.74.67-.1,0,0-.19-.2-.09-.2.31-.37.64-.54.95l.35-.53.18.32c-.27.61-.63.56-.86,1l.13-.3a3.1,3.1,0,0,1-.87.82c.13-.06.33-.16.19.11s-.17,0-.33.16c.16.18,0,.68-.33,1a.12.12,0,0,1-.06-.08.52.52,0,0,1-.13.37L73,195.9l.05.48c-.19.2-.15.65-.3.55v-.17l-.19.48a3.8,3.8,0,0,0-.19.55A11.06,11.06,0,0,0,72,199.2l-.23.05c.27.25-.25,1.68.14,1.45a3.63,3.63,0,0,0-.1,1.17c.47.16.83.28.46.39a16.94,16.94,0,0,0,2.6.7l.87.17a4.91,4.91,0,0,1,.87.29c.39.49,1.74.68,2.6.93,1.74.21,2.86.32,4.63.49,1,.69,2.65.21,3.74.65l.34-.15c.72.4,1.92.12,3,.52a2.35,2.35,0,0,1,.47-.07.2.2,0,0,1-.13-.19c.29.13.92.06.85.3l-.08,0c-.06.25.94-.06,1.26.17l-.17-.28.58.08-.16,0c2.52-.43,3.64.37,6-.14-.31.29.46-.15.5.16.6.37,1.1-.13,1.58-.26a.08.08,0,0,1,0-.06h.85c-.49.43.59-.35.14,0a14.82,14.82,0,0,0,1.78,0c.62,0,1.27-.11,1.93-.18l3.94-.45-.12-.09a8.79,8.79,0,0,1,1.94-.23c.51.09,1-.42,1.21-.46.49-.28,1,0,.81,0,.56-.17,1-.64,1.83-.65.34.27,2.06-.78,2.17-.41v0c1.06,0,1.87-.71,3-.77l0,.07,1.81-1.72-1-1.06-2.1-.49-2.41.79-2.45.63-2,.23-2,.1-2.42.4c-.81.11-1.63.18-2.44.28s-1.62.19-2.44.24l-2.45.14-.7.32a13.26,13.26,0,0,0-3.2-.19,12.43,12.43,0,0,1-3.3-.2l-.05.25a.87.87,0,0,1-.68-.22c-5.45-.25-11.13-.86-15.78-2.43a6.58,6.58,0,0,0-1.1-.42s-.06-.06,0-.13a.49.49,0,0,1-.18.08c-.1,0-.14-.1-.12-.26a1.19,1.19,0,0,1,0-.14l.13-.36c.08-.25.23-.47.33-.71v.06c.07-.18.17-.35.26-.53a0,0,0,0,1,.06,0c.17-.68,1.08-1.35,1.79-1.69l0,0a6.41,6.41,0,0,1,3.17-1.09,9.76,9.76,0,0,1,1,0l1.12,0,2.25-.06c3-.07,6-.1,9.07.08,2.86.4,6.2-.16,9.49.18A57.11,57.11,0,0,0,112.6,194.5Z"/><path class="cls-2" d="M119.72,196.87l0,0C119.62,196.91,119.67,196.91,119.72,196.87Z"/><polygon class="cls-2" points="108.65 191.3 108.69 191.3 108.53 191.15 108.65 191.3"/><path class="cls-2" d="M117.77,191.81c-.41-.19-.44-.17-.39-.11A1.37,1.37,0,0,0,117.77,191.81Z"/><path class="cls-2" d="M120.93,199.07c0,.17.08.09.12,0l-.09-.27C121,198.87,120.93,199,120.93,199.07Z"/><path class="cls-2" d="M122.09,198l.1,0C122.13,197.89,122.11,197.91,122.09,198Z"/><path class="cls-2" d="M87.29,196.48Z"/><path class="cls-2" d="M87.51,199.65h0Z"/><path class="cls-2" d="M87.32,200.16h0S87.35,200.17,87.32,200.16Z"/><path class="cls-2" d="M87.23,198.48h0Z"/><path class="cls-2" d="M87.13,195.55Z"/><path class="cls-2" d="M87.18,195.56s0,0-.05,0,0,0,0,0S87.15,195.56,87.18,195.56Z"/><path class="cls-2" d="M87,193.85h0Z"/><path class="cls-2" d="M85,198.53h0Z"/><path class="cls-2" d="M87,194.12h0Z"/><path class="cls-2" d="M87.59,199.66h0Z"/><path class="cls-2" d="M87.28,200.64h0Z"/><path class="cls-2" d="M86.11,203h0Z"/><path class="cls-2" d="M87,201.28h0s0,0,0-.08h-.09Z"/><path class="cls-2" d="M84.85,202l.19-.07c.08.22-.1.33,0,.52h0s.37,0-.13.34h0s0,0,0,0l.11-.05s.13.06.14.1l-.09,0,0,.1L85,203c.06,0,.31,0,.17.1.17,0,.1,0,.19,0l-.08,0a.25.25,0,0,0,.16.16,5.26,5.26,0,0,1,.54-.25c0,.07,0,0,.08,0h0s.15,0,.18-.06h0s0,0,0,0h0s0-.05,0-.06h.09c-.17,0,.27-.21.27-.25s0-.1,0-.15.13,0,.21-.08-.1,0-.11,0l.13-.07s.06,0,.1,0,.18-.14,0-.16c.08-.07.16-.07.16-.1l-.09,0c.08,0,0,0,0,0s.33-.23.13-.24h0a1.87,1.87,0,0,1-.38,0l.07,0-.07,0a.23.23,0,0,1,.11,0c-.07-.05,0-.13,0-.19l-.4.07c.09-.06.28-.15.15-.16l.14,0c.26-.11-.11-.08,0-.12l.15-.05v.05a.9.9,0,0,1,.22-.11h0c-.08,0-.13,0-.12-.07s-.09-.09.07-.18l-.15,0,.09-.06H87a1.38,1.38,0,0,0,0,.26h.06c0-.05-.06-.1,0-.13a.32.32,0,0,1,.23,0l-.11,0c0-.16,0-.16.11-.32h-.06s-.07-.06,0-.07a.41.41,0,0,1,.25-.27h-.14s.22-.05,0-.06l-.06-.05s-.07,0,0-.08h0c.07-.07-.12,0,0-.07s-.18,0-.15-.07l.2,0c.12-.07-.08-.08-.08-.17a.61.61,0,0,1,.4,0c-.19,0-.13,0-.21-.08h.16c.09,0-.07,0-.07-.06l-.38,0,0,0c-.07,0-.11-.08,0-.13h.08l0,0h.09l0-.07h0s-.05-.07,0-.1h0c.16-.08,0-.15-.06-.25h.1c.11,0-.16,0-.11-.05h.13c-.17,0,0,0,.1-.07h-.17l0,0c0-.05.21,0,.3,0l-.13,0h.15c-.18,0,0,0-.07-.07h.11l-.21-.07.1,0h-.22c-.17,0,0-.07,0-.1l.07,0c-.06-.05,0-.05.09-.08s-.11,0-.13,0,.07,0,.1,0c-.15,0-.23,0-.16-.07h.06s-.06,0,0,0h.16l-.15,0s-.07,0,0,0h0l0-.15h.12c-.17,0,.07-.08-.15-.08.12,0-.08-.11.17-.09,0-.1-.23-.15-.1-.27s.14-.17.16-.24a3.38,3.38,0,0,1-.24-.41c.3-.09-.1-.23.07-.33l-.12,0c.19-.06,0-.17.14-.26l-.07,0s0,0-.1,0,0-.08.13-.07h0c.15,0-.07-.08.06-.11l-.16,0,0-.05h0c-.36-.22.15-.32-.17-.52.17,0-.1,0,.09-.05s0-.09-.11-.13h0l0-.07c.24,0-.2-.06,0,0,.18-.2,0-.45.08-.68h-.06c0-.05-.06-.12,0-.17s-.16-.09-.17-.11.1-.09.09-.07-.25-.1-.15-.17-.2-.19,0-.19h0c.16-.09-.12-.18,0-.28h0l-.7-.2-.77.06-.62.17.14.46-.25.37.08.9.18.07c-.31.18,0,.4-.17.59H85c0,.05-.09.05-.11.06a3.34,3.34,0,0,1,0,1.47c-.1,0,0,.17-.15.21a.41.41,0,0,1,.17.44h0l0,.07h0c.13.08,0,.2,0,.29h0c0,.55.25,1.07,0,1.62-.24.26.09.56-.11.85C84.67,201.34,84.78,201.94,84.85,202Z"/><path class="cls-2" d="M85.05,202.87h0C85,202.86,85,202.87,85.05,202.87Z"/><polygon class="cls-2" points="86.78 201.64 86.77 201.64 86.86 201.63 86.78 201.64"/><path class="cls-2" d="M86.83,202.42s0,0,0,0S86.81,202.42,86.83,202.42Z"/><path class="cls-2" d="M85.17,203.15s0,0,.08,0a.1.1,0,0,1,0,0Z"/><path class="cls-2" d="M86,203.08h0A0,0,0,0,0,86,203.08Z"/><path class="cls-2" d="M96.14,200.49Z"/><path class="cls-2" d="M95.92,197.32Z"/><path class="cls-2" d="M96.11,196.81h0Z"/><path class="cls-2" d="M96.2,198.5h0Z"/><path class="cls-2" d="M96.3,201.43Z"/><path class="cls-2" d="M96.25,201.42a0,0,0,0,1,0,0s0,0,0,0S96.29,201.41,96.25,201.42Z"/><path class="cls-2" d="M96.43,203.13h0Z"/><path class="cls-2" d="M98.48,198.45h0Z"/><path class="cls-2" d="M96.48,202.86h0Z"/><path class="cls-2" d="M95.85,197.31h0Z"/><path class="cls-2" d="M96.16,196.34h0Z"/><path class="cls-2" d="M97.33,194h0Z"/><path class="cls-2" d="M96.48,195.69h0s0,0,0,.08h.09Z"/><path class="cls-2" d="M98.58,195l-.18.07c-.08-.22.1-.32-.05-.51h0s-.37,0,.13-.35h0s0,0,0,0l-.11.05s-.13-.06-.15-.1h.09l0-.1.12,0c-.07,0-.31,0-.18-.1-.17,0-.1,0-.19,0l.09,0a.29.29,0,0,0-.16-.17,3.47,3.47,0,0,1-.55.25c0-.07,0,0-.07,0h0s-.15,0-.18.06h.06s0,0,0,0h0s0,.05,0,.06h-.09c.17,0-.26.22-.27.26s0,.09,0,.14-.13,0-.21.09.11,0,.11,0l-.12.06s-.07,0-.1,0-.18.14,0,.16c-.09.07-.16.07-.17.11s.06,0,.1,0,0,0,0,0-.33.23-.13.24h0a1.89,1.89,0,0,1,.37,0l-.06,0,.06,0a.23.23,0,0,1-.11,0c.07,0,0,.12,0,.18l.4-.06c-.09,0-.28.15-.15.16l-.13,0c-.26.1.11.07,0,.11l-.15.06v-.06a.94.94,0,0,1-.22.12h0c.07,0,.12,0,.12.07s.08.1-.07.18l.15,0-.09.07h-.12a1.32,1.32,0,0,0,0-.26h0s0,.1,0,.13a.39.39,0,0,1-.23,0l.12,0c0,.16,0,.16-.12.33l.06,0s.07.07,0,.08a.36.36,0,0,1-.24.26l.14,0s-.22,0,0,.06l.07,0s.07.05,0,.08h0c-.06.06.13,0,.05.07s.18,0,.14.06l-.2,0c-.12.06.09.08.09.17a.62.62,0,0,1-.4,0c.19,0,.12,0,.21.07a.42.42,0,0,1-.16,0c-.09.05.07,0,.06.07l.39,0h0c.08,0,.11.08,0,.13h-.07l0,0h-.1l0,.07h0s0,.07,0,.1h0c-.16.09,0,.16.07.26l-.11,0c-.1,0,.16,0,.11.05H96.2c.17,0,0,0-.1.07h.17l0,0c-.06.05-.22,0-.31,0l.14,0h-.15c.17,0,0,0,.06.07s-.09,0-.11,0l.21.07-.09,0h.22c.16.05,0,.06,0,.1l-.06,0c0,.06,0,.06-.09.09a.19.19,0,0,1,.13,0s-.08,0-.1,0c.14,0,.22,0,.15.08h0s.06,0,0,0h-.16l.16,0s.07,0,0,0h0l0,.15H96c.18,0-.07.09.15.08-.12,0,.09.11-.16.1,0,.1.22.15.1.27s-.14.16-.17.24a4.23,4.23,0,0,1,.24.4c-.3.1.1.23-.07.33l.12,0c-.19.07,0,.17-.14.26l.07,0h.11c-.06,0,0,.08-.14.08h0c-.14,0,.07.08,0,.11h.16l0,0,0,0c.35.22-.16.32.17.53-.18,0,.09,0-.1,0s.05.1.12.14h0l0,.08c-.24-.05.2.05,0,0-.18.19,0,.45-.08.67h.07c0,.06.06.13,0,.17s.16.1.17.11-.11.1-.1.08.25.09.16.16.2.2,0,.2h0c-.17.09.11.17,0,.27h0l.7.19.77,0,.62-.17-.13-.47.24-.37-.08-.9-.17-.06c.3-.18,0-.41.17-.6H98.4c0-.06.08,0,.11-.07a3.45,3.45,0,0,1-.05-1.46c.1,0,.05-.18.15-.21a.44.44,0,0,1-.16-.45h0l0-.07h0c-.14-.08,0-.2,0-.3h0c0-.56-.26-1.07,0-1.63.25-.25-.09-.55.11-.84C98.76,195.63,98.65,195,98.58,195Z"/><path class="cls-2" d="M98.38,194.11Z"/><polygon class="cls-2" points="96.66 195.34 96.66 195.33 96.57 195.35 96.66 195.34"/><path class="cls-2" d="M96.61,194.55s0,0,0,0S96.63,194.56,96.61,194.55Z"/><path class="cls-2" d="M98.26,193.82s0,0-.07,0a0,0,0,0,0,0,0Z"/><path class="cls-2" d="M97.41,193.9h0Z"/><path class="cls-2" d="M109.4,196.48Z"/><path class="cls-2" d="M109.62,199.65h0Z"/><path class="cls-2" d="M109.43,200.16h0S109.46,200.17,109.43,200.16Z"/><path class="cls-2" d="M109.34,198.48h0Z"/><path class="cls-2" d="M109.24,195.55Z"/><path class="cls-2" d="M109.29,195.56s0,0-.05,0,0,0,0,0S109.25,195.56,109.29,195.56Z"/><path class="cls-2" d="M109.11,193.85h0Z"/><path class="cls-2" d="M107.06,198.53h0Z"/><path class="cls-2" d="M109.06,194.12h0Z"/><path class="cls-2" d="M109.69,199.66h0Z"/><path class="cls-2" d="M109.38,200.64h0Z"/><path class="cls-2" d="M108.21,203h0Z"/><path class="cls-2" d="M109.06,201.28h0a.1.1,0,0,0,0-.08H109Z"/><path class="cls-2" d="M107,202l.18-.07c.09.22-.1.33,0,.52h0s.37,0-.13.34h0s0,0,0,0l.11-.05c.05,0,.14.06.15.1l-.09,0,0,.1-.12,0c.07,0,.32,0,.18.1.17,0,.1,0,.19,0l-.08,0a.24.24,0,0,0,.15.16,4.77,4.77,0,0,1,.55-.25c0,.07,0,0,.08,0h0s.15,0,.18-.06h0a0,0,0,0,1-.05,0s0,0,0,0h0s0-.05,0-.06h.09c-.17,0,.26-.21.27-.25s0-.1,0-.15.13,0,.21-.08-.11,0-.11,0l.12-.07s.07,0,.1,0,.18-.14,0-.16c.09-.07.16-.07.17-.1a.29.29,0,0,1-.1,0c.08,0,0,0,0,0s.33-.23.13-.24h0a1.77,1.77,0,0,1-.37,0l.06,0-.06,0a.23.23,0,0,1,.11,0c-.07-.05,0-.13,0-.19l-.4.07c.09-.06.28-.15.15-.16l.13,0c.26-.11-.11-.08,0-.12l.15-.05v.05a1.51,1.51,0,0,1,.22-.11h0c-.07,0-.12,0-.11-.07s-.09-.09.06-.18l-.15,0L109,201h.12c0,.06,0,.18.05.26h0c0-.05,0-.1,0-.13a.31.31,0,0,1,.23,0l-.12,0c0-.16,0-.16.12-.32h-.06s-.07-.06,0-.07a.39.39,0,0,1,.24-.27h-.14s.22-.05,0-.06l-.07-.05s-.07,0,0-.08h0c.06-.07-.13,0,0-.07s-.17,0-.14-.07l.2,0c.12-.07-.09-.08-.09-.17a.62.62,0,0,1,.4,0c-.18,0-.12,0-.21-.08h.16c.09,0-.07,0-.06-.06l-.38,0,0,0c-.08,0-.11-.08,0-.13h.07l0,0h.09l0-.07h0s0-.07,0-.1h0c.16-.08,0-.15-.07-.25h.11c.1,0-.16,0-.11-.05h.13c-.17,0,0,0,.1-.07h-.17l0,0c.06-.05.22,0,.31,0l-.14,0h.15c-.17,0,0,0-.06-.07h.11l-.21-.07.09,0h-.21c-.17,0,0-.07,0-.1l.06,0c0-.05,0-.05.09-.08s-.1,0-.13,0,.08,0,.1,0c-.14,0-.22,0-.15-.07h0s-.06,0,0,0h.16l-.16,0s-.07,0,0,0h0l0-.15h.13c-.18,0,.07-.08-.15-.08.12,0-.09-.11.16-.09,0-.1-.22-.15-.1-.27s.15-.17.17-.24a3.38,3.38,0,0,1-.24-.41c.3-.09-.1-.23.07-.33l-.12,0c.19-.06,0-.17.14-.26,0,0-.07,0-.07,0h-.11c.06,0,0-.08.14-.07h0c.15,0-.07-.08.06-.11l-.16,0,0-.05h0c-.35-.22.16-.32-.17-.52.18,0-.09,0,.1-.05s0-.09-.11-.13h0l0-.07c.24,0-.2-.06,0,0,.18-.2,0-.45.08-.68h-.06c0-.05-.07-.12,0-.17s-.16-.09-.17-.11.11-.09.1-.07-.25-.1-.16-.17-.2-.19,0-.19h0c.17-.09-.11-.18,0-.28h0l-.7-.2-.77.06-.62.17.13.46-.24.37.08.9.17.07c-.3.18,0,.4-.17.59h.15c0,.05-.08.05-.11.06a3.34,3.34,0,0,1,0,1.47c-.1,0,0,.17-.15.21a.42.42,0,0,1,.16.44h0l0,.07h0c.14.08,0,.2,0,.29h0c0,.55.25,1.07,0,1.62-.25.26.09.56-.11.85C106.78,201.34,106.89,201.94,107,202Z"/><path class="cls-2" d="M107.16,202.87h0C107.1,202.86,107.12,202.87,107.16,202.87Z"/><polygon class="cls-2" points="108.88 201.64 108.88 201.64 108.97 201.63 108.88 201.64"/><path class="cls-2" d="M108.93,202.42s0,0,0,0S108.91,202.42,108.93,202.42Z"/><path class="cls-2" d="M107.28,203.15s0,0,.08,0l0,0Z"/><path class="cls-2" d="M108.14,203.08h0A0,0,0,0,0,108.14,203.08Z"/><text class="cls-3" transform="translate(19.75 83.95)">7</text><path class="cls-2" d="M336.85,232.29c.16,0,.24,0,0,0Z"/><path class="cls-2" d="M307.63,224.08h.13L308,224Z"/><path class="cls-2" d="M327.94,224.39h.12S328.07,224.34,327.94,224.39Z"/><path class="cls-2" d="M259.49,225.18a4.21,4.21,0,0,0,0,.61Z"/><path class="cls-2" d="M374.05,232H374l.22,0Z"/><path class="cls-2" d="M373.64,232.11c-.45,0,.12-.07.32-.08a7.41,7.41,0,0,0-1.49-.05A10.27,10.27,0,0,0,373.64,232.11Z"/><path class="cls-2" d="M441.53,231.81l-.2,0Z"/><path class="cls-2" d="M263.51,228.33l0,0S263.51,228.34,263.51,228.33Z"/><path class="cls-2" d="M430.88,231.73l-.12.12C430.87,231.8,430.89,231.76,430.88,231.73Z"/><path class="cls-2" d="M308,224l.15,0Z"/><path class="cls-2" d="M346.69,224.47a.22.22,0,0,0,.1.09h0Z"/><path class="cls-2" d="M441.23,226.41s0,0-.05,0l-.37.08A1.89,1.89,0,0,0,441.23,226.41Z"/><path class="cls-2" d="M372.42,225s.08,0,.09,0c-.44-.05-1.6-.05-3.09-.05l-.09.15Z"/><path class="cls-2" d="M400.56,228.5l-2.75-.3c8.81-.14,12.91.16,20.45-.08l-.42.07c1.1.07,1.72-.61,13.83.22v0a5.74,5.74,0,0,1,1.26,0l-2.09-.18c1.25-.08,2.35-.22,4-.24.36,0,.48.09.51.14l4.11,0,1.25.19c1.26-.1.69-.51,4-.28-1.26-.29,1.66-.18,1.25-.32l.86.14,1-.06c0,.35.06.7.09,1,0,.75.07,1.36.12,1.66l.1-1.25c0-.17,0-.45.05-.58l.06-.38c0-.31.08-.65.13-1-.82-.19-3.82-.42-4.76-.57,2.81.08.74,0,.19-.13l-.19.07c-1.68-.07-1.68-.25-2.52-.3,0,0,0,0,0,.05l.11,0c.08,0,0,.06-.06.07s-.05.07-.51.06l.09,0c-.71,0-1.92,0-2.45,0v-.15c-1.25.29-8.38-.44-10.06-.45-1.68-.19-3.77,0-5.87-.05-3.35,0-1.67-.22-3.35-.35-2.1-.09.42.18-.42.19l-2.51-.21c1.46,0,.66-.11.4-.17-2.18,0-5.61-.3-6.27,0-2.94-.14-2.94-.27-4.2-.28a6.69,6.69,0,0,1,1.26.17c-1.17-.14-.56,0-.08.06-1.79.13-9.3-.55-9.68-.22v-.06c-.41.25.26.48-1,.62l-.84-.11-1.26.11c-.84-.08-.43-.15-.43-.18-2,.11-4.9,0-7.38-.05l2.63.67c-2.1-.16-5.87-.47-6.29-.26l-1.26-.22c-4.2-.43-2.93.18-4.6.05l-2.11-.24h2.1c-2.1-.12-2.94-.2-4.61-.36h0l.2,0h-.29a11.7,11.7,0,0,1-2.83.2c-2.09,0-3.74.14-7.09-.12l-.83.25-2.52-.15V225l10.27-.07.06-.09c-1.88,0-4,.09-5.26.07-.6,0-2.15-.25-1-.39l-1.16.2c-6.27,0-6.31,0-12.85-.19l.56.1a11.68,11.68,0,0,1-2.95-.05c-3.93,0-8-.16-10.55-.41l-.56.23c-.83,0-2.07-.37-2.48,0l-1.77.11a27.26,27.26,0,0,1-3.12,0h0l-.24,0v0c-2.56-.1,0,.21-2.91.08-.94-.17-1,.3-2.48.24l-1.43-.34c-2.6-.19-3,.15-6.8.15-1.81-.12-2.68-.41-1.49-.66a12.74,12.74,0,0,1-2.92.35c-.34-.13-.11-.16.37-.27a14.65,14.65,0,0,0-2.65.1,3.5,3.5,0,0,1-1.39.64l.57.08a32.21,32.21,0,0,1-5,.06l.07-.12-1.91.07-.12-.16-2.74.05.38,0c-.64,0-2.75.07-4,0l.05-.08c-3.4-.27-6.2.08-10.18.11l.52-.18c-1.36-.17-.37.27-2,.19l-.08-.22a6.4,6.4,0,0,1-2.82-.17l.46.29-1.84-.06c-2-.1-1.25-.36-1-.51l-1.38.23-.27-.25c-1,.29-1,0-2.78.11-.15-.1.3-.15-.3-.19l-2.93.35,1.77-.16-.22.37a29.48,29.48,0,0,1-3.8.06l.91-.11a18.43,18.43,0,0,1-3.47-.15c.38.07.95.17.08.22a.9.9,0,0,1-.48-.06l-.15-.06-.12,0-.33,0a12.23,12.23,0,0,1-3.66.3c0,.46,0,.92,0,1.38a.53.53,0,0,1-.09-.29l.06.85v1.12c0,.16,0,.35,0,.39l-.07-.1-.06-.23-.14-.49c.09,1.5.17.61.26,2.07l0,.87v.67l0,1.17c.43,0,.68,0,.55.08l-.68.05v0l7.72.06.08.22c.6-.3,3.28.11,3.08-.26,1.13.2,4.46-.14,3.8.27,3.95,0,6.08-.36,10.88-.16,1.71.35,6.39.24,9.47.28l16.07-.4c3.71.49,9.24-.17,13.22.11l1.09-.2c2.65.32,6.69-.07,10.41.24.91-.09,1.39-.11,1.6-.12-.17,0-.43,0-.51-.17,1.06.08,3.21,0,3.06.22l-.27,0c-.16.25,3.22-.12,4.4.1l-.65-.27,2,.05-.54.05c8.73-.59,12.68.25,20.87-.29-1.08.29,1.62-.15,1.73.17,2.06.4,3.82-.09,5.52-.2,0,0,0,0,.12,0l3,0c-1.77.41,2.13-.33.51,0,7.72.3,17.8,0,26.75.14l-.39-.11c2.26,0,5.08-.1,6.81.06a24.93,24.93,0,0,0,4.43-.28c1.88-.18,3.6.18,2.79.16a62.2,62.2,0,0,1,6.71-.26c1,.34,7.64-.33,7.72,0l0,0c3.59.27,7-.19,10.83.05l-.21.06,7.86-1.17-2.24-1.28-6.81-1-18.45.23-14.73-.41-35.85.14-2.56.28c-7-.5-16.07.08-23.66-.28l-.16.25a10.05,10.05,0,0,1-2.52-.18c-19.9.05-40.39.38-58.29.07-1.73-.17-7-.07-8.33-.24-2.38.12-4.81.19-7.25.24l-5.32,0v0l0,.05,0-.2.24,0a.06.06,0,0,1,0,.07l.09,0h.49l1.37,0c1,0,2,0,3,0l6.14.16-.22,0c22.1,0,42.62-.42,64.53-.08,10.2.41,22.05-.15,33.74.19C374.81,228.81,398.47,228.62,400.56,228.5Z"/><path class="cls-2" d="M435.37,228.17h-.09C435.29,228.28,435.42,228.24,435.37,228.17Z"/><polygon class="cls-2" points="386.51 225.3 386.67 225.31 386.09 225.16 386.51 225.3"/><path class="cls-2" d="M417.81,225.22c-1.41,0-1.47,0-1.27,0A12,12,0,0,0,417.81,225.22Z"/><path class="cls-2" d="M446.86,228h.2s0,0,0,0,0,0,0,0,0,0-.17-.05h-1.27Z"/><path class="cls-2" d="M443.85,226.55l.23-.09C443.64,226.48,443.66,226.51,443.85,226.55Z"/><path class="cls-2" d="M249,224.81Z"/><path class="cls-2" d="M235.79,221h0l-.07.11Z"/><path class="cls-2" d="M233.81,219.9v0S233.78,219.94,233.81,219.9Z"/><path class="cls-2" d="M240.78,222.16a0,0,0,0,0,0,0S240.79,222.17,240.78,222.16Z"/><path class="cls-2" d="M253,225.67h0v0Z"/><path class="cls-2" d="M252.88,225.74c0-.05,0-.06.06-.07s-.09-.1-.15-.08S252.87,225.68,252.88,225.74Z"/><path class="cls-2" d="M260.07,227.38l0,0Z"/><path class="cls-2" d="M241.75,218.5h0S241.76,218.49,241.75,218.5Z"/><path class="cls-2" d="M259,227l-.05.11A.34.34,0,0,0,259,227Z"/><path class="cls-2" d="M235.71,221.07l0,0Z"/><path class="cls-2" d="M231.92,219.09a.51.51,0,0,0,0-.09h0Z"/><path class="cls-2" d="M223.64,212.63l0,0,.09,0Z"/><path class="cls-2" d="M229.51,217.52l0,0a.6.6,0,0,0,.29.18l.07-.13Z"/><path class="cls-2" d="M228.27,213.07l.11.4c-.87-.28-1.09-.75-1.86-.91l.07,0c-.05-.1-.51.43-1-.89l0,0s-.07,0-.08-.08l0,.26c-.14,0-.3.05-.44,0a.38.38,0,0,1,.05-.15l-.32-.18,0-.21c-.14,0-.38.35-.43,0-.12.27-.22,0-.3.15l0-.14a.75.75,0,0,0-.49-.2l-.07.45a7.61,7.61,0,0,0,0,.78c-.16-.25-.08,0-.11.08l.07,0c.08.17,0,.31,0,.41l0-.05h0a.12.12,0,0,1,0-.05s.05,0,.07,0h0c.07,0,.14.13.18.17l-.09.12c.28-.16.46.91.63,1,.05.26.38.18.52.39.29.24.05.29.14.49s0-.17.14-.13l.13.32c-.15-.07-.12.05-.12.12.2.14.4.57.61.35.22.28.17.38.28.46s-.07-.15,0-.21c0,.18.07,0,0,0,.24,0,.68,1,.86.69l0,0c.15-.2.19-.44.37-.5l0,.13.17,0a.14.14,0,0,1,0,.18c.26,0,.48.25.71.39l0-.73c.14.24.38.71.51.52l0,.27c.25.57.37-.05.49.15l.11.32-.21-.1a2.74,2.74,0,0,1,.32.54h0a0,0,0,0,1,0,0h0a.28.28,0,0,1,.36-.06c.2.12.43,0,.67.4l.18-.19.2.24-.08.19c-.24-.12-.74-.24-1.07-.37l0,.08c.19.08.44.09.56.16s.13.32,0,.4l.19-.13a3,3,0,0,1,1.24.71l0-.12c.15,0,.31,0,.28.17a2.05,2.05,0,0,1,.93.8l.15-.2c.08.05.08.43.24.14l.21,0c.11.06.23,0,.32.14h0v0c.23.2.07-.19.32,0,0,.19.22-.24.34-.14l0,.37c.2.28.37,0,.75.12a.5.5,0,0,1-.07.68c.27-.23.15-.16.42-.22,0,.13,0,.15-.13.24.15.21.16-.07.31,0,.12-.21.3-.56.36-.55l0-.1a.46.46,0,0,1,.54.12l0,.11.21,0,0,.15.29,0,0,0a.61.61,0,0,1,.4.15l0,.07c.26.38.67.15,1.08.26l-.11.15c.09.21.13-.25.27-.11l-.06.21c.23-.22.17.12.23.26l0-.29.17.12c.18.16,0,.39-.06.52l.21-.17,0,.25c.2-.24.09.08.32,0,0,.1-.08.13,0,.19l.42-.23-.23.08.13-.33c.28-.2.25.12.41.07l-.12.07c.25,0,.21.14.31.26,0-.08-.05-.19.06-.21s0,.13,0,.19c.09-.22.29-.29.4-.14s0,.07,0,.08.09-.08.13,0l-.12.24.2-.2c.06.1.24-.05.18.12l-.07,0,.6.26-.05.21c.15-.27.3.21.4-.15,0,.23.5,0,.31.39.39.17.74-.15,1.17.2.08.39.6.44.91.57.67,0,1.11,0,1.78.14.24.59,1,.12,1.35.51l.17-.15c.18.38.71.14,1,.55a.54.54,0,0,1,.2-.07s0-.06,0-.18c.08.12.34.08.25.31l0,0c-.09.23.37,0,.43.23v-.28l.19.11-.07,0c1.08-.31,1.25.63,2.26.35-.2.25.21-.1.13.21.11.44.43,0,.63,0,0,0,0,0,0-.06l.3.13c-.29.33.31-.26,0,0,.72.52,1.86.51,2.76.9v-.11c.23.09.56.05.69.25s.47-.14.54-.14c.24-.12.33.27.25.23.23,0,.52-.29.77-.06,0,.35.89-.11.8.26v0c.31.36.78,0,1.12.35l0,0,1.11-.92.08-1.3-.44-1.19-2-.29-1.43-.8-3.74-.9-.34.21c-.59-.7-1.69-.4-2.37-1l-.08.24c-.23,0-.17-.2-.21-.25a32,32,0,0,1-6-1.75c-.13-.21-.69-.28-.78-.49a3.86,3.86,0,0,1-1.89-.33l0,0-.3-.05a.11.11,0,0,1,0-.06c-.38.1-.81-.27-1.17-.48l0,0c-2.22-.79-4.45-1.08-6.5-2.24-.85-.77-2.23-.72-3.22-1.52A9,9,0,0,0,228.27,213.07Z"/><path class="cls-2" d="M225.18,211.62h0C225.25,211.54,225.22,211.57,225.18,211.62Z"/><polygon class="cls-2" points="228.22 216.6 228.2 216.59 228.2 216.76 228.22 216.6"/><path class="cls-2" d="M225.09,215.09c.12.11.14.09.14,0A.19.19,0,0,0,225.09,215.09Z"/><path class="cls-2" d="M224.31,211.15s-.06,0-.09.09l.1,0S224.32,211.19,224.31,211.15Z"/><path class="cls-2" d="M223.52,212.35l-.07.05S223.51,212.39,223.52,212.35Z"/><path class="cls-2" d="M459.08,221.84s0,0,0,0Z"/><path class="cls-2" d="M471.84,217.36h0l0-.13Z"/><path class="cls-2" d="M474,216.91h0S474,216.86,474,216.91Z"/><path class="cls-2" d="M467.26,219.42a0,0,0,0,0,0,0S467.24,219.42,467.26,219.42Z"/><path class="cls-2" d="M455.31,223.2h0l0,0Z"/><path class="cls-2" d="M455.33,223.1c.06,0,0,.08,0,.09a.12.12,0,0,0,.17,0C455.47,223.11,455.37,223.15,455.33,223.1Z"/><path class="cls-2" d="M448.37,225.3v0A0,0,0,0,0,448.37,225.3Z"/><path class="cls-2" d="M468.64,223l0,0S468.64,223,468.64,223Z"/><path class="cls-2" d="M449.49,225.09l0-.12C449.48,225,449.48,225.06,449.49,225.09Z"/><path class="cls-2" d="M471.83,217.23v0Z"/><path class="cls-2" d="M475.86,216.27l0,.08h0Z"/><path class="cls-2" d="M485.65,213.39l0,0,0,.09A.06.06,0,0,0,485.65,213.39Z"/><path class="cls-2" d="M478.58,215.72v0a.55.55,0,0,0-.32.09l.05.14Z"/><path class="cls-2" d="M482.85,217.59l-.41-.12c.82-.58,1.38-.53,2-1.18v.08c.16,0-.16-.58,1.53-.71v0s0-.09.14-.09h-.32a1.5,1.5,0,0,1,.26-.5.18.18,0,0,1,.14.08l.38-.35.26,0c.06-.2-.27-.45.21-.58-.32-.1.05-.28-.1-.34l.18,0c.18-.25.47-.74.42-.93a4.56,4.56,0,0,1-.63.25,1.93,1.93,0,0,1-.9.11c.29-.16,0-.08-.07-.11l0,.07c-.19.08-.31-.06-.41,0l0,0v0a.07.07,0,0,1,0,.06s.05.06,0,.08v0a.42.42,0,0,1-.22.16l-.09-.11c.05.31-1,.2-1.13.26s-.31.25-.55.29-.26-.09-.48-.11.13.13.06.18l-.34-.05c.12-.09,0-.13,0-.17-.21.09-.65,0-.56.32-.34,0-.4-.09-.52,0,.06,0,.16,0,.19.09-.17-.07,0,0,0,0-.11.21-1.11,0-1,.27l0-.05c.07.24.24.42.18.6l-.13-.06-.07.15a.14.14,0,0,1-.12-.13c-.15.19-.48.2-.73.28l.54.49c-.27-.05-.77-.16-.72.06l-.22-.16c-.58-.21-.21.3-.42.26l-.31-.14.21-.08a2.55,2.55,0,0,1-.59-.14h0l0,0,0,0a.26.26,0,0,1-.19.3c-.22.06-.31.29-.74.19v.26l-.3,0-.08-.19c.25-.09.67-.35,1-.48l0-.09c-.18.08-.36.25-.49.28s-.31-.14-.25-.31l0,.22a2.51,2.51,0,0,1-1.33.34l.09.07c-.1.11-.21.21-.31.07a1.81,1.81,0,0,1-1.19,0l0,.24c-.09,0-.34-.27-.26,0l-.14.17c-.12,0-.14.17-.32.1h0l0,0v0c-.29,0,.07.19-.27.18-.15-.12,0,.32-.16.32l-.26-.26c-.33-.09-.25.24-.63.38a.51.51,0,0,1-.37-.57c-.06.35,0,.22-.18.44-.08-.11-.06-.15-.05-.27-.25-.07-.08.15-.23.2,0,.24.12.61.07.65l.09.05a.46.46,0,0,1-.49.24l0-.12-.18.13-.06-.14-.26.14.05,0a.58.58,0,0,1-.4.14l0-.08c-.43-.14-.6.29-1,.45v-.18c-.2-.12.05.27-.14.24l-.08-.2c-.06.32-.21,0-.34-.06l.14.25H469c-.24,0-.24-.3-.26-.45l-.07.26-.1-.23c0,.31-.12,0-.25.2-.05-.08,0-.15-.09-.17l-.19.43.13-.2.1.35c-.1.32-.27,0-.37.19l.06-.14c-.19.16-.25,0-.4,0,.06,0,.15.13.07.2s-.07-.11-.14-.13c.06.24-.06.41-.24.35a.31.31,0,0,1,0-.09c0,.05,0,.11-.11.08l0-.27,0,.29c-.11-.05-.16.18-.21,0l0-.07-.63.14-.08-.2c0,.3-.37,0-.23.34-.18-.15-.42.28-.47-.13-.42.09-.51.54-1.07.51-.28-.29-.72,0-1.05,0-.57.33-.93.58-1.53.89-.52-.36-.9.44-1.39.3l-.06.22c-.36-.22-.67.27-1.14.09a.6.6,0,0,1-.13.17s.06,0,.1.15c-.13-.06-.32.11-.37-.13l0,0c-.06-.25-.3.21-.49,0l.15.23-.22,0,0-.07c-.74.83-1.38.14-2.08.9,0-.31-.12.19-.22-.11-.33-.32-.37.2-.52.35a.11.11,0,0,1,0,.06l-.32.05c.08-.44-.13.38-.05,0-.88-.06-1.84.52-2.81.64l.07.09c-.24.05-.5.25-.72.14s-.32.36-.39.39c-.15.23-.42-.07-.33-.07-.2.1-.3.51-.63.43-.19-.3-.71.54-.82.17v0c-.44-.16-.68.37-1.14.24a.21.21,0,0,1,0-.06l-.53,1.34.55,1.18,1,.83,1.88-.73,1.65,0,3.72-1.18.18-.35c.88.28,1.66-.55,2.55-.44l-.05-.24c.22-.08.25.07.31.1a42.39,42.39,0,0,1,6.05-1.91c.23.11.74-.16.94,0a4,4,0,0,1,1.76-.85v0l.27-.14a.19.19,0,0,1,0,.07c.25-.32.82-.27,1.25-.32l0,0c2.31-.72,4.26-1.9,6.63-2.44,1.2,0,2.2-1,3.53-1.25A7.65,7.65,0,0,0,482.85,217.59Z"/><path class="cls-2" d="M486.21,215.19h0C486.27,215.28,486.26,215.24,486.21,215.19Z"/><polygon class="cls-2" points="480.07 215.39 480.09 215.38 479.97 215.27 480.07 215.39"/><path class="cls-2" d="M483,213.81c-.14,0-.14.07-.1.09A.15.15,0,0,0,483,213.81Z"/><path class="cls-2" d="M487.23,214.05c.08-.07,0-.08-.09-.08l-.11.12A1.42,1.42,0,0,0,487.23,214.05Z"/><path class="cls-2" d="M486,213.29l0-.08S485.92,213.28,486,213.29Z"/><path class="cls-2" d="M350.8,109.16s0,0,0,0Z"/><path class="cls-2" d="M363.29,105.51h0l.12,0Z"/><path class="cls-2" d="M364.08,107.85v0S364.12,107.85,364.08,107.85Z"/><path class="cls-2" d="M357.68,102.21s-.05,0-.06,0Z"/><path class="cls-2" d="M350.27,113.74h0l0,0Z"/><path class="cls-2" d="M350.19,113.69c0-.08.07,0,.07,0a.25.25,0,0,0,.06-.26C350.24,113.48,350.25,113.64,350.19,113.69Z"/><path class="cls-2" d="M356.79,116.8l0,0S356.79,116.81,356.79,116.8Z"/><path class="cls-2" d="M357.71,106v0Z"/><path class="cls-2" d="M355.7,116.7l0,.12A.74.74,0,0,0,355.7,116.7Z"/><path class="cls-2" d="M363.42,105.49h0Z"/><path class="cls-2" d="M364.65,109.93a.2.2,0,0,0-.08,0h0Z"/><path class="cls-2" d="M358.91,115.33v0l0-.09A.08.08,0,0,0,358.91,115.33Z"/><path class="cls-2" d="M364.66,112.94l0,0a1,1,0,0,0,0-.45h-.15C364.57,112.6,364.62,112.8,364.66,112.94Z"/><path class="cls-2" d="M361.12,113.24l.33.3c0,.07-.15,0-.22,0s-.12,0-.19.08v-.06s0,.12-.05.17-.49,0-1.1-.39v0s0,.06-.13,0l.22.19c-.13.07-.24.22-.42.24a.33.33,0,0,1-.05-.15l-.42.06-.13-.2c-.13.11-.07.52-.42.29.13.28-.17.17-.13.32a.46.46,0,0,0-.09-.14c-.2,0-.59.11-.68.26a7.05,7.05,0,0,1,1,.91c-.29-.08-.08,0,0,.13l0-.07c.17.07.17.25.26.3v0a.08.08,0,0,1,0-.07s0-.07,0-.06v0a.42.42,0,0,1,.25,0v.15c.13-.29.87.43,1,.44.18.19.39,0,.61,0s.2.22.42.35-.08-.17,0-.18l.37.21c-.2,0-.07.11,0,.16.31,0,1,.31.93,0a5.52,5.52,0,0,0,.79.27c-.11-.05-.26-.1-.3-.16.26.13.06,0,0-.06.09-.07.51.06.93.16s.83.18.7,0l.05.06c-.18-.24-.5-.47-.47-.6h.11l-.11-.27c.08,0,.15.07.18.09a2.28,2.28,0,0,1,0-1,3.14,3.14,0,0,1-.68-.07c.16-.12.46-.47.23-.62l.22-.08c.4-.46-.22-.45-.1-.63s.15-.17.23-.26v.3a6.9,6.9,0,0,1,.32-.67h0a0,0,0,0,1,0,0v0c-.13,0-.24-.21-.25-.38s-.19-.38,0-.78l-.27,0,.1-.29.19,0c.05.27.2.76.25,1.11h.09c0-.21-.14-.43-.14-.56s.2-.28.36-.18l-.22-.09a3.52,3.52,0,0,1-.1-1.46l-.08.09c-.09-.13-.18-.25,0-.33a2.38,2.38,0,0,1,.06-1.28h-.25c0-.1.28-.35,0-.29l-.18-.16c0-.13-.18-.15-.11-.34h0l0,0h0c0-.32-.19.08-.19-.29.11-.17-.32,0-.34-.17l.24-.29c0-.36-.28-.26-.48-.66a.48.48,0,0,1,.5-.47c-.37,0-.22,0-.48-.15.09-.1.12-.09.25-.09,0-.29-.17-.07-.25-.24-.24.08-.59.23-.64.19l0,.1a.57.57,0,0,1-.4-.47l.11-.06-.18-.15.11-.11a2.89,2.89,0,0,0-.25-.24v.07a.79.79,0,0,1-.31-.39l.07,0c-.09-.51-.63-.54-1.05-.84l.17-.1c-.05-.25-.21.18-.33,0l.11-.18c-.32.12-.17-.2-.23-.37l-.1.27-.19-.19c-.22-.22,0-.4.12-.5l-.3.09.07-.24c-.27.19-.13-.12-.45-.1,0-.09.1-.12,0-.19a5.76,5.76,0,0,0-.59.18l.33-.06-.15.33c-.36.18-.36-.15-.59-.11l.16-.06c-.34,0-.34-.14-.53-.25.06.08.13.19,0,.22s0-.14-.14-.19a.33.33,0,0,1-.51.22.29.29,0,0,1,0-.09c-.05,0-.08.11-.18.06l.05-.27-.18.27c-.14-.07-.3.15-.31,0l.07-.06a3.92,3.92,0,0,0-1,.14l-.08-.2c0,.3-.55.08-.37.41-.25-.1-.54.44-.65,0a1.51,1.51,0,0,0-.57.55,1.82,1.82,0,0,1-.61.54c-.44-.1-.8.46-1.08.76a14.4,14.4,0,0,0-.77,1.91c-.64.17-.34,1.06-.75,1.37l.14.19c-.41.18-.21.75-.62,1.06a.75.75,0,0,1,.06.21s.06,0,.18,0c-.12.09-.09.35-.32.27l0,0c-.23-.08,0,.39-.22.46h.28l-.1.21,0-.07a1.66,1.66,0,0,1-.1,1.2,1.29,1.29,0,0,0-.06,1.15c-.28-.15.13.17-.2.2-.45.32,0,.69.11.93a.07.07,0,0,1,.06,0l-.07.49c-.39-.19.32.27,0,.09a8.15,8.15,0,0,0-.23,2.24,3.33,3.33,0,0,0,0,.56l.6,0a9.77,9.77,0,0,1,1.13.09v-.1c.37,0,.9-.08,1.13.09s.71-.25.8-.26c.31-.17.57.19.44.17.23,0,.42-.41.71-.25.09.35.8-.31.8.07v0c.37.28.72-.17,1.12.08a.15.15,0,0,1,0,0l.84-1.14-.2-1.29-.68-1.06-1.91.19-.38-.11a.91.91,0,0,1-.16-.06l0,0a.28.28,0,0,1,0-.2s-.1.06-.12,0a.19.19,0,0,1-.06-.11,1.36,1.36,0,0,1-.29,0c.07,0,.11,0,.15-.08a.93.93,0,0,0,.1-.26,3.47,3.47,0,0,0,.08-.55,1.71,1.71,0,0,1,.32-1.06l-.24-.07c0-.2.18-.15.23-.18a14.53,14.53,0,0,1,.76-2.55,3.36,3.36,0,0,1,1.36-1.71c.19,0,.37-.2.51-.11a.5.5,0,0,1,.55-.46v0s.06,0,.09,0a.16.16,0,0,1,0,.07c.13-.21.29,0,.39.21l0,0a4.75,4.75,0,0,1,1.56,1.4,5.46,5.46,0,0,1,1,2.58,3.6,3.6,0,0,0,.25,1.46,6.66,6.66,0,0,1,.19.77,2.83,2.83,0,0,1,0,.41.92.92,0,0,1,0,.18l-.05,0c-.13,0-.15,0-.11,0A.85.85,0,0,1,361.12,113.24Z"/><path class="cls-2" d="M359.51,113.57h0C359.52,113.47,359.51,113.51,359.51,113.57Z"/><polygon class="cls-2" points="364.48 114.97 364.48 114.99 364.63 114.99 364.48 114.97"/><path class="cls-2" d="M361.48,116.53c.21,0,.22,0,.18,0A.32.32,0,0,0,361.48,116.53Z"/><path class="cls-2" d="M358.33,113.77c-.08,0-.05.06,0,.13l.14,0A1.5,1.5,0,0,1,358.33,113.77Z"/><path class="cls-2" d="M358.64,115.2l0,.08C358.66,115.26,358.66,115.23,358.64,115.2Z"/><path class="cls-2" d="M297.09,211.44c-.12,0-.18,0,0,0Z"/><path class="cls-2" d="M388.41,211.08h.09l.18-.12Z"/><path class="cls-2" d="M403.1,211.39h.09S403.2,211.34,403.1,211.39Z"/><path class="cls-2" d="M354.56,211.54a.69.69,0,0,0-.25,0Z"/><path class="cls-2" d="M270.17,211.71h.07a.76.76,0,0,1-.16,0Z"/><path class="cls-2" d="M270.47,211.62c.32,0-.09.07-.23.08a3.83,3.83,0,0,0,1.07.05C271.31,211.67,270.63,211.68,270.47,211.62Z"/><path class="cls-2" d="M221.34,211.92l.15,0Z"/><path class="cls-2" d="M356,215.33l-.22,0A.88.88,0,0,0,356,215.33Z"/><path class="cls-2" d="M229.05,212l.08-.12C229.06,211.93,229,212,229.05,212Z"/><path class="cls-2" d="M388.68,211l.11,0Z"/><path class="cls-2" d="M416.67,211.47s0,.06.07.09h0Z"/><path class="cls-2" d="M485.08,213.41l0,0-.27.08A1.11,1.11,0,0,0,485.08,213.41Z"/><path class="cls-2" d="M435.28,212l.07,0a20.24,20.24,0,0,0-2.23-.05l-.07.15Z"/><path class="cls-2" d="M455.64,215.5l-2-.3c6.37-.14,9.34.16,14.79-.08l-.3.07c.79.07,1.24-.61,10,.22v0a3,3,0,0,1,.91,0l-1.52-.18c.91-.08,1.71-.22,2.92-.24.25,0,.34.09.37.14l3,0,.91.19c.91-.1.5-.51,2.93-.28-.92-.29,1.2-.18.9-.32l.62.14c1.45,0,4.17-.12,4.84-.26,0,0-5.65-.61-7.17-.91,2,.07.54,0,.14-.13l-.14.07a13.13,13.13,0,0,1-1.82-.3.09.09,0,0,0,0,.05l.08,0c.06,0,0,.06,0,.07s0,.07-.38.06l.07,0c-.51,0-1.39,0-1.77,0v-.15c-.9.29-6.07-.44-7.28-.45-1.21-.19-2.73,0-4.24-.05-2.43,0-1.22-.22-2.43-.35-1.52-.09.31.18-.3.19l-1.82-.21c1.05,0,.48-.11.29-.17-1.58,0-4.06-.3-4.54,0-2.12-.14-2.13-.27-3-.28a3.73,3.73,0,0,1,.92.17c-.85-.14-.41,0-.06.06-1.3.13-6.73-.55-7-.22v-.06c-.31.25.18.48-.73.62l-.6-.11-.91.11c-.61-.08-.31-.15-.31-.18-1.48.11-3.55,0-5.35-.05l1.91.67c-1.52-.16-4.25-.47-4.55-.26l-.91-.22c-3-.43-2.12.18-3.34.05l-1.52-.24h1.52c-1.52-.12-2.13-.2-3.34-.36h0l.15,0h-.22a6.14,6.14,0,0,1-2,.2,43.4,43.4,0,0,1-5.13-.12l-.61.25-1.82-.15V212c1.79,0,5.14-.06,7.44-.07l0-.09c-1.36,0-2.91.09-3.81.07-.43,0-1.56-.25-.74-.39l-.84.2c-4.54,0-4.57,0-9.3-.19l.41.1a6.16,6.16,0,0,1-2.14-.05,70.58,70.58,0,0,1-7.63-.41l-.41.23c-.6,0-1.5-.37-1.79,0l-1.28.11a15.62,15.62,0,0,1-2.26,0h0l-.17,0v0c-1.86-.1,0,.21-2.11.08-.68-.17-.76.3-1.79.24l-1-.34c-1.88-.19-2.2.15-4.92.15-1.31-.12-1.94-.41-1.08-.66a6.87,6.87,0,0,1-2.11.35c-.25-.13-.08-.16.27-.27-1.4-.15-.87.11-1.92.1-.31.24-.66.63-1,.64l.41.08a17.49,17.49,0,0,1-3.64.06l.05-.12-1.39.06-.08-.15-2,.05.27,0a27.36,27.36,0,0,1-2.86,0l0-.08c-2.46-.27-4.48.08-7.36.11l.37-.18c-1-.17-.26.27-1.43.19l-.06-.22c-1,.28-1.33-.06-2-.17l.33.29-1.34-.06c-1.47-.1-.9-.36-.68-.51l-1,.22-.19-.24c-.73.29-.73,0-2,.1-.1-.09.22-.14-.21-.18l-2.12.35,1.28-.16-.16.37a15.46,15.46,0,0,1-2.75.06l.66-.11a9.71,9.71,0,0,1-2.51-.15c.27.07.69.17.06.22-.46,0-.25-.13-.68-.17-.11.24-1.22.37-2.23.26a.15.15,0,0,1,.1-.09,2.07,2.07,0,0,1-.83,0l.26-.27-.86.26c-.58-.08-1.41.12-1.34-.06l.33-.06-4.35-.06-.06-.22c-.43.3-2.37-.11-2.23.26-.82-.2-3.23.14-2.74-.27-2.86,0-4.4.36-7.88.16-1.23-.35-4.62-.24-6.85-.28-4.36.15-7.18.29-11.63.4-2.68-.49-6.68.17-9.56-.11l-.79.2c-1.92-.32-4.85.07-7.53-.24-.66.09-1,.11-1.16.12.12,0,.31.05.36.17-.76-.08-2.32,0-2.21-.22l.2,0c.11-.25-2.33.12-3.19-.1l.47.27-1.45-.05.39,0c-6.32.59-9.17-.25-15.1.29.78-.29-1.17.15-1.25-.17-1.49-.4-2.77.09-4,.2,0,0,0,0-.08.05l-2.14,0c1.28-.41-1.55.33-.37,0-5.59-.3-12.89,0-19.36-.14l.29.11c-1.64,0-3.69.1-4.93-.06a13.2,13.2,0,0,0-3.21.28c-1.36.18-2.6-.18-2-.16a32.62,32.62,0,0,1-4.85.26c-.7-.34-5.53.33-5.59-.05l0,0c-2.6-.27-5,.19-7.84-.05l.15-.06-5.68,1.17,1.62,1.28,4.92,1,13.36-.22,10.65.4,25.94-.14,1.85-.28c5.1.5,11.64-.08,17.13.28l.11-.25a5.28,5.28,0,0,1,1.82.18c14.4,0,29.23-.38,42.18-.07,1.25.17,5.05.07,6,.24,4.21-.3,8.67-.3,12.88-.27l-.16,0,2-.05c.09,0,.1.05,0,.07a79.14,79.14,0,0,1,8.51.09l-.16,0c16,0,30.84-.42,46.7-.08,7.37.41,15.95-.15,24.41.19C437,215.81,454.13,215.62,455.64,215.5Z"/><path class="cls-2" d="M480.84,215.17h-.07C480.77,215.28,480.87,215.24,480.84,215.17Z"/><path class="cls-2" d="M445.48,212.3h.11l-.42-.15Z"/><path class="cls-2" d="M468.13,212.22c-1,0-1.07,0-.92,0A6.33,6.33,0,0,0,468.13,212.22Z"/><path class="cls-2" d="M489.15,215c.53,0,.33-.05,0-.12h-.92Z"/><path class="cls-2" d="M487,213.55l.16-.09C486.82,213.48,486.83,213.51,487,213.55Z"/><path class="cls-2" d="M288.28,132.2c-.13.07-.19.12,0,0Z"/><path class="cls-2" d="M397.15,119.94l.11,0,.25,0Z"/><path class="cls-2" d="M414,126.73l.09.06S414.09,126.74,414,126.73Z"/><path class="cls-2" d="M356,114.39a1,1,0,0,0-.3,0Z"/><path class="cls-2" d="M262.56,153l.05-.06-.16.12Z"/><path class="cls-2" d="M262.74,152.7c.31-.27,0,.13-.13.26a5.57,5.57,0,0,0,.94-.94C263.49,152,262.92,152.59,262.74,152.7Z"/><path class="cls-2" d="M238.17,207l0-.18A.9.9,0,0,0,238.17,207Z"/><path class="cls-2" d="M357.69,118.2h-.27A1,1,0,0,0,357.69,118.2Z"/><path class="cls-2" d="M239.56,197.54l-.1-.12C239.5,197.52,239.53,197.54,239.56,197.54Z"/><path class="cls-2" d="M397.51,119.92h0Z"/><path class="cls-2" d="M428.58,134.87a.18.18,0,0,0,0,.12l0,0Z"/><path class="cls-2" d="M472.5,203.17l0,0-.14-.32A3.44,3.44,0,0,0,472.5,203.17Z"/><path class="cls-2" d="M446.18,149.52s.08,0,.09,0c-.25-.3-1-1-1.95-1.94l-.16.06Z"/><path class="cls-2" d="M458.79,170.86l-1-2.17c4.14,6.37,5.42,9.71,8.06,15.61l-.19-.31c.12.46.46.72,1,2.18.28.72.63,1.74,1.07,3.21.24.73.4,1.6.62,2.59s.48,2.11.65,3.4h0a4.36,4.36,0,0,1,.21,1.05l-.2-1.79c.31,1,.64,1.92,1,3.33,0,.3,0,.42-.05.46.3,1.14.43,2.31.64,3.46l0,1.1c.26,1,.65.51.68,3.41.18-1.11.3,1.42.41,1,0,.15,0,.48-.07.75.19,1.71.29,5,.49,5.76,0,0,.1-1.68.23-3.62l.09-1.47c0-.49,0-1,0-1.42,0-.9.05-1.68.08-2.14.15,2.45.09.64.15.15l-.09-.16c-.05-1.47.11-1.5,0-2.23,0,0,0,0,0,.05l0,.09c0,.07-.05,0-.08,0s-.08,0-.13-.44l0,.07c-.11-.61-.25-1.66-.3-2.12l.14,0a8.39,8.39,0,0,1-.3-1.61c-.13-.75-.26-1.67-.39-2.62s-.22-1.9-.38-2.7-.28-1.46-.38-1.82a16.59,16.59,0,0,0-.6-2.38c-.29-.84-.63-1.7-.88-2.59-.92-2.82-.24-1.49-.66-2.92-.61-1.77,0,.41-.31-.28l-.65-2.15c.51,1.2.33.51.29.27-.64-1.83-1.76-4.68-2.27-5.09-.48-1.22-.73-1.83-.91-2.26a12.15,12.15,0,0,0-.55-1.2,7.26,7.26,0,0,1,.39,1.07c-.38-1-.26-.42-.09,0-.45-.66-1.25-2.58-2.16-4.27a16,16,0,0,0-2-3.29l0,0c-.4-.18-.27.45-1-.39l-.33-.67-.72-.86c-.36-.67-.1-.4-.07-.42l-3.86-5.3.88,2.26c-.5-.77-1.18-1.89-1.83-2.79a8.14,8.14,0,0,0-1.45-1.69l-.55-1a7.49,7.49,0,0,0-1.87-2.2,2.53,2.53,0,0,1-.92-.78l-1.11-1.53,1.28,1.36L447.52,151l-1.23-1.47h0c.07.08.11.13.11.15l-.2-.17a9.38,9.38,0,0,1-1.94-1.6c-1.34-1.31-2.57-2.11-4.65-4.26l-.74-.27-1.65-1.5.12-.16c.84.7,2.13,1.62,3.38,2.71s2.6,2.19,3.62,3.16l.1,0c-1.21-1.15-2.74-2.31-3.54-3.06-.38-.39-1.29-1.45-.45-.9-.3-.18-.62-.34-.92-.5-4.39-3.48-4.42-3.49-9.1-7l.37.36A9.43,9.43,0,0,1,428.6,135l-7.9-5.14-.56,0c-.64-.36-1.46-1.2-1.93-1.08-.47-.22-1-.4-1.46-.6a24,24,0,0,1-2.51-1.23h0l-.19-.12v0c-2-1.07-.05.16-2.4-1-.71-.49-1-.1-2.12-.65l-1.05-.81c-2.07-1.07-2.59-.85-5.71-2-1.48-.65-2.14-1.14-1-1.06a10.52,10.52,0,0,1-2.6-.49c-.24-.21,0-.17.41-.15-1.6-.68-1.05-.22-2.29-.64a3,3,0,0,1-1.37.27l.46.21A26.62,26.62,0,0,1,392,119.3l.09-.1c-.55-.14-1.11-.25-1.66-.36l-.07-.18-2.38-.51.32.12c-.56-.1-2.39-.53-3.43-.78l.06-.08a33.06,33.06,0,0,0-4.25-.87c-1.43-.2-2.95-.3-4.7-.56l.49-.1c-1.17-.35-.37.22-1.78-.08l0-.23a5.36,5.36,0,0,1-2.47-.44l.37.32-1.63-.23c-1.79-.29-1.07-.47-.79-.59l-1.25.09-.22-.27c-.92.21-.89-.11-2.49-.06-.12-.11.28-.14-.25-.21l-2.62.19,1.57-.06-.21.35c-1.64.18-2.21-.2-3.38-.11l.81-.09a14.85,14.85,0,0,1-3.08-.21c.33.07.84.19.07.22-.57,0-.31-.14-.84-.19-.13.26-1.5.31-2.74.23a.2.2,0,0,1,.13-.09,3.07,3.07,0,0,1-1,.06l.32-.27-1.06.28c-.71-.06-1.73.16-1.64,0l.4-.06-2.68,0-2.67.14-.09-.21c-.51.33-2.92.07-2.72.43-1-.12-3.94.55-3.39.07a36.57,36.57,0,0,0-4.52.7c-1.42.3-2.95.52-5.07.81a45.91,45.91,0,0,0-8.33,1.48,141.71,141.71,0,0,0-13.63,4.47,29.8,29.8,0,0,0-5.47,2c-1.89.91-3.83,1.76-5.48,2.43l-.79.6a25.21,25.21,0,0,0-3.9,1.79c-1.41.78-2.94,1.59-4.45,2.28-.66.49-1,.73-1.17.83.13-.07.35-.15.47-.08-.86.41-2.45,1.48-2.46,1.2l.2-.15c0-.14-.61.25-1.34.73a13.62,13.62,0,0,1-2,1.29l.63-.09-1.53.94.38-.3-4.12,3.13-1.81,1.29L275,141.43a48.13,48.13,0,0,0-6.87,6c.5-.89-.93,1.11-1.22.94a13.18,13.18,0,0,0-3.35,3.63s0,0,0,.12l-1.84,1.9c.77-1.43-1,1.63-.31.32-1.18,1.27-2.43,2.64-3.67,4.13l-1.81,2.35c-.62.8-1.24,1.61-1.8,2.47-1.17,1.7-2.35,3.43-3.4,5.22-.53.9-1.11,1.76-1.6,2.66s-1,1.79-1.48,2.66l.26-.26c-1,1.75-1.91,4.13-2.74,5.44a17.24,17.24,0,0,0-1.27,3.77c-.49,1.61-1.29,2.95-1,2.27-.27.86-.45,1.73-.69,2.66-.11.47-.25,1-.4,1.47s-.29,1.07-.5,1.66a15.49,15.49,0,0,0-1,3.61c-.26,1.59-.5,3.07-.7,3.07l0,0a25.59,25.59,0,0,0-.83,4.66c-.23,1.57-.27,3.19-.55,4.9a.67.67,0,0,1,0-.19l.13,1.77c.06.58.15,1.17.23,1.76L239,214l1.34-1.94.61-2.92.78-2.88a80.15,80.15,0,0,1,2.8-15.56A83.69,83.69,0,0,1,249.47,179a92.94,92.94,0,0,1,17.45-25.19c.42-.61.89-1.18,1.35-1.76,2.34-2,4.89-4.3,7.61-6.55a64,64,0,0,1,8.4-6.1l0-.28a7.59,7.59,0,0,1,1.92-1,120.82,120.82,0,0,1,46.76-18c.75,0,2.25-.24,3.7-.44l2.06-.27a13.92,13.92,0,0,1,1.41-.06c1.25-.21,2.51-.4,3.79-.58s2.57-.25,3.86-.36c2.59-.25,5.19-.23,7.72-.28l-.2,0c.8,0,1.59,0,2.38,0,.1,0,.11.05,0,.07a44.92,44.92,0,0,1,4.87,0l5.3.49-.2,0a143.89,143.89,0,0,1,27.5,5,113.94,113.94,0,0,1,25.57,10.91c.93.6,1.87,1.21,2.84,1.81l1.47.91,1.46,1,3,1.95,3,2.12a80.18,80.18,0,0,1,11.38,9.78c.14.18.5.56,1,1.08l1.89,2.05c1.52,1.58,3.3,3.71,5.07,5.83A111.45,111.45,0,0,1,458.79,170.86Z"/><path class="cls-2" d="M469.94,198.43v-.08C469.82,198.37,469.89,198.48,469.94,198.43Z"/><polygon class="cls-2" points="454.39 158.98 454.47 159.09 454.27 158.59 454.39 158.98"/><path class="cls-2" d="M468.44,182.88c-.44-1.18-.48-1.22-.46-1A10.31,10.31,0,0,0,468.44,182.88Z"/><path class="cls-2" d="M471.45,208.19c0,.63.09.39.12,0l-.12-1.1Z"/><path class="cls-2" d="M472.63,205.46l.1.19C472.67,205.27,472.64,205.29,472.63,205.46Z"/><text class="cls-4" transform="translate(101 307.15)">Ent<tspan class="cls-5" x="70.92" y="0">r</tspan><tspan x="88.1" y="0">e + Plat + Dessert </tspan></text></svg>