<svg id="Calque_1" data-name="Calque 1" xmlns="http://www.w3.org/2000/svg" viewBox="0 0 200 200"><defs><style>.cls-1{fill:#aed59b;}.cls-2{fill:#d8e9bf;}.cls-3{fill:#5a7a4a;}.cls-4{fill:#9bc684;}.cls-5{fill:#9dca72;}.cls-6{fill:#77ab5e;}.cls-7{fill:#89bd72;}.cls-8{fill:#d0e3ca;}.cls-9{fill:#528041;}.cls-10{fill:#95c469;}.cls-11{fill:#54703f;}.cls-12{fill:#9cc086;}.cls-13{fill:#97c885;}.cls-14{fill:#8ab779;}.cls-15{fill:#89bd75;}.cls-16{fill:#679753;}.cls-17{fill:#809f74;}.cls-18{fill:#a9cda6;}.cls-19{fill:#79986e;}.cls-20{fill:#e3efd5;}.cls-21{fill:#9dbd92;}.cls-22{fill:#89b871;}.cls-23{fill:#3c5231;}.cls-24{fill:#7ba169;}.cls-25{fill:#446339;}.cls-26{fill:#75936a;}.cls-27{fill:#c1d8ba;}.cls-28{fill:#7fa478;}.cls-29{fill:#92bb8d;}.cls-30{fill:#86ab71;}.cls-31{fill:#8da782;}.cls-32{fill:#729759;}.cls-33{fill:#527148;}.cls-34{fill:#7ba26e;}.cls-35{fill:#85aa68;}.cls-36{fill:#64895d;}.cls-37{fill:#82aa7c;}.cls-38{fill:#64834d;}.cls-39{fill:#a4bf9e;}.cls-40{fill:#a6c391;}.cls-41{fill:#668e55;}.cls-42{fill:#aecb9b;}.cls-43{fill:#eff5e5;}.cls-44{fill:#87ac76;}.cls-45{fill:#96c691;}.cls-46{fill:#72a264;}.cls-47{fill:#7daf6e;}.cls-48{fill:#acd59c;}.cls-49{fill:#90c885;}.cls-50{fill:#71a166;}.cls-51{fill:#537847;}.cls-52{fill:#92cb8d;}.cls-53{fill:#7f9f7a;}.cls-54{fill:#abc7a0;}.cls-55{fill:#7db17a;}.cls-56{fill:#7ba258;}.cls-57{fill:#789e5f;}.cls-58{fill:#beda92;}.cls-59{fill:#8ba682;}.cls-60{fill:#a5d087;}.cls-61{fill:#233d1f;}.cls-62{fill:#b5d57c;}.cls-63{fill:#93b986;}.cls-64{fill:#8dba6b;}.cls-65{fill:#bfdab0;}.cls-66{fill:#90bc6d;}.cls-67{fill:#4f6837;}.cls-68{fill:#89aa7d;}.cls-69{fill:#99c472;}.cls-70{fill:#66924a;}.cls-71{fill:#c7de9d;}.cls-72{fill:#a1af9c;}.cls-73{fill:#476132;}.cls-74{fill:#39532a;}.cls-75{fill:#78a55e;}.cls-76{fill:#a7d073;}.cls-77{fill:#b2d588;}.cls-78{fill:#ab373a;}.cls-79{fill:#92c078;}.cls-80{fill:#c4dd9d;}.cls-81{fill:#d74b4b;}.cls-82{fill:#93ba6a;}.cls-83{fill:#588d4a;}.cls-84{fill:#577444;}.cls-85{fill:#5a7d43;}.cls-86{fill:#b3383b;}.cls-87{fill:#b4a491;}.cls-88{fill:#ef5e5f;}.cls-89{fill:#70af65;}.cls-90{fill:#882b2d;}.cls-91{fill:#b68678;}.cls-92{fill:#9dce88;}.cls-93{fill:#f17a7d;}.cls-94{fill:#7f5144;}.cls-95{fill:#ef5f5d;}.cls-96{fill:#f0706a;}.cls-97{fill:#e05a56;}.cls-98{fill:#c1a0a1;}.cls-99{fill:#f6a6a1;}.cls-100{fill:#eae4df;}.cls-101{fill:#bd4243;}.cls-102{fill:#eac7be;}.cls-103{fill:#df5f5c;}.cls-104{fill:#e88a82;}.cls-105{fill:#dd6863;}.cls-106{fill:#f4a39a;}.cls-107{fill:#ccaa9f;}.cls-108{fill:#c8b5a4;}</style></defs><title>carotte - 1-03</title><path class="cls-1" d="M28.34,23.16c1.82-.84,2.11-3.65,2.76-5.54.47-.08,1.56.42,1.44-.4-.16-1.31,1.87-.84,2.68-.61.84,2.41,2.45,4.39,3.61,6.62-1.89-.69-1.32,1.25-3,1.34-1.34,0-2.44-1.45-3.55-2.07-.86,1.4,2.72,2.09.38,2.75a2.21,2.21,0,0,1-2.47,2.08c.49.8,1,1.58,1.53,2.35,0,.17-.13.5-.18.66-.52.46-1.05.9-1.56,1.34L29.73,31C30.9,28.47,29.81,25.41,28.34,23.16Z"/><path class="cls-2" d="M29.73,31c-1.43-2.19-2.84-5.54-1.39-7.86C29.81,25.41,30.9,28.47,29.73,31Z"/><path class="cls-3" d="M35.22,16.61a14.43,14.43,0,0,1,3.13,3.65c.74,1.1,1.33,3.39,2.62,3.2-.91,1.55.92,1.11,2,1.38l.17.26c-2.23,1.33.13,3.5,1.49,4.61a13.72,13.72,0,0,0,3.48,4c0,1.37,1.34,2.35,2,3.48,2.54-.35,3.28-3.08,4-5.21a16.35,16.35,0,0,0,.63-2.79c.24-.23.5-.46.77-.69C55.7,31.45,54,34.07,54.06,37c-.12.71-1.82,1.5-.67,2.1a14.37,14.37,0,0,0-1.55,1.84c.31.22,1,.32.58.81l-1.35.5C50.29,39.7,48,38.47,47.26,36c-.12-.46-.61-.51-1-.63-2.15-4.17-4.87-8.14-7.43-12.13C37.67,21,36.06,19,35.22,16.61Z"/><path class="cls-4" d="M32.69,25.25c2.34-.66-1.24-1.35-.38-2.75,1.11.62,2.21,2,3.55,2.07,1.65-.09,1.08-2,3-1.34,2.56,4,5.28,8,7.43,12.13-.07.74-1,1.78.15,2,1,.26-.67,2.43.83,1.77-.93-1.77,1.92.18.81.92s1.45.49.59,1.45a23.59,23.59,0,0,1-5.07-3.69c.75-1.08-.63-1.26-1.4-1.49-1.29-.15,1.81-1.35.22-1.47-.91.09-1.77.11-1.85-1-.43-1.52-2.32.67-2.85-.7-.26-1.29-2.55-.63-1.89-2.21.73-.26,3,.28,2.12,1.71.73.55,1.38.24,1.75-.53-1-.7-.43-1.31-1.38-2.06,1.51.38,3.39,1.71,4.84.75-2.25-1.45-5.15-1.7-7.08-3.66-1-.1-.77.94-.25,1.42-1.7.87-.71-1.12-2-1.56A11.54,11.54,0,0,1,32,29.47l-.23.21c-.52-.77-1-1.55-1.53-2.35A2.21,2.21,0,0,0,32.69,25.25Z"/><path class="cls-5" d="M30,31.68c.51-.44,1-.88,1.56-1.34-1.59,2.3,3.37,4,.58,5.7C32.25,34.25,30.65,33.19,30,31.68Z"/><path class="cls-6" d="M31.57,30.34c.05-.16.14-.49.18-.66l.23-.21c1.64.14.72,2.32,2.35,2.81-2.1.6-.17,2.22.57,3.24.21-1.53,1.05-.13,1.85.17-.69.63-2.41,1.52-1.46,2.56.47-1,1.85-1,2.25-2.13.27,1.13.81,1.39,1.66.48,1.73,1.16-1,1.08-1.33,2.22-.54,1.69,2.55-.89,1.49.49-1.39,1,.76.15,1.45.36-.19.82-.37,1.75.42,2.33.23.26.47.52.72.77.89.89-.32,1.59-.53,2.47a9.17,9.17,0,0,0-2.89-.39,13.41,13.41,0,0,0-2-5.18c-2.66.25.79,2.31.5,3.8-1.4-2.33-6.4-4.32-4.93-7.43C34.94,34.31,30,32.64,31.57,30.34Z"/><path class="cls-7" d="M32,29.47A11.54,11.54,0,0,0,33.79,27c1.3.44.31,2.43,2,1.56,1,0,1.67,1,2.49,1.49,1,.75.42,1.36,1.38,2.06-.37.77-1,1.08-1.75.53.86-1.43-1.39-2-2.12-1.71-.66,1.58,1.63.92,1.89,2.21.53,1.37,2.42-.82,2.85.7.08,1.13.94,1.11,1.85,1,1.59.12-1.51,1.32-.22,1.47.77.23,2.15.41,1.4,1.49a23.59,23.59,0,0,0,5.07,3.69c-1.23.71-2.65-.57-3.74-.94-.6,1.56-2.62.2-3.67,1.4-.79-.58-.61-1.51-.42-2.33-.69-.21-2.84.69-1.45-.36,1.06-1.38-2,1.2-1.49-.49.37-1.14,3.06-1.06,1.33-2.22-.85.91-1.39.65-1.66-.48-.4,1.09-1.78,1.09-2.25,2.13-.95-1,.77-1.93,1.46-2.56-.8-.3-1.64-1.7-1.85-.17-.74-1-2.67-2.64-.57-3.24C32.7,31.79,33.62,29.61,32,29.47Z"/><path class="cls-8" d="M25.92,53.93c-.57-1.23,1-1.9,1.82-2.46,1.5-1,3.29-.37,4.93-.29.79-.16,1.38-1,2.31-.66a11.32,11.32,0,0,1,.91,1.89c.14.86.42,1.92,1.52,1.8l.18.21c-.39.53-1.38.69-1.26,1.49,0,1.75,1.82,2.14,3,2.93-1.21.74-.3,1.8.84,2.28.46.67,1.54,1.55.53,2.25a13.93,13.93,0,0,1-2-.66,7.15,7.15,0,0,0-5.92-1.57c-.55-.25-.66.26-.75.7C30.52,58.83,27.51,56.91,25.92,53.93Z"/><path class="cls-9" d="M37.08,43.47c.29-1.49-3.16-3.55-.5-3.8a13.41,13.41,0,0,1,2,5.18,9.17,9.17,0,0,1,2.89.39c-.18.63-1,.77-1.41,1.17l-.59.37c-.76-.74-1.48-1.52-2.29-2.2A8.1,8.1,0,0,1,37.08,43.47Z"/><path class="cls-10" d="M34.92,49.26c-1.35-1.91,1.63-3.13,2.21-4.68.81.68,1.53,1.46,2.29,2.2.28,2.3.82,4.62,2.54,6.33-.37.15-.75.27-1.12.39A16.84,16.84,0,0,0,37,51.67C36.49,50.53,36.36,46.83,34.92,49.26Z"/><path class="cls-11" d="M35,50.52c-.3-.35-.11-.86-.06-1.26,1.44-2.43,1.57,1.27,2,2.41a16.84,16.84,0,0,1,3.89,1.83c1.52,1.38,2.14,3.36,3.69,4.68-1.63-.15-3.31-2.77-4.93-1.24.36.3.74.6,1.12.88a3.1,3.1,0,0,1-3.4-1.13c.75-1,1.66-1.28.27-2.27l-.18-.21c-.47-.63-1-1.22-1.52-1.8A11.32,11.32,0,0,0,35,50.52Z"/><path class="cls-12" d="M52.84,24a4.07,4.07,0,0,0,2.69-.92c-.14,1.35,2.26,3.2,2.73,1.37C60,26.89,58,30.63,59.9,32.91a10.06,10.06,0,0,0,4.38,1.41c.8,3.21-3.19-1.38-3.46,1.6a6.19,6.19,0,0,1-.54,3c.16,2.64-4.12,1.27-3.75,4.25-.2,2.76,1,7.11,4.64,6a30,30,0,0,0,2.7,4.29c.47,1.08,2,.65,2.52,1.73l-.26.2c-1.1.77-3.92,1.4-2.61,3.13-.57.38-.91-.21-1.7.08-2.76-4.74-5.25-9.63-8.12-14.3.57-1.07,1.46-2.49.57-3.63s1.78-3.79-.21-3.77c-.07-2.88,1.64-5.5,1.46-8.42C55.1,26.85,54.54,24.93,52.84,24Z"/><path class="cls-13" d="M41.23,42c1.05-1.2,3.07.16,3.67-1.4,1.09.37,2.51,1.65,3.74.94-.57,1.34.31,1.46.64.13,1.11.07,1.11,2.39,1.19,3.55,2.21,2.76.55-.46,2-.68,2.21,4.06,5,7.94,6,12.51-.32,1-1.43-.07-2.08-.18-.21-1.62-1.91-1.48-3.11-1.89,1.08-.69,1.36-1.76.06-2.33-.56-1.54-1.42-.49-1.82.53-2.32.17-3-2-2.67-3.85,1.4-1.07-1.45-1-2.3-1.43-.94,2.49-2.82.05-1.51-1.13-2.07-.38-2-2.69-1.36-4.26a2.68,2.68,0,0,0-1.74.26C41.7,42.52,41.46,42.26,41.23,42Z"/><path class="cls-14" d="M46.41,37.4c-1.15-.26-.22-1.3-.15-2,.39.12.88.17,1,.63.69,2.48,3,3.71,3.81,6.21a22.72,22.72,0,0,1,1.37,2.34c-1.42.22.24,3.44-2,.68-.08-1.16-.08-3.48-1.19-3.55-.33,1.33-1.21,1.21-.64-.13.86-1-1.59-.75-.59-1.45s-1.74-2.69-.81-.92C45.74,39.83,47.4,37.66,46.41,37.4Z"/><path class="cls-15" d="M42,42.77a2.68,2.68,0,0,1,1.74-.26c-.68,1.57-.71,3.88,1.36,4.26-1.31,1.18.57,3.62,1.51,1.13.85.4,3.7.36,2.3,1.43-.29,1.88.35,4,2.67,3.85.4-1,1.26-2.07,1.82-.53,1.3.57,1,1.64-.06,2.33,1.2.41,2.9.27,3.11,1.89-3.1-1-6-2.4-9-3.54-.87-.49-1.93-.9-2.23-1.95C43.6,51,42.61,49.63,41,49.47c.85-1.46.09-2.25-1-3.06.44-.4,1.23-.54,1.41-1.17C41.63,44.36,42.84,43.66,42,42.77Z"/><path class="cls-16" d="M42,53.11c-1.72-1.71-2.26-4-2.54-6.33l.59-.37c1.11.81,1.87,1.6,1,3.06,1.58.16,2.57,1.54,4.1,1.91.3,1,1.36,1.46,2.23,1.95a1.62,1.62,0,0,0,.3,1.41C46.2,53.71,43.41,50.68,42,53.11Z"/><path class="cls-17" d="M37.41,54.21c-1.1.12-1.38-.94-1.52-1.8C36.42,53,36.94,53.58,37.41,54.21Z"/><path class="cls-18" d="M32.09,61.84c.09-.44.2-1,.75-.7a7.15,7.15,0,0,1,5.92,1.57c-.45.73.19,1.27.71,1.72,1.26-1.36,2.67.45,3.84,1.13-1.5,2-4.09.16-6-.07-.83,1.5,1.28,1.57,2.26,1.88a2.46,2.46,0,0,1-1.72,1.31C35.45,67,33,64.68,32.09,61.84Z"/><path class="cls-19" d="M36.33,55.91c-.12-.8.87-1,1.26-1.49,1.39,1,.48,1.3-.27,2.27Z"/><path class="cls-20" d="M59.08,23.12c2.58-.24,3.12-3.45,4.66-4.42,2.64,1.32,4.75-1.59,6.09-3.42,2.1,2-.33,6.16,2.62,7.86a55,55,0,0,0-1.92,5.25c-.08.23-.26.68-.34.91-1.17-.58-1.26-4.33-3.1-2.66A4,4,0,0,0,70,29.93a93.62,93.62,0,0,0-2.29,10.71,14.78,14.78,0,0,0-.35,2A34.89,34.89,0,0,0,67,46.13c-.1.33-.18.65-.25,1-.54.85,0,3.83-1.43,3.11L64,48.92c-.32-.32-.66-.63-1-1,.92-.66,1.91-1.24,2.79-2,1.83-2.75-.17-6,.63-9,0-.74,0-1.48.09-2.22a2.82,2.82,0,0,0,0-2.89c0-.14-.15-.44-.19-.59C65.8,27.88,62,27.12,60,24.9,61.14,24,60.1,23.31,59.08,23.12Z"/><path class="cls-21" d="M39.37,58.84c-1.22-.79-3.07-1.18-3-2.93l1,.78a3.1,3.1,0,0,0,3.4,1.13,1.43,1.43,0,0,1,.75,1.3c-1.12.15-.33.7.19,1.14,1.77,1.66,4.57,1.85,6,3.74-.09.11-.27.31-.35.42-.74-.19-2.28-2.36-2.27-.78a38.75,38.75,0,0,0-4.82-2.52C39.07,60.64,38.16,59.58,39.37,58.84Z"/><path class="cls-22" d="M40.84,53.5c.37-.12.75-.24,1.12-.39,1.45-2.43,4.24.6,5.7,1.63a31.65,31.65,0,0,0,11.18,3.5c.44,1.36.88,2.72,1.35,4.07-1.26,1-4.56-1.84-3.4.73l-1-.55C54,61.1,52.29,59,49.78,59.1c-.28-.56-1.35-1.57-1.32-.34-1.31-.23-2.69,0-3.93-.58C43,56.86,42.36,54.88,40.84,53.5Z"/><path class="cls-23" d="M39.6,56.94c1.62-1.53,3.3,1.09,4.93,1.24,1.24.53,2.62.35,3.93.58A10.49,10.49,0,0,1,52,63.43c-1,.39-1.53-1.81-3-1.58a30,30,0,0,0-2.66-1.58,6,6,0,0,0-2-.41c-1-.19-2.06-.08-2.88-.74a1.43,1.43,0,0,0-.75-1.3C40.34,57.54,40,57.24,39.6,56.94Z"/><path class="cls-24" d="M53.39,39.05c-1.15-.6.55-1.39.67-2.1,2,0-.67,2.64.21,3.77s0,2.56-.57,3.63a25.85,25.85,0,0,1-1.28-2.65c.43-.49-.27-.59-.58-.81A14.37,14.37,0,0,1,53.39,39.05Z"/><path class="cls-25" d="M52.44,44.54a22.72,22.72,0,0,0-1.37-2.34l1.35-.5a25.85,25.85,0,0,0,1.28,2.65c2.87,4.67,5.36,9.56,8.12,14.3.89.81.37,2.15,1.44,2.75,1.07.82-1.51,1.44-.36,2.44.68-2.65,1.64.64,1.49,1.87a2.37,2.37,0,0,1,.84,1.42,7.85,7.85,0,0,0-.15.82c-.14,1.64-1.26,3.51.32,4.74-.25,1.15.44,1.92,1.5,2.46-1,.18-2.54-2.29-2.76-.38-2.19-1.08,1.52-4.78-1.62-4-.14-1,.43-1.29,1.33-1.15a1.6,1.6,0,0,1-1.08-2.48,9.45,9.45,0,0,1-2.58-4.85c-.47-1.35-.91-2.71-1.35-4.07a31.65,31.65,0,0,1-11.18-3.5,1.62,1.62,0,0,1-.3-1.41c3,1.14,5.94,2.57,9,3.54.65.11,1.76,1.14,2.08.18C57.39,52.48,54.65,48.6,52.44,44.54Z"/><path class="cls-26" d="M41.66,60.26c-.52-.44-1.31-1-.19-1.14.82.66,1.9.55,2.88.74l-.15.35A19.55,19.55,0,0,1,41.66,60.26Z"/><path class="cls-27" d="M39.47,64.43c-.52-.45-1.16-1-.71-1.72a13.93,13.93,0,0,0,2,.66c1-.7-.07-1.58-.53-2.25A38.75,38.75,0,0,1,45,63.64c1.14.89,2.26,1.79,3.36,2.74-.76,1.73-3.86.17-5.08-.82C42.14,64.88,40.73,63.07,39.47,64.43Z"/><path class="cls-28" d="M39.54,67.37c-1-.31-3.09-.38-2.26-1.88,1.94.23,4.53,2.11,6,.07,1.22,1,4.32,2.55,5.08.82a27.7,27.7,0,0,1,2.32,2.4c-1,.41-2.07-.19-3.09-.32C45,67.94,42.22,67.81,39.54,67.37Z"/><path class="cls-27" d="M47.65,64c-1.42-1.89-4.22-2.08-6-3.74a19.55,19.55,0,0,0,2.54,0,3,3,0,0,0,2.15.06A30,30,0,0,1,49,61.85c1.73,2.35,5.61,4.16,5.51,7.3C53,68.65,53.8,66,52,66.68,50.2,66.65,49.18,64.73,47.65,64Z"/><path class="cls-29" d="M43.17,73.53a7.71,7.71,0,0,1-5.35-4.85,2.46,2.46,0,0,0,1.72-1.31c2.68.44,5.41.57,8.08,1.09.09.67.28,1.32.4,2-.39.2-.8.42-.42.88-.64.3-1.7.26-1.28,1.22-1.1-.7-1.94.46-2.89.86Z"/><path class="cls-30" d="M56.53,43.17c-.37-3,3.91-1.61,3.75-4.25.1.33.2.66.31,1-1.24,1.28-1.29,3.42-3.1,4.13C56.61,43.72,58.11,42.47,56.53,43.17Z"/><path class="cls-31" d="M44.2,60.21l.15-.35a6,6,0,0,1,2,.41A3,3,0,0,1,44.2,60.21Z"/><path class="cls-32" d="M61.17,49.22c-3.59,1.06-4.84-3.29-4.64-6,1.58-.7.08.55,1,.87,1.81-.71,1.86-2.85,3.1-4.13,1.76-.8.87,1.45-.31,1.58,1.93,1.65-1.63.84-.28,2.33.91-1,2.23.63,3.08-.56.48-1-1-2.71.37-3.45.28.45.08,1.9.88,1.31,2.4-.65-.12-3.22-.13-4.67a3.44,3.44,0,0,0,2.18.6c-.8,3,1.2,6.21-.63,9-.88.72-1.87,1.3-2.79,2l-.89.53C61.23,47.82,61.13,48.43,61.17,49.22Zm-1-4.09c-.55,1.68,2.43,2.68,3.23,1.32.12-.57,0-1.44.89-1.15-1.12,3,2.19-1.3.07-1.51C63.87,46,60.81,43.64,60.2,45.13Z"/><path class="cls-33" d="M45,63.64c0-1.58,1.53.59,2.27.78a48.09,48.09,0,0,1,6.78,5.46c.31.67,1.73-.84,1.18.22-.06,1.14,1.43,3,2.5,1.67-1.26-1.52-2.84-3-3.19-5-.1-1-1.56-1.58-1.06-2.68.63.83,1.21,1.85,2.4,1.8.1,1.31,1.28,2.24.94,3.6.87,1.09,2.78.58,3.31,2,.74,1,.23,2.15.47,3.23,1.42-.47.87-1.64.62-2.7,1.23,1.74,1.46.15,1.27-1.18,3.14-.8-.57,2.9,1.62,4,0,1.81,2,1.44,2.89,2.59.72,1.45,1.92,1.41,1.76,0,1,.15,1.28,1.27,1.89,1.93,1.06,1,.53,1.79-.81,1.93-.11-.41-.23-.81-.33-1.22,0-1-.29-1.8-1.39-1.24-.43-.34-.87-.68-1.31-1a2.08,2.08,0,0,0-1.51-.61,16.06,16.06,0,0,0,2.59,8.4c-.68.24-.39,1.08-.26,1.6a16.5,16.5,0,0,1,1.32,6c-.21.9-1.09.25-1.39-.23a17.69,17.69,0,0,1-1.85-4.26,1,1,0,0,0-.34-1c-.41-.91-1-1.73-1.37-2.65a23.28,23.28,0,0,0-1.55-3.64c1.14.57.39-.75-.15-1a5.45,5.45,0,0,1-2.13-2.13,19.19,19.19,0,0,0-1-2.14c.66.62,1.43,1.22,2.15,1.81a6.5,6.5,0,0,0-2.73-4.34c-.09.61.21,1.34-.31,1.81-2.8-1.88-4.22-5.52-7.56-6.6a27.7,27.7,0,0,0-2.32-2.4C47.29,65.43,46.17,64.53,45,63.64Z"/><path class="cls-34" d="M48.46,58.76c0-1.23,1-.22,1.32.34,2.51-.06,4.21,2,6,3.39.07.92.89,1.56,1.5.56a10.24,10.24,0,0,1,2.51,3.48c-1.07,2,1.49,3.43,1.42,5.44.25,1.06.8,2.23-.62,2.7-.24-1.08.27-2.28-.47-3.23-.53-1.41-2.44-.9-3.31-2,.34-1.36-.84-2.29-.94-3.6-1.19.05-1.77-1-2.4-1.8-.5,1.1,1,1.65,1.06,2.68.35,2,1.93,3.52,3.19,5-1.07,1.3-2.56-.53-2.5-1.67.55-1.06-.87.45-1.18-.22a48.09,48.09,0,0,0-6.78-5.46c.08-.11.26-.31.35-.42,1.53.73,2.55,2.65,4.3,2.68,1.85-.68,1,2,2.57,2.47.1-3.14-3.78-5-5.51-7.3,1.49-.23,2,2,3,1.58A10.49,10.49,0,0,0,48.46,58.76Z"/><path class="cls-35" d="M60.2,45.13c.61-1.49,3.67.82,4.19-1.34,2.12.21-1.19,4.51-.07,1.51-.85-.29-.77.58-.89,1.15C62.63,47.81,59.65,46.81,60.2,45.13Z"/><path class="cls-36" d="M43.17,73.53l.26-.13c1.87.46,3.74,2,5.6,1.65-.42-1.14-1.35-2.16-.77-3.46.09,1.45,1.44,1.23,2.52,1.27,1.5.87,3.21,1.51,4.47,2.74,0,.29.07.58.12.87-.68.11-1.35.28-2,.44,1.19-1.14-4.14-2.87-3-.68C47.89,75.43,45,75.6,43.17,73.53Z"/><path class="cls-37" d="M43.43,73.4c1-.4,1.79-1.56,2.89-.86-.42-1,.64-.92,1.28-1.22-.38-.46,0-.68.42-.88l.24,1.15c-.58,1.3.35,2.32.77,3.46C47.17,75.41,45.3,73.86,43.43,73.4Z"/><path class="cls-38" d="M61.17,49.22c0-.79.06-1.4.9-.72a13.12,13.12,0,0,0,1.88.42l1.36,1.3q.33.42.69.84c-1.25-.53-.55,1.1-.4,1.67-.54,1.36,1.84,1.42.79,2.51-.49-1.08-2-.65-2.52-1.73A30,30,0,0,1,61.17,49.22Z"/><path class="cls-39" d="M48,70.44c-.12-.66-.31-1.31-.4-2,1,.13,2.06.73,3.09.32,3.34,1.08,4.76,4.72,7.56,6.6,1.21.52.13,1.12-.52,1.56a7.47,7.47,0,0,1-2.5-1.34c-1.26-1.23-3-1.87-4.47-2.74-1.08,0-2.43.18-2.52-1.27Z"/><path class="cls-40" d="M62.07,48.5,63,48c.33.32.67.63,1,1A13.12,13.12,0,0,1,62.07,48.5Z"/><path class="cls-41" d="M57.32,63.05c-.61,1-1.43.36-1.5-.56l1,.55c-1.16-2.57,2.14.29,3.4-.73a9.45,9.45,0,0,0,2.58,4.85,1.6,1.6,0,0,0,1.08,2.48c-.9-.14-1.47.17-1.33,1.15.19,1.33,0,2.92-1.27,1.18.07-2-2.49-3.44-1.42-5.44A10.24,10.24,0,0,0,57.32,63.05Z"/><path class="cls-42" d="M65.31,50.22c1.47.72.89-2.26,1.43-3.11.47.79,1.11,1.28,1.6.17-.7,1.54.84,5.8-2,4.26L66,51.06Q65.64,50.64,65.31,50.22Z"/><path class="cls-43" d="M68.34,47.28c.4-1,.82-2,1.27-3l.44-.86c.37-.29.77-.57,1.17-.83,1.69-1.14,3.51-2.1,5.13-3.35.06,1.76,1.71,2.48,2.76,3.57-.89,1.94-3.09.09-4.63.78a3.18,3.18,0,0,0-2.15,2.27c-1.3,2.42-1.56,5.09-1.94,7.74a2.9,2.9,0,0,1-1.82,1.26l-.17-.29c-.56-1.07-1.51-1.9-2-3C69.18,53.08,67.64,48.82,68.34,47.28Z"/><path class="cls-44" d="M65.6,52.73c-.15-.57-.85-2.2.4-1.67l.38.48c.51,1.11,1.46,1.94,2,3-.61.21-.25,1.25-.48,1.79-.77.14-1.15-.58-1.53-1.1C67.44,54.15,65.06,54.09,65.6,52.73Z"/><path class="cls-45" d="M50.31,76.23c-1.09-2.19,4.24-.46,3,.68C52.44,77.26,51.38,76.09,50.31,76.23Z"/><path class="cls-46" d="M63.26,61.4c-1.07-.6-.55-1.94-1.44-2.75.79-.29,1.13.3,1.7-.08,1.39,1,1.08,2.49.66,3.91.54.25,1.26,1.27,1.8.65.34.89,1.32.35,2,.46-1.85.33-1.35,2.75-2.78,3.54a2.37,2.37,0,0,0-.84-1.42c.15-1.23-.81-4.52-1.49-1.87C61.75,62.84,64.33,62.22,63.26,61.4Z"/><path class="cls-47" d="M63.52,58.57c-1.31-1.73,1.51-2.36,2.61-3.13.34.52.72,1,1.08,1.5-1.65-1.51-1,.27-1.44,1.41C64.6,56.4,64.14,57.89,63.52,58.57Z"/><path class="cls-48" d="M72.33,45.84a3.18,3.18,0,0,1,2.15-2.27c1.54-.69,3.74,1.16,4.63-.78l.14.18c.26,1.84,2.27.87,2.92-.19a1.5,1.5,0,0,0,1.41-2.19c1.44-1.48,2.79-3.17,4.89-3.73,2.73-1,4.7-4.22,7.58-4.55.46.64,1.33.08,2,.14.15,1.08-1,1.16-1.67,1.59-.53,1.14-.78,3.32-2.45,2.65.8-1.72-1.78,0-2.24.52-.61,1-2.64,1.32-2.32,2.8-.25.49-.51,1-.75,1.46,2.4,1.07.86,2.22-.8,1.63-.86-.17-1.92.11-1.42-1.17-1.91.65-1.85,3.75-3.13,5.29-1.88-.81-1.9,2.46-3.7,2.33-.79,0-2.58.47-1.78,1.49-1.67-.67-.35,1.69,0,2.41C75,53.69,77.2,56.83,76,58.4c-1.73,1.75-1.6,4.43-3.13,6.35-.55-1.39-.08-3.34-1.4-4.33a12.15,12.15,0,0,0,1.43,6.73c-1.39.47-1.86,2.22-3.52,2-1.08,1.25,1,2.22.51,3.43-.84-2.35-3.06-.28-3.84-2.17-.42-1,.6-2.18-1-2.48a7.85,7.85,0,0,1,.15-.82c1.43-.79.93-3.21,2.78-3.54,2.08.41,2.55-2.12,2.89-3.7a15.68,15.68,0,0,0-.27-5.2c1.2-2.47.53-5.27,2.06-7.67.42-2,2.76-1.22,3.92-2.35C75.2,44,73.73,45.5,72.33,45.84Z"/><path class="cls-49" d="M63.52,58.57c.62-.68,1.08-2.17,2.25-.22.41-1.14-.21-2.92,1.44-1.41,1.38,1.15-2.41,2.89.69,3.13,1,0,1.27.91.13,1-1.44.15-.44,1.38.49,1.46-.85.15-1.93-.14-2.54.64-.54.62-1.26-.4-1.8-.65C64.6,61.06,64.91,59.52,63.52,58.57Z"/><path class="cls-50" d="M70.39,53.58c.38-2.65.64-5.32,1.94-7.74,1.4-.34,2.87-1.89,4.28-1.17-1.16,1.13-3.5.37-3.92,2.35-1.53,2.4-.86,5.2-2.06,7.67l-.43-.4Z"/><path class="cls-51" d="M66.13,55.44l.26-.2c.38.52.76,1.24,1.53,1.1.23-.54-.13-1.58.48-1.79l.17.29A9.9,9.9,0,0,0,69.8,56.5a8,8,0,0,1,.4-2.21l.43.4a15.68,15.68,0,0,1,.27,5.2c-.34,1.58-.81,4.11-2.89,3.7-.71-.11-1.69.43-2-.46.61-.78,1.69-.49,2.54-.64-.93-.08-1.93-1.31-.49-1.46,1.14-.05.86-.94-.13-1-3.1-.24.69-2-.69-3.13C66.85,56.44,66.47,56,66.13,55.44Z"/><path class="cls-52" d="M69.8,56.5a9.9,9.9,0,0,1-1.23-1.66,2.9,2.9,0,0,0,1.82-1.26l-.19.71A8,8,0,0,0,69.8,56.5Z"/><path class="cls-53" d="M55.37,76.47c0-.29-.08-.58-.12-.87a7.47,7.47,0,0,0,2.5,1.34c.65-.44,1.73-1,.52-1.56.52-.47.22-1.2.31-1.81a6.5,6.5,0,0,1,2.73,4.34c-.72-.59-1.49-1.19-2.15-1.81a19.19,19.19,0,0,1,1,2.14c-1.69-.44-2.79-.36-4.34-1.49Z"/><path class="cls-54" d="M55.86,76.75c1.55,1.13,2.65,1,4.34,1.49-.89,1.17.87,1.87,1,3a7.55,7.55,0,0,0,1.29,2.64C61,84.33,59.18,82.75,58,82,56.78,80.43,57.62,78,55.86,76.75Z"/><path class="cls-55" d="M65.4,72.69c-1.58-1.23-.46-3.1-.32-4.74,1.59.3.57,1.53,1,2.48C65.1,70.76,65.57,71.92,65.4,72.69Z"/><path class="cls-56" d="M77.76,53.45c-.34-.72-1.66-3.08,0-2.41,1,1.39.91,4.08,3,4.21a27,27,0,0,1,2.44-8c1.28-1.54,1.22-4.64,3.13-5.29-.5,1.28.56,1,1.42,1.17-3.72,3.89-4.18,9.7-5.23,14.77.29,1.22,1.18,2.38-.55,3.14-.45-.3-.89-.62-1.36-.9-.34.35-.38,1.43-1,.92a20.48,20.48,0,0,0,1.07-4.5C79.11,56.18,78.63,54.61,77.76,53.45Z"/><path class="cls-57" d="M72.92,67.15a12.15,12.15,0,0,1-1.43-6.73c1.32,1,.85,2.94,1.4,4.33.27,1.6,1.39,2.87,2.17,4.25.27.6,1,1.32.39,2C74.06,70.14,73.59,68.51,72.92,67.15Z"/><path class="cls-58" d="M76,58.4c1.18-1.57-1-4.71,1.74-4.95.87,1.16,1.35,2.73,2.94,3.08A20.48,20.48,0,0,1,79.63,61c0,1-1.21,3.06.39,3-2.17.83-2.62,3.45-3.59,5.34L75.06,69c-.78-1.38-1.9-2.65-2.17-4.25C74.42,62.83,74.29,60.15,76,58.4Z"/><path class="cls-59" d="M61.17,81.23c-.1-1.12-1.86-1.82-1-3a5.45,5.45,0,0,0,2.13,2.13c.54.23,1.29,1.55.15,1A23.28,23.28,0,0,1,64,85a8.3,8.3,0,0,0-1.57-1.12A7.55,7.55,0,0,1,61.17,81.23Z"/><path class="cls-60" d="M65.4,72.69c.17-.77-.3-1.93.67-2.26.78,1.89,3-.18,3.84,2.17.54-1.21-1.59-2.18-.51-3.43,1.66.2,2.13-1.55,3.52-2,.67,1.36,1.14,3,2.53,3.8.61-.63-.12-1.35-.39-2l1.37.34c2.34-.32.42,3.86-.15,1.2-1,.08-1,2.59-1.89,3.53-1.3-.64-4.34-1.24-4,1.06a16.2,16.2,0,0,0-2.68.4l-.85-.38C65.84,74.61,65.15,73.84,65.4,72.69Z"/><path class="cls-61" d="M64.14,74.77c.22-1.91,1.73.56,2.76.38l.85.38c.38.61.67,1.27,1,1.88.16,1.36-1,1.4-1.76,0C66.12,76.21,64.09,76.58,64.14,74.77Z"/><path class="cls-62" d="M82.57,57.87C83.62,52.8,84.08,47,87.8,43.1c1.66.59,3.2-.56.8-1.63,1.91-3.45,1.1,1.11,2.89.44.44.6,1.13,1.84.15,2.27-2.41,1-4.22,4-3.22,6.54-1.75,2.54-3.56,5-5.22,7.62A1.13,1.13,0,0,1,82.57,57.87Z"/><path class="cls-63" d="M67.92,85.6a16.06,16.06,0,0,1-2.59-8.4,2.08,2.08,0,0,1,1.51.61c-.6,1.16,1.22,1.86.67,3a1.68,1.68,0,0,0,1.3,2.46l.12.42C68.85,84.64,68.76,87.88,67.92,85.6Z"/><path class="cls-64" d="M67.75,75.53a16.2,16.2,0,0,1,2.68-.4c-.38-2.3,2.66-1.7,4-1.06.92-.94.9-3.45,1.89-3.53.57,2.66,2.49-1.52.15-1.2,1-1.89,1.42-4.51,3.59-5.34-.76,1.64-2.13,3.28-1.9,5.2.4-.21.8-.44,1.2-.67a14.51,14.51,0,0,0,3.18-2c-2.42,3.73-7.68,5.78-8.26,10.59-.62,1-.81,1.81-2.26,1.14.66-.83,2.38-2,.75-2.73-.82.73-2.24,1.56-1.25,2.76.61.73-.22.88-.8,1.07-.61-.66-.87-1.78-1.89-1.93C68.42,76.8,68.13,76.14,67.75,75.53Z"/><path class="cls-65" d="M67.51,80.78c.55-1.11-1.27-1.81-.67-3,.44.32.88.66,1.31,1,.26.64.59,1.29,1.39,1.24.1.41.22.81.33,1.22l-1.06,2A1.68,1.68,0,0,1,67.51,80.78Z"/><path class="cls-66" d="M80,64c-1.6.09-.37-2-.39-3,.65.51.69-.57,1-.92.47.28.91.6,1.36.9A23.25,23.25,0,0,1,80,64Z"/><path class="cls-67" d="M82,61c1.73-.76.84-1.92.55-3.14a1.13,1.13,0,0,0,.63.47c1.9-.08,2.85-2.67,4.29-3.88.86-1.45,1.91-1.48,1-.09-3.44,4.48-7,8.87-9.16,14.16-.4.23-.8.46-1.2.67-.23-1.92,1.14-3.56,1.9-5.2A23.25,23.25,0,0,0,82,61Z"/><path class="cls-68" d="M69.54,80.05c-.8,0-1.13-.6-1.39-1.24C69.25,78.25,69.5,79.1,69.54,80.05Z"/><path class="cls-69" d="M83.2,58.34c1.66-2.59,3.47-5.08,5.22-7.62,2.38-2,4-5,6.43-6.73,1.13,1.3,0-1.92,1.18-1.82,0,1.09.21,1.74,1.1.66l.15.29c-.17.45-.33.89-.48,1.34-.69.66-3.91,2.1-2,2.64l-1,.86c.52-.55.12-1-.38-.4a31.17,31.17,0,0,0-5.9,6.9C86.05,55.67,85.1,58.26,83.2,58.34Z"/><path class="cls-70" d="M71.48,78.27c-1-1.2.43-2,1.25-2.76,1.63.68-.09,1.9-.75,2.73,1.45.67,1.64-.17,2.26-1.14,1.33.17,1.93-1.61,2.68-2.45a9.92,9.92,0,0,1,.14,1.88,3.22,3.22,0,0,1-2.36,2.41c-1.18.16-.68,1.59-1.24,2.32-1.1-.51.21-1.91-.68-2.55-1.75,1.36,1.21,2.91,0,4.35-1.23.22-1-.92-.85-1.71-.9.9-2.35,1.09-2.95,2.31l-.12-.42,1.06-2c1.34-.14,1.87-.9.81-1.93C71.26,79.15,72.09,79,71.48,78.27Z"/><path class="cls-71" d="M79.32,68.53c2.11-5.29,5.72-9.68,9.16-14.16,1.12-1,1.63-2.45,2.65-3.52,1.2,0,1,.94.34,1.61a11.8,11.8,0,0,0-.64,6.81,45.85,45.85,0,0,0-6.07,5.4c-.74.64-1.52,1.21-2.26,1.84A14.51,14.51,0,0,1,79.32,68.53Z"/><path class="cls-72" d="M65.74,88.67c-.52.08-.83-.81-.34-1A1,1,0,0,1,65.74,88.67Z"/><path class="cls-73" d="M74.24,77.1c.58-4.81,5.84-6.86,8.26-10.59.74-.63,1.52-1.2,2.26-1.84,2.72-1.43,5.06-3.5,7.85-4.81-.06.2-.18.6-.23.8-2.25,1.16-4,3-6.08,4.49a13.25,13.25,0,0,0-2.93,2.56,28.24,28.24,0,0,0-2,2.07,20.62,20.62,0,0,1-3.27,3.81,4.17,4.17,0,0,0-1.15,1.06C76.17,75.49,75.57,77.27,74.24,77.1Z"/><path class="cls-74" d="M67.66,87.2c-.13-.52-.42-1.36.26-1.6.84,2.28.93-1,1-1.94.6-1.22,2-1.41,2.95-2.31-.14.79-.38,1.93.85,1.71-.42,1.11-.91,2.2-1.24,3.34.22.61.33,1.42,1,1.68,1.29.3.43,2.61,2,2.41.14-.5-.08-1.54.76-1.33,1.55.45,1.37-1.9,2.77-2a22.47,22.47,0,0,1-6.6,7.18,8,8,0,0,0-2.07,0,2.22,2.22,0,0,0-1.24.84c-.19-.45-.41-.89-.63-1.33a.69.69,0,0,1,.09-.91c.3.48,1.18,1.13,1.39.23A16.5,16.5,0,0,0,67.66,87.2Zm2.22,2.71a2.22,2.22,0,0,0-.2,1.63c.67-1,2-.84,2.82-1.58-.36-1.16-.86-.65-1.33.16C70.69,89.53,70.11,88.66,69.88,89.91Z"/><path class="cls-75" d="M72.73,83.06c1.26-1.44-1.7-3,0-4.35.89.64-.42,2,.68,2.55.56-.73.06-2.16,1.24-2.32a3.22,3.22,0,0,0,2.36-2.41l.37.06a7,7,0,0,0,2.42,1.12c-.37,1.38-.78,2.75-1,4.15a6.12,6.12,0,0,0-2.06,2.08,14.24,14.24,0,0,0-.18,1.48c-.43-1-2.76-2.1-2.43-.29.37,1.55-1.69,1.28-2.66,1.27C71.82,85.26,72.31,84.17,72.73,83.06Z"/><path class="cls-76" d="M76.92,74.65a4.17,4.17,0,0,1,1.15-1.06c1.61,1.74,3.87,2.91,6.25,2-1.33,2.74-4.53.29-6.89,1l-.37-.06A9.92,9.92,0,0,0,76.92,74.65Z"/><path class="cls-77" d="M78.07,73.59a20.62,20.62,0,0,0,3.27-3.81c.43,2,3.84,5,4.91,2.15.87-1.16,2.49-1.55,3.42-2.73.46,1-.14,2.13.27,3.16-1.49,1.77-4,1.61-5.62,3.23C81.94,76.5,79.68,75.33,78.07,73.59Z"/><path class="cls-78" d="M54.75,111.43c-.43-5.52,4.13-10.37,8.91-12.52-1.48,2.21-3.76,3.7-5.91,5.19a17.16,17.16,0,0,1-2.27,4.7A3.73,3.73,0,0,1,54.75,111.43Z"/><path class="cls-79" d="M84.76,64.67a45.85,45.85,0,0,1,6.07-5.4c.5.95,1.31.39,2,.07-.07.13-.2.39-.26.52C89.82,61.17,87.48,63.24,84.76,64.67Z"/><path class="cls-80" d="M86.25,71.93c-1.07,2.86-4.48-.17-4.91-2.15a28.24,28.24,0,0,1,2-2.07,6.33,6.33,0,0,0,2.93-2.56c2-1.46,3.83-3.33,6.08-4.49,1.09-.94,2.26-.5,1.22.87-.17.39-.35.77-.51,1.15-1.41.76-1.67,2.18-3.25,2.69s-.73,2.66-.17,3.83C88.74,70.38,87.12,70.77,86.25,71.93Z"/><path class="cls-81" d="M55.48,108.8a17.16,17.16,0,0,0,2.27-4.7c2.15-1.49,4.43-3,5.91-5.19.88-.65,2.09-1.79,3.14-1.76l.2.23c1.12.76,2.81-1.56,4.41-.77.22,1.21-1.27.79-1.64,1.59.23,1-3.1,2.76-1.12,3.22,2.48.19,1.32,3.25,2.35,4.84,1-2.75,2.1,1.77,3.61.81.78-.56-.38-1-.69-1.42.64-.07,1.69.85,2,0,.45-1.5-2-1.56-.91-2.92,0-2.19,2.27-1.86,3-3.42,2.46,1.58,5.67,2.14,7.39,4.72-.46.52-2.11.68-1.63,1.58,1.45.55-.29,2,.13,3.14a3.34,3.34,0,0,0-2.2.84c.54.52,1.15,1,1.73,1.44-.05.85-.83,1.57-.71,2.5a2.33,2.33,0,0,0,3.57.11c0,1.49,0,3-.08,4.47a28,28,0,0,0-2.32,1.59c-.94.57-2.5.56-2.16,2.06a4.54,4.54,0,0,1-4.29-1.41c-.42-1-.55-2.33-1.86-2.55,1.3-.87,2.76-1.83,3.19-3.41.16-1.07-1.28-.8-1.92-1.2a6.54,6.54,0,0,0,1.54-1.07c-.78-.12-1.84.57-2.33-.29-1.23-1,1.28-3-.5-3.62-1.13.54-2.47,1.19-2.25,2.65-.38,2-2-1.35-2.86.41,2.15,1.27-.09,3.17-1.65,3.69.9,1.93-2.08,1.58-2.83.74a1.52,1.52,0,0,1,.49-2.33c-1.23-.16-2.48.2-3.67-.26-1.16.58-.75,1.65-.55,2.53,1.29.8,3,.79,4.18,1.92-.76,2.74-4.34,1.07-4.39-1.11-1.82,1.23-1.1-2.25-1.76-3.36a2,2,0,0,1,.39-.79c.94,1.47,1.31-.84,2.87.22,0-1.8-1-3.48-.32-5.34-1.84.48-1-.16.17-.81a2.59,2.59,0,0,1,1.53.15c1.09.6,1.73-1.16,2.91-.82,0-1.47-1.44-2.85-2.46-1.18-.61-.8-1.82-.81-2.16-1.82-1.26.65-3.53,1.7-2.09,3.32a9.13,9.13,0,0,1-.42,3c-.57-.65-1.39-2.38-1.77.34-.69,1.52-2.72,4.64-4.14,2.38,0-.08,0-.24,0-.32A3.73,3.73,0,0,0,55.48,108.8ZM77.9,117c-1,2.39,4.58.86,2.19-.3C79.36,117.62,78.15,116,77.9,117Z"/><path class="cls-82" d="M83.37,67.71a13.25,13.25,0,0,1,2.93-2.56A6.33,6.33,0,0,1,83.37,67.71Z"/><path class="cls-83" d="M79.85,77.71a7,7,0,0,1-2.42-1.12c2.36-.71,5.56,1.74,6.89-1,1.57-1.62,4.13-1.46,5.62-3.23,1.33-1.76,4.08-2.12,4.48-4.5-1.55-1.35-2.58-3.27-1.33-5.18.16-.38.34-.76.51-1.15,1.35-.21.14,1.83.89,2.53.56.52-.17.93-.45,1.36.36.67,1,1.19.52,2A5.4,5.4,0,0,0,97.2,68c1.17-1.56,1-3.55,2.2-5a3.11,3.11,0,0,0,.38-4.81c-.35-.62-1.21-1.47-.71-2.19,1.56,2.22,3.82,5.47,1,7.61-.64,3.47-2,7.4-5.9,8.47s-5.85,5.46-9.69,5.8c-1.1,2.38-3.53,2.87-5.61,4C79.07,80.46,79.48,79.09,79.85,77.71Z"/><path class="cls-84" d="M72.51,88.08c-.69-.26-.8-1.07-1-1.68,1,0,3,.28,2.66-1.27-.33-1.81,2-.73,2.43.29a14.24,14.24,0,0,1,.18-1.48c.51.92,2.09,2.2,1.28,3.2-1.4.12-1.22,2.47-2.77,2-.84-.21-.62.83-.76,1.33C72.94,90.69,73.8,88.38,72.51,88.08Z"/><path class="cls-85" d="M69.88,89.91c.23-1.25.81-.38,1.29.21.47-.81,1-1.32,1.33-.16-.77.74-2.15.56-2.82,1.58A2.22,2.22,0,0,1,69.88,89.91Z"/><path class="cls-86" d="M59.21,125a12.8,12.8,0,0,1-4.43-13.2c1.42,2.26,3.45-.86,4.14-2.38.38-2.72,1.2-1,1.77-.34a9.09,9.09,0,0,0,0,3.29,2,2,0,0,0-.39.79c-.43,1.53.82,3.58-1.1,4.5-.7.8-1.37-.73-2.24-.26-1,.77-.2,2.47.6,3.11l.53.3c.22,2.63,2.19,3.78,3.88,5.36C60.87,126.58,60.09,125.37,59.21,125Z"/><path class="cls-87" d="M66.8,97.15c.16-1.09.44-2.23.7-3.31.22.44.44.88.63,1.33l.09.23c-.7.48-.71,1.37-1.22,2Z"/><path class="cls-88" d="M61.11,106c-1.44-1.62.83-2.67,2.09-3.32.34,1,1.55,1,2.16,1.82,1-1.67,2.5-.29,2.46,1.18-1.18-.34-1.82,1.42-2.91.82a2.59,2.59,0,0,0-1.53-.15A3.18,3.18,0,0,0,61.11,106Z"/><path class="cls-89" d="M92.61,59.86c.06-.13.19-.39.26-.52.46-.2.92-.39,1.39-.61,1.56.52,3.29,2.84.73,3.32-.32,1.9,1.19.82,2.19.35a3.48,3.48,0,0,1,.56-2.28c2.1,1.08-.12-2.47,2-1.94A3.11,3.11,0,0,1,99.4,63c-1.19,1.45-1,3.44-2.2,5a5.4,5.4,0,0,1-2.64-.57c.48-.81-.16-1.33-.52-2,.28-.43,1-.84.45-1.36-.75-.7.46-2.74-.89-2.53,1-1.37-.13-1.81-1.22-.87C92.43,60.46,92.55,60.06,92.61,59.86Z"/><path class="cls-90" d="M67,97.38c.51-.61.52-1.5,1.22-2,.55,0,1.1.07,1.65.15,1.1.89,1.7-.16,2.47-.25,2.24,2.57,6.28,2.61,9.1,4.48a2.87,2.87,0,0,0,1.39.77,19.48,19.48,0,0,1,7.41,6.81c-2.16-.33-3-2.45-4.84-3.31-1.72-2.58-4.93-3.14-7.39-4.72-1-.18-2.59-1.77-3.32-.68a6.82,6.82,0,0,0-3.28-2C69.81,95.82,68.12,98.14,67,97.38Z"/><path class="cls-91" d="M68.13,95.17a2.22,2.22,0,0,1,1.24-.84c.18.4.35.81.5,1.22-.55-.08-1.1-.12-1.65-.15Z"/><path class="cls-92" d="M89.67,69.2c-.56-1.17-1.55-3.18.17-3.83s1.84-1.93,3.25-2.69c-1.25,1.91-.22,3.83,1.33,5.18-.4,2.38-3.15,2.74-4.48,4.5C89.53,71.33,90.13,70.17,89.67,69.2Z"/><path class="cls-93" d="M60.69,109a9.13,9.13,0,0,0,.42-3,3.18,3.18,0,0,1,2.27.35c-1.21.65-2,1.29-.17.81-.68,1.86.32,3.54.32,5.34-1.56-1.06-1.93,1.25-2.87-.22A9.09,9.09,0,0,1,60.69,109Z"/><path class="cls-94" d="M69.37,94.33a8,8,0,0,1,2.07,0c.2.3,1.4.64.9,1-.77.09-1.37,1.14-2.47.25C69.72,95.14,69.55,94.73,69.37,94.33Z"/><path class="cls-95" d="M57.53,120.46c-.8-.64-1.64-2.34-.6-3.11.87-.47,1.54,1.06,2.24.26,1.92-.92.67-3,1.1-4.5.66,1.11-.06,4.59,1.76,3.36,0,2.18,3.63,3.85,4.39,1.11-1.15-1.13-2.89-1.12-4.18-1.92-.2-.88-.61-2,.55-2.53,1.19.46,2.44.1,3.67.26a1.52,1.52,0,0,0-.49,2.33c.75.84,3.73,1.19,2.83-.74,1.56-.52,3.8-2.42,1.65-3.69.84-1.76,2.48,1.57,2.86-.41-.22-1.46,1.12-2.11,2.25-2.65,1.78.6-.73,2.61.5,3.62.49.86,1.55.17,2.33.29a6.54,6.54,0,0,1-1.54,1.07c.64.4,2.08.13,1.92,1.2-.43,1.58-1.89,2.54-3.19,3.41,1.31.22,1.44,1.53,1.86,2.55a4.54,4.54,0,0,0,4.29,1.41c0,1.4-1.83.56-2.22,1.61-1,.2-.77-1.4-1.77-1.07-.7.19-2-.59-2.07.5-1,.66-2.31.17-3.38.73A11.06,11.06,0,0,0,71,123.3c-2.32.36.16-2-1.44-2.78-1.07-.14-3.09-.36-4.37.93-1.72-1.64-4.48-3.65-6.64-1.54C58.17,118.44,57.82,119.51,57.53,120.46Z"/><path class="cls-96" d="M57.53,120.46c.29-.95.64-2,1.06-.55,2.16-2.11,4.92-.1,6.64,1.54,1.28-1.29,3.3-1.07,4.37-.93,1.6.76-.88,3.14,1.44,2.78-1.09,1.32-3.23.93-4.12,2.47-1.18,1.28-3.55.34-4.44,1.88-.72-1-3.33-1.54-3.27-2.7.88.42,1.66,1.63,2.73,1.17,1.43.07,1.47-1.28.92-2.29-2.44.79-2.87-2.75-4.8-3.07Z"/><path class="cls-97" d="M58.06,120.76c1.93.32,2.36,3.86,4.8,3.07.55,1,.51,2.36-.92,2.29C60.25,124.54,58.28,123.39,58.06,120.76Z"/><path class="cls-98" d="M81.44,99.78c.42-.49,1.27.28,1.39.77A2.87,2.87,0,0,1,81.44,99.78Z"/><path class="cls-99" d="M62.48,127.65c.89-1.54,3.26-.6,4.44-1.88.89-1.54,3-1.15,4.12-2.47a11.06,11.06,0,0,1,1.25.25l-.86.69c-1-.77-.79,1.15-1.68,1.22s-2.14.41-2.19,1.61a17.63,17.63,0,0,0-3,1.51A4.79,4.79,0,0,1,62.48,127.65Z"/><path class="cls-100" d="M64.59,128.58a17.63,17.63,0,0,1,3-1.51c0-1.2,1.23-1.43,2.19-1.61s.68-2,1.68-1.22c1.77,1.13,3.56-.79,5.41-.35,1.2,0,1.94,1.09,3,1.53.24.79-.89,1.18-.81,2,.5,2.35-.22,4.69.14,7.09-1.23-.13-3.05-3.85-3.53-1.33C72.37,130.65,68.21,130.32,64.59,128.58Z"/><path class="cls-101" d="M83.77,105.63c-.48-.9,1.17-1.06,1.63-1.58,1.79.86,2.68,3,4.84,3.31A15.67,15.67,0,0,1,91.36,115c-1.18-.09-.12-1.6-1-1.93s-.22-1.55-1.2-1.81c-1.1.47-1.05,1.48-.75,2.46-.3,1.85-1.24-1.25-2.08-.07a2.33,2.33,0,0,1-3.57-.11c-.12-.93.66-1.65.71-2.5-.58-.48-1.19-.92-1.73-1.44a3.34,3.34,0,0,1,2.2-.84C83.48,107.62,85.22,106.18,83.77,105.63Z"/><path class="cls-102" d="M71.43,124.24l.86-.69c1.07-.56,2.42-.07,3.38-.73,1.53.25,2.91,1.22,4.48,1.18a2.41,2.41,0,0,0,2.5.45c.84.58.15,2.44,1.51,2.31A40.62,40.62,0,0,0,81,130c-1.71.34-1.17,2.62-1.19,3.93,0,.65.07,1.19.84,1a10.87,10.87,0,0,1,0,3.9c-.41-1-.45-2.09-.93-3a16.07,16.07,0,0,1-1.52.83c-.88-1.1-1.54-2.37-2.52-3.4.48-2.52,2.3,1.2,3.53,1.33-.36-2.4.36-4.74-.14-7.09-.08-.81,1-1.2.81-2-1-.44-1.78-1.51-3-1.53C75,123.45,73.2,125.37,71.43,124.24Z"/><path class="cls-103" d="M77.9,117c.25-1,1.46.66,2.19-.3C82.48,117.82,76.86,119.35,77.9,117Z"/><path class="cls-104" d="M75.67,122.82c0-1.09,1.37-.31,2.07-.5,1-.33.8,1.27,1.77,1.07.39-1,2.18-.21,2.22-1.61-.34-1.5,1.22-1.49,2.16-2.06.93,1.23.94-.87,1.77-.11,1.81,1.65,3.42-1.64,3.22-3.11-.78-.47.93-2.67,1.3-1.46.79.48-.28,1.59.76,1.68-.51,3.24-2.87,6.66-5.58,8.88-2.54-1,.3-2.47,1.35-3.59a11.78,11.78,0,0,0-3-.62c-1.39.54-2.26,1.9-3.56,2.61C78.58,124,77.2,123.07,75.67,122.82Z"/><path class="cls-105" d="M86.29,113.66c.84-1.18,1.78,1.92,2.08.07-.3-1-.35-2,.75-2.46,1,.26.29,1.53,1.2,1.81s-.14,1.84,1,1.93c.36.36-.35,1.19-.42,1.71-1-.09,0-1.2-.76-1.68-.37-1.21-2.08,1-1.3,1.46.2,1.47-1.41,4.76-3.22,3.11-.83-.76-.84,1.34-1.77.11a28,28,0,0,1,2.32-1.59C86.32,116.65,86.31,115.15,86.29,113.66Z"/><path class="cls-106" d="M80.15,124c1.3-.71,2.17-2.07,3.56-2.61a11.78,11.78,0,0,1,3,.62c-1,1.12-3.89,2.58-1.35,3.59-.37.41-.79.78-1.2,1.16-1.36.13-.67-1.73-1.51-2.31A2.41,2.41,0,0,1,80.15,124Z"/><path class="cls-107" d="M79.77,133.92c0-1.31-.52-3.59,1.19-3.93a18.29,18.29,0,0,0-.35,4.9C79.84,135.11,79.73,134.57,79.77,133.92Z"/><path class="cls-108" d="M78.14,136.57a16.07,16.07,0,0,0,1.52-.83c.48,1,.52,2.07.93,3,.86,4.86,5.3,9.09,4.06,14.22.56,5-2.41,10.07,0,14.89,1.52,3.95,6.75,6,7.28,10.4-4.68-4.87-10.8-10.34-9.34-17.86,1.81-3.08.71-6.56.86-9.86a17.87,17.87,0,0,0-2.42-6.21C79.55,142,79.87,138.76,78.14,136.57Z"/><path class="cls-1" d="M175.88,30c-1.64-1.15-1.43-4-1.73-5.95-.45-.15-1.6.14-1.34-.64.39-1.27-1.69-1.16-2.53-1.09-1.25,2.22-3.19,3.88-4.74,5.87,2-.34,1.08,1.47,2.68,1.85,1.33.2,2.67-1,3.87-1.41.59,1.54-3.05,1.58-.88,2.65a2.2,2.2,0,0,0,2.06,2.48c-.62.71-1.27,1.38-1.92,2,0,.17,0,.52.05.68l1.3,1.6.39-.59C172.4,34.74,174,31.93,175.88,30Z"/><path class="cls-2" d="M173.09,37.47c1.81-1.91,3.79-4.95,2.79-7.49C174,31.93,172.4,34.74,173.09,37.47Z"/><path class="cls-3" d="M170.28,22.3a14.52,14.52,0,0,0-3.74,3c-.92,1-1.91,3.1-3.14,2.67.61,1.7-1.11.94-2.19,1l-.22.22c2,1.72-.75,3.42-2.29,4.27a13.59,13.59,0,0,1-4.15,3.34c-.25,1.35-1.73,2.07-2.59,3.07-2.43-.81-2.67-3.63-3-5.86a16,16,0,0,1-.12-2.85c-.2-.28-.41-.55-.63-.82-.71,2.84.5,5.72-.09,8.54,0,.72,1.53,1.81.28,2.18a15,15,0,0,1,1.2,2.09c-.35.17-1,.14-.71.7l1.23.73c1.22-2.31,3.74-3.1,4.86-5.42.21-.43.7-.39,1.1-.44,2.86-3.71,6.26-7.13,9.49-10.59C167.09,26.18,169,24.52,170.28,22.3Z"/><path class="cls-4" d="M171.21,31.26c-2.17-1.07,1.47-1.11.88-2.65-1.2.42-2.54,1.61-3.87,1.41-1.6-.38-.69-2.19-2.68-1.85-3.23,3.46-6.63,6.88-9.49,10.59-.06.74.66,1.94-.51,2-1,.08.22,2.51-1.14,1.6,1.24-1.58-1.92-.17-1,.75s-1.51.23-.84,1.32a23.74,23.74,0,0,0,5.65-2.72c-.55-1.19.84-1.12,1.65-1.21,1.3.08-1.55-1.65,0-1.49.89.25,1.72.43,2-.67.7-1.41,2.16,1.08,2.93-.17.48-1.23,2.62-.16,2.25-1.84-.67-.39-3-.26-2.39,1.31-.82.41-1.4,0-1.63-.85,1.07-.5.66-1.2,1.73-1.77-1.55.1-3.64,1.07-4.89-.14,2.47-1,5.37-.74,7.62-2.32,1,.08.59,1.06,0,1.44,1.51,1.16.9-1,2.25-1.17a11.9,11.9,0,0,0,1.35,2.72l.19.25c.65-.66,1.3-1.33,1.92-2A2.2,2.2,0,0,1,171.21,31.26Z"/><path class="cls-5" d="M172.7,38.06l-1.3-1.6c1.16,2.55-4,3.3-1.59,5.51C170,40.19,171.8,39.44,172.7,38.06Z"/><path class="cls-6" d="M171.4,36.46c0-.16,0-.51-.05-.68l-.19-.25c-1.64-.15-1.13,2.16-2.82,2.34,2,1-.23,2.22-1.14,3.09.07-1.54-1-.31-1.85-.17.56.75,2.1,1.94,1,2.79-.27-1.11-1.63-1.36-1.82-2.5-.48,1.06-1.05,1.22-1.73.17-1.91.83.75,1.23.91,2.42.23,1.76-2.35-1.33-1.55.22,1.18,1.28-.77,0-1.49.09,0,.84,0,1.79-.83,2.22-.28.22-.56.43-.85.63-1,.71,0,1.62.08,2.52a9.24,9.24,0,0,1,2.92.13,13.32,13.32,0,0,1,2.84-4.74c2.57.73-1.19,2.13-1.17,3.65,1.8-2,7.06-3.1,6.18-6.42C167.38,39.76,172.56,39,171.4,36.46Z"/><path class="cls-7" d="M171.16,35.53a11.9,11.9,0,0,1-1.35-2.72c-1.35.2-.74,2.33-2.25,1.17-1-.16-1.82.67-2.72,1-1.07.57-.66,1.27-1.73,1.77.23.83.81,1.26,1.63.85-.59-1.57,1.72-1.7,2.39-1.31.37,1.68-1.77.61-2.25,1.84-.77,1.25-2.23-1.24-2.93.17-.29,1.1-1.12.92-2,.67-1.59-.16,1.26,1.57,0,1.49-.81.09-2.2,0-1.65,1.21a23.74,23.74,0,0,1-5.65,2.72c1.09.93,2.71-.08,3.85-.25.31,1.64,2.54.67,3.36,2,.87-.43.87-1.38.83-2.22.72-.08,2.67,1.19,1.49-.09-.8-1.55,1.78,1.54,1.55-.22-.16-1.19-2.82-1.59-.91-2.42.68,1,1.25.89,1.73-.17.19,1.14,1.55,1.39,1.82,2.5,1.13-.85-.41-2-1-2.79.84-.14,1.92-1.37,1.85.17.91-.87,3.1-2.11,1.14-3.09C170,37.69,169.52,35.38,171.16,35.53Z"/><path class="cls-8" d="M172.72,60.69c.78-1.12-.64-2-1.34-2.75-1.3-1.23-3.17-1-4.8-1.17-.75-.31-1.19-1.19-2.15-1.07a10.94,10.94,0,0,0-1.25,1.7c-.28.82-.75,1.81-1.81,1.49l-.22.18c.29.59,1.24.92,1,1.69-.28,1.73-2.17,1.77-3.51,2.33,1.06,1,0,1.83-1.23,2.1-.58.57-1.8,1.24-.94,2.12a16,16,0,0,0,2.08-.29,7.15,7.15,0,0,1,6.1-.49c.59-.14.6.38.62.82C167.32,64.68,170.63,63.33,172.72,60.69Z"/><path class="cls-9" d="M163.63,48.39c0-1.52,3.74-2.92,1.17-3.65A13.32,13.32,0,0,0,162,49.48a9.24,9.24,0,0,0-2.92-.13c.07.66.81.93,1.18,1.4l.51.47c.88-.58,1.72-1.23,2.65-1.75A9.43,9.43,0,0,0,163.63,48.39Z"/><path class="cls-10" d="M164.71,54.47c1.67-1.64-1-3.37-1.33-5-.93.52-1.77,1.17-2.65,1.75-.69,2.22-1.64,4.4-3.64,5.77.34.22.69.4,1,.59a17.21,17.21,0,0,1,4.15-1.11C162.93,55.44,163.73,51.82,164.71,54.47Z"/><path class="cls-11" d="M164.43,55.7c.35-.29.25-.82.28-1.23-1-2.65-1.78,1-2.43,2a17.21,17.21,0,0,0-4.15,1.11c-1.75,1.08-2.71,2.92-4.48,4,1.63.14,3.75-2.14,5.08-.34q-.63.35-1.26.66a3.08,3.08,0,0,0,3.54-.5c-.56-1.09-1.4-1.56.14-2.28l.22-.18c.58-.53,1.19-1,1.81-1.49A10.94,10.94,0,0,1,164.43,55.7Z"/><path class="cls-12" d="M151.63,26.37A4.1,4.1,0,0,1,149.15,25c-.1,1.35-2.8,2.74-2.94.85-2.14,2.12-.85,6.15-3.14,8.06a10.07,10.07,0,0,1-4.56.6c-1.36,3,3.39-.79,3.12,2.2a6,6,0,0,0,0,3c-.63,2.57,3.83,2,2.93,4.86-.3,2.75-2.32,6.8-5.65,5.11a31.11,31.11,0,0,1-3.43,3.74c-.66,1-2.11.27-2.8,1.24l.23.25c.94,1,3.6,2.08,2,3.55.49.48.93-.05,1.66.39,3.57-4.17,6.9-8.53,10.56-12.61-.37-1.16-1-2.72.09-3.67s-1.07-4.05.88-3.68c.59-2.82-.62-5.7.09-8.54C148.88,28.8,149.78,27,151.63,26.37Z"/><path class="cls-13" d="M159.81,46.2c-.82-1.37-3.05-.4-3.36-2-1.14.17-2.76,1.18-3.85.25.32,1.42-.57,1.38-.65,0-1.11-.12-1.52,2.16-1.82,3.29-2.66,2.31-.45-.56-1.8-1-2.91,3.6-6.3,6.92-8.2,11.22.15,1,1.42.19,2.08.2.5-1.56,2.14-1.11,3.4-1.3-.94-.87-1-2,.36-2.3.83-1.42,1.48-.23,1.7.84,2.24.59,3.26-1.4,3.32-3.31-1.19-1.3,1.6-.75,2.51-1,.48,2.61,2.77.55,1.69-.85,2.11,0,2.49-2.28,2.11-4a2.68,2.68,0,0,1,1.66.58C159.25,46.63,159.53,46.42,159.81,46.2Z"/><path class="cls-14" d="M155.54,40.74c1.17,0,.45-1.24.51-2-.4.05-.89,0-1.1.44-1.12,2.32-3.64,3.11-4.86,5.42a23,23,0,0,0-1.76,2.06c1.35.47-.86,3.34,1.8,1,.3-1.13.71-3.41,1.82-3.29.08,1.37,1,1.41.65,0-.67-1.09,1.7-.45.84-1.32s2.2-2.33,1-.75C155.76,43.25,154.52,40.82,155.54,40.74Z"/><path class="cls-15" d="M159,46.83a2.68,2.68,0,0,0-1.66-.58c.38,1.67,0,4-2.11,4,1.08,1.4-1.21,3.46-1.69.85-.91.23-3.7-.32-2.51,1-.06,1.91-1.08,3.9-3.32,3.31-.22-1.07-.87-2.26-1.7-.84-1.38.32-1.3,1.43-.36,2.3-1.26.19-2.9-.26-3.4,1.3,3.22-.4,6.34-1.29,9.53-1.86.95-.32,2.06-.54,2.54-1.52,1.58-.09,2.8-1.27,4.38-1.14-.58-1.59.31-2.23,1.56-2.83-.37-.47-1.11-.74-1.18-1.4C159,48.45,157.93,47.54,159,46.83Z"/><path class="cls-16" d="M157.09,57c2-1.37,2.95-3.55,3.64-5.77l-.51-.47c-1.25.6-2.14,1.24-1.56,2.83-1.58-.13-2.8,1.05-4.38,1.14-.48,1-1.59,1.2-2.54,1.52a1.58,1.58,0,0,1-.55,1.33C152.81,56.82,156.11,54.35,157.09,57Z"/><path class="cls-17" d="M161.37,58.89c1.06.32,1.53-.67,1.81-1.49C162.56,57.88,162,58.36,161.37,58.89Z"/><path class="cls-18" d="M165.24,67.35c0-.44,0-1-.62-.82a7.15,7.15,0,0,0-6.1.49c.3.79-.42,1.21-1,1.56-1-1.57-2.7,0-4,.42,1.11,2.27,4,.89,5.94,1,.54,1.62-1.54,1.31-2.56,1.44a2.48,2.48,0,0,0,1.46,1.6C161,71.78,163.8,70,165.24,67.35Z"/><path class="cls-19" d="M162.12,60.76c.27-.77-.68-1.1-1-1.69-1.54.72-.7,1.19-.14,2.28Z"/><path class="cls-20" d="M145.65,24.42c-2.51-.71-2.46-4-3.79-5.18-2.84.82-4.39-2.42-5.39-4.47-2.42,1.58-.78,6.12-4,7.26a52,52,0,0,1,1,5.51c0,.24.13.72.17,1,1.26-.36,2-4,3.53-2.07a4,4,0,0,1-3.41,2.73,97.62,97.62,0,0,1,.33,11,19.06,19.06,0,0,1,0,2c0,1.18-.16,2.36-.31,3.52,0,.34.05.67.06,1,.38.94-.72,3.77.85,3.32l1.57-1c.38-.26.77-.5,1.15-.75-.79-.82-1.65-1.57-2.4-2.44-1.3-3,1.25-5.84,1-8.92.11-.73.26-1.46.3-2.2a2.86,2.86,0,0,1,.51-2.85l.29-.54c1.11-3.33,5-3.4,7.35-5.22C143.46,24.91,144.6,24.42,145.65,24.42Z"/><path class="cls-21" d="M158.61,63.09c1.34-.56,3.23-.6,3.51-2.33l-1.11.59a3.08,3.08,0,0,1-3.54.5,1.43,1.43,0,0,0-1,1.14c1.08.35.2.75-.39,1.09-2,1.31-4.82,1-6.56,2.61l.27.47c.76-.06,2.66-1.91,2.37-.36a39.1,39.1,0,0,1,5.2-1.61C158.58,64.92,159.67,64,158.61,63.09Z"/><path class="cls-22" d="M158.13,57.58c-.35-.19-.7-.37-1-.59-1-2.64-4.28-.17-5.9.58A31.34,31.34,0,0,1,139.57,59c-.69,1.25-1.36,2.52-2.07,3.76,1.06,1.23,4.82-1,3.22,1.32l1.05-.36c2-1,4.09-2.76,6.55-2.25.38-.5,1.61-1.3,1.37-.1,1.32,0,2.65.44,4,.15C155.42,60.5,156.38,58.66,158.13,57.58Z"/><path class="cls-23" d="M158.73,61.19c-1.33-1.8-3.45.48-5.08.34-1.31.29-2.64-.13-4-.15a10.6,10.6,0,0,0-4.36,3.95c.95.57,1.83-1.5,3.25-1,1-.34,1.89-.85,2.9-1.09a6.41,6.41,0,0,1,2.05,0c1,0,2,.3,3-.21a1.43,1.43,0,0,1,1-1.14Q158.1,61.54,158.73,61.19Z"/><path class="cls-24" d="M148.37,41.1c1.25-.37-.29-1.46-.28-2.18-2-.37.19,2.72-.88,3.68s-.46,2.51-.09,3.67a29,29,0,0,0,1.74-2.38c-.34-.56.36-.53.71-.7A15,15,0,0,0,148.37,41.1Z"/><path class="cls-25" d="M148.33,46.68a23,23,0,0,1,1.76-2.06l-1.23-.73a29,29,0,0,1-1.74,2.38c-3.66,4.08-7,8.44-10.56,12.61-1,.63-.75,2-1.91,2.44-1.21.61,1.23,1.69-.09,2.47-.19-2.73-1.72.33-1.8,1.57a2.34,2.34,0,0,0-1.08,1.24,7.85,7.85,0,0,1,0,.84c-.16,1.63.61,3.68-1.17,4.6,0,1.18-.77,1.81-1.91,2.15,1,.36,2.91-1.8,2.78.13,2.35-.67-.64-5,2.3-3.63.32-.93-.18-1.35-1.09-1.37a1.59,1.59,0,0,0,1.5-2.24,9.4,9.4,0,0,0,3.41-4.31c.71-1.24,1.38-2.51,2.07-3.76a31.34,31.34,0,0,0,11.62-1.44,1.58,1.58,0,0,0,.55-1.33c-3.19.57-6.31,1.46-9.53,1.86-.66,0-1.93.8-2.08-.2C142,53.6,145.42,50.28,148.33,46.68Z"/><path class="cls-26" d="M156.1,64.08c.59-.34,1.47-.74.39-1.09-.92.51-2,.2-3,.21l.08.38A21.1,21.1,0,0,0,156.1,64.08Z"/><path class="cls-27" d="M157.5,68.58c.6-.35,1.32-.77,1-1.56a16,16,0,0,1-2.08.29c-.86-.88.36-1.55.94-2.12a39.1,39.1,0,0,0-5.2,1.61c-1.28.67-2.55,1.36-3.8,2.09.44,1.84,3.77.86,5.15.11C154.8,68.54,156.51,67,157.5,68.58Z"/><path class="cls-28" d="M156.91,71.46c1-.13,3.1.18,2.56-1.44-1.94-.13-4.83,1.25-5.94-1-1.38.75-4.71,1.73-5.15-.11a27,27,0,0,0-2.72,2c.94.58,2.08.18,3.11.24C151.49,71,154.2,71.41,156.91,71.46Z"/><path class="cls-27" d="M149.54,66.69c1.74-1.6,4.52-1.3,6.56-2.61a21.1,21.1,0,0,1-2.49-.5,3,3,0,0,1-2.13-.34c-1,.24-1.9.75-2.9,1.09-2.12,2-6.26,3.08-6.72,6.19,1.61-.22,1.26-3,3-2C146.55,68.83,147.9,67.13,149.54,66.69Z"/><path class="cls-29" d="M152.23,76.87a7.73,7.73,0,0,0,6.14-3.81,2.48,2.48,0,0,1-1.46-1.6c-2.71,0-5.42-.42-8.14-.38-.22.64-.52,1.24-.75,1.87.34.27.71.56.26.94.56.42,1.62.57,1,1.44,1.21-.5,1.83.79,2.69,1.36Z"/><path class="cls-30" d="M144.55,44.6c.9-2.87-3.56-2.29-2.93-4.86l-.48.92c1,1.48.65,3.6,2.3,4.62C144.37,45.12,143.12,43.62,144.55,44.6Z"/><path class="cls-31" d="M153.61,63.58l-.08-.38a6.41,6.41,0,0,0-2.05,0A3,3,0,0,0,153.61,63.58Z"/><path class="cls-32" d="M138.14,48.84l-.78-.67c-.79-.82-1.65-1.57-2.4-2.44-1.3-3,1.25-5.84,1-8.92a3.42,3.42,0,0,0,2.25-.2c-.28,1.42-3.22,3.5-1,4.57.68.72.75-.74,1.1-1.13,1.25,1-.55,2.41-.25,3.46.62,1.33,2.22-.08,2.92,1.1,1.6-1.22-2-1.07.15-2.34-1.14-.34-1.61-2.71,0-1.61,1,1.48.65,3.6,2.3,4.62.93-.16-.32-1.66,1.11-.68-.3,2.75-2.32,6.8-5.65,5.11C139.07,48.94,139.08,48.33,138.14,48.84Zm-1.44-5.05c-2.12-.17.37,4.65-.2,1.5.89-.13.65.71.67,1.29.54,1.49,3.65,1,3.42-.71C140.25,44.29,136.83,46,136.7,43.79Z"/><path class="cls-33" d="M152.18,66.8c.29-1.55-1.61.3-2.37.36a48.32,48.32,0,0,0-7.65,4.15c-.43.61-1.56-1.13-1.21,0-.14,1.14-1.93,2.67-2.76,1.2,1.52-1.27,3.34-2.43,4.05-4.38.28-1,1.82-1.28,1.52-2.45-.76.7-1.52,1.6-2.68,1.34-.34,1.27-1.66,2-1.58,3.37-1,.91-2.83.07-3.61,1.36-.89.8-.61,2.07-1,3.09-1.32-.71-.56-1.76-.13-2.76-1.52,1.49-1.46-.11-1-1.39-2.94-1.35,0,3-2.3,3.63-.28,1.78-2.21,1.05-3.31,2-1,1.3-2.14,1-1.74-.26-1,0-1.49,1-2.21,1.56-1.22.82-.84,1.66.46,2,.18-.37.37-.75.54-1.13.21-.93.6-1.72,1.59-1q.72-.39,1.47-.75a2.06,2.06,0,0,1,1.59-.33,16.14,16.14,0,0,1-4.06,7.8c.63.36.19,1.13,0,1.62a16.71,16.71,0,0,0-2.37,5.62c0,.93,1,.45,1.41,0a17.51,17.51,0,0,0,2.59-3.86,1,1,0,0,1,.51-1c.57-.81,1.31-1.51,1.82-2.35a23.41,23.41,0,0,1,2.19-3.31c-1.22.36-.25-.8.32-.93a5.43,5.43,0,0,0,2.48-1.71A18.93,18.93,0,0,1,136,76.52c-.76.49-1.63,1-2.45,1.39a6.52,6.52,0,0,1,3.48-3.77c0,.61-.46,1.28,0,1.83,3.1-1.35,5.15-4.67,8.62-5.13a27,27,0,0,1,2.72-2C149.63,68.16,150.9,67.47,152.18,66.8Z"/><path class="cls-34" d="M149.69,61.38c.24-1.2-1-.4-1.37.1-2.46-.51-4.5,1.21-6.55,2.25-.23.9-1.15,1.37-1.57.29a10.09,10.09,0,0,0-3.1,3c.69,2.16-2.08,3.1-2.38,5.09-.43,1-1.19,2,.13,2.76.43-1,.15-2.29,1-3.09.78-1.29,2.57-.45,3.61-1.36-.08-1.4,1.24-2.1,1.58-3.37,1.16.26,1.92-.64,2.68-1.34.3,1.17-1.24,1.45-1.52,2.45-.71,2-2.53,3.11-4.05,4.38.83,1.47,2.62-.06,2.76-1.2-.35-1.13.78.61,1.21,0a48.32,48.32,0,0,1,7.65-4.15l-.27-.47c-1.64.44-3,2.14-4.72,1.85-1.7-1-1.35,1.76-3,2,.46-3.11,4.6-4.2,6.72-6.19-1.42-.5-2.3,1.57-3.25,1A10.6,10.6,0,0,1,149.69,61.38Z"/><path class="cls-35" d="M140.59,45.87c-.34-1.58-3.76.15-3.89-2.08-2.12-.17.37,4.65-.2,1.5.89-.13.65.71.67,1.29C137.71,48.07,140.82,47.61,140.59,45.87Z"/><path class="cls-36" d="M152.23,76.87l-.23-.18c-1.92.12-4,1.3-5.81.62.62-1,1.72-1.88,1.38-3.26-.35,1.4-1.63.94-2.7.78-1.64.6-3.43.91-4.9,1.9q-.12.42-.27.84a19.77,19.77,0,0,1,1.89.79c-1-1.34,4.6-2.08,3.13-.12C147.25,77.89,150.05,78.57,152.23,76.87Z"/><path class="cls-37" d="M152,76.69c-.86-.57-1.48-1.86-2.69-1.36.59-.87-.47-1-1-1.44.45-.38.08-.67-.26-.94l-.45,1.1c.34,1.38-.76,2.21-1.38,3.26C148,78,150.08,76.81,152,76.69Z"/><path class="cls-38" d="M138.9,49.71c.17-.77.18-1.38-.76-.87a13.72,13.72,0,0,1-1.93.08l-1.57,1c-.27.24-.54.47-.83.7,1.32-.29.35,1.19.1,1.72.28,1.44-2.07,1.07-1.24,2.32.69-1,2.14-.26,2.8-1.24A31.11,31.11,0,0,0,138.9,49.71Z"/><path class="cls-39" d="M148,73c.23-.63.53-1.23.75-1.87-1-.06-2.17.34-3.11-.24-3.47.46-5.52,3.78-8.62,5.13-1.28.29-.32,1.08.23,1.63a7.57,7.57,0,0,0,2.7-.87c1.47-1,3.26-1.3,4.9-1.9,1.07.16,2.35.62,2.7-.78Z"/><path class="cls-40" d="M138.14,48.84l-.78-.67c-.38.25-.77.49-1.15.75A13.72,13.72,0,0,0,138.14,48.84Z"/><path class="cls-41" d="M140.2,64c.42,1.08,1.34.61,1.57-.29l-1.05.36c1.6-2.31-2.16-.09-3.22-1.32a9.4,9.4,0,0,1-3.41,4.31,1.59,1.59,0,0,1-1.5,2.24c.91,0,1.41.44,1.09,1.37-.42,1.28-.48,2.88,1,1.39.3-2,3.07-2.93,2.38-5.09A10.09,10.09,0,0,1,140.2,64Z"/><path class="cls-42" d="M134.64,50c-1.57.45-.47-2.38-.85-3.32-.61.7-1.32,1.07-1.6-.11.41,1.64-1.87,5.55,1.16,4.54l.46-.41C134.1,50.42,134.37,50.19,134.64,50Z"/><path class="cls-43" d="M132.19,46.52c-.21-1.06-.45-2.13-.7-3.2-.07-.23-.22-.69-.29-.93-.31-.35-.65-.69-1-1-1.45-1.43-3.08-2.7-4.44-4.23-.38,1.73-2.13,2.14-3.36,3,.52,2.07,3,.64,4.42,1.6a3.15,3.15,0,0,1,1.7,2.62c.85,2.6.63,5.29.52,8a2.89,2.89,0,0,0,1.57,1.56l.21-.25c.75-.95,1.83-1.6,2.53-2.6C130.32,52.07,132.6,48.16,132.19,46.52Z"/><path class="cls-44" d="M133.91,52.37c.25-.53,1.22-2-.1-1.72l-.46.41c-.7,1-1.78,1.65-2.53,2.6.57.31,0,1.27.15,1.84.74.28,1.24-.36,1.7-.81C131.84,53.44,134.19,53.81,133.91,52.37Z"/><path class="cls-45" d="M144.72,78.24c1.47-2-4.08-1.22-3.13.12C142.44,78.87,143.69,77.9,144.72,78.24Z"/><path class="cls-46" d="M134.65,61.32c1.16-.4.89-1.81,1.91-2.44-.73-.44-1.17.09-1.66-.39-1.54.68-1.51,2.25-1.35,3.72-.58.15-1.47,1-1.89.32-.49.81-1.36.11-2.07.09,1.75.66.82,2.95,2.09,4a2.34,2.34,0,0,1,1.08-1.24c.08-1.24,1.61-4.3,1.8-1.57C135.88,63,133.44,61.93,134.65,61.32Z"/><path class="cls-47" d="M134.9,58.49c1.6-1.47-1.06-2.59-2-3.55-.43.45-.89.86-1.33,1.29,1.89-1.19,1,.44,1.15,1.64C134.23,56.17,134.41,57.71,134.9,58.49Z"/><path class="cls-48" d="M128.52,44.39a3.15,3.15,0,0,0-1.7-2.62c-1.39-1-3.9.47-4.42-1.6l-.17.15c-.58,1.76-2.39.45-2.84-.71a1.51,1.51,0,0,1-1-2.41c-1.15-1.72-2.17-3.62-4.14-4.55-2.51-1.47-3.86-5-6.64-5.84-.56.54-1.32-.16-2-.22-.34,1,.75,1.32,1.35,1.86.32,1.23.17,3.41,1.94,3.05-.48-1.83,1.76.29,2.11.91.42,1.11,2.36,1.79,1.78,3.18.15.53.32,1,.48,1.57-2.56.62-1.25,2,.48,1.74.88,0,1.88.46,1.61-.89,1.76,1,1.15,4,2.14,5.77,2-.46,1.42,2.76,3.22,2.95.77.15,2.45.94,1.48,1.79,1.76-.35,0,1.73-.42,2.37,2.66.74-.06,3.43.82,5.19,1.38,2,.78,4.64,1.93,6.81.79-1.27.68-3.27,2.16-4a12.11,12.11,0,0,1-2.62,6.36c1.28.71,1.44,2.52,3.1,2.62.84,1.42-1.43,2-1.12,3.29,1.25-2.17,3.07.27,4.17-1.45.58-.87-.2-2.25,1.42-2.26a7.85,7.85,0,0,0,0-.84c-1.27-1-.34-3.32-2.09-4-2.13,0-2.14-2.54-2.19-4.16a15.85,15.85,0,0,1,1.2-5.06c-.73-2.65.43-5.29-.64-7.92-.06-2-2.5-1.7-3.44-3C126,42,127.21,43.8,128.52,44.39Z"/><path class="cls-49" d="M134.9,58.49c-.49-.78-.67-2.32-2.18-.62-.19-1.2.74-2.83-1.15-1.64-1.57.87,1.85,3.27-1.25,3-1-.16-1.41.66-.3.92,1.39.4.19,1.43-.74,1.35.81.29,1.92.2,2.38,1.08.42.71,1.31-.17,1.89-.32C133.39,60.74,133.36,59.17,134.9,58.49Z"/><path class="cls-50" d="M129,52.35c.11-2.67.33-5.36-.52-8-1.31-.59-2.48-2.38-4-1.93.94,1.32,3.38,1,3.44,3,1.07,2.63-.09,5.27.64,7.92l.5-.32C129.09,52.89,129.05,52.53,129,52.35Z"/><path class="cls-51" d="M132.9,54.94l-.23-.25c-.46.45-1,1.09-1.7.81-.12-.57.42-1.53-.15-1.84l-.21.25a10.67,10.67,0,0,1-1.51,1.42,8.08,8.08,0,0,0,0-2.25l-.5.32a15.85,15.85,0,0,0-1.2,5.06c0,1.62.06,4.19,2.19,4.16.71,0,1.58.72,2.07-.09-.46-.88-1.57-.79-2.38-1.08.93.08,2.13-1,.74-1.35-1.11-.26-.68-1.08.3-.92,3.1.32-.32-2.08,1.25-3C132,55.8,132.47,55.39,132.9,54.94Z"/><path class="cls-52" d="M129.1,55.33a10.67,10.67,0,0,0,1.51-1.42A2.89,2.89,0,0,1,129,52.35c0,.18.05.54.06.73A8.08,8.08,0,0,1,129.1,55.33Z"/><path class="cls-53" d="M139.7,77.57q.15-.42.27-.84a7.57,7.57,0,0,1-2.7.87c-.55-.55-1.51-1.34-.23-1.63-.43-.55,0-1.22,0-1.83a6.52,6.52,0,0,0-3.48,3.77c.82-.44,1.69-.9,2.45-1.39a18.93,18.93,0,0,0-1.41,1.92c1.74-.13,2.81.15,4.54-.69Z"/><path class="cls-54" d="M139.17,77.75c-1.73.84-2.8.56-4.54.69.66,1.3-1.19,1.68-1.49,2.76s-1.14,1.59-1.74,2.36c1.36.73,3.42-.51,4.76-1C137.6,81.2,137.22,78.61,139.17,77.75Z"/><path class="cls-55" d="M130.51,72c1.78-.92,1-3,1.17-4.6-1.62,0-.84,1.39-1.42,2.26C131.16,70.2,130.49,71.25,130.51,72Z"/><path class="cls-56" d="M121.82,50.89c.46-.64,2.18-2.72.42-2.37-1.23,1.19-1.63,3.85-3.75,3.59a27.26,27.26,0,0,0-.95-8.33c-1-1.75-.38-4.79-2.14-5.77.27,1.35-.73.89-1.61.89,3,4.5,2.38,10.3,2.49,15.48-.5,1.15-1.58,2.13,0,3.19.5-.22,1-.45,1.5-.64.27.4.12,1.46.85,1.09a21,21,0,0,1-.25-4.62C120,53.34,120.75,51.88,121.82,50.89Z"/><path class="cls-57" d="M124.11,65.24a12.11,12.11,0,0,0,2.62-6.36c-1.48.74-1.37,2.74-2.16,4-.55,1.52-1.88,2.57-2.9,3.79-.37.54-1.21,1.11-.73,1.84C122.45,68,123.21,66.46,124.11,65.24Z"/><path class="cls-58" d="M122.64,56.08c-.88-1.76,1.84-4.45-.82-5.19-1.07,1-1.82,2.45-3.46,2.51a21,21,0,0,0,.25,4.62c-.2,1,.64,3.22-.92,2.84,2,1.21,2,3.87,2.57,5.9l1.41-.08c1-1.22,2.35-2.27,2.9-3.79C123.42,60.72,124,58.1,122.64,56.08Z"/><path class="cls-59" d="M133.14,81.2c.3-1.08,2.15-1.46,1.49-2.76a5.43,5.43,0,0,1-2.48,1.71c-.57.13-1.54,1.29-.32.93a23.41,23.41,0,0,0-2.19,3.31,8.84,8.84,0,0,1,1.76-.83C132,82.79,132.86,82.19,133.14,81.2Z"/><path class="cls-60" d="M130.51,72c0-.79.65-1.84-.25-2.34-1.1,1.72-2.92-.72-4.17,1.45-.31-1.3,2-1.87,1.12-3.29-1.66-.1-1.82-1.91-3.1-2.62-.9,1.22-1.66,2.74-3.17,3.28-.48-.73.36-1.3.73-1.84l-1.41.08C118,66,119.15,70.48,120.2,68c1,.25.49,2.73,1.22,3.82,1.39-.4,4.49-.44,3.7,1.75a16.54,16.54,0,0,1,2.57.87l.91-.22C129.74,73.85,130.55,73.22,130.51,72Z"/><path class="cls-61" d="M131.38,74.32c.13-1.93-1.8.23-2.78-.13l-.91.22c-.48.53-.89,1.13-1.36,1.67-.4,1.3.77,1.56,1.74.26C129.17,75.37,131.1,76.1,131.38,74.32Z"/><path class="cls-62" d="M116.28,54.38c-.11-5.18.48-11-2.49-15.48-1.73.29-3-1.12-.48-1.74-1.27-3.74-1.29.89-2.93-.09-.54.51-1.44,1.61-.55,2.21,2.19,1.43,3.42,4.71,2,7,1.27,2.81,2.6,5.59,3.77,8.44A1.1,1.1,0,0,0,116.28,54.38Z"/><path class="cls-63" d="M125.71,84.29a16.14,16.14,0,0,0,4.06-7.8,2.06,2.06,0,0,0-1.59.33c.37,1.25-1.54,1.61-1.2,2.8s-.52,2.41-1.71,2.18l-.2.4C125,83.18,124.48,86.38,125.71,84.29Z"/><path class="cls-64" d="M127.69,74.41a16.54,16.54,0,0,0-2.57-.87c.79-2.19-2.31-2.15-3.7-1.75-.73-1.09-.26-3.57-1.22-3.82-1,2.51-2.18-1.94.06-1.21-.6-2-.58-4.69-2.57-5.9.45,1.76,1.51,3.61.94,5.46-.35-.28-.71-.58-1.06-.88a14.23,14.23,0,0,1-2.77-2.55C116.52,67,121.32,70,121,74.8c.45,1,.47,1.92,2,1.52-.49-.94-2-2.44-.24-2.82.67.87,1.92,1.94.73,2.94-.73.61,0,.9.59,1.2.72-.55,1.18-1.6,2.21-1.56C126.8,75.54,127.21,74.94,127.69,74.41Z"/><path class="cls-65" d="M127,79.62c-.34-1.19,1.57-1.55,1.2-2.8q-.75.36-1.47.75c-.37.58-.81,1.16-1.59,1-.17.38-.36.76-.54,1.13l.69,2.13C126.46,82,127.28,80.68,127,79.62Z"/><path class="cls-66" d="M117.69,60.86c1.56.38.72-1.88.92-2.84-.73.37-.58-.69-.85-1.09-.5.19-1,.42-1.5.64A24,24,0,0,0,117.69,60.86Z"/><path class="cls-67" d="M116.26,57.57c-1.56-1.06-.48-2,0-3.19a1.1,1.1,0,0,1-.69.35c-1.86-.42-2.33-3.14-3.53-4.59-.58-1.59-1.62-1.8-1-.27,2.58,5,5.34,10,6.47,15.57.35.3.71.6,1.06.88.57-1.85-.49-3.7-.94-5.46A24,24,0,0,1,116.26,57.57Z"/><path class="cls-68" d="M125.12,78.54c.78.19,1.22-.39,1.59-1C125.72,76.82,125.33,77.61,125.12,78.54Z"/><path class="cls-69" d="M115.59,54.73c-1.17-2.85-2.5-5.63-3.77-8.44-2-2.38-3-5.63-5.11-7.78-1.35,1.08.34-1.88-.84-2-.19,1.07-.52,1.68-1.2.45l-.21.27c.1.46.17.93.25,1.39.55.78,3.46,2.77,1.53,3l.82,1c-.43-.64,0-1,.44-.33a31.27,31.27,0,0,1,4.56,7.85C113.26,51.59,113.73,54.31,115.59,54.73Z"/><path class="cls-70" d="M123.53,76.44c1.19-1-.06-2.07-.73-2.94-1.73.38-.25,1.88.24,2.82-1.55.4-1.57-.47-2-1.52-1.33-.08-1.6-1.94-2.19-2.9a10.38,10.38,0,0,0-.48,1.82,3.21,3.21,0,0,0,1.9,2.8c1.13.36.38,1.69.8,2.51,1.17-.31.13-1.92,1.12-2.39,1.48,1.65-1.71,2.64-.73,4.29,1.17.43,1.13-.73,1.14-1.53.72,1,2.12,1.5,2.49,2.8l.2-.4-.69-2.13c-1.3-.37-1.68-1.21-.46-2C123.58,77.34,122.8,77.05,123.53,76.44Z"/><path class="cls-71" d="M117.57,65.44c-1.13-5.57-3.89-10.55-6.47-15.57-.92-1.17-1.16-2.7-2-3.94-1.19-.2-1.13.75-.63,1.52a11.66,11.66,0,0,1-.59,6.82,45.43,45.43,0,0,1,5,6.41c.61.75,1.28,1.46,1.89,2.21A14.23,14.23,0,0,0,117.57,65.44Z"/><path class="cls-72" d="M127.31,87.7c.49.17,1-.65.51-1A1,1,0,0,0,127.31,87.7Z"/><path class="cls-73" d="M121,74.8c.3-4.85-4.5-7.81-6.22-11.91-.61-.75-1.28-1.46-1.89-2.21-2.42-1.91-4.35-4.36-6.85-6.15,0,.21.06.62.08.83,2,1.55,3.42,3.7,5.17,5.51a12.91,12.91,0,0,1,2.42,3c.58.79,1.14,1.59,1.63,2.41a20.5,20.5,0,0,0,2.52,4.33,4.11,4.11,0,0,1,1,1.25C119.42,72.86,119.69,74.72,121,74.8Z"/><path class="cls-74" d="M123.31,91.53c0,.93,1,.45,1.41,0a.69.69,0,0,1-.07.91q-.45.59-.87,1.2a2.21,2.21,0,0,0-1.07-1.06,8,8,0,0,0-2-.37A22.4,22.4,0,0,1,115.49,84c1.35.36.75,2.64,2.35,2.48.86-.06.46.93.51,1.45,1.51.47,1.08-2,2.4-2,.73-.13,1-.91,1.31-1.47-.12-1.18-.4-2.34-.62-3.5,1.17.43,1.13-.73,1.14-1.53.72,1,2.12,1.5,2.49,2.8-.1,1-.59,4.18.64,2.09.63.36.19,1.13,0,1.62A16.71,16.71,0,0,0,123.31,91.53Zm-1.6-3.38c-.33-.88-.72-1.48-1.29-.4.63.87,2,.94,2.49,2.07a2.21,2.21,0,0,0,.1-1.64C123,86.9,122.28,87.65,121.71,88.15Z"/><path class="cls-75" d="M121.44,80.93c-1-1.65,2.21-2.64.73-4.29-1,.47,0,2.08-1.12,2.39-.42-.82.33-2.15-.8-2.51a3.21,3.21,0,0,1-1.9-2.8H118a6.79,6.79,0,0,1-2.57.67c.12,1.42.27,2.85.26,4.27a6.15,6.15,0,0,1,1.66,2.41,14.71,14.71,0,0,1-.09,1.49c.6-.93,3.09-1.57,2.44.16-.64,1.46,1.44,1.56,2.39,1.72C121.94,83.25,121.66,82.09,121.44,80.93Z"/><path class="cls-76" d="M118.83,71.9a4.11,4.11,0,0,0-1-1.25c-1.89,1.42-4.33,2.17-6.5.84.81,2.94,4.4,1.1,6.59,2.22h.38A10.38,10.38,0,0,1,118.83,71.9Z"/><path class="cls-77" d="M117.88,70.65a20.5,20.5,0,0,1-2.52-4.33c-.78,1.86-4.69,4.24-5.22,1.23-.65-1.3-2.18-2-2.87-3.3-.63.87-.25,2.11-.84,3,1.15,2,3.7,2.32,4.95,4.19C113.55,72.82,116,72.07,117.88,70.65Z"/><path class="cls-78" d="M134,112.06c1.41-5.35-2.2-10.93-6.52-13.91,1,2.44,3,4.32,4.88,6.17a17.67,17.67,0,0,0,1.39,5A3.68,3.68,0,0,0,134,112.06Z"/><path class="cls-79" d="M112.91,60.68a45.43,45.43,0,0,0-5-6.41c-.66.84-1.35.15-2-.3,0,.14.11.42.16.56C108.56,56.32,110.49,58.77,112.91,60.68Z"/><path class="cls-80" d="M110.14,67.55c.53,3,4.44.63,5.22-1.23-.49-.82-1-1.62-1.63-2.41a6.33,6.33,0,0,1-2.42-3c-1.75-1.81-3.17-4-5.17-5.51-.91-1.13-2.14-.9-1.36.63.1.41.2.82.29,1.23,1.26,1,1.26,2.45,2.72,3.23,1.57.95.24,2.75-.52,3.8C108,65.58,109.49,66.25,110.14,67.55Z"/><path class="cls-81" d="M134,112.06l-.09.32c-1.81,2-3.24-1.47-3.65-3.09.12-2.74-1-1.19-1.67-.65a8.77,8.77,0,0,1,.12-3c1.7-1.33-.34-2.77-1.46-3.64-.52.93-1.71.72-2.46,1.4-.7-1.82-2.4-.74-2.63.71,1.23-.11,1.54,1.73,2.72,1.34a2.54,2.54,0,0,1,1.54.13c1.06.86,1.74,1.63,0,.83.33,1.94-1,3.42-1.28,5.18,1.73-.75,1.68,1.59,2.86.31a1.85,1.85,0,0,1,.24.85c-.84,1-.76,4.52-2.34,3-.43,2.13-4.25,3.13-4.51.3,1.33-.91,3-.59,4.46-1.14.35-.83.95-1.81-.09-2.59-1.26.24-2.42-.34-3.66-.41a1.54,1.54,0,0,1,.07,2.39c-.89.69-3.89.5-2.65-1.24-1.44-.78-3.31-3.06-1-3.93-.52-1.88-2.72,1.1-2.75-.91.48-1.4-.71-2.28-1.73-3-1.86.26.25,2.69-1.14,3.47-.64.75-1.56-.12-2.35-.14a6.21,6.21,0,0,0,1.33,1.33c-.7.28-2.08-.25-2.11.84.14,1.63,1.4,2.84,2.52,3.93-1.33,0-1.68,1.24-2.28,2.17a4.57,4.57,0,0,1-4.48.62c.61-1.42-.93-1.69-1.75-2.42-.57-.75-1.36-1.29-2-2,.16-1.48.44-3,.72-4.41a2.33,2.33,0,0,0,3.54.53c.28-.89-.36-1.74-.25-2.59.66-.36,1.34-.69,2-1.11a3.31,3.31,0,0,0-2-1.21c.62-1-.83-2.79.69-3.06.63-.81-1-1.26-1.31-1.86,2.15-2.23,5.4-2.19,8.11-3.31.46,1.67,2.8,1.77,2.36,3.91.84,1.54-1.59,1.15-1.42,2.71.13.86,1.33.15,1.94.33-.38.4-1.59.59-.93,1.27,1.32,1.22,3.23-3,3.7-.14,1.3-1.38.7-4.6,3.18-4.34,2-.1-.93-2.45-.52-3.36-.22-.87-1.76-.71-1.33-1.87,1.72-.49,3,2.1,4.2,1.55l.24-.19c1,.16,2,1.5,2.77,2.3,1,2.44,3,4.32,4.88,6.17a17.67,17.67,0,0,0,1.39,5A3.68,3.68,0,0,0,134,112.06Zm-25.87.59c-2.56.72,2.69,3.23,2.1.69C110.19,112.32,108.71,113.73,108.16,112.65Z"/><path class="cls-82" d="M113.73,63.91a12.91,12.91,0,0,0-2.42-3A6.33,6.33,0,0,0,113.73,63.91Z"/><path class="cls-83" d="M115.4,74.38a6.79,6.79,0,0,0,2.57-.67c-2.19-1.12-5.78.72-6.59-2.22-1.25-1.87-3.8-2.17-4.95-4.19-1-2-3.63-2.82-3.6-5.22,1.77-1.06,3.13-2.76,2.24-4.86-.09-.41-.19-.82-.29-1.23-1.29-.45-.47,1.78-1.33,2.33-.65.41,0,1,.2,1.42-.48.6-1.2,1-.87,1.87a5.4,5.4,0,0,1-2.71.09C99.2,60,99.73,58,98.81,56.39a3.12,3.12,0,0,1,.49-4.81c.46-.54,1.46-1.22,1.1-2-1.94,1.9-4.74,4.7-2.31,7.31,0,3.53.69,7.65,4.28,9.39s4.77,6.43,8.49,7.45c.66,2.55,3,3.46,4.8,4.94C115.67,77.23,115.52,75.8,115.4,74.38Z"/><path class="cls-84" d="M120.75,85.9c.73-.13,1-.91,1.31-1.47-1-.16-3-.26-2.39-1.72.65-1.73-1.84-1.09-2.44-.16a14.71,14.71,0,0,0,.09-1.49c-.67.82-2.46,1.79-1.83,2.93,1.35.36.75,2.64,2.35,2.48.86-.06.46.93.51,1.45C119.86,88.39,119.43,86,120.75,85.9Z"/><path class="cls-85" d="M123,88.18c0-1.28-.73-.53-1.3,0-.33-.88-.72-1.48-1.29-.4.63.87,2,.94,2.49,2.07A2.21,2.21,0,0,0,123,88.18Z"/><path class="cls-86" d="M127.21,124.57a12.82,12.82,0,0,0,6.73-12.19c-1.81,2-3.24-1.47-3.65-3.09.12-2.74-1-1.19-1.67-.65a9.26,9.26,0,0,1-.57,3.24,1.85,1.85,0,0,1,.24.85c.15,1.58-1.44,3.37.27,4.62.55.91,1.48-.47,2.25.15.89,1-.24,2.47-1.15,2.94l-.57.2c-.68,2.56-2.83,3.34-4.78,4.59C125.28,125.87,126.27,124.81,127.21,124.57Z"/><path class="cls-87" d="M124.74,95.85c0-1.1,0-2.27-.09-3.38q-.45.59-.87,1.2l-.12.2c.6.61.44,1.48.84,2.17Z"/><path class="cls-88" d="M128.74,105.62c1.7-1.33-.34-2.77-1.46-3.64-.52.93-1.71.72-2.46,1.4-.7-1.82-2.4-.74-2.63.71,1.23-.11,1.54,1.73,2.72,1.34a2.54,2.54,0,0,1,1.54.13A3.12,3.12,0,0,1,128.74,105.62Z"/><path class="cls-89" d="M106.06,54.53c0-.14-.12-.42-.16-.56-.42-.28-.85-.55-1.26-.85-1.64.23-3.76,2.2-1.32,3.14,0,1.93-1.32.59-2.21,0a3.57,3.57,0,0,0-.15-2.35c-2.26.69.56-2.41-1.66-2.28a3.12,3.12,0,0,0-.49,4.81c.92,1.64.39,3.56,1.26,5.31a5.4,5.4,0,0,0,2.71-.09c-.33-.87.39-1.27.87-1.87-.2-.47-.85-1-.2-1.42.86-.55,0-2.78,1.33-2.33-.78-1.53.45-1.76,1.36-.63C106.12,55.15,106.07,54.74,106.06,54.53Z"/><path class="cls-90" d="M124.5,96c-.4-.69-.24-1.56-.84-2.17-.55-.06-1.1-.13-1.66-.15-1.24.68-1.63-.46-2.38-.68-2.66,2.12-6.65,1.44-9.76,2.77a2.9,2.9,0,0,1-1.51.51,19.46,19.46,0,0,0-8.5,5.36c2.18.06,3.44-1.86,5.36-2.39,2.15-2.23,5.4-2.19,8.11-3.31,1,0,2.86-1.27,3.38-.07a6.86,6.86,0,0,1,3.6-1.42C122,94,123.27,96.59,124.5,96Z"/><path class="cls-91" d="M123.78,93.67a2.21,2.21,0,0,0-1.07-1.06c-.24.37-.48.74-.71,1.11.56,0,1.11.09,1.66.15Z"/><path class="cls-92" d="M107.27,64.25c.76-1,2.09-2.85.52-3.8-1.46-.78-1.46-2.23-2.72-3.23.89,2.1-.47,3.8-2.24,4.86,0,2.4,2.61,3.26,3.6,5.22C107,66.36,106.64,65.12,107.27,64.25Z"/><path class="cls-93" d="M128.62,108.64a8.77,8.77,0,0,1,.12-3,3.12,3.12,0,0,0-2.29-.06c1.06.86,1.74,1.63,0,.83.33,1.94-1,3.42-1.28,5.18,1.73-.75,1.68,1.59,2.86.31A9.26,9.26,0,0,0,128.62,108.64Z"/><path class="cls-94" d="M122.71,92.61a8,8,0,0,0-2-.37c-.25.26-1.49.37-1.06.8.75.22,1.14,1.36,2.38.68C122.23,93.35,122.47,93,122.71,92.61Z"/><path class="cls-95" d="M129.66,120.44c.91-.47,2-2,1.15-2.94-.77-.62-1.7.76-2.25-.15-1.71-1.25-.12-3-.27-4.62-.84,1-.76,4.52-2.34,3-.43,2.13-4.25,3.13-4.51.3,1.33-.91,3-.59,4.46-1.14.35-.83.95-1.81-.09-2.59-1.26.24-2.42-.34-3.66-.41a1.54,1.54,0,0,1,.07,2.39c-.89.69-3.89.5-2.65-1.24-1.44-.78-3.31-3.06-1-3.93-.52-1.88-2.72,1.1-2.75-.91.48-1.4-.71-2.28-1.73-3-1.86.26.25,2.69-1.14,3.47-.64.75-1.56-.12-2.35-.14a6.21,6.21,0,0,0,1.33,1.33c-.7.28-2.08-.25-2.11.84.14,1.63,1.4,2.84,2.52,3.93-1.33,0-1.68,1.24-2.28,2.17a4.57,4.57,0,0,1-4.48.62c-.21,1.38,1.7.88,1.89,2,.93.38,1-1.24,1.95-.74.65.31,2.09-.21,1.94.86.82.83,2.24.59,3.19,1.34a11,11,0,0,1,1.28,0c2.22.78.2-2,1.91-2.47,1.08,0,3.11.2,4.14,1.7,2-1.31,5.06-2.79,6.8-.33C129.4,118.35,129.55,119.46,129.66,120.44Z"/><path class="cls-96" d="M129.66,120.44c-.11-1-.26-2.09-.94-.73-1.74-2.46-4.82-1-6.8.33-1-1.5-3.06-1.65-4.14-1.7-1.71.46.31,3.25-1.91,2.47.83,1.5,3,1.5,3.6,3.17.93,1.48,3.44,1,4,2.65.89-.81,3.56-.91,3.71-2.06-.94.24-1.93,1.3-2.9.66-1.42-.19-1.21-1.53-.49-2.42,2.26,1.21,3.32-2.19,5.27-2.17Z"/><path class="cls-97" d="M129.09,120.64c-2,0-3,3.38-5.27,2.17-.72.89-.93,2.23.49,2.42C126.26,124,128.41,123.2,129.09,120.64Z"/><path class="cls-98" d="M109.86,95.81c-.32-.56-1.3,0-1.51.51A2.9,2.9,0,0,0,109.86,95.81Z"/><path class="cls-99" d="M123.5,126.63c-.59-1.68-3.1-1.17-4-2.65-.59-1.67-2.77-1.67-3.6-3.17a11,11,0,0,0-1.28,0c.24.28.48.56.73.83,1.11-.58.57,1.27,1.43,1.5s2,.79,1.86,2a16.41,16.41,0,0,1,2.65,2A4.81,4.81,0,0,0,123.5,126.63Z"/><path class="cls-100" d="M121.26,127.17a16.41,16.41,0,0,0-2.65-2c.17-1.19-1-1.63-1.86-2s-.32-2.08-1.43-1.5c-1.95.79-3.37-1.42-5.27-1.32-1.18-.19-2.1.73-3.2,1-.38.74.66,1.32.44,2.1-.92,2.23-.63,4.65-1.41,7,1.23.09,3.69-3.24,3.71-.67C113.24,127.8,117.39,128.23,121.26,127.17Z"/><path class="cls-101" d="M106.52,101.15c.63-.81-1-1.26-1.31-1.86-1.92.53-3.18,2.45-5.36,2.39A15.7,15.7,0,0,0,97.37,109c1.18.13.4-1.55,1.37-1.71s.49-1.48,1.5-1.56c1,.66.77,1.64.3,2.55,0,1.88,1.45-1,2,.31a2.33,2.33,0,0,0,3.54.53c.28-.89-.36-1.74-.25-2.59.66-.36,1.34-.69,2-1.11a3.31,3.31,0,0,0-2-1.21C106.45,103.16,105,101.42,106.52,101.15Z"/><path class="cls-102" d="M115.32,121.67c-.25-.27-.49-.55-.73-.83-1-.75-2.37-.51-3.19-1.34-1.55,0-3.08.69-4.62.36a2.42,2.42,0,0,1-2.54,0c-.93.41-.58,2.37-1.91,2a37.81,37.81,0,0,1,2.58,3.75c1.62.64.67,2.79.46,4.08-.08.65-.29,1.16-1,.81a10.84,10.84,0,0,0-.68,3.84c.57-.9.81-2,1.46-2.83.44.37.87.75,1.34,1.08,1.07-.93,2-2.05,3.1-2.89,0-2.57-2.48.76-3.71.67.78-2.3.49-4.72,1.41-7,.22-.78-.82-1.36-.44-2.1,1.1-.24,2-1.16,3.2-1C112,120.25,113.37,122.46,115.32,121.67Z"/><path class="cls-103" d="M110.26,113.34c-.07-1-1.55.39-2.1-.69C105.6,113.37,110.85,115.88,110.26,113.34Z"/><path class="cls-104" d="M111.4,119.5c.15-1.07-1.29-.55-1.94-.86-.94-.5-1,1.12-1.95.74-.19-1.1-2.1-.6-1.89-2,.61-1.42-.93-1.69-1.75-2.42-1.14,1-.77-1-1.73-.43-2.07,1.3-3.06-2.22-2.6-3.63.86-.33-.43-2.79-1-1.67-.86.33,0,1.61-1,1.51-.07,3.28,1.63,7.07,3.9,9.74,2.67-.53.14-2.49-.68-3.77a11.6,11.6,0,0,1,3.06-.07c1.27.78,1.88,2.27,3,3.2C108.32,120.19,109.85,119.48,111.4,119.5Z"/><path class="cls-105" d="M102.59,108.59c-.6-1.31-2.09,1.57-2-.31.47-.91.71-1.89-.3-2.55-1,.08-.56,1.45-1.5,1.56s-.19,1.84-1.37,1.71c-.43.29.13,1.24.1,1.76,1,.1.19-1.18,1-1.51.59-1.12,1.88,1.34,1,1.67-.46,1.41.53,4.93,2.6,3.63,1-.59.59,1.47,1.73.43-.57-.75-1.36-1.29-2-2C102,111.52,102.31,110.05,102.59,108.59Z"/><path class="cls-106" d="M106.78,119.86c-1.15-.93-1.76-2.42-3-3.2a11.6,11.6,0,0,0-3.06.07c.82,1.28,3.35,3.24.68,3.77.29.47.63.91,1,1.36,1.33.37,1-1.59,1.91-2A2.42,2.42,0,0,0,106.78,119.86Z"/><path class="cls-107" d="M105.37,129.69c.21-1.29,1.16-3.44-.46-4.08a18.72,18.72,0,0,1-.54,4.89C105.08,130.85,105.29,130.34,105.37,129.69Z"/><path class="cls-108" d="M106.49,132.59c-.47-.33-.9-.71-1.34-1.08-.65.85-.89,1.93-1.46,2.83-1.72,4.62-6.85,8-6.56,13.25-1.45,4.81.57,10.34-2.72,14.65-2.21,3.6-7.73,4.72-9,8.91,5.47-3.94,12.48-8.22,12.4-15.88-1.22-3.36.48-6.59.92-9.86a18.17,18.17,0,0,1,3.5-5.67C104.13,137.69,104.4,134.44,106.49,132.59Z"/><path class="cls-1" d="M146.57,46.63c-1.64-1.16-1.42-4-1.72-6-.45-.16-1.6.13-1.34-.65.39-1.26-1.69-1.16-2.53-1.09-1.25,2.22-3.19,3.88-4.74,5.87,2-.33,1.07,1.47,2.68,1.86,1.33.19,2.67-1,3.87-1.41.59,1.53-3.06,1.58-.88,2.64A2.21,2.21,0,0,0,144,50.39c-.62.7-1.27,1.37-1.93,2,0,.17.05.51.06.68l1.3,1.6.39-.6C143.1,51.38,144.72,48.58,146.57,46.63Z"/><path class="cls-2" d="M143.79,54.11c1.8-1.9,3.79-4.94,2.78-7.48C144.72,48.58,143.1,51.38,143.79,54.11Z"/><path class="cls-3" d="M141,38.94a15,15,0,0,0-3.74,3c-.92,1-1.91,3.1-3.14,2.68.61,1.69-1.11.93-2.19,1l-.22.23c2,1.71-.76,3.42-2.29,4.26a13.48,13.48,0,0,1-4.15,3.35c-.25,1.35-1.73,2.06-2.59,3.06-2.43-.81-2.67-3.62-3-5.85a15.19,15.19,0,0,1-.12-2.86c-.2-.27-.42-.54-.64-.82-.7,2.85.51,5.73-.08,8.55,0,.71,1.53,1.8.28,2.18a14,14,0,0,1,1.2,2.09c-.35.17-1,.13-.72.7l1.24.73c1.22-2.32,3.74-3.11,4.86-5.42.21-.44.7-.4,1.1-.44,2.86-3.72,6.26-7.14,9.49-10.6C137.79,42.82,139.73,41.16,141,38.94Z"/><path class="cls-4" d="M141.91,47.9c-2.18-1.06,1.47-1.11.88-2.64-1.2.41-2.54,1.6-3.87,1.41-1.61-.39-.69-2.19-2.68-1.86-3.23,3.46-6.63,6.88-9.49,10.6-.06.73.66,1.93-.51,2-1,.09.22,2.52-1.14,1.6,1.23-1.58-1.92-.17-1,.75s-1.51.23-.84,1.33A23.74,23.74,0,0,0,129,58.34c-.55-1.2.84-1.13,1.65-1.22,1.3.09-1.55-1.64,0-1.48.89.25,1.72.43,2-.67.69-1.42,2.16,1.07,2.92-.18.49-1.22,2.63-.16,2.26-1.83-.67-.39-3-.27-2.39,1.3-.82.41-1.4,0-1.63-.84,1.07-.51.66-1.21,1.73-1.77-1.55.1-3.64,1.06-4.89-.14,2.47-1,5.37-.74,7.62-2.32,1,.08.59,1.06,0,1.44,1.51,1.16.9-1,2.25-1.17a11.51,11.51,0,0,0,1.35,2.72l.18.25c.66-.67,1.31-1.34,1.93-2A2.21,2.21,0,0,1,141.91,47.9Z"/><path class="cls-5" d="M143.4,54.71l-1.3-1.6c1.16,2.55-4,3.29-1.59,5.5C140.73,56.83,142.49,56.08,143.4,54.71Z"/><path class="cls-6" d="M142.1,53.11c0-.17,0-.51-.06-.68l-.18-.25c-1.64-.16-1.13,2.15-2.82,2.34,2,1-.23,2.22-1.14,3.08.07-1.53-1-.31-1.85-.16.56.75,2.09,1.93,1,2.78-.27-1.11-1.63-1.36-1.82-2.5-.48,1.06-1.06,1.22-1.73.17-1.91.83.75,1.24.91,2.42.23,1.76-2.35-1.32-1.55.22,1.18,1.29-.77,0-1.49.1,0,.84,0,1.78-.83,2.21l-.85.64c-1,.7,0,1.61.07,2.51a9.23,9.23,0,0,1,2.92.14,13.43,13.43,0,0,1,2.85-4.75c2.57.73-1.19,2.13-1.17,3.66,1.79-2.05,7.06-3.1,6.18-6.43C138.08,56.4,143.26,55.66,142.1,53.11Z"/><path class="cls-7" d="M141.86,52.18a11.51,11.51,0,0,1-1.35-2.72c-1.35.2-.74,2.33-2.25,1.17-1-.17-1.82.66-2.72,1-1.07.56-.66,1.26-1.73,1.77.23.83.81,1.25,1.63.84-.59-1.57,1.72-1.69,2.39-1.3.37,1.67-1.77.61-2.26,1.83-.76,1.25-2.23-1.24-2.92.18-.29,1.1-1.12.92-2,.67-1.59-.16,1.26,1.57,0,1.48-.81.09-2.2,0-1.65,1.22a23.74,23.74,0,0,1-5.65,2.72c1.08.92,2.71-.09,3.85-.25.31,1.63,2.54.66,3.36,2,.87-.43.87-1.37.83-2.21.72-.09,2.67,1.19,1.49-.1-.8-1.54,1.78,1.54,1.55-.22-.16-1.18-2.82-1.59-.91-2.42.67,1,1.25.89,1.73-.17.19,1.14,1.55,1.39,1.82,2.5,1.12-.85-.41-2-1-2.78.83-.15,1.92-1.37,1.85.16.91-.86,3.1-2.11,1.14-3.08C140.73,54.33,140.22,52,141.86,52.18Z"/><path class="cls-8" d="M143.42,77.33c.78-1.11-.64-2-1.35-2.74-1.3-1.24-3.16-1-4.79-1.18-.75-.3-1.19-1.18-2.15-1.06a10.94,10.94,0,0,0-1.25,1.7c-.29.82-.75,1.81-1.81,1.49l-.22.17c.29.6,1.23.93,1,1.69-.28,1.73-2.17,1.78-3.51,2.34,1.06,1,0,1.83-1.24,2.09-.57.58-1.79,1.25-.93,2.12a13.35,13.35,0,0,0,2.08-.29,7.14,7.14,0,0,1,6.1-.48c.59-.15.6.37.61.82C138,81.32,141.33,80,143.42,77.33Z"/><path class="cls-9" d="M134.33,65c0-1.53,3.74-2.93,1.17-3.66a13.43,13.43,0,0,0-2.85,4.75,9.23,9.23,0,0,0-2.92-.14c.07.66.82.93,1.19,1.41l.5.47c.89-.59,1.73-1.23,2.65-1.75A8.08,8.08,0,0,0,134.33,65Z"/><path class="cls-10" d="M135.41,71.11c1.67-1.63-1-3.36-1.34-5-.92.52-1.76,1.16-2.65,1.75-.68,2.21-1.63,4.4-3.63,5.77.34.21.69.4,1,.58a17.39,17.39,0,0,1,4.16-1.1C133.63,72.09,134.42,68.46,135.41,71.11Z"/><path class="cls-11" d="M135.13,72.35c.35-.29.25-.83.28-1.24-1-2.65-1.78,1-2.43,2a17.39,17.39,0,0,0-4.16,1.1c-1.74,1.08-2.71,2.93-4.47,4,1.63.14,3.75-2.14,5.07-.34-.41.24-.83.45-1.26.67a3.1,3.1,0,0,0,3.55-.51c-.56-1.08-1.4-1.55.14-2.28l.22-.17c.58-.53,1.19-1,1.81-1.49A10.94,10.94,0,0,1,135.13,72.35Z"/><path class="cls-12" d="M122.33,43a4,4,0,0,1-2.48-1.38c-.11,1.35-2.81,2.75-2.94.86-2.14,2.11-.85,6.15-3.14,8a10.21,10.21,0,0,1-4.56.61c-1.36,3,3.39-.8,3.11,2.19a6.18,6.18,0,0,0,0,3c-.63,2.57,3.83,2,2.93,4.86-.3,2.75-2.32,6.8-5.65,5.11a31.11,31.11,0,0,1-3.43,3.74c-.66,1-2.12.27-2.8,1.24l.22.24c1,1,3.61,2.08,2,3.56.49.47.93,0,1.66.38,3.57-4.16,6.9-8.52,10.56-12.61-.38-1.16-1-2.71.09-3.67s-1.07-4.05.88-3.67c.59-2.82-.62-5.7.08-8.55C119.58,45.45,120.48,43.66,122.33,43Z"/><path class="cls-13" d="M130.51,62.84c-.82-1.37-3-.4-3.36-2-1.14.16-2.77,1.17-3.85.25.31,1.42-.57,1.38-.65,0-1.11-.13-1.52,2.15-1.82,3.28-2.66,2.31-.45-.56-1.8-1-2.91,3.61-6.3,6.93-8.2,11.23.15,1,1.42.18,2.08.19.5-1.55,2.14-1.11,3.4-1.29-.94-.88-1-2,.36-2.31.82-1.41,1.48-.23,1.7.85,2.24.58,3.26-1.4,3.31-3.31-1.18-1.3,1.61-.75,2.52-1,.47,2.61,2.76.55,1.69-.84,2.11,0,2.49-2.28,2.11-3.95a2.62,2.62,0,0,1,1.66.58Z"/><path class="cls-14" d="M126.24,57.38c1.17,0,.45-1.24.51-2-.4,0-.89,0-1.1.44-1.12,2.31-3.64,3.1-4.86,5.42a22.68,22.68,0,0,0-1.76,2c1.35.47-.86,3.34,1.8,1,.3-1.13.71-3.41,1.82-3.28.08,1.37,1,1.41.65,0-.67-1.1,1.7-.46.84-1.33s2.19-2.33,1-.75C126.46,59.9,125.22,57.47,126.24,57.38Z"/><path class="cls-15" d="M129.66,63.48A2.62,2.62,0,0,0,128,62.9c.38,1.67,0,3.94-2.11,3.95,1.07,1.39-1.22,3.45-1.69.84-.91.24-3.7-.31-2.52,1-.05,1.91-1.07,3.89-3.31,3.31-.22-1.08-.88-2.26-1.7-.85-1.38.33-1.3,1.43-.36,2.31-1.26.18-2.9-.26-3.4,1.29,3.22-.39,6.34-1.28,9.53-1.85,1-.33,2.06-.54,2.54-1.53,1.58-.08,2.8-1.26,4.38-1.13-.58-1.59.31-2.24,1.56-2.83-.37-.48-1.12-.75-1.19-1.41C129.69,65.09,128.62,64.18,129.66,63.48Z"/><path class="cls-16" d="M127.79,73.64c2-1.37,3-3.56,3.63-5.77l-.5-.47c-1.25.59-2.14,1.24-1.56,2.83-1.58-.13-2.8,1-4.38,1.13-.48,1-1.59,1.2-2.54,1.53a1.6,1.6,0,0,1-.55,1.33C123.51,73.46,126.8,71,127.79,73.64Z"/><path class="cls-17" d="M132.07,75.54c1.06.32,1.52-.67,1.81-1.49C133.26,74.52,132.65,75,132.07,75.54Z"/><path class="cls-18" d="M135.93,84c0-.45,0-1-.61-.82a7.14,7.14,0,0,0-6.1.48c.3.8-.42,1.21-1,1.56-1-1.56-2.7,0-4,.43,1.11,2.27,4,.88,5.94,1,.54,1.62-1.54,1.31-2.56,1.44a2.45,2.45,0,0,0,1.46,1.6C131.7,88.43,134.5,86.63,135.93,84Z"/><path class="cls-19" d="M132.82,77.4c.26-.76-.68-1.09-1-1.69-1.54.73-.7,1.2-.14,2.28Z"/><path class="cls-20" d="M116.34,41.06c-2.5-.71-2.45-4-3.79-5.18-2.84.82-4.39-2.42-5.38-4.46-2.42,1.58-.78,6.11-4,7.26a51.4,51.4,0,0,1,.95,5.5c0,.24.13.72.17,1,1.26-.37,2-4,3.53-2.07a4,4,0,0,1-3.41,2.72,95.36,95.36,0,0,1,.32,11,16.68,16.68,0,0,1,0,2c0,1.19-.16,2.36-.31,3.53,0,.34,0,.67.06,1,.38.94-.72,3.77.85,3.32l1.57-1,1.15-.76c-.79-.82-1.65-1.57-2.4-2.43-1.3-3,1.25-5.85,1-8.93a20.43,20.43,0,0,0,.31-2.2,2.82,2.82,0,0,1,.51-2.84l.29-.55c1.11-3.32,5-3.4,7.35-5.21C114.16,41.55,115.3,41.06,116.34,41.06Z"/><path class="cls-21" d="M129.31,79.74c1.34-.56,3.23-.61,3.51-2.34l-1.11.59a3.1,3.1,0,0,1-3.55.51,1.41,1.41,0,0,0-1,1.14c1.08.34.2.74-.39,1.09-2,1.31-4.82,1-6.56,2.6.07.12.2.36.27.47.76,0,2.66-1.9,2.36-.36a40,40,0,0,1,5.2-1.61C129.28,81.57,130.37,80.69,129.31,79.74Z"/><path class="cls-22" d="M128.82,74.22c-.34-.18-.69-.37-1-.58-1-2.65-4.28-.18-5.9.58a31.54,31.54,0,0,1-11.62,1.43c-.69,1.26-1.36,2.52-2.07,3.77,1.06,1.22,4.82-1,3.22,1.32l1-.37c2-1,4.09-2.76,6.55-2.24.38-.51,1.61-1.31,1.36-.1,1.33,0,2.66.44,4,.14C126.11,77.15,127.08,75.3,128.82,74.22Z"/><path class="cls-23" d="M129.42,77.83c-1.32-1.8-3.44.48-5.07.34-1.31.3-2.64-.13-4-.14A10.5,10.5,0,0,0,116,82c1,.57,1.82-1.51,3.25-1,1-.34,1.89-.84,2.9-1.08a6.14,6.14,0,0,1,2,0c1,0,2,.29,3-.21a1.41,1.41,0,0,1,1-1.14C128.59,78.28,129,78.07,129.42,77.83Z"/><path class="cls-24" d="M119.07,57.75c1.25-.38-.29-1.47-.28-2.18-2-.38.19,2.71-.88,3.67s-.47,2.51-.09,3.67a26.58,26.58,0,0,0,1.73-2.37c-.33-.57.37-.53.72-.7A14,14,0,0,0,119.07,57.75Z"/><path class="cls-25" d="M119,63.32a22.68,22.68,0,0,1,1.76-2l-1.24-.73a26.58,26.58,0,0,1-1.73,2.37c-3.66,4.09-7,8.45-10.56,12.61-1,.64-.75,2-1.91,2.45-1.21.61,1.22,1.69-.09,2.47-.19-2.74-1.72.32-1.8,1.56a2.37,2.37,0,0,0-1.08,1.25c0,.28,0,.56,0,.83-.16,1.64.6,3.68-1.17,4.6,0,1.18-.77,1.81-1.91,2.15,1,.37,2.91-1.79,2.78.13,2.34-.67-.64-5,2.3-3.63.32-.93-.18-1.35-1.09-1.36a1.6,1.6,0,0,0,1.5-2.25,9.49,9.49,0,0,0,3.41-4.3c.71-1.25,1.38-2.51,2.07-3.77a31.54,31.54,0,0,0,11.62-1.43,1.6,1.6,0,0,0,.55-1.33c-3.19.57-6.31,1.46-9.53,1.85-.66,0-1.93.8-2.08-.19C112.73,70.25,116.12,66.93,119,63.32Z"/><path class="cls-26" d="M126.8,80.73c.59-.35,1.47-.75.39-1.09-.92.5-2,.2-3,.21l.08.38A23.34,23.34,0,0,0,126.8,80.73Z"/><path class="cls-27" d="M128.2,85.22c.6-.35,1.32-.76,1-1.56a13.35,13.35,0,0,1-2.08.29c-.86-.87.36-1.54.93-2.12a40,40,0,0,0-5.2,1.61c-1.27.68-2.54,1.36-3.79,2.1.43,1.83,3.77.86,5.15.11C125.5,85.19,127.21,83.66,128.2,85.22Z"/><path class="cls-28" d="M127.61,88.1c1-.13,3.1.18,2.56-1.44-1.95-.13-4.83,1.26-5.94-1-1.38.75-4.72,1.72-5.15-.11a25.84,25.84,0,0,0-2.72,1.94c.94.59,2.07.18,3.11.24C122.19,87.69,124.89,88.05,127.61,88.1Z"/><path class="cls-27" d="M120.24,83.33c1.74-1.6,4.52-1.29,6.56-2.6a23.34,23.34,0,0,1-2.49-.5,3,3,0,0,1-2.13-.34c-1,.24-1.9.74-2.9,1.08-2.12,2-6.26,3.08-6.73,6.19,1.61-.21,1.27-3,3-2C117.25,85.48,118.6,83.78,120.24,83.33Z"/><path class="cls-29" d="M122.93,93.51a7.72,7.72,0,0,0,6.14-3.81,2.45,2.45,0,0,1-1.46-1.6c-2.72,0-5.42-.41-8.14-.38-.22.64-.52,1.25-.75,1.88.34.27.71.56.25.94.57.41,1.63.56,1,1.43,1.21-.49,1.82.8,2.69,1.36Z"/><path class="cls-30" d="M115.25,61.25c.9-2.87-3.56-2.29-2.93-4.86l-.48.91c1,1.49.65,3.61,2.3,4.63C115.07,61.77,113.82,60.27,115.25,61.25Z"/><path class="cls-31" d="M124.31,80.23l-.08-.38a6.14,6.14,0,0,0-2,0A3,3,0,0,0,124.31,80.23Z"/><path class="cls-32" d="M108.84,65.49l-.78-.68c-.79-.82-1.65-1.57-2.4-2.43-1.3-3,1.25-5.85,1-8.93a3.44,3.44,0,0,0,2.26-.2c-.28,1.43-3.22,3.5-1,4.57.68.73.75-.74,1.1-1.13,1.25,1-.55,2.42-.25,3.47.62,1.32,2.21-.08,2.92,1.09,1.6-1.22-2-1.06.15-2.33-1.14-.35-1.61-2.72,0-1.62,1,1.49.65,3.61,2.3,4.63.93-.16-.32-1.66,1.11-.68-.3,2.75-2.32,6.8-5.65,5.11C109.77,65.59,109.78,65,108.84,65.49Zm-1.44-5c-2.13-.18.36,4.65-.2,1.5.89-.13.65.7.67,1.29.54,1.48,3.65,1,3.42-.72C111,60.93,107.52,62.66,107.4,60.44Z"/><path class="cls-33" d="M122.87,83.44c.3-1.54-1.6.31-2.36.36A48.86,48.86,0,0,0,112.85,88c-.42.61-1.55-1.13-1.2,0-.14,1.13-1.94,2.66-2.76,1.2,1.52-1.27,3.34-2.44,4-4.39.28-1,1.81-1.28,1.52-2.44-.76.7-1.52,1.6-2.68,1.33-.34,1.28-1.66,2-1.58,3.38-1,.91-2.83.06-3.61,1.36-.89.8-.61,2.07-1,3.09-1.32-.72-.56-1.77-.13-2.77-1.52,1.5-1.46-.11-1-1.39-2.94-1.34,0,3-2.3,3.63-.28,1.78-2.21,1.06-3.31,2-1,1.3-2.14,1-1.74-.27-1,0-1.49,1-2.21,1.56-1.22.82-.84,1.66.45,2,.19-.38.38-.75.55-1.13.21-.94.6-1.72,1.58-1,.49-.27,1-.52,1.48-.76a2.15,2.15,0,0,1,1.59-.33,16.12,16.12,0,0,1-4.06,7.81c.63.35.19,1.13,0,1.62A16.15,16.15,0,0,0,94,108.18c0,.92,1,.44,1.41,0A17.7,17.7,0,0,0,98,104.35a1,1,0,0,1,.52-1c.57-.81,1.31-1.51,1.82-2.35a23.41,23.41,0,0,1,2.19-3.31c-1.22.35-.25-.81.32-.93a5.44,5.44,0,0,0,2.47-1.72,20.69,20.69,0,0,1,1.42-1.92c-.76.49-1.63,1-2.45,1.39a6.53,6.53,0,0,1,3.47-3.77c0,.61-.45,1.28,0,1.83,3.1-1.34,5.15-4.67,8.62-5.13a25.84,25.84,0,0,1,2.72-1.94C120.33,84.8,121.6,84.12,122.87,83.44Z"/><path class="cls-34" d="M120.38,78c.25-1.21-1-.41-1.36.1-2.46-.52-4.5,1.2-6.55,2.24-.23.9-1.15,1.38-1.57.29a10.21,10.21,0,0,0-3.1,3c.69,2.16-2.08,3.11-2.38,5.09-.43,1-1.19,2,.13,2.77.43-1,.15-2.29,1-3.09.78-1.3,2.57-.45,3.61-1.36-.08-1.41,1.24-2.1,1.58-3.38,1.16.27,1.92-.63,2.68-1.33.29,1.16-1.24,1.44-1.52,2.44-.71,2-2.53,3.12-4,4.39.82,1.46,2.62-.07,2.76-1.2-.35-1.14.78.6,1.2,0a48.86,48.86,0,0,1,7.66-4.15c-.07-.11-.2-.35-.27-.47-1.64.45-3,2.15-4.72,1.86-1.7-1-1.36,1.76-3,2,.47-3.11,4.61-4.19,6.73-6.19-1.43-.5-2.3,1.58-3.25,1A10.5,10.5,0,0,1,120.38,78Z"/><path class="cls-35" d="M111.29,62.51c-.34-1.58-3.77.15-3.89-2.07-2.13-.18.36,4.65-.2,1.5.89-.13.65.7.67,1.29C108.41,64.71,111.52,64.26,111.29,62.51Z"/><path class="cls-36" d="M122.93,93.51l-.23-.18c-1.92.12-4,1.31-5.81.62.62-1,1.72-1.88,1.38-3.26-.35,1.41-1.63,1-2.7.79-1.64.59-3.43.91-4.9,1.89q-.12.42-.27.84c.65.23,1.27.52,1.89.79-1-1.33,4.6-2.07,3.13-.12C118,94.54,120.75,95.21,122.93,93.51Z"/><path class="cls-37" d="M122.7,93.33c-.87-.56-1.48-1.85-2.69-1.36.59-.87-.47-1-1-1.43.46-.38.09-.67-.25-.94-.15.36-.31.73-.45,1.09.34,1.38-.76,2.21-1.38,3.26C118.66,94.64,120.78,93.45,122.7,93.33Z"/><path class="cls-38" d="M109.6,66.36c.17-.77.18-1.39-.76-.87a15.42,15.42,0,0,1-1.93.08l-1.57,1c-.27.24-.55.47-.83.7,1.32-.3.35,1.18.09,1.72.29,1.43-2.06,1.06-1.23,2.32.68-1,2.14-.27,2.8-1.24A31.11,31.11,0,0,0,109.6,66.36Z"/><path class="cls-39" d="M118.72,89.6c.23-.63.53-1.24.75-1.88-1-.06-2.17.35-3.11-.24-3.47.46-5.52,3.79-8.62,5.13-1.28.3-.33,1.09.23,1.63a7.38,7.38,0,0,0,2.7-.87c1.47-1,3.26-1.3,4.9-1.89,1.07.16,2.35.62,2.7-.79C118.41,90.33,118.57,90,118.72,89.6Z"/><path class="cls-40" d="M108.84,65.49l-.78-.68-1.15.76A15.42,15.42,0,0,0,108.84,65.49Z"/><path class="cls-41" d="M110.9,80.66c.42,1.09,1.34.61,1.57-.29l-1,.37c1.6-2.32-2.16-.1-3.22-1.32a9.49,9.49,0,0,1-3.41,4.3,1.6,1.6,0,0,1-1.5,2.25c.91,0,1.41.43,1.09,1.36-.42,1.28-.48,2.89,1,1.39.3-2,3.07-2.93,2.38-5.09A10.21,10.21,0,0,1,110.9,80.66Z"/><path class="cls-42" d="M105.34,66.6c-1.57.45-.47-2.38-.85-3.32-.61.7-1.32,1.07-1.6-.11.41,1.64-1.87,5.54,1.16,4.53l.46-.4C104.79,67.07,105.07,66.84,105.34,66.6Z"/><path class="cls-43" d="M102.89,63.17c-.22-1.07-.45-2.14-.7-3.21L101.9,59c-.31-.35-.65-.7-1-1-1.45-1.42-3.08-2.69-4.44-4.22-.38,1.72-2.13,2.13-3.36,3,.52,2.07,3,.65,4.42,1.6A3.17,3.17,0,0,1,99.22,61c.84,2.61.62,5.29.52,8a2.91,2.91,0,0,0,1.57,1.57l.21-.25c.75-1,1.83-1.61,2.53-2.61C101,68.71,103.3,64.81,102.89,63.17Z"/><path class="cls-44" d="M104.6,69c.26-.54,1.23-2-.09-1.72l-.46.4c-.7,1-1.78,1.65-2.53,2.61.57.31,0,1.27.15,1.84.74.27,1.24-.37,1.7-.81C102.54,70.08,104.89,70.45,104.6,69Z"/><path class="cls-45" d="M115.42,94.88c1.47-1.95-4.09-1.21-3.13.12C113.14,95.51,114.39,94.55,115.42,94.88Z"/><path class="cls-46" d="M105.35,78c1.16-.41.88-1.81,1.91-2.45-.73-.43-1.17.09-1.66-.38-1.54.68-1.51,2.25-1.35,3.72-.58.15-1.47,1-1.89.31-.5.82-1.36.12-2.07.09,1.75.67.82,2.95,2.09,4A2.37,2.37,0,0,1,103.46,82c.08-1.24,1.61-4.3,1.8-1.56C106.57,79.66,104.14,78.58,105.35,78Z"/><path class="cls-47" d="M105.6,75.14c1.6-1.48-1.06-2.6-2-3.56-.42.45-.88.86-1.32,1.29,1.89-1.19,1,.45,1.15,1.64C104.93,72.81,105.11,74.36,105.6,75.14Z"/><path class="cls-48" d="M99.22,61a3.17,3.17,0,0,0-1.7-2.62c-1.39-.95-3.9.47-4.42-1.6l-.17.15c-.58,1.76-2.39.45-2.84-.71a1.51,1.51,0,0,1-1-2.41c-1.16-1.72-2.17-3.62-4.14-4.55-2.51-1.47-3.86-5-6.64-5.83-.57.54-1.32-.16-2-.22-.35,1,.75,1.31,1.35,1.86.32,1.22.17,3.41,1.94,3-.48-1.83,1.76.29,2.11.92.42,1.1,2.36,1.78,1.78,3.17.15.53.32,1.05.48,1.57-2.56.62-1.26,2,.48,1.75.88,0,1.88.46,1.61-.89,1.76,1,1.15,4,2.13,5.76,2-.46,1.43,2.76,3.22,3,.78.15,2.46.93,1.49,1.78,1.76-.35,0,1.73-.42,2.38,2.66.73-.06,3.42.81,5.18,1.39,2,.79,4.65,1.94,6.81.79-1.27.68-3.27,2.16-4a12.14,12.14,0,0,1-2.62,6.37c1.28.71,1.43,2.52,3.1,2.62.83,1.42-1.43,2-1.12,3.28,1.25-2.16,3.07.27,4.17-1.45.58-.86-.2-2.25,1.42-2.26,0-.27,0-.55,0-.83-1.27-1-.34-3.32-2.09-4-2.13,0-2.14-2.53-2.19-4.16A15.91,15.91,0,0,1,99.3,70c-.73-2.65.43-5.28-.65-7.92-.05-2-2.49-1.69-3.43-3C96.74,58.65,97.91,60.44,99.22,61Z"/><path class="cls-49" d="M105.6,75.14c-.49-.78-.67-2.33-2.18-.63-.19-1.19.74-2.83-1.15-1.64-1.57.88,1.85,3.27-1.25,3-1-.16-1.41.66-.3.92,1.39.4.18,1.43-.74,1.34.81.3,1.92.21,2.38,1.08.42.71,1.31-.16,1.89-.31C104.09,77.39,104.06,75.82,105.6,75.14Z"/><path class="cls-50" d="M99.74,69c.1-2.67.32-5.35-.52-8-1.31-.59-2.48-2.38-4-1.92.94,1.32,3.38,1,3.43,3,1.08,2.64-.08,5.27.65,7.92l.5-.32C99.78,69.54,99.75,69.17,99.74,69Z"/><path class="cls-51" d="M103.59,71.58l-.22-.24c-.46.44-1,1.08-1.7.81-.13-.57.42-1.53-.15-1.84l-.21.25A11.17,11.17,0,0,1,99.8,72a8.08,8.08,0,0,0,0-2.25l-.5.32a15.91,15.91,0,0,0-1.2,5.06c.05,1.63.06,4.19,2.19,4.16.71,0,1.57.73,2.07-.09-.46-.87-1.57-.78-2.38-1.08.92.09,2.13-.94.74-1.34-1.11-.26-.68-1.08.3-.92,3.1.31-.32-2.08,1.25-3C102.71,72.44,103.17,72,103.59,71.58Z"/><path class="cls-52" d="M99.8,72a11.17,11.17,0,0,0,1.51-1.41A2.91,2.91,0,0,1,99.74,69c0,.18,0,.55.06.73A8.08,8.08,0,0,1,99.8,72Z"/><path class="cls-53" d="M110.4,94.21q.15-.42.27-.84a7.38,7.38,0,0,1-2.7.87c-.56-.54-1.51-1.33-.23-1.63-.43-.55,0-1.22,0-1.83a6.53,6.53,0,0,0-3.47,3.77c.82-.44,1.69-.9,2.45-1.39a20.69,20.69,0,0,0-1.42,1.92c1.75-.13,2.82.15,4.54-.69Z"/><path class="cls-54" d="M109.86,94.39c-1.72.84-2.79.56-4.54.69.67,1.31-1.18,1.69-1.48,2.76s-1.14,1.59-1.75,2.37c1.36.72,3.43-.51,4.77-1C108.3,97.85,107.92,95.26,109.86,94.39Z"/><path class="cls-55" d="M101.21,88.68c1.77-.92,1-3,1.17-4.6-1.62,0-.84,1.4-1.42,2.26C101.85,86.84,101.19,87.9,101.21,88.68Z"/><path class="cls-56" d="M92.52,67.54c.46-.65,2.18-2.73.42-2.38-1.23,1.19-1.63,3.86-3.75,3.6a27,27,0,0,0-1-8.34c-1-1.75-.37-4.78-2.13-5.76.27,1.35-.73.88-1.61.89C87.46,60,86.87,65.84,87,71c-.5,1.15-1.58,2.13,0,3.19.5-.22,1-.45,1.5-.64.27.41.12,1.47.85,1.09A21,21,0,0,1,89.06,70C90.69,70,91.45,68.53,92.52,67.54Z"/><path class="cls-57" d="M94.81,81.89a12.14,12.14,0,0,0,2.62-6.37c-1.48.74-1.37,2.74-2.16,4-.55,1.53-1.88,2.57-2.9,3.79-.38.54-1.22,1.12-.73,1.84C93.15,84.62,93.91,83.1,94.81,81.89Z"/><path class="cls-58" d="M93.33,72.72c-.87-1.76,1.85-4.45-.81-5.18-1.07,1-1.83,2.44-3.46,2.5a21,21,0,0,0,.25,4.62c-.2,1,.64,3.23-.92,2.85,2,1.21,2,3.86,2.57,5.9.48,0,1-.06,1.41-.09,1-1.22,2.35-2.26,2.9-3.79C94.12,77.37,94.72,74.75,93.33,72.72Z"/><path class="cls-59" d="M103.84,97.84c.3-1.07,2.15-1.45,1.48-2.76a5.44,5.44,0,0,1-2.47,1.72c-.57.12-1.54,1.28-.32.93a23.41,23.41,0,0,0-2.19,3.31,7.79,7.79,0,0,1,1.75-.83C102.7,99.43,103.56,98.83,103.84,97.84Z"/><path class="cls-60" d="M101.21,88.68c0-.78.64-1.84-.25-2.34-1.1,1.72-2.92-.71-4.17,1.45-.31-1.29,1.95-1.86,1.12-3.28-1.67-.1-1.82-1.91-3.1-2.62-.9,1.21-1.66,2.73-3.17,3.27-.49-.72.35-1.3.73-1.84-.46,0-.93.07-1.41.09-2.24-.74-1.11,3.72-.06,1.2,1,.26.49,2.73,1.22,3.82,1.39-.39,4.49-.44,3.7,1.75a18.94,18.94,0,0,1,2.57.87l.91-.22C100.44,90.49,101.25,89.86,101.21,88.68Z"/><path class="cls-61" d="M102.08,91c.13-1.92-1.8.24-2.78-.13l-.91.22c-.48.54-.89,1.13-1.36,1.67-.4,1.31.77,1.57,1.74.27C99.87,92,101.8,92.74,102.08,91Z"/><path class="cls-62" d="M87,71c-.11-5.18.48-11-2.49-15.47-1.74.28-3-1.13-.48-1.75-1.27-3.74-1.29.9-2.93-.08-.54.51-1.44,1.6-.56,2.21,2.2,1.43,3.43,4.71,2,7,1.27,2.82,2.59,5.6,3.77,8.44A1.05,1.05,0,0,0,87,71Z"/><path class="cls-63" d="M96.41,100.94a16.12,16.12,0,0,0,4.06-7.81,2.15,2.15,0,0,0-1.59.33c.37,1.25-1.54,1.62-1.2,2.81s-.52,2.4-1.72,2.18c0,.1-.14.29-.19.39C95.67,99.82,95.18,103,96.41,100.94Z"/><path class="cls-64" d="M98.39,91.05a18.94,18.94,0,0,0-2.57-.87c.79-2.19-2.31-2.14-3.7-1.75-.73-1.09-.26-3.56-1.22-3.82-1.05,2.52-2.18-1.94.06-1.2-.61-2-.58-4.69-2.57-5.9.45,1.75,1.51,3.61.94,5.46-.36-.28-.71-.58-1.06-.88a14.31,14.31,0,0,1-2.77-2.56c1.72,4.11,6.51,7.07,6.22,11.91.44,1.06.47,1.93,2,1.53-.49-.94-2-2.45-.24-2.83.67.87,1.92,2,.73,2.94-.73.61,0,.91.59,1.2.72-.54,1.18-1.59,2.21-1.56C97.5,92.18,97.91,91.59,98.39,91.05Z"/><path class="cls-65" d="M97.68,96.27c-.34-1.19,1.57-1.56,1.2-2.81-.5.24-1,.49-1.48.76-.36.58-.8,1.16-1.58,1-.17.38-.36.75-.55,1.13q.36,1.08.69,2.13C97.16,98.67,98,97.33,97.68,96.27Z"/><path class="cls-66" d="M88.39,77.51c1.56.38.72-1.88.92-2.85-.73.38-.58-.68-.85-1.09-.51.19-1,.42-1.5.64A23,23,0,0,0,88.39,77.51Z"/><path class="cls-67" d="M87,74.21c-1.56-1.06-.48-2,0-3.19a1.05,1.05,0,0,1-.69.35C84.43,71,84,68.24,82.76,66.78c-.58-1.58-1.62-1.8-1-.27,2.58,5,5.34,10,6.47,15.58.35.3.7.6,1.06.88.57-1.85-.49-3.71-.94-5.46A23,23,0,0,1,87,74.21Z"/><path class="cls-68" d="M95.82,95.19c.78.19,1.22-.39,1.58-1C96.42,93.47,96,94.25,95.82,95.19Z"/><path class="cls-69" d="M86.29,71.37c-1.18-2.84-2.5-5.62-3.77-8.44-2-2.38-3-5.62-5.12-7.77-1.34,1.08.35-1.89-.83-2-.19,1.07-.52,1.67-1.2.45l-.21.26c.1.47.17.93.24,1.4.56.77,3.47,2.77,1.54,3,.28.35.54.7.81,1-.42-.63,0-1,.45-.33a31.27,31.27,0,0,1,4.56,7.85C84,68.24,84.43,71,86.29,71.37Z"/><path class="cls-70" d="M94.23,93.08c1.19-1-.06-2.07-.73-2.94-1.73.38-.25,1.89.24,2.83-1.55.4-1.58-.47-2-1.53-1.33-.08-1.6-1.93-2.19-2.9a10.72,10.72,0,0,0-.48,1.83,3.21,3.21,0,0,0,1.89,2.79c1.14.37.38,1.69.81,2.51,1.17-.31.13-1.92,1.12-2.39,1.48,1.65-1.71,2.65-.73,4.29,1.17.43,1.13-.73,1.14-1.53.72,1,2.11,1.5,2.49,2.8,0-.1.15-.29.19-.39q-.33-1-.69-2.13c-1.29-.38-1.67-1.22-.45-2C94.28,94,93.5,93.69,94.23,93.08Z"/><path class="cls-71" d="M88.27,82.09c-1.13-5.58-3.89-10.55-6.47-15.58-.92-1.17-1.16-2.69-2-3.94-1.19-.2-1.13.75-.63,1.53a11.83,11.83,0,0,1-.59,6.82,44,44,0,0,1,5,6.4c.62.76,1.29,1.46,1.9,2.21A14.31,14.31,0,0,0,88.27,82.09Z"/><path class="cls-72" d="M98,104.35c.5.16,1-.66.52-1A1,1,0,0,0,98,104.35Z"/><path class="cls-73" d="M91.72,91.44c.29-4.84-4.5-7.8-6.22-11.91-.61-.75-1.28-1.45-1.9-2.21-2.41-1.9-4.34-4.35-6.85-6.14,0,.2.07.61.08.82,2,1.55,3.42,3.7,5.17,5.51a12.56,12.56,0,0,1,2.43,3A29,29,0,0,1,86.06,83a20.83,20.83,0,0,0,2.52,4.34,4.19,4.19,0,0,1,1,1.24C90.12,89.51,90.39,91.36,91.72,91.44Z"/><path class="cls-74" d="M94,108.18c0,.92,1,.44,1.41,0a.68.68,0,0,1-.07.9q-.45.58-.87,1.2a2.21,2.21,0,0,0-1.07-1.06,8.56,8.56,0,0,0-2-.37,22.55,22.55,0,0,1-5.2-8.25c1.36.37.76,2.64,2.36,2.48.86,0,.46.94.51,1.45,1.51.48,1.08-2,2.4-2,.73-.13,1-.9,1.31-1.46-.12-1.18-.41-2.34-.62-3.51,1.17.43,1.13-.73,1.14-1.53.72,1,2.11,1.5,2.49,2.8-.1,1-.59,4.18.64,2.1.63.35.19,1.13,0,1.62A16.15,16.15,0,0,0,94,108.18Zm-1.6-3.38c-.33-.89-.72-1.48-1.29-.4.63.86,2,.93,2.49,2.06a2.21,2.21,0,0,0,.1-1.64C93.71,103.55,93,104.3,92.41,104.8Z"/><path class="cls-75" d="M92.14,97.57c-1-1.64,2.21-2.64.73-4.29-1,.47,0,2.08-1.12,2.39-.43-.82.33-2.14-.81-2.51a3.21,3.21,0,0,1-1.89-2.79h-.38A7,7,0,0,1,86.1,91c.12,1.42.27,2.84.26,4.26A6.07,6.07,0,0,1,88,97.71a12.4,12.4,0,0,1-.08,1.49c.6-.93,3.09-1.57,2.44.15-.64,1.46,1.43,1.56,2.39,1.73C92.64,99.9,92.35,98.74,92.14,97.57Z"/><path class="cls-76" d="M89.53,88.54a4.19,4.19,0,0,0-1-1.24c-1.89,1.42-4.33,2.16-6.5.84.81,2.94,4.4,1.1,6.59,2.22h.38A10.72,10.72,0,0,1,89.53,88.54Z"/><path class="cls-77" d="M88.58,87.3A20.83,20.83,0,0,1,86.06,83c-.78,1.87-4.69,4.24-5.22,1.23-.65-1.29-2.18-2-2.87-3.3-.63.88-.25,2.12-.84,3.06,1.14,2,3.7,2.32,5,4.19C84.25,89.46,86.69,88.72,88.58,87.3Z"/><path class="cls-78" d="M104.73,128.71c1.41-5.36-2.2-10.94-6.52-13.91,1.05,2.44,3,4.31,4.88,6.16a17.5,17.5,0,0,0,1.39,5A3.69,3.69,0,0,0,104.73,128.71Z"/><path class="cls-79" d="M83.6,77.32a44,44,0,0,0-5-6.4c-.66.84-1.36.15-2-.31l.16.57C79.26,73,81.19,75.42,83.6,77.32Z"/><path class="cls-80" d="M80.84,84.19c.53,3,4.44.64,5.22-1.23a29,29,0,0,0-1.63-2.4,6.43,6.43,0,0,1-2.43-3c-1.75-1.81-3.16-4-5.17-5.51-.9-1.12-2.13-.9-1.35.64.1.41.2.82.29,1.22,1.25,1,1.25,2.45,2.72,3.23,1.57,1,.24,2.75-.52,3.8C78.66,82.22,80.19,82.9,80.84,84.19Z"/><path class="cls-81" d="M104.73,128.71c0,.08-.07.23-.09.31-1.81,2-3.24-1.47-3.65-3.09.12-2.74-1-1.18-1.67-.65a8.71,8.71,0,0,1,.12-3c1.7-1.34-.34-2.78-1.47-3.64-.51.93-1.7.72-2.45,1.39-.7-1.82-2.4-.73-2.63.72,1.22-.12,1.54,1.72,2.72,1.33a2.59,2.59,0,0,1,1.53.13c1.07.86,1.75,1.64,0,.83.33,2-1,3.43-1.28,5.19,1.73-.76,1.68,1.58,2.86.3a2,2,0,0,1,.24.85c-.84,1-.76,4.52-2.34,3-.44,2.14-4.25,3.13-4.51.3,1.33-.9,3-.58,4.46-1.14.35-.83,1-1.81-.09-2.59-1.26.24-2.42-.33-3.66-.4a1.52,1.52,0,0,1,.06,2.38c-.88.69-3.88.5-2.64-1.23-1.44-.79-3.31-3.07-1-3.93-.52-1.89-2.72,1.1-2.75-.91.48-1.41-.71-2.28-1.73-3-1.86.27.25,2.7-1.14,3.47-.64.76-1.56-.11-2.35-.13a6.7,6.7,0,0,0,1.33,1.33c-.71.28-2.08-.25-2.11.84.14,1.62,1.4,2.83,2.52,3.92-1.33,0-1.69,1.25-2.28,2.17a4.52,4.52,0,0,1-4.48.62c.61-1.42-.93-1.69-1.75-2.41a26.82,26.82,0,0,0-2-2c.16-1.47.44-2.95.72-4.41a2.34,2.34,0,0,0,3.54.54c.28-.9-.36-1.75-.25-2.59.66-.37,1.34-.69,2-1.11a3.32,3.32,0,0,0-2-1.22c.62-1-.84-2.78.69-3.06.63-.8-1-1.25-1.32-1.85,2.16-2.23,5.41-2.2,8.12-3.31.46,1.66,2.8,1.76,2.36,3.9.84,1.54-1.6,1.16-1.43,2.72.14.86,1.33.14,2,.33-.38.4-1.59.58-.93,1.27,1.31,1.21,3.23-3,3.7-.14,1.3-1.38.7-4.61,3.18-4.34,2-.1-.93-2.45-.52-3.37-.22-.86-1.76-.71-1.33-1.86,1.72-.49,3,2.1,4.2,1.55l.24-.19c1,.16,2,1.49,2.77,2.3,1.05,2.44,3,4.31,4.88,6.16a17.5,17.5,0,0,0,1.39,5A3.69,3.69,0,0,0,104.73,128.71Zm-25.88.59c-2.55.71,2.7,3.23,2.11.69C80.89,129,79.4,130.38,78.85,129.3Z"/><path class="cls-82" d="M84.43,80.56a12.56,12.56,0,0,0-2.43-3A6.43,6.43,0,0,0,84.43,80.56Z"/><path class="cls-83" d="M86.1,91a7,7,0,0,0,2.57-.67c-2.19-1.12-5.78.72-6.59-2.22-1.25-1.87-3.81-2.18-5-4.19s-3.63-2.82-3.6-5.23c1.77-1,3.12-2.76,2.24-4.86-.09-.4-.19-.81-.29-1.22-1.29-.45-.47,1.77-1.33,2.32-.65.41,0,1,.19,1.43-.47.59-1.19,1-.86,1.87a5.4,5.4,0,0,1-2.71.08c-.87-1.74-.35-3.67-1.26-5.31a3.11,3.11,0,0,1,.49-4.8c.46-.55,1.46-1.23,1.09-2-1.93,1.9-4.73,4.69-2.3,7.31,0,3.53.69,7.65,4.28,9.39s4.77,6.43,8.49,7.45c.66,2.54,3,3.46,4.8,4.93C86.37,93.87,86.22,92.45,86.1,91Z"/><path class="cls-84" d="M91.45,102.54c.73-.13,1-.9,1.31-1.46-1-.17-3-.27-2.39-1.73.65-1.72-1.84-1.08-2.44-.15A12.4,12.4,0,0,0,88,97.71c-.66.82-2.45,1.78-1.83,2.92,1.36.37.76,2.64,2.36,2.48.86,0,.46.94.51,1.45C90.56,105,90.13,102.61,91.45,102.54Z"/><path class="cls-85" d="M93.71,104.82c0-1.27-.73-.52-1.3,0-.33-.89-.72-1.48-1.29-.4.63.86,2,.93,2.49,2.06A2.21,2.21,0,0,0,93.71,104.82Z"/><path class="cls-86" d="M97.9,141.21A12.8,12.8,0,0,0,104.64,129c-1.81,2-3.24-1.47-3.65-3.09.12-2.74-1-1.18-1.67-.65a9.18,9.18,0,0,1-.57,3.24,2,2,0,0,1,.24.85c.15,1.58-1.45,3.37.27,4.63.55.91,1.48-.47,2.25.14.89,1-.24,2.47-1.15,3l-.57.2c-.69,2.56-2.83,3.33-4.78,4.58C96,142.52,97,141.46,97.9,141.21Z"/><path class="cls-87" d="M95.44,112.5c0-1.11,0-2.28-.09-3.39q-.45.58-.87,1.2l-.12.21c.59.6.44,1.48.84,2.17Z"/><path class="cls-88" d="M99.44,122.27c1.7-1.34-.34-2.78-1.47-3.64-.51.93-1.7.72-2.45,1.39-.7-1.82-2.4-.73-2.63.72,1.22-.12,1.54,1.72,2.72,1.33a2.59,2.59,0,0,1,1.53.13A3.15,3.15,0,0,1,99.44,122.27Z"/><path class="cls-89" d="M76.75,71.18l-.16-.57c-.41-.27-.84-.54-1.26-.84C73.7,70,71.58,72,74,72.9c0,1.93-1.32.6-2.22-.05a3.57,3.57,0,0,0-.14-2.35c-2.26.7.56-2.4-1.66-2.27a3.11,3.11,0,0,0-.49,4.8c.91,1.64.39,3.57,1.26,5.31a5.4,5.4,0,0,0,2.71-.08c-.33-.88.39-1.28.86-1.87-.19-.48-.84-1-.19-1.43.86-.55,0-2.77,1.33-2.32-.78-1.54.45-1.76,1.35-.64C76.82,71.79,76.77,71.38,76.75,71.18Z"/><path class="cls-90" d="M95.2,112.69c-.4-.69-.25-1.57-.84-2.17-.55-.07-1.1-.13-1.66-.15-1.24.68-1.63-.46-2.38-.69-2.66,2.13-6.65,1.44-9.76,2.78a3,3,0,0,1-1.51.5,19.48,19.48,0,0,0-8.5,5.37c2.17.06,3.44-1.87,5.35-2.39,2.16-2.23,5.41-2.2,8.12-3.31,1,0,2.86-1.28,3.38-.08a6.85,6.85,0,0,1,3.6-1.41C92.72,110.65,94,113.24,95.2,112.69Z"/><path class="cls-91" d="M94.48,110.31a2.21,2.21,0,0,0-1.07-1.06c-.24.37-.48.74-.71,1.12.56,0,1.11.08,1.66.15Z"/><path class="cls-92" d="M78,80.89c.76-1,2.09-2.85.52-3.8C77,76.31,77,74.87,75.77,73.86c.88,2.1-.47,3.81-2.24,4.86,0,2.41,2.6,3.26,3.6,5.23C77.72,83,77.34,81.77,78,80.89Z"/><path class="cls-93" d="M99.32,125.28a8.71,8.71,0,0,1,.12-3,3.15,3.15,0,0,0-2.3-.07c1.07.86,1.75,1.64,0,.83.33,2-1,3.43-1.28,5.19,1.73-.76,1.68,1.58,2.86.3A9.18,9.18,0,0,0,99.32,125.28Z"/><path class="cls-94" d="M93.41,109.25a8.56,8.56,0,0,0-2-.37c-.25.26-1.49.38-1.06.8.75.23,1.14,1.37,2.38.69C92.93,110,93.17,109.62,93.41,109.25Z"/><path class="cls-95" d="M100.36,137.09c.91-.48,2-2,1.15-3-.77-.61-1.7.77-2.25-.14-1.72-1.26-.12-3.05-.27-4.63-.84,1-.76,4.52-2.34,3-.44,2.14-4.25,3.13-4.51.3,1.33-.9,3-.58,4.46-1.14.35-.83,1-1.81-.09-2.59-1.26.24-2.42-.33-3.66-.4a1.52,1.52,0,0,1,.06,2.38c-.88.69-3.88.5-2.64-1.23-1.44-.79-3.31-3.07-1-3.93-.52-1.89-2.72,1.1-2.75-.91.48-1.41-.71-2.28-1.73-3-1.86.27.25,2.7-1.14,3.47-.64.76-1.56-.11-2.35-.13a6.7,6.7,0,0,0,1.33,1.33c-.71.28-2.08-.25-2.11.84.14,1.62,1.4,2.83,2.52,3.92-1.33,0-1.69,1.25-2.28,2.17a4.52,4.52,0,0,1-4.48.62c-.21,1.39,1.7.88,1.89,2,.93.38,1-1.24,1.94-.73.66.31,2.09-.21,1.95.86.82.82,2.24.59,3.19,1.33a11,11,0,0,1,1.28,0c2.22.77.2-2,1.91-2.48,1.08.06,3.11.2,4.14,1.7,2-1.3,5.06-2.78,6.8-.32C100.1,135,100.25,136.11,100.36,137.09Z"/><path class="cls-96" d="M100.36,137.09c-.11-1-.26-2.1-.94-.73-1.74-2.46-4.82-1-6.8.32-1-1.5-3.06-1.64-4.14-1.7-1.71.46.31,3.25-1.91,2.48.83,1.49,3,1.5,3.6,3.17.93,1.47,3.44,1,4,2.65.89-.82,3.56-.92,3.7-2.07-.93.25-1.92,1.31-2.89.66-1.42-.19-1.21-1.53-.5-2.42,2.27,1.21,3.33-2.19,5.28-2.16Z"/><path class="cls-97" d="M99.79,137.29c-2,0-3,3.37-5.28,2.16-.71.89-.92,2.23.5,2.42C97,140.62,99.1,139.85,99.79,137.29Z"/><path class="cls-98" d="M80.56,112.46c-.32-.57-1.3,0-1.51.5A3,3,0,0,0,80.56,112.46Z"/><path class="cls-99" d="M94.2,143.28c-.59-1.68-3.1-1.18-4-2.65-.59-1.67-2.77-1.68-3.6-3.17a11,11,0,0,0-1.28,0c.24.28.48.56.73.83,1.11-.57.57,1.28,1.42,1.51s2,.78,1.87,2a17,17,0,0,1,2.65,2A4.8,4.8,0,0,0,94.2,143.28Z"/><path class="cls-100" d="M92,143.81a17,17,0,0,0-2.65-2c.16-1.19-1-1.63-1.87-2s-.31-2.08-1.42-1.51c-2,.8-3.37-1.41-5.27-1.31-1.18-.2-2.1.72-3.2,1-.38.74.66,1.33.44,2.11-.92,2.22-.63,4.65-1.41,7,1.22.09,3.69-3.25,3.71-.67C83.93,144.45,88.09,144.88,92,143.81Z"/><path class="cls-101" d="M77.22,117.79c.63-.8-1-1.25-1.32-1.85-1.91.52-3.18,2.45-5.35,2.39a15.48,15.48,0,0,0-2.48,7.32c1.18.13.4-1.55,1.37-1.71s.49-1.48,1.5-1.57c1,.67.77,1.64.3,2.56,0,1.88,1.44-1,2.05.3a2.34,2.34,0,0,0,3.54.54c.28-.9-.36-1.75-.25-2.59.66-.37,1.34-.69,2-1.11a3.32,3.32,0,0,0-2-1.22C77.15,119.8,75.69,118.07,77.22,117.79Z"/><path class="cls-102" d="M86,138.31c-.25-.27-.49-.55-.73-.83-1-.74-2.37-.51-3.19-1.33-1.55,0-3.08.68-4.63.36a2.38,2.38,0,0,1-2.53,0c-.93.42-.59,2.38-1.91,2a41.55,41.55,0,0,1,2.58,3.75c1.62.65.67,2.8.46,4.09-.08.64-.29,1.15-1,.8a11.35,11.35,0,0,0-.68,3.84c.58-.9.82-2,1.47-2.83a17.11,17.11,0,0,0,1.34,1.08c1.07-.92,2-2,3.1-2.88,0-2.58-2.49.76-3.71.67.78-2.3.49-4.73,1.41-7,.22-.78-.82-1.37-.44-2.11,1.1-.24,2-1.16,3.2-1C82.65,136.9,84.07,139.11,86,138.31Z"/><path class="cls-103" d="M81,130c-.07-1-1.56.39-2.11-.69C76.3,130,81.55,132.53,81,130Z"/><path class="cls-104" d="M82.1,136.15c.14-1.07-1.29-.55-1.95-.86-.93-.51-1,1.11-1.94.73-.19-1.1-2.1-.59-1.89-2,.61-1.42-.93-1.69-1.75-2.41-1.14,1-.77-1-1.73-.43-2.07,1.3-3.06-2.23-2.6-3.63.86-.33-.44-2.8-1-1.68-.86.34,0,1.62-1,1.52-.07,3.27,1.63,7.06,3.9,9.73,2.67-.53.14-2.48-.68-3.76a11.18,11.18,0,0,1,3.06-.08c1.27.79,1.87,2.28,3,3.21C79,136.83,80.55,136.13,82.1,136.15Z"/><path class="cls-105" d="M73.29,125.23c-.61-1.31-2.09,1.58-2.05-.3.47-.92.7-1.89-.3-2.56-1,.09-.56,1.46-1.5,1.57s-.19,1.84-1.37,1.71c-.43.29.13,1.24.1,1.76,1,.1.19-1.18,1-1.52.58-1.12,1.88,1.35,1,1.68-.46,1.4.53,4.93,2.6,3.63,1-.6.59,1.46,1.73.43a26.82,26.82,0,0,0-2-2C72.73,128.17,73,126.69,73.29,125.23Z"/><path class="cls-106" d="M77.47,136.51c-1.15-.93-1.75-2.42-3-3.21a11.18,11.18,0,0,0-3.06.08c.82,1.28,3.35,3.23.68,3.76a16.58,16.58,0,0,0,1,1.36c1.32.38,1-1.58,1.91-2A2.38,2.38,0,0,0,77.47,136.51Z"/><path class="cls-107" d="M76.07,146.34c.21-1.29,1.16-3.44-.46-4.09a18.31,18.31,0,0,1-.55,4.89C75.78,147.49,76,147,76.07,146.34Z"/><path class="cls-108" d="M77.19,149.23a17.11,17.11,0,0,1-1.34-1.08c-.65.85-.89,1.93-1.47,2.83-1.71,4.62-6.85,8-6.55,13.25-1.45,4.82.57,10.35-2.72,14.65-2.21,3.61-7.73,4.72-9,8.92,5.47-4,12.48-8.23,12.4-15.89-1.23-3.36.47-6.58.92-9.85a18.1,18.1,0,0,1,3.5-5.68C74.83,154.33,75.09,151.08,77.19,149.23Z"/></svg>